ply
format ascii 1.0
comment VCGLIB generated
element vertex 168
property float x
property float y
property float z
property float nx
property float ny
property float nz
element face 172
property list uchar int vertex_indices
end_header
-81.0824 5.1684 58.3497 -0.8164966 -0.4082482 0.4082484 
-81.0824 140.5414 58.34966 -0.3333333 0.6666668 0.6666665 
-81.0824 5.168384 -58.36661 -0.3333334 -0.6666668 -0.6666666 
-81.0824 140.5414 -58.36662 -0.8164966 0.4082482 -0.4082484 
80.90257 5.1684 58.3497 0.3333333 -0.6666665 0.6666668 
80.90257 140.5414 58.34966 0.8164966 0.4082484 0.4082482 
80.90257 5.168384 -58.36661 0.8164966 -0.4082484 -0.4082482 
80.90257 140.5414 -58.36662 0.3333333 0.6666666 -0.6666668 
76.4984 18.89635 62.20213 -0.251808 -0.3695839 0.8944275 
83.97661 26.09725 62.20213 0.5036164 0.7391689 0.4472134 
76.4984 18.89635 52.0185 -0.5630602 -0.8264159 0 
83.97661 26.09725 52.0185 0.5630603 0.8264159 0 
-84.26225 128.4271 62.20211 -0.5036164 -0.7391688 0.4472137 
-76.78403 135.628 62.2021 0.2518084 0.3695849 0.8944269 
-84.26225 128.4271 52.0185 -0.5630602 -0.8264159 0 
-76.78403 135.628 52.01848 0.5630603 0.8264159 0 
-76.78403 15.75981 62.66059 0.2518083 -0.3695844 0.8944272 
-84.26225 22.96072 62.66059 -0.5036164 0.7391689 0.4472136 
-76.78403 15.75981 52.47696 0.5630602 -0.8264159 0 
-84.26225 22.96072 52.47696 -0.5630602 0.8264159 0 
83.97661 125.2905 62.66058 0.5036164 -0.7391688 0.4472136 
76.4984 132.4914 62.66058 -0.2518081 0.3695845 0.8944272 
83.97661 125.2905 52.47694 0.5630602 -0.8264159 0 
76.4984 132.4914 52.47694 -0.5630602 0.8264159 0 
77.43037 144.0901 52.99234 0 0.8944272 -0.4472136 
77.43037 133.376 52.99234 0 -0.4472136 -0.8944272 
77.43037 144.0901 63.70651 0 0.4472136 0.8944272 
77.43037 133.376 63.70651 0 -0.8944272 0.4472136 
-77.61019 144.0901 52.99234 0 0.4472136 -0.8944272 
-77.61019 133.376 52.99234 0 -0.8944272 -0.4472136 
-77.61019 144.0901 63.70651 0 0.8944272 0.4472136 
-77.61019 133.376 63.70651 0 -0.4472136 0.8944272 
77.43037 4.828384 52.99235 0 -0.4472136 -0.8944272 
77.43037 15.54254 52.99235 0 0.8944272 -0.4472136 
77.43037 4.828384 63.70653 0 -0.8944272 0.4472136 
77.43037 15.54254 63.70653 0 0.4472136 0.8944272 
-77.61019 4.828384 52.99235 0 -0.8944272 -0.4472136 
-77.61019 15.54254 52.99235 0 0.4472136 -0.8944272 
-77.61019 4.828384 63.70653 0 -0.4472136 0.8944272 
-77.61019 15.54254 63.70653 0 0.8944272 0.4472136 
82.04347 14.76307 -62.21904 -0.2375065 -0.3502259 -0.9060532 
86.83025 24.53981 -61.50742 0.5047669 0.7420262 -0.4411434 
82.04347 14.76307 -52.03541 -0.564264 -0.8255944 0 
86.83025 24.53981 -51.32379 0.5617235 0.827325 0 
-84.26225 128.427 -62.21907 -0.5024055 -0.736448 -0.4530267 
-76.78403 135.6279 -62.21906 0.2657205 0.388539 -0.8822868 
-84.26225 128.427 -52.03544 -0.564264 -0.8255944 0 
-76.78403 135.6279 -52.03544 0.5617235 0.827325 0 
-76.78403 15.75979 -62.67751 0.2518088 -0.3695854 -0.8944266 
-84.26225 22.9607 -62.67752 -0.5036163 0.7391687 -0.4472139 
-76.78403 15.75979 -52.49389 0.5630602 -0.8264159 0 
-84.26225 22.9607 -52.49389 -0.5630602 0.8264159 0 
83.97661 125.2905 -62.67752 0.5036165 -0.739169 -0.4472133 
76.4984 132.4914 -62.67754 -0.2518076 0.3695835 -0.8944278 
83.97661 125.2905 -52.4939 0.5630602 -0.8264159 0 
76.4984 132.4914 -52.4939 -0.5630602 0.8264159 0 
77.43037 144.0901 -53.0093 0 0.8944272 0.4472136 
77.43037 133.376 -53.0093 0 -0.4472136 0.8944272 
77.43037 144.0901 -63.72347 0 0.4472136 -0.8944272 
77.43037 133.376 -63.72347 0 -0.8944272 -0.4472136 
-77.61019 144.0901 -53.0093 0 0.4472136 0.8944272 
-77.61019 133.376 -53.0093 0 -0.8944272 0.4472136 
-77.61019 144.0901 -63.72347 0 0.8944272 -0.4472136 
-77.61019 133.376 -63.72347 0 -0.4472136 -0.8944272 
77.43037 4.828368 -53.00928 0 -0.4472136 0.8944272 
77.43037 15.54253 -53.00928 0 0.8944272 0.4472136 
77.43037 4.828368 -63.72344 0 -0.8944272 -0.4472136 
77.43037 15.54253 -63.72344 0 0.4472136 -0.8944272 
-77.61019 4.828368 -53.00928 0 -0.8944272 0.4472136 
-77.61019 15.54253 -53.00928 0 0.4472136 0.8944272 
-77.61019 4.828368 -63.72344 0 -0.4472136 -0.8944272 
-77.61019 15.54253 -63.72344 0 0.8944272 -0.4472136 
-84.93483 18.89634 51.15645 -0.8944272 -0.3162279 -0.3162277 
-84.93483 26.09725 58.35736 -0.4472136 0.6324556 0.6324554 
-74.75121 18.89634 51.15645 0 -0.7071069 -0.7071066 
-74.75121 26.09725 58.35736 0 0.7071069 0.7071066 
-84.93483 128.427 -58.37431 -0.4472136 -0.6324556 -0.6324554 
-84.93483 135.6279 -51.17339 -0.8944272 0.3162279 0.3162277 
-74.75121 128.427 -58.37431 0 -0.7071069 -0.7071066 
-74.75121 135.6279 -51.17339 0 0.7071069 0.7071066 
-85.3933 15.75979 -51.17337 -0.8944272 -0.3162278 0.3162278 
-85.3933 22.9607 -58.37429 -0.4472136 0.6324555 -0.6324556 
-75.20968 15.75979 -51.17337 0 -0.7071068 0.7071068 
-75.20968 22.9607 -58.37429 0 0.7071068 -0.7071068 
-85.3933 125.2905 58.35735 -0.4472136 -0.6324555 0.6324556 
-85.3933 132.4914 51.15643 -0.8944272 0.3162278 -0.3162278 
-75.20968 125.2905 58.35735 0 -0.7071068 0.7071068 
-75.20968 132.4914 51.15643 0 0.7071068 -0.7071068 
-87.55072 140.1968 53.06258 -0.8944272 -1.038058e-07 -0.4472136 
-87.55072 140.1968 64.23931 -0.4472136 2.076115e-07 0.8944272 
-76.37399 140.1968 53.06258 0.4472136 -2.076115e-07 -0.8944272 
-76.37399 140.1968 64.23931 0.8944272 1.038058e-07 0.4472136 
-89.49236 146.263 64.90158 -0.6666667 0.3333334 0.6666666 
-89.49236 131.2031 64.90158 -0.4082483 -0.8164966 0.4082485 
-74.43235 146.263 64.90158 0.4082484 0.8164967 0.4082481 
-74.43235 131.2031 64.90158 0.6666667 -0.3333333 0.6666667 
-87.55072 140.1968 -53.07954 -0.4472136 1.038058e-07 0.8944272 
-87.55072 140.1968 -64.25627 -0.8944272 -5.190288e-08 -0.4472136 
-76.37399 140.1968 -53.07954 0.8944272 5.190288e-08 0.4472136 
-76.37399 140.1968 -64.25627 0.4472136 -1.038058e-07 -0.8944272 
-89.49236 146.263 -64.91854 -0.3333333 0.6666666 -0.6666668 
-89.49236 131.203 -64.91854 -0.8164966 -0.4082483 -0.4082482 
-74.43235 146.263 -64.91854 0.8164966 0.4082483 -0.4082484 
-74.43235 131.203 -64.91854 0.3333334 -0.6666667 -0.6666666 
-87.55072 8.721696 53.06261 -0.4472136 -2.076115e-07 -0.8944272 
-87.55072 8.721696 64.23934 -0.8944272 1.038058e-07 0.4472136 
-76.37399 8.721696 53.06261 0.8944272 -1.038058e-07 -0.4472136 
-76.37399 8.721696 64.23934 0.4472136 2.076115e-07 0.8944272 
-89.49236 2.655488 64.90162 -0.3333333 -0.6666667 0.6666667 
-89.49236 17.71544 64.90162 -0.8164966 0.4082483 0.4082482 
-74.43235 2.655488 64.90162 0.8164966 -0.4082483 0.4082484 
-74.43235 17.71544 64.90162 0.3333334 0.6666667 0.6666666 
-87.55072 8.721664 -53.07952 -0.8944272 5.190288e-08 0.4472136 
-87.55072 8.721664 -64.25626 -0.4472136 -1.038058e-07 -0.8944272 
-76.37399 8.721664 -53.07952 0.4472136 1.038058e-07 0.8944272 
-76.37399 8.721664 -64.25626 0.8944272 -5.190288e-08 -0.4472136 
-89.49236 2.655472 -64.91851 -0.6666667 -0.3333333 -0.6666666 
-89.49236 17.71542 -64.91851 -0.4082483 0.8164966 -0.4082484 
-74.43235 2.655472 -64.91851 0.4082483 -0.8164966 -0.4082482 
-74.43235 17.71542 -64.91851 0.6666667 0.3333333 -0.6666667 
84.755 18.89634 51.15645 0.8944272 -0.3162279 -0.3162277 
84.755 26.09725 58.35736 0.4472136 0.6324556 0.6324554 
74.57139 18.89634 51.15645 0 -0.7071069 -0.7071066 
74.57139 26.09725 58.35736 0 0.7071069 0.7071066 
84.755 128.427 -58.37431 0.4472136 -0.6324556 -0.6324554 
84.755 135.6279 -51.17339 0.8944272 0.3162279 0.3162277 
74.57139 128.427 -58.37431 0 -0.7071069 -0.7071066 
74.57139 135.6279 -51.17339 0 0.7071069 0.7071066 
85.21347 15.75979 -51.17337 0.8944272 -0.3162278 0.3162278 
85.21347 22.9607 -58.37429 0.4472136 0.6324555 -0.6324556 
75.02985 15.75979 -51.17337 0 -0.7071068 0.7071068 
75.02985 22.9607 -58.37429 0 0.7071068 -0.7071068 
85.21347 125.2905 58.35735 0.4472136 -0.6324555 0.6324556 
85.21347 132.4914 51.15643 0.8944272 0.3162278 -0.3162278 
75.02985 125.2905 58.35735 0 -0.7071068 0.7071068 
75.02985 132.4914 51.15643 0 0.7071068 -0.7071068 
87.3709 140.1968 53.06258 0.8944272 -1.038058e-07 -0.4472136 
87.3709 140.1968 64.23931 0.4472136 2.076115e-07 0.8944272 
76.19416 140.1968 53.06258 -0.4472136 -2.076115e-07 -0.8944272 
76.19416 140.1968 64.23931 -0.8944272 1.038058e-07 0.4472136 
89.31253 146.263 64.90158 0.6666667 0.3333334 0.6666666 
89.31253 131.2031 64.90158 0.4082483 -0.8164966 0.4082485 
74.25253 146.263 64.90158 -0.4082484 0.8164967 0.4082481 
74.25253 131.2031 64.90158 -0.6666667 -0.3333333 0.6666667 
87.3709 140.1968 -53.07954 0.4472136 1.038058e-07 0.8944272 
87.3709 140.1968 -64.25627 0.8944272 -5.190288e-08 -0.4472136 
76.19416 140.1968 -53.07954 -0.8944272 5.190288e-08 0.4472136 
76.19416 140.1968 -64.25627 -0.4472136 -1.038058e-07 -0.8944272 
89.31253 146.263 -64.91854 0.3333333 0.6666666 -0.6666668 
89.31253 131.203 -64.91854 0.8164966 -0.4082483 -0.4082482 
74.25253 146.263 -64.91854 -0.8164966 0.4082483 -0.4082484 
74.25253 131.203 -64.91854 -0.3333334 -0.6666667 -0.6666666 
87.3709 8.721696 53.06261 0.4472136 -2.076115e-07 -0.8944272 
87.3709 8.721696 64.23934 0.8944272 1.038058e-07 0.4472136 
76.19416 8.721696 53.06261 -0.8944272 -1.038058e-07 -0.4472136 
76.19416 8.721696 64.23934 -0.4472136 2.076115e-07 0.8944272 
89.31253 2.655488 64.90162 0.3333333 -0.6666667 0.6666667 
89.31253 17.71544 64.90162 0.8164966 0.4082483 0.4082482 
74.25253 2.655488 64.90162 -0.8164966 -0.4082483 0.4082484 
74.25253 17.71544 64.90162 -0.3333334 0.6666667 0.6666666 
87.3709 8.721664 -53.07952 0.8944272 5.190288e-08 0.4472136 
87.3709 8.721664 -64.25626 0.4472136 -1.038058e-07 -0.8944272 
76.19416 8.721664 -53.07952 -0.4472136 1.038058e-07 0.8944272 
76.19416 8.721664 -64.25626 -0.8944272 -5.190288e-08 -0.4472136 
89.31253 2.655472 -64.91851 0.6666667 -0.3333333 -0.6666666 
89.31253 17.71542 -64.91851 0.4082483 0.8164966 -0.4082484 
74.25253 2.655472 -64.91851 -0.4082483 -0.8164966 -0.4082482 
74.25253 17.71542 -64.91851 -0.6666667 0.3333333 -0.6666667 
3 0 1 3 
3 0 3 2 
3 2 3 7 
3 2 7 6 
3 6 7 5 
3 6 5 4 
3 4 5 1 
3 4 1 0 
3 2 6 4 
3 2 4 0 
3 7 3 1 
3 7 1 5 
3 8 9 13 
3 8 13 12 
3 9 11 15 
3 9 15 13 
3 10 8 12 
3 10 12 14 
3 16 20 21 
3 16 21 17 
3 17 21 23 
3 17 23 19 
3 18 22 20 
3 18 20 16 
3 25 29 28 
3 25 28 24 
3 27 31 29 
3 27 29 25 
3 26 30 31 
3 26 31 27 
3 24 28 30 
3 24 30 26 
3 32 36 37 
3 32 37 33 
3 33 37 39 
3 33 39 35 
3 35 39 38 
3 35 38 34 
3 34 38 36 
3 34 36 32 
3 40 44 45 
3 40 45 41 
3 41 45 47 
3 41 47 43 
3 42 46 44 
3 42 44 40 
3 48 49 53 
3 48 53 52 
3 49 51 55 
3 49 55 53 
3 50 48 52 
3 50 52 54 
3 57 56 60 
3 57 60 61 
3 59 57 61 
3 59 61 63 
3 58 59 63 
3 58 63 62 
3 56 58 62 
3 56 62 60 
3 64 65 69 
3 64 69 68 
3 65 67 71 
3 65 71 69 
3 67 66 70 
3 67 70 71 
3 66 64 68 
3 66 68 70 
3 72 73 77 
3 72 77 76 
3 73 75 79 
3 73 79 77 
3 74 72 76 
3 74 76 78 
3 80 84 85 
3 80 85 81 
3 81 85 87 
3 81 87 83 
3 82 86 84 
3 82 84 80 
3 89 105 107 
3 89 107 91 
3 91 107 106 
3 91 106 90 
3 90 106 104 
3 90 104 88 
3 92 100 101 
3 92 101 93 
3 93 101 103 
3 93 103 95 
3 95 103 102 
3 95 102 94 
3 94 102 100 
3 94 100 92 
3 97 113 112 
3 97 112 96 
3 95 94 92 
3 95 92 93 
3 99 115 113 
3 99 113 97 
3 98 114 115 
3 98 115 99 
3 96 112 114 
3 96 114 98 
3 109 117 116 
3 109 116 108 
3 103 101 100 
3 103 100 102 
3 111 119 117 
3 111 117 109 
3 110 118 119 
3 110 119 111 
3 108 116 118 
3 108 118 110 
3 111 109 108 
3 111 108 110 
3 88 104 105 
3 88 105 89 
3 119 118 116 
3 119 116 117 
3 120 124 125 
3 120 125 121 
3 121 125 127 
3 121 127 123 
3 122 126 124 
3 122 124 120 
3 128 129 133 
3 128 133 132 
3 129 131 135 
3 129 135 133 
3 130 128 132 
3 130 132 134 
3 137 139 155 
3 137 155 153 
3 139 138 154 
3 139 154 155 
3 138 136 152 
3 138 152 154 
3 140 141 149 
3 140 149 148 
3 141 143 151 
3 141 151 149 
3 143 142 150 
3 143 150 151 
3 142 140 148 
3 142 148 150 
3 145 144 160 
3 145 160 161 
3 143 141 140 
3 143 140 142 
3 147 145 161 
3 147 161 163 
3 146 147 163 
3 146 163 162 
3 144 146 162 
3 144 162 160 
3 157 156 164 
3 157 164 165 
3 151 150 148 
3 151 148 149 
3 159 157 165 
3 159 165 167 
3 158 159 167 
3 158 167 166 
3 156 158 166 
3 156 166 164 
3 159 158 156 
3 159 156 157 
3 136 137 153 
3 136 153 152 
3 167 165 164 
3 167 164 166 
