ply
format ascii 1.0
comment VCGLIB generated
element vertex 168
property float x
property float y
property float z
property float nx
property float ny
property float nz
element face 172
property list uchar int vertex_indices
end_header
-58.35814 4.05488 58.35816 -0.8164966 -0.4082482 0.4082484 
-58.35814 139.4279 58.35813 -0.3333333 0.6666669 0.6666666 
-58.35814 4.054864 -58.35813 -0.3333333 -0.6666668 -0.6666666 
-58.35814 139.4278 -58.35816 -0.8164966 0.4082482 -0.4082484 
58.35814 4.05488 58.35816 0.3333333 -0.6666665 0.6666668 
58.35814 139.4279 58.35813 0.8164966 0.4082484 0.4082482 
58.35814 4.054864 -58.35813 0.8164966 -0.4082484 -0.4082482 
58.35814 139.4278 -58.35816 0.3333333 0.6666665 -0.6666668 
54.82877 13.71563 62.21059 -0.3162279 -0.3162277 0.8944272 
62.54533 21.43219 62.21059 0.6324556 0.6324556 0.4472136 
54.82877 13.71563 52.02696 -0.7071068 -0.7071068 0 
62.54533 21.43219 52.02696 0.7071068 0.7071068 0 
-62.54533 131.0897 62.21058 -0.6324556 -0.6324555 0.4472136 
-54.82877 138.8063 62.21058 0.3162277 0.3162278 0.8944272 
-62.54533 131.0897 52.02696 -0.7071068 -0.7071068 0 
-54.82877 138.8063 52.02694 0.7071068 0.7071068 0 
-54.82877 10.3545 62.66906 0.3162278 -0.3162277 0.8944272 
-62.54533 18.07106 62.66906 -0.6324555 0.6324556 0.4472136 
-54.82877 10.3545 52.48544 0.7071068 -0.7071068 0 
-62.54533 18.07106 52.48544 -0.7071067 0.7071068 0 
62.54533 127.7286 62.66904 0.6324556 -0.6324556 0.4472136 
54.82877 135.4451 62.66904 -0.3162277 0.3162279 0.8944272 
62.54533 127.7286 52.48541 0.7071068 -0.7071068 0 
54.82877 135.4451 52.48541 -0.7071067 0.7071068 0 
54.88594 142.9766 53.0008 0 0.8944272 -0.4472136 
54.88594 132.2625 53.0008 0 -0.4472136 -0.8944272 
54.88594 142.9766 63.71498 0 0.4472136 0.8944272 
54.88594 132.2625 63.71498 0 -0.8944272 0.4472136 
-54.88595 142.9766 53.0008 0 0.4472136 -0.8944272 
-54.88595 132.2625 53.0008 0 -0.8944272 -0.4472136 
-54.88595 142.9766 63.71498 0 0.8944272 0.4472136 
-54.88595 132.2625 63.71498 0 -0.4472136 0.8944272 
54.88594 3.71488 53.00083 0 -0.4472146 -0.8944267 
54.88594 14.42904 53.00082 0 0.8944271 -0.4472139 
54.88594 3.71488 63.71499 0 -0.8944272 0.4472136 
54.88594 14.42904 63.71499 0 0.4472136 0.8944272 
-54.88595 3.71488 53.00083 0 -0.8944273 -0.4472134 
-54.88595 14.42904 53.00082 0 0.4472126 -0.8944278 
-54.88595 3.71488 63.71499 0 -0.4472136 0.8944272 
-54.88595 14.42904 63.71499 0 0.8944272 0.4472136 
54.82877 13.71562 -62.21058 -0.3162273 -0.3162275 -0.8944275 
62.54533 21.43218 -62.21058 0.6324556 0.6324556 -0.4472134 
54.82877 13.71562 -52.02694 -0.7071068 -0.7071068 0 
62.54533 21.43218 -52.02694 0.7071067 0.7071068 0 
-62.54533 131.0897 -62.21061 -0.6324555 -0.6324555 -0.4472137 
-54.82877 138.8063 -62.21059 0.3162283 0.3162281 -0.8944269 
-62.54533 131.0897 -52.02698 -0.7071068 -0.7071068 0 
-54.82877 138.8063 -52.02698 0.7071067 0.7071068 0 
-54.82877 10.35448 -62.66904 0.3162281 -0.3162282 -0.8944269 
-62.54533 18.07104 -62.66906 -0.6324555 0.6324555 -0.4472137 
-54.82877 10.35448 -52.48542 0.7071068 -0.7071068 0 
-62.54533 18.07104 -52.48542 -0.7071067 0.7071069 0 
62.54533 127.7286 -62.66906 0.6324556 -0.6324556 -0.4472134 
54.82877 135.4451 -62.66906 -0.3162274 0.3162274 -0.8944275 
62.54533 127.7286 -52.48542 0.7071068 -0.7071068 0 
54.82877 135.4451 -52.48542 -0.7071067 0.7071069 0 
54.88594 142.9766 -53.00083 0 0.8944272 0.4472136 
54.88594 132.2624 -53.00083 0 -0.4472136 0.8944272 
54.88594 142.9766 -63.71499 0 0.4472136 -0.8944272 
54.88594 132.2624 -63.71499 0 -0.8944272 -0.4472136 
-54.88595 142.9766 -53.00083 0 0.4472136 0.8944272 
-54.88595 132.2624 -53.00083 0 -0.8944272 0.4472136 
-54.88595 142.9766 -63.71499 0 0.8944272 -0.4472136 
-54.88595 132.2624 -63.71499 0 -0.4472136 -0.8944272 
54.88594 3.714864 -53.0008 0 -0.4472126 0.8944278 
54.88594 14.42901 -53.00082 0 0.8944273 0.4472134 
54.88594 3.714864 -63.71498 0 -0.8944272 -0.4472136 
54.88594 14.42901 -63.71498 0 0.4472136 -0.8944272 
-54.88595 3.714864 -53.0008 0 -0.8944271 0.4472139 
-54.88595 14.42901 -53.00082 0 0.4472146 0.8944267 
-54.88595 3.714864 -63.71498 0 -0.4472136 -0.8944272 
-54.88595 14.42901 -63.71498 0 0.8944272 -0.4472136 
-62.21059 14.78611 53.86445 -0.8944272 -0.3162279 -0.3162277 
-62.21059 22.36696 61.44528 -0.4472136 0.6324556 0.6324555 
-52.02696 14.78611 53.86445 0 -0.7071069 -0.7071066 
-52.02696 22.36696 61.44528 0 0.7071069 0.7071067 
-62.21059 130.0958 -61.4453 -0.4472136 -0.6324556 -0.6324555 
-62.21059 137.6767 -53.86445 -0.8944272 0.3162279 0.3162278 
-52.02696 130.0958 -61.4453 0 -0.7071069 -0.7071066 
-52.02696 137.6767 -53.86445 0 0.7071069 0.7071067 
-62.66906 11.48408 -53.86443 -0.8944272 -0.3162277 0.3162279 
-62.66906 19.06491 -61.44526 -0.4472136 0.6324555 -0.6324556 
-52.48542 11.48408 -53.86443 0 -0.7071066 0.7071069 
-52.48542 19.06491 -61.44526 0 0.7071066 -0.7071069 
-62.66906 126.7938 61.44526 -0.4472136 -0.6324555 0.6324556 
-62.66906 134.3746 53.86443 -0.8944272 0.3162277 -0.3162279 
-52.48542 126.7938 61.44526 0 -0.7071066 0.7071069 
-52.48542 134.3746 53.86443 0 0.7071066 -0.7071069 
-64.82648 139.0833 53.07106 -0.8944272 -5.190287e-08 -0.4472136 
-64.82648 139.0833 64.2478 -0.4472136 1.038057e-07 0.8944272 
-53.64973 139.0833 53.07106 0.4472136 -1.038057e-07 -0.8944272 
-53.64973 139.0833 64.2478 0.8944272 5.190287e-08 0.4472136 
-66.76811 145.1495 64.91006 -0.6666667 0.3333334 0.6666666 
-66.76811 130.0896 64.91006 -0.4082483 -0.8164966 0.4082485 
-51.70811 145.1495 64.91006 0.4082483 0.8164967 0.4082482 
-51.70811 130.0896 64.91006 0.6666667 -0.3333333 0.6666667 
-64.82648 139.0833 -53.07107 -0.4472136 1.038058e-07 0.8944272 
-64.82648 139.0833 -64.24781 -0.8944272 -1.297572e-07 -0.4472136 
-53.64973 139.0833 -53.07107 0.8944272 5.190288e-08 0.4472136 
-53.64973 139.0833 -64.24781 0.4472136 -2.595144e-07 -0.8944272 
-66.76811 145.1495 -64.91008 -0.3333333 0.6666667 -0.6666667 
-66.76811 130.0896 -64.91008 -0.8164967 -0.4082483 -0.4082482 
-51.70811 145.1495 -64.91008 0.8164966 0.4082483 -0.4082484 
-51.70811 130.0896 -64.91008 0.3333334 -0.6666667 -0.6666666 
-64.82648 7.608176 53.07107 -0.4472136 -1.038057e-07 -0.8944272 
-64.82648 7.608176 64.24781 -0.8944272 5.190287e-08 0.4472136 
-53.64973 7.608176 53.07107 0.8944272 -5.190287e-08 -0.4472136 
-53.64973 7.608176 64.24781 0.4472136 1.038057e-07 0.8944272 
-66.76811 1.541984 64.91008 -0.3333333 -0.6666667 0.6666667 
-66.76811 16.60194 64.91008 -0.8164967 0.4082483 0.4082482 
-51.70811 1.541984 64.91008 0.8164966 -0.4082483 0.4082484 
-51.70811 16.60194 64.91008 0.3333334 0.6666667 0.6666666 
-64.82648 7.60816 -53.07106 -0.8944272 5.190288e-08 0.4472136 
-64.82648 7.60816 -64.24777 -0.4472136 -2.595144e-07 -0.8944272 
-53.64973 7.60816 -53.07106 0.4472136 1.038058e-07 0.8944272 
-53.64973 7.60816 -64.24777 0.8944272 -1.297572e-07 -0.4472136 
-66.76811 1.541952 -64.91005 -0.6666667 -0.3333334 -0.6666666 
-66.76811 16.60192 -64.91005 -0.4082483 0.8164966 -0.4082484 
-51.70811 1.541952 -64.91005 0.4082483 -0.8164967 -0.4082482 
-51.70811 16.60192 -64.91005 0.6666667 0.3333333 -0.6666667 
62.21058 14.78611 53.86445 0.8944272 -0.3162279 -0.3162277 
62.21058 22.36696 61.44528 0.4472136 0.6324556 0.6324555 
52.02696 14.78611 53.86445 0 -0.7071069 -0.7071066 
52.02696 22.36696 61.44528 0 0.7071069 0.7071066 
62.21058 130.0958 -61.4453 0.4472136 -0.6324556 -0.6324555 
62.21058 137.6767 -53.86445 0.8944272 0.3162279 0.3162277 
52.02696 130.0958 -61.4453 0 -0.7071069 -0.7071066 
52.02696 137.6767 -53.86445 0 0.7071069 0.7071066 
62.66904 11.48408 -53.86443 0.8944272 -0.3162277 0.3162279 
62.66904 19.06491 -61.44526 0.4472136 0.6324555 -0.6324556 
52.48542 11.48408 -53.86443 0 -0.7071066 0.7071069 
52.48542 19.06491 -61.44526 0 0.7071066 -0.7071069 
62.66904 126.7938 61.44526 0.4472136 -0.6324554 0.6324557 
62.66904 134.3746 53.86443 0.8944272 0.3162277 -0.3162279 
52.48542 126.7938 61.44526 0 -0.7071066 0.7071069 
52.48542 134.3746 53.86443 0 0.7071066 -0.7071069 
64.82646 139.0833 53.07106 0.8944272 -5.190287e-08 -0.4472136 
64.82646 139.0833 64.2478 0.4472136 1.038057e-07 0.8944272 
53.64973 139.0833 53.07106 -0.4472136 -1.038057e-07 -0.8944272 
53.64973 139.0833 64.2478 -0.8944272 5.190287e-08 0.4472136 
66.7681 145.1495 64.91006 0.6666667 0.3333334 0.6666666 
66.7681 130.0896 64.91006 0.4082483 -0.8164966 0.4082485 
51.7081 145.1495 64.91006 -0.4082483 0.8164967 0.4082482 
51.7081 130.0896 64.91006 -0.6666667 -0.3333333 0.6666667 
64.82646 139.0833 -53.07107 0.4472136 1.038058e-07 0.8944272 
64.82646 139.0833 -64.24781 0.8944272 -1.297572e-07 -0.4472136 
53.64973 139.0833 -53.07107 -0.8944272 5.190288e-08 0.4472136 
53.64973 139.0833 -64.24781 -0.4472136 -2.595144e-07 -0.8944272 
66.7681 145.1495 -64.91008 0.3333333 0.6666667 -0.6666667 
66.7681 130.0896 -64.91008 0.8164967 -0.4082483 -0.4082482 
51.7081 145.1495 -64.91008 -0.8164966 0.4082483 -0.4082484 
51.7081 130.0896 -64.91008 -0.3333334 -0.6666667 -0.6666666 
64.82646 7.608176 53.07107 0.4472136 -1.038057e-07 -0.8944272 
64.82646 7.608176 64.24781 0.8944272 5.190287e-08 0.4472136 
53.64973 7.608176 53.07107 -0.8944272 -5.190287e-08 -0.4472136 
53.64973 7.608176 64.24781 -0.4472136 1.038057e-07 0.8944272 
66.7681 1.541984 64.91008 0.3333333 -0.6666667 0.6666667 
66.7681 16.60194 64.91008 0.8164967 0.4082483 0.4082482 
51.7081 1.541984 64.91008 -0.8164966 -0.4082483 0.4082484 
51.7081 16.60194 64.91008 -0.3333334 0.6666667 0.6666666 
64.82646 7.60816 -53.07106 0.8944272 5.190288e-08 0.4472136 
64.82646 7.60816 -64.24777 0.4472136 -2.595144e-07 -0.8944272 
53.64973 7.60816 -53.07106 -0.4472136 1.038058e-07 0.8944272 
53.64973 7.60816 -64.24777 -0.8944272 -1.297572e-07 -0.4472136 
66.7681 1.541952 -64.91005 0.6666667 -0.3333334 -0.6666666 
66.7681 16.60192 -64.91005 0.4082483 0.8164966 -0.4082484 
51.7081 1.541952 -64.91005 -0.4082483 -0.8164967 -0.4082482 
51.7081 16.60192 -64.91005 -0.6666667 0.3333333 -0.6666667 
3 0 1 3 
3 0 3 2 
3 2 3 7 
3 2 7 6 
3 6 7 5 
3 6 5 4 
3 4 5 1 
3 4 1 0 
3 2 6 4 
3 2 4 0 
3 7 3 1 
3 7 1 5 
3 8 9 13 
3 8 13 12 
3 9 11 15 
3 9 15 13 
3 10 8 12 
3 10 12 14 
3 16 20 21 
3 16 21 17 
3 17 21 23 
3 17 23 19 
3 18 22 20 
3 18 20 16 
3 25 29 28 
3 25 28 24 
3 27 31 29 
3 27 29 25 
3 26 30 31 
3 26 31 27 
3 24 28 30 
3 24 30 26 
3 32 36 37 
3 32 37 33 
3 33 37 39 
3 33 39 35 
3 35 39 38 
3 35 38 34 
3 34 38 36 
3 34 36 32 
3 40 44 45 
3 40 45 41 
3 41 45 47 
3 41 47 43 
3 42 46 44 
3 42 44 40 
3 48 49 53 
3 48 53 52 
3 49 51 55 
3 49 55 53 
3 50 48 52 
3 50 52 54 
3 57 56 60 
3 57 60 61 
3 59 57 61 
3 59 61 63 
3 58 59 63 
3 58 63 62 
3 56 58 62 
3 56 62 60 
3 64 65 69 
3 64 69 68 
3 65 67 71 
3 65 71 69 
3 67 66 70 
3 67 70 71 
3 66 64 68 
3 66 68 70 
3 72 73 77 
3 72 77 76 
3 73 75 79 
3 73 79 77 
3 74 72 76 
3 74 76 78 
3 80 84 85 
3 80 85 81 
3 81 85 87 
3 81 87 83 
3 82 86 84 
3 82 84 80 
3 89 105 107 
3 89 107 91 
3 91 107 106 
3 91 106 90 
3 90 106 104 
3 90 104 88 
3 92 100 101 
3 92 101 93 
3 93 101 103 
3 93 103 95 
3 95 103 102 
3 95 102 94 
3 94 102 100 
3 94 100 92 
3 97 113 112 
3 97 112 96 
3 95 94 92 
3 95 92 93 
3 99 115 113 
3 99 113 97 
3 98 114 115 
3 98 115 99 
3 96 112 114 
3 96 114 98 
3 109 117 116 
3 109 116 108 
3 103 101 100 
3 103 100 102 
3 111 119 117 
3 111 117 109 
3 110 118 119 
3 110 119 111 
3 108 116 118 
3 108 118 110 
3 111 109 108 
3 111 108 110 
3 88 104 105 
3 88 105 89 
3 119 118 116 
3 119 116 117 
3 120 124 125 
3 120 125 121 
3 121 125 127 
3 121 127 123 
3 122 126 124 
3 122 124 120 
3 128 129 133 
3 128 133 132 
3 129 131 135 
3 129 135 133 
3 130 128 132 
3 130 132 134 
3 137 139 155 
3 137 155 153 
3 139 138 154 
3 139 154 155 
3 138 136 152 
3 138 152 154 
3 140 141 149 
3 140 149 148 
3 141 143 151 
3 141 151 149 
3 143 142 150 
3 143 150 151 
3 142 140 148 
3 142 148 150 
3 145 144 160 
3 145 160 161 
3 143 141 140 
3 143 140 142 
3 147 145 161 
3 147 161 163 
3 146 147 163 
3 146 163 162 
3 144 146 162 
3 144 162 160 
3 157 156 164 
3 157 164 165 
3 151 150 148 
3 151 148 149 
3 159 157 165 
3 159 165 167 
3 158 159 167 
3 158 167 166 
3 156 158 166 
3 156 166 164 
3 159 158 156 
3 159 156 157 
3 136 137 153 
3 136 153 152 
3 167 165 164 
3 167 164 166 
