ply
format ascii 1.0
comment VCGLIB generated
element vertex 204
property float x
property float y
property float z
property float nx
property float ny
property float nz
element face 372
property list uchar int vertex_indices
end_header
-2.0509 0 16.8718 -0.7729904 -0.004069806 0.6344047 
-2.0509 -26.3754 7.9632 -0.9944935 -0.1046299 -0.005938241 
-0.2498 -34.6531 8.706 -0.07771596 -0.6321899 0.7709061 
-0.2498 -5.981 18.3753 0.03355361 0.02622374 0.9990928 
-2.0509 160.1941 5.7196 -0.525481 0.7702282 0.3614115 
-0.2498 160.2398 6.2708 -0.02359588 0.625361 0.7799788 
-0.2498 160.2398 -0.628 -0.007277088 0.9999736 0 
-2.0509 160.1941 -0.6365 -0.7160186 0.6980812 0 
-0.2498 15.8051 15.0681 -0.09417494 0.1364261 0.9861638 
-2.0509 20.041 13.8247 -0.8757158 0.06189386 0.4788435 
2.0509 0 16.8718 0.8856176 -0.04932424 0.4617886 
2.0509 -26.3754 7.9632 0.9913942 -0.1304809 -0.01060221 
2.0509 19.6147 3.1796 1 0 0 
2.0509 20.041 13.8247 0.6297396 0.1038541 0.7698327 
2.0509 0 -16.8718 0.8277004 -0.08320262 -0.554968 
-0.2498 -5.981 -18.2497 -0.2096435 -0.2798477 -0.936875 
-0.2498 14.9266 -18.4698 0.0823369 0.002999707 -0.9966 
2.0509 19.233 -17.0745 0.9051248 0.005095403 -0.4251154 
-2.0509 0 -16.8718 -0.9593539 -0.06339704 -0.2749926 
-2.0509 19.6147 3.1796 -1 0 0 
-2.0509 19.233 -17.0745 -0.8112399 0.003815003 -0.584701 
2.0509 160.1941 -0.6365 0.6100993 0.792325 0 
2.0509 160.1941 -5.7196 0.6885677 0.5583959 -0.4626755 
-0.2498 160.2398 -6.1452 -0.02799497 0.77454 -0.6319051 
2.0509 106.5724 6.5755 0.8004417 0.01677559 0.5991758 
2.0509 160.1941 5.7196 0.8517675 0.379834 0.3608578 
-0.2498 109.8711 7.1998 -0.03873309 0.0388573 0.9984938 
2.0509 106.5807 -1.0065 1 0 0 
-2.0509 106.0309 -12.1556 -0.8611819 0.05835186 -0.5049366 
-2.0509 160.1941 -5.7196 -0.8647913 0.3915137 -0.314409 
-0.2498 109.2825 -13.1308 -0.04986857 0.1026714 -0.9934645 
-2.0509 106.5807 -1.0065 -1 0 0 
2.0509 106.0309 -12.1556 0.8370537 0.06278364 -0.5435066 
-2.0509 106.5724 6.5755 -0.8217534 0.01589974 0.5696214 
2.0509 63.1062 8.7538 0.812035 0.04226058 0.5820768 
-0.2498 62.6202 9.5642 -0.04005749 0.0946482 0.9947045 
2.0509 63.0017 -0.1183 1 0 0 
-2.0509 62.7688 -16.0749 -0.8881359 0.03121603 -0.4585196 
-0.2498 62.2534 -17.3848 -0.05516189 0.04541524 -0.997444 
-2.0509 63.0017 -0.1183 -1 0 0 
2.0509 62.7688 -16.0749 0.8615649 0.03446 -0.5064766 
-2.0509 63.1062 8.7538 -0.835059 0.03986289 0.5487144 
-5.6396 157.0133 15.2286 -0.3335522 -0.6664553 0.6667686 
-5.6396 157.0133 -15.5727 -0.8167864 -0.4075743 -0.4083419 
6.2911 157.0103 -15.5727 0.3331143 -0.666878 -0.6665648 
6.2911 157.0103 15.2286 0.8162062 -0.408922 0.4081547 
-5.6323 164.7794 15.2286 -0.6662947 0.6670895 0.3332314 
6.2984 164.7764 15.2286 0.4083978 0.4079114 0.8165902 
6.2984 164.7764 -15.5727 0.6670383 0.6662438 -0.3334353 
-5.6323 164.7794 -15.5727 -0.4080985 0.4085852 -0.816403 
3.6159 161.2238 -0.4708 0.9454446 -0.3210045 -0.05559324 
3.4015 161.224 -1.6864 0.7600797 -0.5606371 -0.3285801 
3.4348 196.4557 -1.6864 0.9080246 0.3192531 -0.2712358 
3.6491 196.4555 -0.4708 0.1824986 0.9831482 0.01067062 
2.7843 161.2246 -2.7554 0.6018156 -0.5604901 -0.5689191 
2.8176 196.4563 -2.7554 0.6653839 0.559288 -0.4944303 
1.8387 161.2255 -3.5488 0.3709281 -0.5602695 -0.7406149 
1.872 196.4572 -3.5488 0.4561805 0.5594905 -0.6920041 
0.6788 161.2266 -3.971 0.0952244 -0.5600104 -0.822995 
0.7121 196.4583 -3.971 0.1920375 0.5597441 -0.8061068 
-0.5556 161.2278 -3.971 -0.1920452 -0.5597381 -0.8061092 
-0.5223 196.4594 -3.971 -0.09523077 0.5600103 -0.8229943 
-1.7155 161.2289 -3.5488 -0.4561934 -0.5594863 -0.6919991 
-1.6823 196.4605 -3.5488 -0.3709337 0.5602671 -0.740614 
-2.6611 161.2298 -2.7554 -0.6653831 -0.5592889 -0.4944302 
-2.6278 196.4614 -2.7554 -0.6018273 0.560486 -0.5689108 
-3.2783 161.2303 -1.6864 -0.7943906 -0.5591689 -0.2372211 
-3.245 196.462 -1.6864 -0.760079 0.5606369 -0.3285823 
-3.4926 161.2306 -0.4708 -0.827649 -0.5591369 0.0486115 
-3.4594 196.4622 -0.4708 -0.8265907 0.5606998 -0.04861826 
-3.2783 161.2303 0.7449 -0.7611398 -0.559199 0.3285768 
-3.245 196.462 0.7449 -0.7933355 0.5606686 0.2372121 
-2.6611 161.2298 1.8139 -0.6028857 -0.5593483 0.5689099 
-2.6278 196.4614 1.8139 -0.6643243 0.5605453 0.4944313 
-1.7155 161.2289 2.6073 -0.3719909 -0.5595623 0.7406166 
-1.6823 196.4605 2.6073 -0.4551387 0.5603477 0.6919966 
-0.5556 161.2278 3.0295 -0.09628928 -0.559828 0.8229952 
-0.5223 196.4594 3.0295 -0.1909925 0.5601031 0.8061057 
0.6788 161.2266 3.0295 0.1909806 -0.5601023 0.8061091 
0.7121 196.4583 3.0295 0.0962827 0.5598322 0.8229931 
1.8387 161.2255 2.6073 0.4551196 -0.5603485 0.6920084 
1.872 196.4572 2.6073 0.3719948 0.5595664 0.7406115 
2.7843 161.2246 1.8139 0.7599013 -0.3208303 0.5653477 
2.8176 196.4563 1.8139 0.6028813 0.5593474 0.5689154 
3.4015 161.224 0.7449 0.1733363 -0.9834851 0.05207335 
3.4348 196.4557 0.7449 0.8700018 0.3192895 0.3757008 
0.4675 203.7749 -0.4991 0.0009453269 0.9999996 -1.199903e-06 
0.4663 202.416 -4.6813 -0.05373608 0.77092 -0.6346612 
-1.992 202.4184 -3.8825 -0.4163738 0.7712675 -0.4814348 
-3.5113 202.4198 -1.7914 -0.6196991 0.771457 -0.1443162 
-3.5113 202.4198 0.7933 -0.5860345 0.7714265 0.2479209 
-1.992 202.4184 2.8844 -0.3282401 0.7711846 0.5454656 
0.4663 202.416 3.6832 0.05520262 0.7708213 0.6346552 
2.9245 202.4137 2.8844 0.4178268 0.7704815 0.4814344 
4.4438 202.4123 0.7933 0.621146 0.7702916 0.1443207 
4.4438 202.4123 -1.7914 0.5874854 0.7703215 -0.247923 
2.9245 202.4137 -3.8826 0.3296952 0.7705604 -0.5454702 
0.4629 198.8584 -7.266 -0.009715006 0.3115991 -0.950164 
-3.5146 198.8622 -5.9737 -0.5662901 0.312129 -0.7628179 
-5.9729 198.8645 -2.5902 -0.9064586 0.3124447 -0.2840971 
-5.9729 198.8645 1.5921 -0.9002719 0.3124396 0.303137 
-3.5146 198.8622 4.9756 -0.5500913 0.312113 0.7745871 
0.4629 198.8584 6.2679 0.01030549 0.3115839 0.9501628 
4.4404 198.8547 4.9756 0.5668797 0.3110628 0.7628154 
6.8987 198.8524 1.5921 0.9070444 0.3107381 0.2840992 
6.8987 198.8524 -2.5902 0.9008588 0.3107434 -0.3031369 
4.4404 198.8547 -5.9737 0.5506793 0.3110756 -0.7745866 
0.4588 194.461 -7.266 0.009710832 -0.3115954 -0.9501653 
-3.5188 194.4647 -5.9737 -0.5506833 -0.311076 -0.7745836 
-5.977 194.467 -2.5902 -0.9008581 -0.3107478 -0.3031346 
-5.977 194.467 1.5921 -0.9070443 -0.3107451 0.2840919 
-3.5188 194.4647 4.9756 -0.5668831 -0.3110607 0.7628138 
0.4588 194.461 6.2679 -0.01030027 -0.311579 0.9501644 
4.4363 194.4572 4.9756 0.5500999 -0.3121106 0.7745819 
6.8945 194.4549 1.5921 0.900272 -0.3124428 0.3031332 
6.8945 194.4549 -2.5902 0.906458 -0.3124524 -0.2840905 
4.4363 194.4572 -5.9737 0.566293 -0.3121251 -0.7628173 
0.4554 190.9033 -4.6813 0.05372946 -0.7709171 -0.6346653 
-2.0029 190.9057 -3.8825 -0.3297161 -0.7705542 -0.5454664 
-3.5221 190.9071 -1.7914 -0.5874944 -0.7703156 -0.24792 
-3.5221 190.9071 0.7933 -0.6211563 -0.770284 0.1443175 
-2.0029 190.9057 2.8844 -0.4178436 -0.7704763 0.4814281 
0.4554 190.9033 3.6832 -0.05520158 -0.7708191 0.634658 
2.9137 190.901 2.8844 0.3282588 -0.7711793 0.5454619 
4.4329 190.8996 0.7933 0.5860459 -0.7714204 0.2479131 
4.4329 190.8996 -1.7914 0.6197067 -0.7714515 -0.1443133 
2.9136 190.901 -3.8826 0.416387 -0.7712635 -0.4814296 
0.4541 189.5444 -0.4991 -0.0009485811 -0.9999996 -2.226605e-06 
5.6412 158.3089 8.8147 -0.624787 -0.7221744 0.2968255 
5.6412 169.0149 12.3273 -0.7252294 -0.06501495 0.6854308 
5.6412 169.0149 6.1575 -1 0 0 
5.6412 158.3089 4.3108 -0.5547002 -0.8320503 0 
13.2652 158.3089 8.8147 0.7682973 -0.4157748 0.486673 
13.2652 158.3089 4.3108 0.8 -0.6 0 
13.2652 164.7895 5.6185 0.8017817 0.5538295 0.2245417 
13.2652 169.0149 10.4172 0.8833807 0.166099 -0.4382348 
13.2652 169.0149 12.3273 0.7252294 0.0960575 0.6817737 
5.6412 158.3089 -9.8471 -0.371468 -0.6030753 -0.7059121 
5.6412 169.0149 -13.3597 -0.8146042 0.08092146 -0.5743448 
13.2652 169.0149 -13.3597 0.8689197 -0.04673785 -0.4927415 
13.2652 158.3089 -9.8471 0.3714679 -0.8587396 -0.352956 
5.6412 178.2785 -9.8471 -0.3333862 0.7082186 -0.6223182 
5.6412 180.5 -5.627 -0.7099296 0.6716411 -0.2118918 
13.2652 180.5 -5.627 0.8593001 0.4720011 -0.1970236 
13.2652 178.2785 -9.8471 0.3333862 0.5314124 -0.778752 
5.6412 178.2785 8.8147 -0.3341079 0.5347938 0.7761234 
13.2652 178.2785 8.8147 0.3341079 0.7142138 0.615037 
5.6412 181.5875 -0.6823 -0.7139766 0.6987703 0.04424483 
5.6412 169.0149 -7.5222 -1 0 0 
5.6412 169.0149 -0.6823 -1 0 0 
13.2652 158.3089 -0.6823 0.8 -0.6 0 
13.2652 158.3089 -5.627 0.8 -0.6 0 
13.2652 164.7913 -6.9693 0.8017817 0.5780408 0.1517073 
13.2652 169.0149 -3.2625 0.8624506 0.1418746 -0.4858504 
13.2652 169.0149 -0.6823 1 0 0 
5.6412 158.3089 -0.6823 -0.7071068 -0.7071068 0 
5.6412 158.3089 -5.627 -0.8 -0.6 0 
5.6412 180.5664 4.3108 -0.8022995 0.554158 0.2218658 
13.2652 180.5664 4.3108 0.8593032 0.4899764 0.1467011 
13.2652 181.5875 -0.6823 0.5622042 0.824484 -0.06444047 
13.2652 173.2429 5.6387 0.8017844 -0.5774193 -0.1540415 
13.2652 169.0149 1.8978 0.7879301 -0.1745081 0.5905194 
13.2652 173.241 -6.9877 0.8017856 -0.5539417 -0.2242505 
13.2652 169.0149 -11.7819 0.816816 -0.2038512 0.5396817 
8.6151 169.0149 1.8978 0.6490007 0.2138721 0.7301074 
8.6151 173.2429 5.6387 0.408249 -0.8467993 0.3409748 
8.6151 169.0149 10.4172 0.6858604 -0.2562853 -0.6811119 
8.6151 164.7895 5.6185 0.4082459 0.8825862 -0.2331886 
8.6151 169.0149 -3.2625 0.6485257 -0.2149449 -0.7302145 
8.6151 164.7913 -6.9693 0.4082458 0.8454204 -0.3443832 
8.6151 169.0149 -11.7819 0.6864207 0.2584558 0.6797258 
8.6151 173.241 -6.9877 0.4082506 -0.8824576 0.233667 
7.2053 158.3089 8.6199 -0.6666667 0.6666667 0.3333333 
11.0052 158.3089 8.6199 0.4082483 0.4082483 0.8164966 
11.0052 158.3089 3.9895 0.6666667 0.6666667 -0.3333333 
7.2053 158.3089 3.9895 -0.4082483 0.4082483 -0.8164966 
7.2053 153.2653 8.6199 -0.3333333 -0.6666667 0.6666667 
7.2053 153.2653 3.9895 -0.8164966 -0.4082483 -0.4082483 
11.0052 153.2653 3.9895 0.3333333 -0.6666667 -0.6666667 
11.0052 153.2653 8.6199 0.8164966 -0.4082483 0.4082483 
7.2053 160.4011 3.4721 -0.6666667 0.6666667 0.3333333 
11.0052 160.4011 3.4721 0.4082483 0.4082483 0.8164966 
11.0052 160.4011 -1.1584 0.6666667 0.6666667 -0.3333333 
7.2053 160.4011 -1.1584 -0.4082483 0.4082483 -0.8164966 
7.2053 155.3575 3.4721 -0.3333333 -0.6666667 0.6666667 
7.2053 155.3575 -1.1584 -0.8164966 -0.4082483 -0.4082483 
11.0052 155.3575 -1.1584 0.3333333 -0.6666667 -0.6666667 
11.0052 155.3575 3.4721 0.8164966 -0.4082483 0.4082483 
7.2053 158.5247 -1.3261 -0.6666667 0.6666667 0.3333333 
11.0052 158.5247 -1.3261 0.4082483 0.4082483 0.8164966 
11.0052 158.5247 -5.9565 0.6666667 0.6666667 -0.3333333 
7.2053 158.5247 -5.9565 -0.4082483 0.4082483 -0.8164966 
7.2053 151.839 -1.3261 -0.3333333 -0.6666667 0.6666667 
7.2053 151.839 -5.9565 -0.8164966 -0.4082483 -0.4082483 
11.0052 151.839 -5.9565 0.3333333 -0.6666667 -0.6666667 
11.0052 151.839 -1.3261 0.8164966 -0.4082483 0.4082483 
7.5133 159.3668 -6.1658 -0.6666667 0.6666667 0.3333333 
10.6972 159.3668 -6.1658 0.4082509 0.408246 0.8164964 
10.6971 159.3668 -10.0455 0.6666683 0.6666604 -0.3333427 
7.5133 159.3668 -10.0455 -0.4082483 0.4082483 -0.8164966 
7.5133 155.1409 -6.1658 -0.3333333 -0.6666667 0.6666667 
7.5133 155.1409 -10.0455 -0.8164966 -0.4082483 -0.4082483 
10.6971 155.1409 -10.0455 0.3333315 -0.666667 -0.6666673 
10.6971 155.1409 -6.1658 0.8164968 -0.4082581 0.4082379 
3 0 1 2 
3 0 2 3 
3 4 5 6 
3 4 6 7 
3 0 3 8 
3 0 8 9 
3 10 11 12 
3 10 12 13 
3 14 15 16 
3 14 16 17 
3 18 1 19 
3 18 19 20 
3 1 18 15 
3 1 15 2 
3 21 22 23 
3 21 23 6 
3 11 14 17 
3 11 17 12 
3 1 0 9 
3 1 9 19 
3 24 25 5 
3 24 5 26 
3 27 21 25 
3 27 25 24 
3 28 29 23 
3 28 23 30 
3 31 7 29 
3 31 29 28 
3 32 22 21 
3 32 21 27 
3 33 4 7 
3 33 7 31 
3 13 34 35 
3 13 35 8 
3 12 36 34 
3 12 34 13 
3 20 37 38 
3 20 38 16 
3 19 39 37 
3 19 37 20 
3 17 40 36 
3 17 36 12 
3 9 41 39 
3 9 39 19 
3 34 24 26 
3 34 26 35 
3 36 27 24 
3 36 24 34 
3 37 28 30 
3 37 30 38 
3 39 31 28 
3 39 28 37 
3 40 32 27 
3 40 27 36 
3 41 33 31 
3 41 31 39 
3 2 11 10 
3 2 10 3 
3 5 25 21 
3 5 21 6 
3 3 10 13 
3 3 13 8 
3 15 18 20 
3 15 20 16 
3 15 14 11 
3 15 11 2 
3 23 29 7 
3 23 7 6 
3 5 4 33 
3 5 33 26 
3 23 22 32 
3 23 32 30 
3 35 41 9 
3 35 9 8 
3 38 40 17 
3 38 17 16 
3 26 33 41 
3 26 41 35 
3 30 32 40 
3 30 40 38 
3 42 43 44 
3 42 44 45 
3 46 47 48 
3 46 48 49 
3 42 45 47 
3 42 47 46 
3 45 44 48 
3 45 48 47 
3 44 43 49 
3 44 49 48 
3 43 42 46 
3 43 46 49 
3 50 51 52 
3 50 52 53 
3 51 54 55 
3 51 55 52 
3 54 56 57 
3 54 57 55 
3 56 58 59 
3 56 59 57 
3 58 60 61 
3 58 61 59 
3 60 62 63 
3 60 63 61 
3 62 64 65 
3 62 65 63 
3 64 66 67 
3 64 67 65 
3 66 68 69 
3 66 69 67 
3 68 70 71 
3 68 71 69 
3 70 72 73 
3 70 73 71 
3 72 74 75 
3 72 75 73 
3 74 76 77 
3 74 77 75 
3 76 78 79 
3 76 79 77 
3 78 80 81 
3 78 81 79 
3 80 82 83 
3 80 83 81 
3 82 84 85 
3 82 85 83 
3 84 50 53 
3 84 53 85 
3 84 82 80 
3 84 80 78 
3 84 78 76 
3 84 76 74 
3 84 74 72 
3 84 72 70 
3 84 70 68 
3 84 68 66 
3 84 66 64 
3 84 64 62 
3 84 62 60 
3 84 60 58 
3 84 58 56 
3 84 56 54 
3 84 54 51 
3 84 51 50 
3 53 52 55 
3 53 55 57 
3 53 57 59 
3 53 59 61 
3 53 61 63 
3 53 63 65 
3 53 65 67 
3 53 67 69 
3 53 69 71 
3 53 71 73 
3 53 73 75 
3 53 75 77 
3 53 77 79 
3 53 79 81 
3 53 81 83 
3 53 83 85 
3 86 87 88 
3 86 88 89 
3 86 89 90 
3 86 90 91 
3 86 91 92 
3 86 92 93 
3 86 93 94 
3 86 94 95 
3 86 95 96 
3 86 96 87 
3 87 97 98 
3 87 98 88 
3 88 98 99 
3 88 99 89 
3 89 99 100 
3 89 100 90 
3 90 100 101 
3 90 101 91 
3 91 101 102 
3 91 102 92 
3 92 102 103 
3 92 103 93 
3 93 103 104 
3 93 104 94 
3 94 104 105 
3 94 105 95 
3 95 105 106 
3 95 106 96 
3 96 106 97 
3 96 97 87 
3 97 107 108 
3 97 108 98 
3 98 108 109 
3 98 109 99 
3 99 109 110 
3 99 110 100 
3 100 110 111 
3 100 111 101 
3 101 111 112 
3 101 112 102 
3 102 112 113 
3 102 113 103 
3 103 113 114 
3 103 114 104 
3 104 114 115 
3 104 115 105 
3 105 115 116 
3 105 116 106 
3 106 116 107 
3 106 107 97 
3 107 117 118 
3 107 118 108 
3 108 118 119 
3 108 119 109 
3 109 119 120 
3 109 120 110 
3 110 120 121 
3 110 121 111 
3 111 121 122 
3 111 122 112 
3 112 122 123 
3 112 123 113 
3 113 123 124 
3 113 124 114 
3 114 124 125 
3 114 125 115 
3 115 125 126 
3 115 126 116 
3 116 126 117 
3 116 117 107 
3 127 118 117 
3 127 119 118 
3 127 120 119 
3 127 121 120 
3 127 122 121 
3 127 123 122 
3 127 124 123 
3 127 125 124 
3 127 126 125 
3 127 117 126 
3 128 129 130 
3 128 130 131 
3 132 133 134 
3 132 134 135 
3 132 135 136 
3 128 131 133 
3 128 133 132 
3 137 138 139 
3 137 139 140 
3 141 142 143 
3 141 143 144 
3 145 129 136 
3 145 136 146 
3 147 142 148 
3 147 148 149 
3 150 151 152 
3 150 152 153 
3 150 153 154 
3 155 156 151 
3 155 151 150 
3 147 157 158 
3 147 158 159 
3 129 145 157 
3 129 157 130 
3 154 159 158 
3 154 158 160 
3 154 160 161 
3 138 141 144 
3 138 144 139 
3 129 128 132 
3 129 132 136 
3 138 137 156 
3 138 156 148 
3 139 144 143 
3 139 143 162 
3 139 162 163 
3 130 149 155 
3 130 155 131 
3 133 150 154 
3 133 154 161 
3 133 161 134 
3 131 155 150 
3 131 150 133 
3 157 145 146 
3 157 146 158 
3 157 147 149 
3 157 149 130 
3 158 146 136 
3 158 136 135 
3 158 135 160 
3 142 147 159 
3 142 159 143 
3 142 141 138 
3 142 138 148 
3 151 140 139 
3 151 139 163 
3 151 163 152 
3 156 137 140 
3 156 140 151 
3 156 155 149 
3 156 149 148 
3 143 159 154 
3 143 154 153 
3 143 153 162 
3 164 165 166 
3 164 166 167 
3 168 169 170 
3 168 170 171 
3 161 160 165 
3 161 165 164 
3 160 135 166 
3 160 166 165 
3 135 134 167 
3 135 167 166 
3 134 161 164 
3 134 164 167 
3 153 152 169 
3 153 169 168 
3 152 163 170 
3 152 170 169 
3 163 162 171 
3 163 171 170 
3 162 153 168 
3 162 168 171 
3 172 173 174 
3 172 174 175 
3 176 177 178 
3 176 178 179 
3 172 175 177 
3 172 177 176 
3 175 174 178 
3 175 178 177 
3 174 173 179 
3 174 179 178 
3 173 172 176 
3 173 176 179 
3 180 181 182 
3 180 182 183 
3 184 185 186 
3 184 186 187 
3 180 183 185 
3 180 185 184 
3 183 182 186 
3 183 186 185 
3 182 181 187 
3 182 187 186 
3 181 180 184 
3 181 184 187 
3 188 189 190 
3 188 190 191 
3 192 193 194 
3 192 194 195 
3 188 191 193 
3 188 193 192 
3 191 190 194 
3 191 194 193 
3 190 189 195 
3 190 195 194 
3 189 188 192 
3 189 192 195 
3 196 197 198 
3 196 198 199 
3 200 201 202 
3 200 202 203 
3 196 199 201 
3 196 201 200 
3 199 198 202 
3 199 202 201 
3 198 197 203 
3 198 203 202 
3 197 196 200 
3 197 200 203 
