ply
format ascii 1.0
comment VCGLIB generated
element vertex 81
property float x
property float y
property float z
property float nx
property float ny
property float nz
element face 200
property list uchar int vertex_indices
end_header
-14.0625 0 -10.54688 -0.9046265 -0.4262052 0 
-14.0625 0 -14.0625 -0.6858808 0.243178 -0.6858805 
-10.54688 0 -14.0625 0 -0.9847404 -0.1740301 
-14.0625 0 -7.03125 -0.9992456 -0.03883439 0 
-14.0625 0 -3.515626 -0.9992456 -0.03883433 0 
-14.0625 0 -3.125e-06 -0.9992456 -0.03883431 0 
-14.0625 0 3.515624 -0.9992456 -0.03883436 0 
-14.0625 0 7.031248 -0.9992456 -0.03883428 0 
-14.0625 0 10.54687 -0.9992456 -0.03883433 0 
-14.0625 0 14.0625 -0.5884504 -0.5544841 0.5884502 
-10.54688 0 14.0625 0 -0.4262049 0.9046267 
-7.031252 0 -14.0625 0 -0.4262049 -0.9046267 
-7.031252 0 14.0625 0 -0.7458054 0.6661639 
-3.515626 0 -14.0625 0 -0.426205 -0.9046267 
-3.515626 0 14.0625 0 -0.426205 0.9046267 
0 0 -14.0625 0 -0.426205 -0.9046267 
0 0 14.0625 0 -0.1453715 0.9893772 
3.515626 0 -14.0625 0 -0.426205 -0.9046267 
3.515626 0 14.0625 0 -0.426205 0.9046267 
7.03125 0 -14.0625 0 -0.426205 -0.9046267 
7.03125 0 14.0625 0 -0.7458055 0.6661638 
10.54688 0 -14.0625 0 -0.426205 -0.9046267 
10.54688 0 14.0625 0 -0.426205 0.9046267 
14.0625 0 -14.0625 0.377598 -0.8454818 -0.377598 
14.0625 0 14.0625 0.5884503 -0.554484 0.5884503 
14.0625 0 -10.54688 0.9305755 0.3660999 0 
14.0625 0 -7.03125 0.7711127 0.6366987 0 
14.0625 0 -3.515626 0.7711127 0.6366987 0 
14.0625 0 -3.125e-06 0.7711127 0.6366987 0 
14.0625 0 3.515624 0.7711127 0.6366987 0 
14.0625 0 7.031248 0.7711127 0.6366987 0 
14.0625 0 10.54687 0.7711128 0.6366986 0 
-7.031252 8.515626 3.515624 -0.6222746 0.7827991 0 
-7.031252 8.515626 7.031248 -0.3971004 0.8274192 0.3971004 
-3.515626 8.515626 7.031248 0 0.9046266 0.426205 
-7.031252 8.515626 -3.125e-06 -0.6222746 0.7827991 0 
-7.031252 8.515626 -3.515626 -0.5968195 0.8023756 0 
-7.031252 8.515626 -7.03125 -0.3703949 0.8518305 -0.3703949 
-3.515626 8.515626 -7.03125 0 0.8485603 -0.5290987 
0 8.515626 7.031248 0 0.8275497 0.5613925 
0 8.515626 -7.03125 0 0.8275497 -0.5613925 
3.515626 8.515626 7.031248 0 0.8485603 0.5290987 
3.515626 8.515626 -7.03125 0 0.8275497 -0.5613925 
7.03125 8.515626 7.031248 0.3354768 0.8802902 0.3354768 
7.03125 8.515626 -7.03125 0.3464817 0.871723 -0.3464817 
7.03125 8.515626 3.515624 0.6776989 0.7353396 0 
7.03125 8.515626 -3.125e-06 0.7711127 0.6366987 0 
7.03125 8.515626 -3.515626 0.7711127 0.6366987 0 
-10.54688 4.257812 7.031248 -0.6222748 0.7827989 0 
-10.54688 4.257812 10.54687 -0.3971005 0.8274192 0.3971005 
-7.031252 4.257812 10.54687 0 0.9175609 0.3975952 
-10.54688 4.257812 3.515624 -0.6222748 0.7827989 0 
-10.54688 4.257812 -3.125e-06 -0.6222748 0.7827989 0 
-10.54688 4.257812 -3.515626 -0.6222748 0.7827989 0 
-10.54688 4.257812 -7.03125 -0.5968196 0.8023755 0 
-10.54688 4.257812 -10.54688 -0.370395 0.8518305 -0.370395 
-7.031252 4.257812 -10.54688 0 0.8485603 -0.5290987 
-3.515626 4.257812 10.54687 0 0.8275497 0.5613925 
-3.515626 4.257812 -10.54688 0 0.8275497 -0.5613925 
0 4.257812 10.54687 0 0.8485603 0.5290987 
0 4.257812 -10.54688 0 0.8275497 -0.5613925 
3.515626 4.257812 10.54687 0 0.8275497 0.5613925 
3.515626 4.257812 -10.54688 0 0.8275497 -0.5613925 
7.03125 4.257812 10.54687 0 0.8275497 0.5613925 
7.03125 4.257812 -10.54688 0 0.8275497 -0.5613925 
10.54688 4.257812 10.54687 0.3674294 0.8882881 0.2755721 
10.54688 4.257812 -10.54688 0.3464817 0.871723 -0.3464817 
10.54688 4.257812 7.031248 0.6776989 0.7353396 0 
10.54688 4.257812 3.515624 0.7711127 0.6366987 0 
10.54688 4.257812 -3.125e-06 0.7711127 0.6366987 0 
10.54688 4.257812 -3.515626 0.7711127 0.6366987 0 
10.54688 4.257812 -7.03125 0.7711127 0.6366987 0 
-3.515626 12.77344 -3.125e-06 -0.5968195 0.8023756 0 
-3.515626 12.77344 3.515624 -0.3971004 0.8274192 0.3971004 
0 12.77344 3.515624 0 0.8811089 0.4729135 
-3.515626 12.77344 -3.515626 -0.3703949 0.8518305 -0.370395 
0 12.77344 -3.515626 0 0.8485603 -0.5290988 
3.515626 12.77344 3.515624 0.3354768 0.8802902 0.3354768 
3.515626 12.77344 -3.515626 0.4101431 0.8585804 -0.3076074 
3.515626 12.77344 -3.125e-06 0.6562129 0.7545758 0 
0 17.03125 -3.125e-06 0 1 -1.404228e-07 
3 0 1 2 
3 0 2 3 
3 4 3 2 
3 4 2 5 
3 6 5 2 
3 6 2 7 
3 8 7 2 
3 8 2 9 
3 10 9 2 
3 10 2 11 
3 12 10 11 
3 12 11 13 
3 14 12 13 
3 14 13 15 
3 16 14 15 
3 16 15 17 
3 18 16 17 
3 18 17 19 
3 20 18 19 
3 20 19 21 
3 22 20 21 
3 22 21 23 
3 24 22 23 
3 24 23 25 
3 24 25 26 
3 24 26 27 
3 24 27 28 
3 24 28 29 
3 24 29 30 
3 24 30 31 
3 32 33 34 
3 32 34 35 
3 36 35 34 
3 36 34 37 
3 38 37 34 
3 38 34 39 
3 40 38 39 
3 40 39 41 
3 42 40 41 
3 42 41 43 
3 44 42 43 
3 44 43 45 
3 44 45 46 
3 44 46 47 
3 48 49 50 
3 48 50 51 
3 52 51 50 
3 52 50 53 
3 54 53 50 
3 54 50 55 
3 56 55 50 
3 56 50 57 
3 58 56 57 
3 58 57 59 
3 60 58 59 
3 60 59 61 
3 62 60 61 
3 62 61 63 
3 64 62 63 
3 64 63 65 
3 66 64 65 
3 66 65 67 
3 66 67 68 
3 66 68 69 
3 66 69 70 
3 66 70 71 
3 72 73 74 
3 72 74 75 
3 76 75 74 
3 76 74 77 
3 78 76 77 
3 78 77 79 
3 78 80 79 
3 80 76 75 
3 80 74 77 
3 80 72 73 
3 80 73 74 
3 75 72 80 
3 80 77 79 
3 80 78 76 
3 32 33 73 
3 77 41 43 
3 44 78 47 
3 75 38 37 
3 77 45 46 
3 77 46 79 
3 42 40 76 
3 42 76 78 
3 34 39 74 
3 34 74 73 
3 35 72 75 
3 35 75 36 
3 37 36 75 
3 32 73 72 
3 32 72 35 
3 40 38 75 
3 40 75 76 
3 78 44 42 
3 77 43 45 
3 78 79 46 
3 78 46 47 
3 39 41 77 
3 39 77 74 
3 73 33 34 
3 43 63 65 
3 66 44 71 
3 48 49 33 
3 37 56 55 
3 45 68 69 
3 45 69 46 
3 62 60 40 
3 62 40 42 
3 57 59 39 
3 57 39 34 
3 52 35 36 
3 52 36 53 
3 43 67 68 
3 43 68 45 
3 46 69 70 
3 46 70 47 
3 47 70 71 
3 47 71 44 
3 43 65 67 
3 64 62 42 
3 64 42 44 
3 60 58 38 
3 60 38 40 
3 58 56 37 
3 58 37 38 
3 44 66 64 
3 53 36 37 
3 53 37 54 
3 51 32 35 
3 51 35 52 
3 55 54 37 
3 48 33 32 
3 48 32 51 
3 50 57 34 
3 50 34 33 
3 59 61 41 
3 59 41 39 
3 33 49 50 
3 61 63 43 
3 61 43 41 
3 55 2 1 
3 8 9 49 
3 65 22 24 
3 23 66 25 
3 68 29 28 
3 68 28 69 
3 17 15 60 
3 17 60 62 
3 57 14 16 
3 57 16 59 
3 5 52 53 
3 5 53 4 
3 69 28 27 
3 69 27 70 
3 67 30 29 
3 67 29 68 
3 65 31 30 
3 65 30 67 
3 70 27 26 
3 70 26 71 
3 71 26 25 
3 71 25 66 
3 65 24 31 
3 19 17 62 
3 19 62 64 
3 15 13 58 
3 15 58 60 
3 13 11 56 
3 13 56 58 
3 21 19 64 
3 21 64 66 
3 66 23 21 
3 11 2 55 
3 11 55 56 
3 4 53 54 
3 4 54 3 
3 6 51 52 
3 6 52 5 
3 3 54 55 
3 3 55 0 
3 7 48 51 
3 7 51 6 
3 8 49 48 
3 8 48 7 
3 1 0 55 
3 16 18 61 
3 16 61 59 
3 50 12 14 
3 50 14 57 
3 18 20 63 
3 18 63 61 
3 10 12 50 
3 10 50 49 
3 49 9 10 
3 63 20 22 
3 63 22 65 
