ply
format ascii 1.0
comment VCGLIB generated
element vertex 448
property float x
property float y
property float z
property float nx
property float ny
property float nz
element face 754
property list uchar int vertex_indices
end_header
36.6021 35.5553 0.1494 0.993784 -0.1112137 -0.00498654 
33.8907 35.5553 13.8258 0.9167173 -0.1112115 0.3837467 
30.965 17.8164 12.6322 0.8998127 -0.2200738 0.3767023 
33.4422 17.8164 0.1365 0.9754709 -0.2200732 -0.004931885 
33.7411 35.5553 -13.5497 0.9139196 -0.1104904 -0.3905675 
30.8282 17.8164 -12.38 0.8972642 -0.2186737 -0.3835345 
25.7433 35.5553 -25.186 0.6950208 -0.1094822 -0.7106053 
23.5209 17.8164 -23.0118 0.6825483 -0.2167358 -0.6979637 
13.8264 35.5553 -32.988 0.3758698 -0.1087852 -0.920265 
12.6328 17.8164 -30.1402 0.3692087 -0.2153925 -0.9040415 
-0.1955 35.5553 -35.7679 0.003649764 -0.108786 -0.9940585 
-0.1786 17.8164 -32.6801 0.003615904 -0.2153937 -0.9765207 
-14.1876 35.5553 -33.1024 -0.3713524 -0.1094825 -0.9220147 
-12.9628 17.8164 -30.2447 -0.3646478 -0.2167385 -0.9055697 
-26.0198 35.5553 -25.3974 -0.6957943 -0.1104893 -0.7096918 
-23.7735 17.8164 -23.2048 -0.6830813 -0.2186759 -0.6968364 
-33.8907 35.5553 -13.8258 -0.9167178 -0.1112153 -0.3837444 
-30.9649 17.8164 -12.6322 -0.8998119 -0.2200727 -0.3767049 
-36.6021 35.5553 -0.1494 -0.993784 -0.1112145 0.004985857 
-33.4422 17.8164 -0.1365 -0.9754711 -0.2200725 0.004928694 
-33.7411 35.5553 13.5497 -0.9139203 -0.1104903 0.3905656 
-30.8282 17.8164 12.38 -0.8972643 -0.2186741 0.3835341 
-25.7433 35.5553 25.1861 -0.6950193 -0.1094833 0.7106065 
-23.5209 17.8164 23.0118 -0.6825467 -0.2167376 0.6979648 
-13.8264 35.5553 32.988 -0.3758679 -0.1087855 0.9202657 
-12.6327 17.8164 30.1402 -0.369207 -0.2153933 0.904042 
0.1955 35.5553 35.7679 -0.003650554 -0.1087862 0.9940585 
0.1786 17.8164 32.6801 -0.003616804 -0.2153939 0.9765206 
14.1877 35.5553 33.1024 0.371356 -0.1094841 0.922013 
12.9628 17.8164 30.2447 0.3646471 -0.216738 0.9055701 
26.0198 35.5553 25.3973 0.6957963 -0.1104882 0.70969 
23.7736 17.8164 23.2048 0.6830802 -0.2186749 0.6968377 
26.5407 92.3593 -10.6582 -0.7631593 0.5581716 0.325626 
20.2496 92.3593 -19.8114 -0.5796663 0.5599123 0.592018 
10.8757 92.3594 -25.9484 -0.3163076 0.5620183 0.7642545 
-11.1812 92.3594 -26.1328 0.3107383 0.5563087 0.7706896 
-20.5209 92.3594 -20.0508 0.5827049 0.5547925 0.593852 
-26.7338 92.3594 -10.9168 0.768169 0.5537065 0.3214428 
-28.874 92.3594 -0.1213 0.8326344 0.5538091 -0.003938512 
-0.1365 92.3594 -28.2367 -0.004907328 0.5571715 0.8303829 
28.7911 92.3593 0.1176 -0.8305554 0.556922 0.003966049 
-26.6157 92.3594 10.6921 0.765057 0.5550812 -0.3264546 
-20.3027 92.3594 19.8772 0.5811066 0.5567372 -0.5935981 
-10.896 92.3594 26.0357 0.3138788 0.5577708 -0.7683566 
0.1721 92.3594 28.23 0.002687492 0.5575287 -0.8301533 
11.2168 92.3594 26.126 -0.314873 0.5550951 -0.769886 
20.4671 92.3594 19.9776 -0.5825403 0.5582761 -0.5907407 
26.6584 92.3594 10.8754 -0.766226 0.5569158 -0.320535 
33.2373 85.8712 0.1357 0.9726089 0.2323957 -0.004918864 
30.7752 85.8712 12.5548 0.8971708 0.2323951 0.3756023 
33.683 69.5827 13.741 0.9149572 0.1271055 0.3830112 
36.3778 69.5827 0.1485 0.9918767 0.1271057 -0.004980786 
30.6393 85.8712 -12.3041 0.8946607 0.230928 -0.3824324 
33.5343 69.5827 -13.4667 0.9121858 0.1262803 -0.3898337 
23.3768 85.8712 -22.8707 0.6806012 0.2288927 -0.6959814 
25.5856 69.5827 -25.0317 0.6937225 0.1251327 -0.709289 
12.5554 85.8712 -29.9555 0.3681675 0.2274803 -0.9015018 
13.7417 69.5827 -32.7859 0.3751744 0.1243371 -0.9185774 
-0.1775 85.8712 -32.4798 0.003607192 0.2274801 -0.973776 
-0.1943 69.5827 -35.5487 0.003643613 0.1243389 -0.9922332 
-12.8833 85.8712 -30.0593 -0.3636007 0.2288906 -0.902997 
-14.1006 69.5827 -32.8995 -0.3706546 0.1251347 -0.9203024 
-23.6278 85.8712 -23.0626 -0.6810931 0.2309266 -0.6948274 
-25.8603 69.5827 -25.2417 -0.6944681 0.1262808 -0.7083553 
-30.7752 85.8712 -12.5548 -0.8971695 0.2323967 -0.3756044 
-33.683 69.5827 -13.7411 -0.9149566 0.1271064 -0.3830122 
-33.2373 85.8712 -0.1357 -0.9726089 0.2323956 0.004919109 
-36.3777 69.5827 -0.1485 -0.9918767 0.1271058 0.004981349 
-30.6393 85.8712 12.3041 -0.8946612 0.2309272 0.3824317 
-33.5343 69.5827 13.4667 -0.912186 0.1262806 0.3898334 
-23.3768 85.8712 22.8707 -0.6805997 0.2288914 0.6959834 
-25.5855 69.5827 25.0317 -0.6937207 0.1251343 0.7092906 
-12.5553 85.8712 29.9555 -0.3681662 0.2274797 0.9015025 
-13.7416 69.5827 32.7859 -0.3751737 0.1243384 0.9185776 
0.1776 85.8712 32.4798 -0.003606789 0.2274798 0.9737761 
0.1943 69.5827 35.5487 -0.003645149 0.1243391 0.9922331 
12.8834 85.8712 30.0593 0.3636012 0.2288912 0.9029967 
14.1007 69.5827 32.8995 0.370654 0.1251347 0.9203026 
23.6279 85.8712 23.0626 0.6810946 0.2309281 0.6948255 
25.8604 69.5827 25.2417 0.6944721 0.1262787 0.7083519 
26.3004 102.1597 -10.5617 0.5936957 0.7634178 -0.254399 
23.9389 102.1597 -9.6134 -0.6944417 0.6551391 0.2975627 
25.9687 102.1597 0.106 -0.7554373 0.6552082 0.004100182 
28.5305 102.1597 0.1165 0.6457208 0.7635655 -0.003503526 
20.0663 102.1597 -19.6319 0.4513668 0.7632131 -0.4623568 
18.2646 102.1597 -17.8692 -0.5278156 0.6550506 0.5406658 
10.7774 102.1597 -25.7134 0.2441522 0.7630668 -0.5984303 
9.8097 102.1597 -23.4046 -0.2875714 0.6540077 0.6996976 
-0.1524 102.1597 -27.8802 0.002618517 0.763068 -0.646313 
-0.1387 102.1597 -25.3769 -0.002916089 0.6512709 0.7588398 
-11.0589 102.1597 -25.8025 -0.2408341 0.7632124 -0.599588 
-10.0659 102.1597 -23.4857 0.2828954 0.6515495 0.7038846 
-20.2818 102.1597 -19.7967 -0.4517387 0.7634172 -0.4616561 
-18.4607 102.1597 -18.0191 0.5304734 0.6518482 0.5419335 
-26.417 102.1597 -10.7769 -0.5955449 0.7635665 -0.2495848 
-24.045 102.1597 -9.8092 0.6992635 0.6520808 0.2929525 
-28.5304 102.1597 -0.1165 -0.6457175 0.7635683 0.003502236 
-25.9687 102.1597 -0.106 0.7580506 0.6521826 -0.004152221 
-26.3004 102.1597 10.5617 -0.5936965 0.7634176 0.2543974 
-23.9389 102.1597 9.6134 0.6968358 0.6521313 -0.2985713 
-20.0663 102.1597 19.6319 -0.4513659 0.7632127 0.4623583 
-18.2645 102.1597 17.8692 0.5297282 0.6519668 -0.5425195 
-10.7773 102.1597 25.7134 -0.2441511 0.7630672 0.5984301 
-9.8096 102.1597 23.4046 0.2866299 0.6517555 -0.702181 
0.1524 102.1597 27.8802 -0.002619909 0.763068 0.6463128 
0.1387 102.1597 25.3769 0.003252546 0.6515228 -0.7586221 
11.059 102.1597 25.8025 0.2408364 0.7632118 0.5995879 
10.066 102.1597 23.4857 -0.2841699 0.6522985 -0.7026765 
20.2819 102.1597 19.7966 0.4517396 0.7634184 0.4616532 
18.4608 102.1597 18.0191 -0.528397 0.6551376 -0.5399919 
26.417 102.1597 10.7769 0.5955428 0.7635677 0.2495858 
24.0451 102.1597 9.8092 -0.6967382 0.6552088 -0.2919887 
26.6584 9.8778 10.8754 -0.766229 -0.556913 -0.3205322 
20.4671 9.8779 19.9776 -0.5818734 -0.5582315 -0.5914398 
11.1883 9.8779 26.0822 -0.3124218 -0.5575002 -0.7691464 
0.1629 9.8779 28.1825 0.002769212 -0.5593147 -0.8289508 
-10.886 9.8779 25.9921 0.313516 -0.5594302 -0.7672976 
-20.2763 9.8779 19.8443 0.5803938 -0.5583166 -0.5928116 
-26.5784 9.8779 10.6752 0.7641155 -0.5566172 -0.3260443 
-28.8327 9.8779 -0.1194 0.8316013 -0.555359 -0.003952564 
28.7911 9.8778 0.1176 -0.8305584 -0.5569175 0.003966796 
-26.6963 9.8779 -10.8961 0.7672064 -0.5553027 0.320988 
-20.4942 9.8779 -20.0142 0.5819628 -0.5564746 0.5930055 
-11.1707 9.8779 -26.0856 0.3103588 -0.5581008 0.769546 
-0.1452 9.8779 -28.1859 -0.003877921 -0.5591325 0.8290693 
10.8757 9.8779 -25.9484 -0.3147333 -0.5615614 0.7652397 
20.2496 9.8778 -19.8114 -0.5796793 -0.5598913 0.5920252 
26.5407 9.8778 -10.6582 -0.7631623 -0.5581685 0.3256247 
26.3004 0.0775 -10.5617 0.5976793 -0.759738 -0.2560814 
28.5305 0.0775 0.1165 0.6500745 -0.7598623 -0.003516902 
25.9687 0.0775 0.106 -0.7554369 -0.6552086 0.004096329 
23.9389 0.0775 -9.6134 -0.6944425 -0.6551381 0.297563 
20.0663 0.0775 -19.6319 0.4543746 -0.7595637 -0.4654102 
18.2646 0.0775 -17.8692 -0.527815 -0.6550501 0.5406669 
10.7774 0.0775 -25.7134 0.2457704 -0.759438 -0.6023711 
9.8097 0.0775 -23.4046 -0.2865105 -0.6545022 0.6996705 
-0.1524 0.0775 -27.8802 0.002626919 -0.7594398 -0.6505722 
-0.1387 0.0775 -25.3769 -0.002989678 -0.653133 0.7572374 
-11.0589 0.0775 -25.8025 -0.2424516 -0.7595631 -0.6035571 
-10.0659 0.0775 -23.4857 0.2822637 -0.6532954 0.7025186 
-20.2818 0.0775 -19.7967 -0.4547784 -0.7597369 -0.4647327 
-18.4607 0.0775 -18.0191 0.5294393 -0.6534876 0.5409696 
-26.417 0.0775 -10.7769 -0.5995623 -0.759864 -0.2512605 
-24.045 0.0775 -9.8092 0.6980087 -0.6536377 0.2924751 
-28.5305 0.0775 -0.1165 -0.6500745 -0.7598623 0.003516902 
-25.9687 0.0775 -0.106 0.7567507 -0.6536906 -0.004122911 
-26.3004 0.0775 10.5617 -0.5976793 -0.759738 0.2560814 
-23.9389 0.0775 9.6134 0.6956458 -0.6536288 -0.298071 
-20.0663 0.0775 19.6319 -0.4543738 -0.7595633 0.4654117 
-18.2646 0.0775 17.8692 0.5287749 -0.6535073 -0.5415952 
-10.7773 0.0775 25.7134 -0.2457691 -0.7594386 0.6023709 
-9.8096 0.0775 23.4046 0.2860366 -0.6533723 -0.7009192 
0.1524 0.0775 27.8802 -0.002627512 -0.7594397 0.6505724 
0.1387 0.0775 25.3769 0.003157768 -0.6532605 -0.7571266 
11.0589 0.0775 25.8025 0.2424524 -0.7595633 0.6035565 
10.066 0.0775 23.4857 -0.282901 -0.6536731 -0.7019106 
20.2818 0.0775 19.7966 0.4547769 -0.7597401 0.464729 
18.4607 0.0775 18.0191 -0.5283993 -0.655135 -0.5399929 
26.417 0.0775 10.7769 0.5995613 -0.7598646 0.2512611 
24.045 0.0775 9.8092 -0.6967403 -0.6552048 -0.2919926 
34.6865 53.2942 14.1504 0.9224029 0.008946966 0.3861256 
37.4615 53.2942 0.1529 0.9999474 0.008947208 -0.005018547 
34.5334 53.2942 -13.8679 0.9195127 0.008888011 -0.3929599 
26.3478 53.2942 -25.7774 0.6991929 0.008803319 -0.7148789 
14.1511 53.2942 -33.7626 0.3780983 0.008747485 -0.9257242 
-0.2001 53.2942 -36.6078 0.003673006 0.008749208 -0.999955 
-14.5207 53.2942 -33.8797 -0.3735803 0.008807049 -0.927556 
-26.6308 53.2942 -25.9937 -0.7000495 0.00888952 -0.714039 
-34.6865 53.2942 -14.1505 -0.9224029 0.008947623 -0.3861256 
-37.4615 53.2942 -0.1529 -0.9999474 0.008949167 0.005018328 
-34.5334 53.2943 13.8679 -0.919513 0.00888965 0.392959 
-26.3478 53.2942 25.7775 -0.6991917 0.008806353 0.71488 
-14.151 53.2942 33.7626 -0.3780946 0.008748105 0.9257256 
0.2001 53.2942 36.6078 -0.003674161 0.008749355 0.999955 
14.5208 53.2942 33.8797 0.3735811 0.008806603 0.9275557 
26.6308 53.2942 25.9937 0.7000529 0.008886834 0.7140358 
32.7072 94.1589 0.128 0.6404465 0.7679949 -0.003490592 
30.2823 94.1589 12.3597 0.5906654 0.7680002 0.2475685 
31.6209 89.3561 12.9054 0.7697741 -0.5511593 0.3219803 
34.1528 89.3561 0.1343 0.834402 -0.5511423 -0.003933987 
30.1494 94.1579 -12.1218 0.5890002 0.7676936 -0.2524388 
31.4823 89.3551 -12.6561 0.76664 -0.5525721 -0.3269973 
23.0017 94.1565 -22.5224 0.4479463 0.7672866 -0.4589286 
24.019 89.3537 -23.5165 0.5822525 -0.5545599 -0.5945127 
12.3555 94.1555 -29.493 0.2423606 0.7670035 -0.5941103 
12.9019 89.3527 -30.7957 0.3144904 -0.5559614 -0.7694172 
-0.1692 94.1555 -31.976 0.002615065 0.7670121 -0.6416273 
-0.1773 89.3527 -33.3886 0.002813266 -0.5559775 -0.8311926 
-12.6695 94.1565 -29.5943 -0.2389749 0.7673073 -0.5950887 
-13.2306 89.3537 -30.9013 -0.3113968 -0.554604 -0.7716518 
-23.2446 94.1579 -22.7072 -0.4481267 0.767713 -0.4580386 
-24.2728 89.3551 -23.7096 -0.58388 -0.5526165 -0.5947261 
-30.2823 94.1589 -12.3597 -0.5906654 0.7680001 -0.2475687 
-31.6209 89.3561 -12.9054 -0.769766 -0.5511736 -0.3219751 
-32.7072 94.1589 -0.128 -0.6404465 0.7679949 0.003490597 
-34.1528 89.3561 -0.1343 -0.8343918 -0.5511578 0.003933947 
-30.1494 94.1579 12.1218 -0.5890005 0.7676939 0.2524373 
-31.4823 89.3551 12.6561 -0.7666309 -0.552588 0.3269919 
-23.0017 94.1565 22.5225 -0.4479483 0.7672815 0.458935 
-24.019 89.3537 23.5165 -0.5822425 -0.5545803 0.5945035 
-12.3555 94.1555 29.493 -0.2423598 0.7670033 0.5941108 
-12.9019 89.3527 30.7957 -0.314492 -0.5559624 0.7694159 
0.1693 94.1555 31.976 -0.00261331 0.7670122 0.6416272 
0.1773 89.3527 33.3886 -0.002815332 -0.5559775 0.8311926 
12.6696 94.1565 29.5943 0.2389784 0.7673062 0.5950887 
13.2307 89.3537 30.9013 0.3114002 -0.5546029 0.7716513 
23.2446 94.1579 22.7071 0.4481221 0.7677183 0.4580341 
24.2729 89.3551 23.7095 0.5838839 -0.5526125 0.5947261 
35.9401 82.2036 0.1412 0.683242 0.7301831 -0.003627661 
33.2757 82.2036 13.5809 0.6301724 0.7301899 0.2640182 
34.1684 77.4032 13.9448 0.740976 -0.595681 0.3100305 
36.9041 77.4032 0.1453 0.8032155 -0.5956758 -0.003888979 
33.1295 82.2028 -13.3186 0.6282072 0.7300694 -0.2689878 
34.0184 77.4025 -13.6749 0.7379349 -0.5968509 -0.314994 
25.2753 82.2018 -24.747 0.4776039 0.7299227 -0.4889861 
25.9537 77.4015 -25.4099 0.5604029 -0.5984814 -0.572511 
13.5766 82.2011 -32.4065 0.2583093 0.7298243 -0.6329556 
13.941 77.4008 -33.2752 0.3027077 -0.5996316 -0.7408172 
-0.1864 82.2011 -35.135 0.002696009 0.7298303 -0.6836231 
-0.1918 77.4008 -36.077 0.002802324 -0.5996417 -0.8002637 
-13.9224 82.2018 -32.518 -0.254923 0.7299411 -0.6341927 
-14.2967 77.4015 -33.3896 -0.2995968 -0.598506 -0.7429888 
-25.5426 82.2028 -24.9504 -0.4780608 0.730085 -0.4882969 
-26.2283 77.4025 -25.6189 -0.5619375 -0.5968685 -0.5726905 
-33.2756 82.2036 -13.5809 -0.6301696 0.7301911 -0.2640215 
-34.1683 77.4032 -13.9448 -0.7409745 -0.5956818 -0.3100324 
-35.9401 82.2036 -0.1411 -0.6832426 0.7301824 0.003626907 
-36.9041 77.4032 -0.1453 -0.8032163 -0.5956749 0.003884142 
-33.1295 82.2029 13.3186 -0.6281957 0.7300819 0.2689807 
-34.0184 77.4025 13.6749 -0.7379338 -0.5968523 0.3149936 
-25.2753 82.2019 24.747 -0.4775957 0.7299336 0.4889779 
-25.9537 77.4015 25.4099 -0.5603934 -0.598496 0.5725048 
-13.5766 82.2012 32.4065 -0.2583059 0.729833 0.632947 
-13.9409 77.4008 33.2752 -0.3027047 -0.5996372 0.7408139 
0.1865 82.2012 35.135 -0.002695874 0.7298412 0.6836115 
0.1919 77.4008 36.077 -0.002802278 -0.5996432 0.8002626 
13.9225 82.2019 32.518 0.2549214 0.7299495 0.6341836 
14.2967 77.4015 33.3896 0.299594 -0.5985105 0.7429863 
25.5427 82.2029 24.9504 0.4780521 0.7300963 0.4882885 
26.2284 77.4025 25.6189 0.5619361 -0.5968695 0.5726908 
30.3995 94.1525 0.1241 -0.002773799 0.9999962 1.70551e-05 
28.1476 94.1525 11.4828 -0.002552198 0.9999962 -0.001026903 
21.6105 94.1525 21.0935 -0.001660941 0.9999973 -0.001620713 
11.7834 94.1525 27.4928 -0.0006812842 0.9999985 -0.001594409 
0.1624 94.1525 29.7066 6.272351e-06 0.9999992 -0.001324587 
-11.4833 94.1525 27.3978 0.0005450219 0.9999991 -0.001232089 
-21.3808 94.1525 20.918 0.001286451 0.9999984 -0.0012416 
-28.0233 94.1525 11.2536 0.002196987 0.9999972 -0.000901605 
-30.3994 94.1525 -0.1241 0.002773688 0.9999962 -1.704244e-05 
-28.1476 94.1525 -11.4829 0.002552229 0.9999962 0.001026911 
-21.6104 94.1525 -21.0935 0.001660824 0.9999973 0.001620636 
-11.7833 94.1525 -27.4928 0.0006812844 0.9999985 0.001594409 
-0.1623 94.1525 -29.7066 -6.273424e-06 0.9999992 0.001324587 
11.4834 94.1525 -27.3978 -0.0005450444 0.9999991 0.001232108 
21.3809 94.1525 -20.918 -0.00128652 0.9999984 0.001241675 
28.0233 94.1525 -11.2536 -0.002196995 0.9999972 0.0009015996 
29.4141 89.3497 11.9995 0.002472481 -0.9999964 0.001042908 
31.7673 89.3497 0.1297 0.002661519 -0.9999965 2.320918e-05 
29.2842 89.3497 -11.7599 0.002083526 -0.9999975 -0.0008367162 
22.3429 89.3497 -21.8592 0.001193902 -0.9999986 -0.00117106 
12.0001 89.3498 -28.6306 0.0004623931 -0.9999993 -0.001146454 
-0.1696 89.3498 -31.0433 -3.246743e-05 -0.9999992 -0.001257518 
-12.3135 89.3498 -28.7299 -0.0006750789 -0.9999986 -0.001543284 
-22.5828 89.3498 -22.0426 -0.001602238 -0.9999975 -0.001587479 
-29.414 89.3498 -11.9996 -0.002435674 -0.9999965 -0.00102294 
-31.7673 89.3498 -0.1297 -0.002619942 -0.9999966 -2.347501e-05 
-29.2842 89.3498 11.7599 -0.002045143 -0.9999976 0.0008201898 
-22.3429 89.3498 21.8592 -0.001166125 -0.9999987 0.001142553 
-12 89.3498 28.6306 -0.0004661285 -0.9999993 0.001144877 
0.1697 89.3498 31.0433 3.247533e-05 -0.9999992 0.001257519 
12.3136 89.3498 28.7299 0.0006750852 -0.9999986 0.001543285 
22.5829 89.3498 22.0426 0.001603929 -0.9999975 0.001589164 
33.4464 82.2484 0.1365 0.01796248 0.9998387 -0.000110937 
30.9688 82.2484 12.6338 0.01656459 0.9998385 0.006984574 
23.7765 82.2484 23.2077 0.01278853 0.9998315 0.0131692 
12.9644 82.2484 30.2484 0.00698676 0.9998215 0.01755084 
0.1787 82.2484 32.6841 -9.155301e-05 0.9998146 0.01925309 
-12.6343 82.2484 30.1439 -0.007231785 0.9998149 0.01782808 
-23.5238 82.2484 23.0146 -0.01312245 0.9998222 0.01354103 
-30.832 82.2484 12.3815 -0.01681793 0.9998322 0.007269312 
-33.4464 82.2484 -0.1365 -0.01796251 0.9998387 0.0001108506 
-30.9688 82.2484 -12.6338 -0.01656571 0.9998384 -0.006989363 
-23.7765 82.2484 -23.2077 -0.01281908 0.9998307 -0.01320001 
-12.9644 82.2484 -30.2484 -0.007001894 0.9998208 -0.01758842 
-0.1786 82.2484 -32.6841 9.177509e-05 0.9998139 -0.01929354 
12.6344 82.2484 -30.1439 0.007247249 0.9998142 -0.01786577 
23.5239 82.2484 -23.0146 0.01315125 0.9998214 -0.01357011 
30.8321 82.2484 -12.3815 0.01685455 0.9998314 -0.007289313 
31.8134 77.4481 12.9783 -0.0162599 -0.9998445 -0.006828836 
34.3586 77.4481 0.1403 -0.01765002 -0.9998443 0.0001345634 
31.673 77.4481 -12.7192 -0.01654001 -0.9998376 0.007162245 
24.1654 77.448 -23.6423 -0.01288618 -0.9998287 0.01328818 
12.9789 77.4481 -30.966 -0.007131383 -0.9998213 0.01750612 
-0.1835 77.4481 -33.5755 -0.0001147537 -0.9998216 0.0188899 
-13.318 77.4481 -31.0734 0.006837424 -0.9998286 0.01720538 
-24.4249 77.4481 -23.8407 0.01254243 -0.9998382 0.01290026 
-31.8134 77.4481 -12.9784 0.01626058 -0.9998445 0.006829321 
-34.3585 77.4481 -0.1403 0.01764933 -0.9998443 -0.0001346504 
-31.6729 77.4481 12.7192 0.01654136 -0.9998375 -0.007162905 
-24.1654 77.4481 23.6423 0.0129149 -0.999828 -0.01331223 
-12.9789 77.4481 30.966 0.007128118 -0.9998213 -0.01750779 
0.1835 77.4481 33.5755 0.0001148521 -0.9998216 -0.01888991 
13.318 77.4481 31.0734 -0.006837383 -0.9998286 -0.01720537 
24.425 77.4481 23.8406 -0.01254212 -0.9998382 -0.01289979 
32.7072 7.6049 0.128 0.6404471 -0.7679945 -0.003492215 
34.1528 12.4077 0.1343 0.8344021 0.5511422 -0.003935142 
31.6209 12.4077 12.9054 0.7697749 0.551158 0.3219807 
30.2823 7.6049 12.3597 0.5906639 -0.7680003 0.247572 
30.1494 7.606 -12.1217 0.58901 -0.7676849 -0.2524423 
31.4823 12.4087 -12.6561 0.7666425 0.5525678 -0.3269989 
23.0017 7.6074 -22.5224 0.4479564 -0.7672755 -0.4589372 
24.019 12.4101 -23.5165 0.5822541 0.5545577 -0.5945133 
12.3555 7.6083 -29.493 0.2423626 -0.7670035 -0.5941094 
12.9019 12.4111 -30.7957 0.3144964 0.5559465 -0.7694255 
-0.1692 7.6083 -31.976 0.002614045 -0.7670113 -0.6416283 
-0.1773 12.4111 -33.3886 0.002812617 0.5559614 -0.8312033 
-12.6695 7.6074 -29.5943 -0.2389822 -0.7672953 -0.5951012 
-13.2306 12.4101 -30.9013 -0.3114012 0.5545857 -0.7716631 
-23.2446 7.606 -22.7072 -0.4481356 -0.7677023 -0.4580477 
-24.2728 12.4087 -23.7096 -0.583888 0.5525993 -0.5947343 
-30.2823 7.605 -12.3597 -0.5906771 -0.7679895 -0.2475736 
-31.6209 12.4077 -12.9054 -0.7697768 0.551156 -0.3219796 
-32.7072 7.605 -0.128 -0.6404591 -0.7679843 0.003490632 
-34.1528 12.4077 -0.1343 -0.8344033 0.5511402 0.003933956 
-30.1494 7.606 12.1218 -0.5890123 -0.7676832 0.2524424 
-31.4823 12.4087 12.6561 -0.7666413 0.5525707 0.3269964 
-23.0017 7.6074 22.5225 -0.4479583 -0.7672705 0.4589438 
-24.019 12.4101 23.5165 -0.5822515 0.5545623 0.5945114 
-12.3555 7.6083 29.493 -0.2423618 -0.7670034 0.5941099 
-12.9019 12.4111 30.7957 -0.314496 0.5559464 0.7694256 
0.1693 7.6083 31.976 -0.002612284 -0.7670113 0.6416283 
0.1773 12.4111 33.3886 -0.002814664 0.5559614 0.8312033 
12.6696 7.6074 29.5943 0.2389857 -0.7672942 0.5951012 
13.2307 12.4101 30.9013 0.3114051 0.5545846 0.7716624 
23.2446 7.606 22.7071 0.4481351 -0.7677038 0.4580458 
24.2728 12.4087 23.7095 0.5838884 0.5526012 0.5947322 
35.9401 19.5603 0.1412 0.6832536 -0.7301722 -0.003628343 
36.9041 24.3606 0.1454 0.8032279 0.5956593 -0.003883676 
34.1684 24.3606 13.9448 0.7409865 0.5956654 0.3100352 
33.2757 19.5603 13.5809 0.6301827 -0.730179 0.2640236 
33.1295 19.561 -13.3186 0.6282086 -0.7300689 -0.2689861 
34.0184 24.3614 -13.6749 0.7379341 0.5968522 -0.3149933 
25.2753 19.562 -24.747 0.477605 -0.7299212 -0.4889872 
25.9537 24.3624 -25.4099 0.5603938 0.5984959 -0.5725047 
13.5766 19.5627 -32.4065 0.25831 -0.7298222 -0.6329578 
13.941 24.3631 -33.2752 0.3027088 0.5996347 -0.7408142 
-0.1864 19.5627 -35.135 0.002696067 -0.7298282 -0.6836253 
-0.1918 24.3631 -36.077 0.002802212 0.5996441 -0.8002619 
-13.9224 19.562 -32.518 -0.2549233 -0.7299398 -0.6341941 
-14.2967 24.3624 -33.3896 -0.299596 0.5985075 -0.7429879 
-25.5426 19.561 -24.9504 -0.4780575 -0.730088 -0.4882956 
-26.2284 24.3614 -25.6189 -0.5619415 0.5968648 -0.5726903 
-33.2756 19.5603 -13.5809 -0.6301819 -0.7301798 -0.2640231 
-34.1683 24.3606 -13.9448 -0.7409855 0.5956669 -0.3100347 
-35.9401 19.5603 -0.1411 -0.6832542 -0.7301716 0.003626993 
-36.9041 24.3606 -0.1453 -0.8032284 0.5956586 0.003881992 
-33.1295 19.561 13.3186 -0.628208 -0.7300692 0.2689864 
-34.0184 24.3614 13.6749 -0.7379338 0.5968524 0.3149938 
-25.2753 19.562 24.747 -0.477605 -0.7299213 0.4889871 
-25.9537 24.3624 25.4099 -0.5603936 0.5984958 0.5725049 
-13.5766 19.5627 32.4065 -0.2583111 -0.7298199 0.63296 
-13.9409 24.3631 33.2752 -0.3027045 0.5996379 0.7408134 
0.1865 19.5627 35.135 -0.002695949 -0.7298282 0.6836252 
0.1919 24.3631 36.077 -0.002802168 0.5996441 0.8002619 
13.9225 19.562 32.518 0.2549275 -0.7299371 0.6341954 
14.2967 24.3624 33.3896 0.2995952 0.59851 0.7429861 
25.5426 19.561 24.9504 0.4780558 -0.7300885 0.4882964 
26.2284 24.3614 25.6189 0.5619395 0.5968654 0.5726916 
30.3995 7.6113 0.1241 -0.002773387 -0.9999962 1.705284e-05 
28.1476 7.6113 11.4829 -0.002551325 -0.9999962 -0.001022044 
21.6105 7.6113 21.0935 -0.001630104 -0.9999974 -0.001588877 
11.7834 7.6113 27.4928 -0.0006612238 -0.9999986 -0.001555131 
0.1624 7.6113 29.7066 6.259405e-06 -0.9999992 -0.001321855 
-11.4833 7.6113 27.3978 0.000539479 -0.9999991 -0.00122903 
-21.3808 7.6113 20.918 0.001254391 -0.9999985 -0.001208431 
-28.0233 7.6113 11.2536 0.002156375 -0.9999973 -0.0008841008 
-30.3994 7.6113 -0.1241 0.002729884 -0.9999963 -1.677323e-05 
-28.1476 7.6113 -11.4829 0.002511838 -0.9999964 0.00100993 
-21.6104 7.6113 -21.0935 0.001629996 -0.9999974 0.001588799 
-11.7834 7.6113 -27.4928 0.0006612469 -0.9999986 0.001555152 
-0.1623 7.6113 -29.7066 -6.261645e-06 -0.9999992 0.001321856 
11.4834 7.6113 -27.3978 -0.0005395013 -0.9999991 0.001229049 
21.3809 7.6113 -20.918 -0.001254463 -0.9999985 0.001208503 
28.0233 7.6113 -11.2536 -0.002160038 -0.9999973 0.0008812603 
29.4141 12.4141 11.9995 0.002473699 0.9999964 0.001038887 
31.7673 12.4141 0.1297 0.002661098 0.9999965 2.324957e-05 
29.2842 12.4141 -11.7599 0.002082806 0.9999975 -0.0008365703 
22.3429 12.4141 -21.8592 0.001196049 0.9999986 -0.001173258 
12.0001 12.4141 -28.6306 0.0004822457 0.9999992 -0.001184435 
-0.1697 12.4141 -31.0433 -3.231172e-05 0.9999992 -0.001300237 
-12.3136 12.4141 -28.7299 -0.0006908533 0.9999985 -0.001583116 
-22.5828 12.4141 -22.0426 -0.001630899 0.9999974 -0.001616812 
-29.4141 12.4141 -11.9996 -0.002473729 0.9999964 -0.001038925 
-31.7673 12.4141 -0.1297 -0.002661098 0.9999965 -2.324712e-05 
-29.2842 12.4141 11.7599 -0.002082806 0.9999975 0.0008365703 
-22.3429 12.4141 21.8592 -0.001196048 0.9999986 0.001173257 
-12 12.4141 28.6306 -0.0004822284 0.9999992 0.00118442 
0.1697 12.4141 31.0433 3.230932e-05 0.9999992 0.001300237 
12.3136 12.4141 28.7299 0.000690843 0.9999985 0.001583095 
22.5828 12.4141 22.0426 0.001630932 0.9999974 0.001616868 
33.4464 19.5154 0.1365 0.018003 -0.9998379 -0.0001111871 
30.9688 19.5154 12.6338 0.01660197 -0.9998377 0.007000571 
23.7765 19.5154 23.2077 0.01281909 -0.9998307 0.01319997 
12.9644 19.5154 30.2484 0.007001544 -0.9998208 0.0175884 
0.1787 19.5154 32.6841 -9.175625e-05 -0.9998138 0.01929587 
-12.6343 19.5154 30.1439 -0.00724768 -0.9998141 0.01786767 
-23.5238 19.5154 23.0146 -0.01315083 -0.9998214 0.01356979 
-30.832 19.5154 12.3815 -0.01685727 -0.9998314 0.007286482 
-33.4464 19.5154 -0.1365 -0.01800302 -0.9998379 0.0001111005 
-30.9688 19.5154 -12.6338 -0.01660259 -0.9998377 -0.007000722 
-23.7765 19.5154 -23.2077 -0.01281908 -0.9998307 -0.01320001 
-12.9644 19.5154 -30.2484 -0.007001742 -0.9998208 -0.01758862 
-0.1786 19.5154 -32.6841 9.178637e-05 -0.9998138 -0.01929587 
12.6344 19.5154 -30.1439 0.007247891 -0.9998141 -0.0178679 
23.5239 19.5154 -23.0146 0.01315125 -0.9998214 -0.01357011 
30.8321 19.5154 -12.3815 0.01685788 -0.9998314 -0.007286675 
31.8134 24.3158 12.9783 -0.01622394 0.9998452 -0.006813745 
34.3585 24.3158 0.1403 -0.01761238 0.9998449 0.0001381423 
31.6729 24.3158 -12.7192 -0.01654136 0.9998375 0.007162904 
24.1654 24.3158 -23.6423 -0.01291485 0.999828 0.01331241 
12.9789 24.3158 -30.966 -0.007128779 0.9998212 0.01750969 
-0.1835 24.3158 -33.5755 -0.0001149678 0.9998215 0.01889207 
-13.318 24.3158 -31.0734 0.006837384 0.9998286 0.01720538 
-24.4249 24.3158 -23.8407 0.01253819 0.9998382 0.01290106 
-31.8134 24.3158 -12.9784 0.01622468 0.9998452 0.006814239 
-34.3585 24.3158 -0.1403 0.01761239 0.9998449 -0.0001380621 
-31.6729 24.3158 12.7192 0.01654136 0.9998375 -0.007162904 
-24.1654 24.3158 23.6423 0.01291484 0.999828 -0.01331246 
-12.9789 24.3158 30.966 0.007128981 0.9998212 -0.01750991 
0.1835 24.3158 33.5755 0.000115066 0.9998215 -0.01889208 
13.318 24.3158 31.0734 -0.006837382 0.9998286 -0.01720537 
24.425 24.3158 23.8406 -0.01253822 0.9998382 -0.0129009 
-16.1517 94.979 -1.6489 0.6761351 0.5815223 -0.4524083 
-15.7007 94.979 0.6108 0.7980017 0.5815203 0.1582009 
-16.0782 91.9972 0.536 0.9728422 -0.1279943 0.1928618 
-16.4715 91.9972 -1.4349 0.8242893 -0.1279801 -0.5515146 
-18.0684 94.979 -2.9278 0.1581978 0.5815297 -0.7979954 
-18.1432 91.9972 -2.5504 0.1928819 -0.1279622 -0.9728424 
-20.3281 94.979 -2.4768 -0.4524071 0.581533 -0.6761267 
-20.1141 91.9972 -2.1571 -0.5515186 -0.1279592 -0.8242899 
-21.607 94.979 -0.5601 -0.7979902 0.5815347 -0.1582062 
-21.2296 91.9972 -0.4853 -0.9728426 -0.1279701 -0.1928751 
-21.1561 94.979 1.6995 -0.6761404 0.5815303 0.4523899 
-20.8363 91.9972 1.4856 -0.8242832 -0.127971 0.5515258 
-19.2393 94.979 2.9785 -0.1581932 0.581531 0.7979953 
-19.1645 91.9972 2.6011 -0.1928517 -0.1279718 0.9728471 
-16.9797 94.979 2.5275 0.4523942 0.5815362 0.6761324 
-17.1936 91.9972 2.2077 0.5515447 -0.12798 0.8242692 
3 0 1 2 
3 2 3 0 
3 4 0 3 
3 3 5 4 
3 6 4 5 
3 5 7 6 
3 8 6 7 
3 7 9 8 
3 10 8 9 
3 9 11 10 
3 12 10 11 
3 11 13 12 
3 14 12 13 
3 13 15 14 
3 16 14 15 
3 15 17 16 
3 18 16 17 
3 17 19 18 
3 20 18 19 
3 19 21 20 
3 22 20 21 
3 21 23 22 
3 24 22 23 
3 23 25 24 
3 26 24 25 
3 25 27 26 
3 28 26 27 
3 27 29 28 
3 30 28 29 
3 29 31 30 
3 1 30 31 
3 31 2 1 
3 32 33 34 
3 35 36 37 
3 35 37 38 
3 39 35 38 
3 34 39 38 
3 32 34 38 
3 40 32 38 
3 38 41 42 
3 42 43 44 
3 38 42 44 
3 45 46 47 
3 44 45 47 
3 38 44 47 
3 40 38 47 
3 48 49 50 
3 50 51 48 
3 52 48 51 
3 51 53 52 
3 54 52 53 
3 53 55 54 
3 56 54 55 
3 55 57 56 
3 58 56 57 
3 57 59 58 
3 60 58 59 
3 59 61 60 
3 62 60 61 
3 61 63 62 
3 64 62 63 
3 63 65 64 
3 66 64 65 
3 65 67 66 
3 68 66 67 
3 67 69 68 
3 70 68 69 
3 69 71 70 
3 72 70 71 
3 71 73 72 
3 74 72 73 
3 73 75 74 
3 76 74 75 
3 75 77 76 
3 78 76 77 
3 77 79 78 
3 49 78 79 
3 79 50 49 
3 80 81 82 
3 82 83 80 
3 84 85 81 
3 81 80 84 
3 86 87 85 
3 85 84 86 
3 88 89 87 
3 87 86 88 
3 90 91 89 
3 89 88 90 
3 92 93 91 
3 91 90 92 
3 94 95 93 
3 93 92 94 
3 96 97 95 
3 95 94 96 
3 98 99 97 
3 97 96 98 
3 100 101 99 
3 99 98 100 
3 102 103 101 
3 101 100 102 
3 104 105 103 
3 103 102 104 
3 106 107 105 
3 105 104 106 
3 108 109 107 
3 107 106 108 
3 110 111 109 
3 109 108 110 
3 110 83 82 
3 82 111 110 
3 82 81 32 
3 32 40 82 
3 81 85 33 
3 33 32 81 
3 85 87 34 
3 34 33 85 
3 87 89 39 
3 39 34 87 
3 89 91 35 
3 35 39 89 
3 91 93 36 
3 36 35 91 
3 93 95 37 
3 37 36 93 
3 95 97 38 
3 38 37 95 
3 97 99 41 
3 41 38 97 
3 99 101 42 
3 42 41 99 
3 101 103 43 
3 43 42 101 
3 103 105 44 
3 44 43 103 
3 105 107 45 
3 45 44 105 
3 107 109 46 
3 46 45 107 
3 109 111 47 
3 47 46 109 
3 111 82 40 
3 40 47 111 
3 112 113 114 
3 112 114 115 
3 115 116 117 
3 117 118 119 
3 115 117 119 
3 112 115 119 
3 120 112 119 
3 121 122 123 
3 119 121 123 
3 119 123 124 
3 119 124 125 
3 125 126 127 
3 119 125 127 
3 120 119 127 
3 128 129 130 
3 130 131 128 
3 132 128 131 
3 131 133 132 
3 134 132 133 
3 133 135 134 
3 136 134 135 
3 135 137 136 
3 138 136 137 
3 137 139 138 
3 140 138 139 
3 139 141 140 
3 142 140 141 
3 141 143 142 
3 144 142 143 
3 143 145 144 
3 146 144 145 
3 145 147 146 
3 148 146 147 
3 147 149 148 
3 150 148 149 
3 149 151 150 
3 152 150 151 
3 151 153 152 
3 154 152 153 
3 153 155 154 
3 156 154 155 
3 155 157 156 
3 158 156 157 
3 157 159 158 
3 158 159 130 
3 130 129 158 
3 83 110 49 
3 49 48 83 
3 160 161 51 
3 51 50 160 
3 80 83 48 
3 48 52 80 
3 161 162 53 
3 53 51 161 
3 84 80 52 
3 52 54 84 
3 162 163 55 
3 55 53 162 
3 86 84 54 
3 54 56 86 
3 163 164 57 
3 57 55 163 
3 88 86 56 
3 56 58 88 
3 164 165 59 
3 59 57 164 
3 90 88 58 
3 58 60 90 
3 165 166 61 
3 61 59 165 
3 92 90 60 
3 60 62 92 
3 166 167 63 
3 63 61 166 
3 94 92 62 
3 62 64 94 
3 167 168 65 
3 65 63 167 
3 96 94 64 
3 64 66 96 
3 168 169 67 
3 67 65 168 
3 98 96 66 
3 66 68 98 
3 169 170 69 
3 69 67 169 
3 100 98 68 
3 68 70 100 
3 170 171 71 
3 71 69 170 
3 102 100 70 
3 70 72 102 
3 171 172 73 
3 73 71 171 
3 104 102 72 
3 72 74 104 
3 172 173 75 
3 75 73 172 
3 106 104 74 
3 74 76 106 
3 173 174 77 
3 77 75 173 
3 108 106 76 
3 76 78 108 
3 174 175 79 
3 79 77 174 
3 110 108 78 
3 78 49 110 
3 175 160 50 
3 50 79 175 
3 161 160 1 
3 1 0 161 
3 158 129 3 
3 3 2 158 
3 162 161 0 
3 0 4 162 
3 129 128 5 
3 5 3 129 
3 163 162 4 
3 4 6 163 
3 128 132 7 
3 7 5 128 
3 164 163 6 
3 6 8 164 
3 132 134 9 
3 9 7 132 
3 165 164 8 
3 8 10 165 
3 134 136 11 
3 11 9 134 
3 166 165 10 
3 10 12 166 
3 136 138 13 
3 13 11 136 
3 167 166 12 
3 12 14 167 
3 138 140 15 
3 15 13 138 
3 168 167 14 
3 14 16 168 
3 140 142 17 
3 17 15 140 
3 169 168 16 
3 16 18 169 
3 142 144 19 
3 19 17 142 
3 170 169 18 
3 18 20 170 
3 144 146 21 
3 21 19 144 
3 171 170 20 
3 20 22 171 
3 146 148 23 
3 23 21 146 
3 172 171 22 
3 22 24 172 
3 148 150 25 
3 25 23 148 
3 173 172 24 
3 24 26 173 
3 150 152 27 
3 27 25 150 
3 174 173 26 
3 26 28 174 
3 152 154 29 
3 29 27 152 
3 175 174 28 
3 28 30 175 
3 154 156 31 
3 31 29 154 
3 160 175 30 
3 30 1 160 
3 156 158 2 
3 2 31 156 
3 176 177 178 
3 178 179 176 
3 180 176 179 
3 179 181 180 
3 182 180 181 
3 181 183 182 
3 184 182 183 
3 183 185 184 
3 186 184 185 
3 185 187 186 
3 188 186 187 
3 187 189 188 
3 190 188 189 
3 189 191 190 
3 192 190 191 
3 191 193 192 
3 194 192 193 
3 193 195 194 
3 196 194 195 
3 195 197 196 
3 198 196 197 
3 197 199 198 
3 200 198 199 
3 199 201 200 
3 202 200 201 
3 201 203 202 
3 204 202 203 
3 203 205 204 
3 206 204 205 
3 205 207 206 
3 177 206 207 
3 207 178 177 
3 208 209 210 
3 210 211 208 
3 212 208 211 
3 211 213 212 
3 214 212 213 
3 213 215 214 
3 216 214 215 
3 215 217 216 
3 218 216 217 
3 217 219 218 
3 220 218 219 
3 219 221 220 
3 222 220 221 
3 221 223 222 
3 224 222 223 
3 223 225 224 
3 226 224 225 
3 225 227 226 
3 228 226 227 
3 227 229 228 
3 230 228 229 
3 229 231 230 
3 232 230 231 
3 231 233 232 
3 234 232 233 
3 233 235 234 
3 236 234 235 
3 235 237 236 
3 238 236 237 
3 237 239 238 
3 209 238 239 
3 239 210 209 
3 240 241 177 
3 177 176 240 
3 241 242 206 
3 206 177 241 
3 242 243 204 
3 204 206 242 
3 243 244 202 
3 202 204 243 
3 244 245 200 
3 200 202 244 
3 245 246 198 
3 198 200 245 
3 246 247 196 
3 196 198 246 
3 247 248 194 
3 194 196 247 
3 248 249 192 
3 192 194 248 
3 249 250 190 
3 190 192 249 
3 250 251 188 
3 188 190 250 
3 251 252 186 
3 186 188 251 
3 252 253 184 
3 184 186 252 
3 253 254 182 
3 182 184 253 
3 254 255 180 
3 180 182 254 
3 255 240 176 
3 176 180 255 
3 256 257 179 
3 179 178 256 
3 257 258 181 
3 181 179 257 
3 258 259 183 
3 183 181 258 
3 259 260 185 
3 185 183 259 
3 260 261 187 
3 187 185 260 
3 261 262 189 
3 189 187 261 
3 262 263 191 
3 191 189 262 
3 263 264 193 
3 193 191 263 
3 264 265 195 
3 195 193 264 
3 265 266 197 
3 197 195 265 
3 266 267 199 
3 199 197 266 
3 267 268 201 
3 201 199 267 
3 268 269 203 
3 203 201 268 
3 269 270 205 
3 205 203 269 
3 270 271 207 
3 207 205 270 
3 271 256 178 
3 178 207 271 
3 272 273 209 
3 209 208 272 
3 273 274 238 
3 238 209 273 
3 274 275 236 
3 236 238 274 
3 275 276 234 
3 234 236 275 
3 276 277 232 
3 232 234 276 
3 277 278 230 
3 230 232 277 
3 278 279 228 
3 228 230 278 
3 279 280 226 
3 226 228 279 
3 280 281 224 
3 224 226 280 
3 281 282 222 
3 222 224 281 
3 282 283 220 
3 220 222 282 
3 283 284 218 
3 218 220 283 
3 284 285 216 
3 216 218 284 
3 285 286 214 
3 214 216 285 
3 286 287 212 
3 212 214 286 
3 287 272 208 
3 208 212 287 
3 288 289 211 
3 211 210 288 
3 289 290 213 
3 213 211 289 
3 290 291 215 
3 215 213 290 
3 291 292 217 
3 217 215 291 
3 292 293 219 
3 219 217 292 
3 293 294 221 
3 221 219 293 
3 294 295 223 
3 223 221 294 
3 295 296 225 
3 225 223 295 
3 296 297 227 
3 227 225 296 
3 297 298 229 
3 229 227 297 
3 298 299 231 
3 231 229 298 
3 299 300 233 
3 233 231 299 
3 300 301 235 
3 235 233 300 
3 301 302 237 
3 237 235 301 
3 302 303 239 
3 239 237 302 
3 303 288 210 
3 210 239 303 
3 304 305 306 
3 306 307 304 
3 308 309 305 
3 305 304 308 
3 310 311 309 
3 309 308 310 
3 312 313 311 
3 311 310 312 
3 314 315 313 
3 313 312 314 
3 316 317 315 
3 315 314 316 
3 318 319 317 
3 317 316 318 
3 320 321 319 
3 319 318 320 
3 322 323 321 
3 321 320 322 
3 324 325 323 
3 323 322 324 
3 326 327 325 
3 325 324 326 
3 328 329 327 
3 327 326 328 
3 330 331 329 
3 329 328 330 
3 332 333 331 
3 331 330 332 
3 334 335 333 
3 333 332 334 
3 307 306 335 
3 335 334 307 
3 336 337 338 
3 338 339 336 
3 340 341 337 
3 337 336 340 
3 342 343 341 
3 341 340 342 
3 344 345 343 
3 343 342 344 
3 346 347 345 
3 345 344 346 
3 348 349 347 
3 347 346 348 
3 350 351 349 
3 349 348 350 
3 352 353 351 
3 351 350 352 
3 354 355 353 
3 353 352 354 
3 356 357 355 
3 355 354 356 
3 358 359 357 
3 357 356 358 
3 360 361 359 
3 359 358 360 
3 362 363 361 
3 361 360 362 
3 364 365 363 
3 363 362 364 
3 366 367 365 
3 365 364 366 
3 339 338 367 
3 367 366 339 
3 368 304 307 
3 307 369 368 
3 369 307 334 
3 334 370 369 
3 370 334 332 
3 332 371 370 
3 371 332 330 
3 330 372 371 
3 372 330 328 
3 328 373 372 
3 373 328 326 
3 326 374 373 
3 374 326 324 
3 324 375 374 
3 375 324 322 
3 322 376 375 
3 376 322 320 
3 320 377 376 
3 377 320 318 
3 318 378 377 
3 378 318 316 
3 316 379 378 
3 379 316 314 
3 314 380 379 
3 380 314 312 
3 312 381 380 
3 381 312 310 
3 310 382 381 
3 382 310 308 
3 308 383 382 
3 383 308 304 
3 304 368 383 
3 384 306 305 
3 305 385 384 
3 385 305 309 
3 309 386 385 
3 386 309 311 
3 311 387 386 
3 387 311 313 
3 313 388 387 
3 388 313 315 
3 315 389 388 
3 389 315 317 
3 317 390 389 
3 390 317 319 
3 319 391 390 
3 391 319 321 
3 321 392 391 
3 392 321 323 
3 323 393 392 
3 393 323 325 
3 325 394 393 
3 394 325 327 
3 327 395 394 
3 395 327 329 
3 329 396 395 
3 396 329 331 
3 331 397 396 
3 397 331 333 
3 333 398 397 
3 398 333 335 
3 335 399 398 
3 399 335 306 
3 306 384 399 
3 400 336 339 
3 339 401 400 
3 401 339 366 
3 366 402 401 
3 402 366 364 
3 364 403 402 
3 403 364 362 
3 362 404 403 
3 404 362 360 
3 360 405 404 
3 405 360 358 
3 358 406 405 
3 406 358 356 
3 356 407 406 
3 407 356 354 
3 354 408 407 
3 408 354 352 
3 352 409 408 
3 409 352 350 
3 350 410 409 
3 410 350 348 
3 348 411 410 
3 411 348 346 
3 346 412 411 
3 412 346 344 
3 344 413 412 
3 413 344 342 
3 342 414 413 
3 414 342 340 
3 340 415 414 
3 415 340 336 
3 336 400 415 
3 416 338 337 
3 337 417 416 
3 417 337 341 
3 341 418 417 
3 418 341 343 
3 343 419 418 
3 419 343 345 
3 345 420 419 
3 420 345 347 
3 347 421 420 
3 421 347 349 
3 349 422 421 
3 422 349 351 
3 351 423 422 
3 423 351 353 
3 353 424 423 
3 424 353 355 
3 355 425 424 
3 425 355 357 
3 357 426 425 
3 426 357 359 
3 359 427 426 
3 427 359 361 
3 361 428 427 
3 428 361 363 
3 363 429 428 
3 429 363 365 
3 365 430 429 
3 430 365 367 
3 367 431 430 
3 431 367 338 
3 338 416 431 
3 432 433 434 
3 434 435 432 
3 436 432 435 
3 435 437 436 
3 438 436 437 
3 437 439 438 
3 440 438 439 
3 439 441 440 
3 442 440 441 
3 441 443 442 
3 444 442 443 
3 443 445 444 
3 446 444 445 
3 445 447 446 
3 433 446 447 
3 447 434 433 
3 446 433 432 
3 446 432 436 
3 446 436 438 
3 446 438 440 
3 446 440 442 
3 446 442 444 
3 130 120 127 
3 127 131 130 
3 131 127 126 
3 126 133 131 
3 133 126 125 
3 125 135 133 
3 135 125 124 
3 124 137 135 
3 137 124 123 
3 123 139 137 
3 139 123 122 
3 122 141 139 
3 141 122 121 
3 121 143 141 
3 143 121 119 
3 119 145 143 
3 145 119 118 
3 118 147 145 
3 147 118 117 
3 117 149 147 
3 149 117 116 
3 116 151 149 
3 151 116 115 
3 115 153 151 
3 153 115 114 
3 114 155 153 
3 155 114 113 
3 113 157 155 
3 157 113 112 
3 112 159 157 
3 159 112 120 
3 120 130 159 
