ply
format ascii 1.0
comment VCGLIB generated
element vertex 546
property float x
property float y
property float z
property float nx
property float ny
property float nz
element face 1078
property list uchar int vertex_indices
end_header
-0.235328 4.488896 0.041088 -0.7922403 0.03810458 0.6090184 
0.074528 4.540512 0.07072 0.6119325 0.1818439 0.7697216 
0.118528 4.482368 -0.239712 0.7924645 -0.03975992 -0.6086208 
-0.19136 4.430752 -0.269376 -0.6114558 -0.1869187 -0.7688844 
-0.225504 5.509312 -0.063936 -0.7888071 0.09882073 0.6066447 
0.08944 5.481888 -0.022912 0.6055668 -0.05966015 0.793555 
0.131552 5.470816 -0.339232 0.7887498 -0.09987095 -0.6065473 
-0.183424 5.49824 -0.380256 -0.6061134 0.05408137 -0.7935375 
-0.0664 6.460896 -0.013984 -0.7927656 0.07062256 0.6054216 
0.247168 6.413888 0.028512 0.5877997 -0.1852815 0.7875039 
0.29344 6.440544 -0.28656 0.7935454 -0.06578515 -0.6049447 
-0.020128 6.487552 -0.329056 -0.587814 0.1855097 -0.7874395 
0.030464 7.253568 0.104832 -0.8121445 -0.1153078 0.5719489 
0.338976 7.275296 0.15856 0.5981306 -0.1163663 0.7929053 
0.385984 7.33328 -0.152224 0.8108039 0.1362621 -0.5692361 
0.077472 7.31152 -0.205984 -0.5995659 0.1312302 -0.7894931 
-0.117088 7.820192 0.214112 -0.6520848 -0.5821565 0.485674 
0.122272 7.986816 0.292384 0.4802401 0.2201553 0.849059 
0.161568 8.067904 -0.014464 0.6526179 0.5837064 -0.4830907 
-0.077792 7.90128 -0.092768 -0.4818996 -0.214407 -0.8495896 
-0.719904 8.144064 0.248608 -0.250852 -0.8585455 0.4471833 
-0.628928 8.42256 0.340832 0.1426251 0.4576553 0.8776159 
-0.59872 8.512864 0.03536 0.2674294 0.8532162 -0.4477764 
-0.689696 8.234368 -0.056864 -0.1303766 -0.4618652 -0.8773155 
-0.311584 8.09968 -0.061376 -0.2839402 -0.3943773 -0.873982 
-0.002496 7.567584 0.165056 -0.784806 -0.3164055 0.5328858 
-1.134336 8.643712 0.026208 -0.7787006 0.532628 -0.3315612 
0.051712 8.004864 -0.130336 0.1249248 0.2641059 -0.9563691 
-0.127264 3.888128 -0.161984 -0.6081285 -0.2224656 -0.7620295 
-1.167328 8.246016 0.239648 -0.8118446 -0.5306781 0.2434935 
0.078848 6.43072 0.086048 -0.1457513 -0.08257714 0.985869 
0.315168 6.85712 0.087936 0.5916768 -0.1806422 0.7856761 
0.206816 5.961984 -0.327488 0.7880318 -0.09881942 -0.6076518 
-0.15728 7.819072 0.041088 -0.7923755 -0.5554051 -0.2523218 
0.189248 5.469504 -0.170816 0.9845772 -0.1129248 0.1336254 
0.051904 5.008448 0.001696 0.6144893 0.0690635 0.7858964 
0.243456 7.336896 -0.2568 0.1534194 0.1815308 -0.971344 
-0.681952 8.260736 0.371104 -0.08616439 -0.2875407 0.9538847 
-0.63664 8.396224 -0.087136 0.09143673 0.2853903 -0.9540397 
-0.150688 5.999008 -0.05296 -0.7879046 0.09927081 0.6077432 
0.148224 6.470688 -0.386592 0.1458462 0.08326552 -0.985797 
-0.140832 8.336224 0.027456 0.4389707 0.7756021 -0.4535925 
-0.091392 4.529248 0.133504 -0.1239032 0.1582832 0.9795889 
0.285664 7.656 0.230144 0.5779977 0.02539224 0.8156433 
0.049888 6.92576 -0.270912 -0.5912872 0.1869015 -0.7845045 
-0.345472 8.012128 0.244448 -0.4201978 -0.7869691 0.4517891 
0.20176 8.069024 0.158528 0.7885487 0.5606266 0.2527623 
-0.023168 7.27712 -0.064 -0.9886841 0.01451654 -0.149309 
0.17504 3.99136 -0.143072 0.7921483 -0.02905251 -0.6096368 
-1.161664 8.552448 0.33168 -0.4030339 0.4573032 0.7927405 
-0.72752 8.119584 0.0728 -0.261784 -0.9181775 -0.2973538 
-0.121664 6.485984 -0.182144 -0.9750381 0.1814081 -0.1280305 
-0.221408 4.968928 -0.350784 -0.6144964 -0.07569944 -0.7852794 
-0.17504 3.972096 0.143072 -0.7919127 0.02782027 0.6100004 
-0.02544 4.442016 -0.33216 0.1241097 -0.1599682 -0.979289 
0.041824 7.638752 -0.143488 -0.5846426 -0.004734629 -0.8112772 
0.16272 5.952992 -0.011264 0.5935569 -0.1439908 0.7918062 
-1.14 8.33728 -0.065856 -0.7349777 -0.2717769 -0.6212448 
0.17296 7.249952 0.209408 -0.1545183 -0.1752136 0.9723293 
0.348704 6.415456 -0.1184 0.9758172 -0.1767452 0.1286158 
0.439616 7.309728 0.016608 0.9877455 0.01703114 0.1551416 
-0.290816 4.446912 -0.121568 -0.987512 -0.1057771 -0.1167531 
-0.07856 5.498368 0.035648 -0.1280234 0.02906735 0.9913451 
-0.174752 8.248672 0.33328 0.2958596 0.3869891 0.8733307 
-0.591072 8.537344 0.211136 0.2870208 0.9105579 0.2974952 
0.36272 6.89984 -0.225216 0.8047967 0.006979397 -0.5935095 
-0.015392 5.48176 -0.438816 0.1279597 -0.03085157 -0.9912994 
-0.10656 6.008 -0.369216 -0.5941188 0.1402628 -0.7920538 
0.002336 6.88304 0.042208 -0.8037076 0.005352925 0.5950004 
0.093504 4.974976 -0.312896 0.7916462 -0.07187364 -0.6067376 
0.127264 4.075328 0.161984 0.6086398 0.2188506 0.7626677 
-0.007232 7.883232 0.329984 -0.1236098 -0.2623998 0.9570094 
0.173984 4.52432 -0.077056 0.9879601 0.1003219 0.1177725 
-0.26304 5.0024 -0.036192 -0.7916102 0.06987183 0.6070183 
0.329984 7.727168 -0.0784 0.7774779 0.3399849 -0.5290922 
-0.2832 5.510624 -0.232352 -0.9851812 0.1076832 -0.133501 
-0.035808 4.044704 0.2288 -0.1255962 0.1771694 0.9761335 
0.22672 4.059136 0.014176 0.9845637 0.1340804 0.1125024 
0.035808 3.918752 -0.2288 0.1258825 -0.1783709 -0.9758778 
-0.22672 3.90432 -0.014176 -0.984122 -0.138008 -0.111614 
-0.115968 5.013792 0.061408 -0.1231637 0.1005238 0.987282 
0.151424 4.993216 -0.146144 0.9916667 -0.002204296 0.1288111 
-0.053536 4.963584 -0.410496 0.1232111 -0.102725 -0.9870495 
-0.32096 4.98416 -0.202944 -0.9917523 -0.004750277 -0.1280814 
-0.004992 5.97376 0.046944 -0.1367533 -0.03107407 0.9901177 
0.263104 5.945984 -0.158944 0.9764339 -0.1716865 0.1307694 
0.061152 5.987232 -0.427424 0.1367018 0.03003568 -0.9901568 
-0.206976 6.015008 -0.221504 -0.9768448 0.169249 -0.1308782 
0.146848 6.859392 0.14336 -0.1525842 -0.1293807 0.979785 
0.417152 6.872 -0.057216 0.9836085 -0.1205839 0.1340661 
0.218208 6.923488 -0.326368 0.1527879 0.1326894 -0.9793107 
-0.052096 6.91088 -0.12576 -0.9818243 0.1368843 -0.1314675 
0.130496 7.593984 0.274752 -0.146311 -0.2212484 0.9641796 
0.379872 7.713696 0.09216 0.9453809 0.258557 0.1985022 
0.196992 7.700768 -0.188096 0.1437613 0.2290042 -0.9627512 
-0.052384 7.581056 -0.005472 -0.9567536 -0.2192796 -0.1911519 
-0.268576 8.108512 0.365344 -0.09870753 -0.2844297 0.9536019 
-0.115104 8.351584 0.202592 0.5131897 0.8078206 0.289935 
-0.217728 8.23984 -0.093408 0.1046841 0.2805488 -0.9541141 
-0.3712 7.996736 0.069344 -0.4865325 -0.8235851 -0.2915368 
-1.171328 8.376416 0.362048 -0.560757 -0.2289264 0.7957036 
-1.146592 8.674656 0.201952 -0.6640384 0.7306182 0.1589029 
-1.130336 8.513312 -0.096192 -0.1853589 0.2859602 -0.940143 
-1.155072 8.21504 0.063904 -0.7308047 -0.6333494 -0.2545448 
0 -4.8 0 -1.876133e-09 -1 0 
0.973984 -4.717824 0 0.1998849 -0.9798194 0 
1.907648 -4.472 0 0.3761203 -0.9265709 0 
2.76064 -4.063392 0 0.5578669 -0.8299305 -2.507736e-09 
0 -4.717824 0.973984 0 -0.9798194 0.1998849 
0 -4.472 1.907648 0 -0.9265709 0.3761203 
0 -4.063392 2.76064 2.507736e-09 -0.8299305 0.5578669 
-0.973984 -4.717824 0 -0.1998849 -0.9798194 0 
-1.907648 -4.472 0 -0.3761203 -0.9265709 0 
-2.76064 -4.063392 0 -0.5578669 -0.8299305 2.507736e-09 
0 -4.717824 -0.973984 0 -0.9798194 -0.1998849 
0 -4.472 -1.907648 0 -0.9265709 -0.3761203 
0 -4.063392 -2.76064 2.507736e-09 -0.8299305 -0.5578669 
0.9568 -4.636864 -0.9568 0.1726955 -0.9697178 -0.1726955 
1.874048 -4.39488 -0.922464 0.345472 -0.9218703 -0.1755117 
2.712192 -3.992832 -0.888128 0.5216475 -0.834313 -0.1783416 
0.922464 -4.39488 -1.874048 0.1755117 -0.9218703 -0.345472 
1.80288 -4.16832 -1.80288 0.3426554 -0.8747426 -0.3426554 
2.599232 -3.797088 -1.72368 0.5073925 -0.7920702 -0.3393784 
0.888128 -3.992832 -2.712192 0.1783416 -0.834313 -0.5216476 
1.72368 -3.797088 -2.599232 0.3393784 -0.7920702 -0.5073925 
2.454176 -3.491936 -2.454176 0.4895813 -0.7215403 -0.4895813 
0.9568 -4.636864 0.9568 0.1726955 -0.9697178 0.1726955 
0.922464 -4.39488 1.874048 0.1755117 -0.9218703 0.345472 
0.888128 -3.992832 2.712192 0.1783416 -0.834313 0.5216476 
1.874048 -4.39488 0.922464 0.345472 -0.9218703 0.1755117 
1.80288 -4.16832 1.80288 0.3426554 -0.8747426 0.3426554 
1.72368 -3.797088 2.599232 0.3393784 -0.7920702 0.5073925 
2.712192 -3.992832 0.888128 0.5216475 -0.834313 0.1783416 
2.599232 -3.797088 1.72368 0.5073925 -0.7920702 0.3393784 
2.454176 -3.491936 2.454176 0.4895813 -0.7215402 0.4895814 
-0.9568 -4.636864 0.9568 -0.1726955 -0.9697178 0.1726955 
-1.874048 -4.39488 0.922464 -0.345472 -0.9218703 0.1755117 
-2.712192 -3.992832 0.888128 -0.5216475 -0.834313 0.1783416 
-0.922464 -4.39488 1.874048 -0.1755117 -0.9218703 0.345472 
-1.80288 -4.16832 1.80288 -0.3426554 -0.8747426 0.3426554 
-2.599232 -3.797088 1.72368 -0.5073925 -0.7920702 0.3393784 
-0.888128 -3.992832 2.712192 -0.1783416 -0.834313 0.5216476 
-1.72368 -3.797088 2.599232 -0.3393784 -0.7920702 0.5073925 
-2.454176 -3.491936 2.454176 -0.4895813 -0.7215403 0.4895813 
-0.9568 -4.636864 -0.9568 -0.1726955 -0.9697178 -0.1726955 
-0.922464 -4.39488 -1.874048 -0.1755117 -0.9218703 -0.345472 
-0.888128 -3.992832 -2.712192 -0.1783416 -0.834313 -0.5216476 
-1.874048 -4.39488 -0.922464 -0.345472 -0.9218703 -0.1755117 
-1.80288 -4.16832 -1.80288 -0.3426554 -0.8747426 -0.3426554 
-1.72368 -3.797088 -2.599232 -0.3393784 -0.7920702 -0.5073925 
-2.712192 -3.992832 -0.888128 -0.5216475 -0.834313 -0.1783416 
-2.599232 -3.797088 -1.72368 -0.5073925 -0.7920702 -0.3393784 
-2.454176 -3.491936 -2.454176 -0.4895813 -0.7215402 -0.4895814 
0 4.677344 -1.163552 -0.06931632 0.6879212 -0.7224678 
0 4.357536 -2.050304 0 0.928166 -0.3721665 
0 4.063392 -2.76064 2.510485e-09 0.8358044 -0.5490274 
-1.163552 4.677344 0 -0.7224678 0.6879212 0.06931631 
-2.050304 4.357536 0 -0.3721665 0.928166 0 
-2.76064 4.063392 0 -0.5490274 0.8358044 -2.510485e-09 
0 4.677344 1.163552 0.06931634 0.6879212 0.7224678 
0 4.357536 2.050304 0 0.928166 0.3721665 
0 4.063392 2.76064 -2.510485e-09 0.8358044 0.5490274 
1.163552 4.677344 0 0.7224678 0.6879212 -0.06931633 
2.050304 4.357536 0 0.3721665 0.928166 0 
2.76064 4.063392 0 0.5490274 0.8358044 -2.510485e-09 
0.822752 4.677344 -0.822752 0.4498206 0.7041575 -0.5493849 
0.867712 4.357536 -1.942432 0.1445756 0.9247961 -0.3519235 
0.888128 3.992832 -2.712192 0.1660189 0.8402148 -0.516214 
1.942432 4.357536 -0.867712 0.3519235 0.9247961 -0.1445756 
1.645792 4.357536 -1.645792 0.3218646 0.8903968 -0.3218646 
1.72368 3.797088 -2.599232 0.3289284 0.7909921 -0.5158852 
2.712192 3.992832 -0.888128 0.516214 0.8402148 -0.1660189 
2.599232 3.797088 -1.72368 0.5158852 0.7909921 -0.3289284 
2.454176 3.491936 -2.454176 0.4920662 0.7181516 -0.4920662 
-0.822752 4.677344 -0.822752 -0.549385 0.7041574 -0.4498205 
-1.942432 4.357536 -0.867712 -0.3519235 0.9247961 -0.1445756 
-2.712192 3.992832 -0.888128 -0.516214 0.8402148 -0.1660189 
-0.867712 4.357536 -1.942432 -0.1445756 0.9247961 -0.3519235 
-1.645792 4.357536 -1.645792 -0.3218646 0.8903968 -0.3218646 
-2.599232 3.797088 -1.72368 -0.5158852 0.7909921 -0.3289284 
-0.888128 3.992832 -2.712192 -0.1660189 0.8402148 -0.516214 
-1.72368 3.797088 -2.599232 -0.3289284 0.7909921 -0.5158852 
-2.454176 3.491936 -2.454176 -0.4920662 0.7181516 -0.4920662 
-0.822752 4.677344 0.822752 -0.4498206 0.7041574 0.5493849 
-0.867712 4.357536 1.942432 -0.1445756 0.9247961 0.3519235 
-0.888128 3.992832 2.712192 -0.1660189 0.8402148 0.516214 
-1.942432 4.357536 0.867712 -0.3519235 0.9247961 0.1445756 
-1.645792 4.357536 1.645792 -0.3218646 0.8903968 0.3218646 
-1.72368 3.797088 2.599232 -0.3289284 0.7909921 0.5158852 
-2.712192 3.992832 0.888128 -0.516214 0.8402148 0.1660189 
-2.599232 3.797088 1.72368 -0.5158852 0.7909921 0.3289284 
-2.454176 3.491936 2.454176 -0.4920662 0.7181516 0.4920662 
0.822752 4.677344 0.822752 0.5493849 0.7041574 0.4498206 
1.942432 4.357536 0.867712 0.3519235 0.9247961 0.1445756 
2.712192 3.992832 0.888128 0.516214 0.8402148 0.1660189 
0.867712 4.357536 1.942432 0.1445756 0.9247961 0.3519235 
1.645792 4.357536 1.645792 0.3218646 0.8903968 0.3218646 
2.599232 3.797088 1.72368 0.5158852 0.7909921 0.3289284 
0.888128 3.992832 2.712192 0.1660189 0.8402148 0.516214 
1.72368 3.797088 2.599232 0.3289284 0.7909921 0.5158852 
2.454176 3.491936 2.454176 0.4920662 0.7181516 0.4920662 
4.8 0 0 1 0 1.876133e-09 
4.717824 0 -0.973984 0.9798216 0 -0.1998743 
4.472032 0 -1.907648 0.9265689 2.503896e-09 -0.3761251 
4.063392 0 -2.76064 0.8299274 -5.015469e-09 -0.5578713 
4.717824 0.973984 0 0.9798194 0.1998849 0 
4.472 1.907648 0 0.9265709 0.3761203 0 
4.063392 2.76064 0 0.8299305 0.5578669 -2.507736e-09 
4.717824 0 0.973984 0.9798194 0 0.1998849 
4.472 0 1.907648 0.9265709 0 0.3761203 
4.063392 0 2.76064 0.8299305 2.507736e-09 0.5578669 
4.717824 -0.973984 0 0.9798194 -0.1998849 0 
4.472 -1.907648 0 0.9265709 -0.3761203 0 
4.063392 -2.76064 0 0.8299305 -0.5578669 -2.507736e-09 
4.636864 -0.9568 -0.9568 0.9697178 -0.1726982 -0.1726928 
4.39488 -0.922464 -1.874048 0.9218699 -0.1755198 -0.345469 
3.992832 -0.888128 -2.712192 0.8343095 -0.1783467 -0.5216515 
4.39488 -1.874048 -0.922464 0.9218703 -0.345472 -0.1755117 
4.16832 -1.80288 -1.80288 0.8747426 -0.3426554 -0.3426554 
3.797088 -1.72368 -2.599232 0.7920702 -0.3393784 -0.5073925 
3.992832 -2.712192 -0.888128 0.834313 -0.5216475 -0.1783416 
3.797088 -2.599232 -1.72368 0.7920702 -0.5073925 -0.3393784 
3.491936 -2.454176 -2.454176 0.7215402 -0.4895813 -0.4895814 
4.636864 0.9568 -0.9568 0.9697178 0.1726982 -0.1726928 
4.39488 1.874048 -0.922464 0.9218703 0.345472 -0.1755117 
3.992832 2.712192 -0.888128 0.834313 0.5216475 -0.1783416 
4.39488 0.922464 -1.874048 0.9218699 0.1755198 -0.345469 
4.16832 1.80288 -1.80288 0.8747426 0.3426554 -0.3426554 
3.797088 2.599232 -1.72368 0.7920702 0.5073925 -0.3393784 
3.992832 0.888128 -2.712192 0.8343095 0.1783467 -0.5216515 
3.797088 1.72368 -2.599232 0.7920702 0.3393784 -0.5073925 
3.491936 2.454176 -2.454176 0.7215403 0.4895813 -0.4895813 
4.636864 0.9568 0.9568 0.9697178 0.1726955 0.1726955 
4.39488 0.922464 1.874048 0.9218703 0.1755117 0.345472 
3.992832 0.888128 2.712192 0.834313 0.1783416 0.5216476 
4.39488 1.874048 0.922464 0.9218703 0.345472 0.1755117 
4.16832 1.80288 1.80288 0.8747426 0.3426554 0.3426554 
3.797088 1.72368 2.599232 0.7920702 0.3393784 0.5073925 
3.992832 2.712192 0.888128 0.834313 0.5216475 0.1783416 
3.797088 2.599232 1.72368 0.7920702 0.5073925 0.3393784 
3.491936 2.454176 2.454176 0.7215402 0.4895813 0.4895814 
4.636864 -0.9568 0.9568 0.9697178 -0.1726955 0.1726955 
4.39488 -1.874048 0.922464 0.9218703 -0.345472 0.1755117 
3.992832 -2.712192 0.888128 0.834313 -0.5216475 0.1783416 
4.39488 -0.922464 1.874048 0.9218703 -0.1755117 0.345472 
4.16832 -1.80288 1.80288 0.8747426 -0.3426554 0.3426554 
3.797088 -2.599232 1.72368 0.7920702 -0.5073925 0.3393784 
3.992832 -0.888128 2.712192 0.834313 -0.1783416 0.5216476 
3.797088 -1.72368 2.599232 0.7920702 -0.3393784 0.5073925 
3.491936 -2.454176 2.454176 0.7215403 -0.4895813 0.4895813 
0 0 4.8 -1.876133e-09 0 1 
0.973984 0 4.717824 0.1998743 0 0.9798216 
1.907648 0 4.472032 0.3761251 2.503896e-09 0.9265689 
2.76064 0 4.063392 0.5578713 -5.015469e-09 0.8299274 
0 0.973984 4.717824 0 0.1998743 0.9798216 
0 1.907648 4.472032 -2.503896e-09 0.3761251 0.9265689 
0 2.76064 4.063392 5.015469e-09 0.5578713 0.8299274 
-0.973984 0 4.717824 -0.1998849 0 0.9798194 
-1.907648 0 4.472 -0.3761203 0 0.9265709 
-2.76064 0 4.063392 -0.5578669 2.507736e-09 0.8299305 
0 -0.973984 4.717824 0 -0.1998849 0.9798194 
0 -1.907648 4.472 0 -0.3761203 0.9265709 
0 -2.76064 4.063392 2.507736e-09 -0.5578669 0.8299305 
0.9568 -0.9568 4.636864 0.1726928 -0.1726982 0.9697178 
1.874048 -0.922464 4.39488 0.345469 -0.1755198 0.9218699 
2.712192 -0.888128 3.992832 0.5216515 -0.1783467 0.8343095 
0.922464 -1.874048 4.39488 0.1755117 -0.3454719 0.9218703 
1.80288 -1.80288 4.16832 0.3426554 -0.3426554 0.8747426 
2.599232 -1.72368 3.797088 0.5073925 -0.3393784 0.7920702 
0.888128 -2.712192 3.992832 0.1783416 -0.5216475 0.834313 
1.72368 -2.599232 3.797088 0.3393784 -0.5073925 0.7920702 
2.454176 -2.454176 3.491936 0.4895814 -0.4895813 0.7215402 
0.9568 0.9568 4.636864 0.1726954 0.1726954 0.9697178 
0.922464 1.874048 4.39488 0.1755198 0.345469 0.9218699 
0.888128 2.712192 3.992832 0.1783467 0.5216515 0.8343095 
1.874048 0.922464 4.39488 0.345469 0.1755198 0.9218699 
1.80288 1.80288 4.16832 0.3426554 0.3426554 0.8747426 
1.72368 2.599232 3.797088 0.3393784 0.5073925 0.7920702 
2.712192 0.888128 3.992832 0.5216515 0.1783467 0.8343095 
2.599232 1.72368 3.797088 0.5073925 0.3393784 0.7920702 
2.454176 2.454176 3.491936 0.4895813 0.4895814 0.7215402 
-0.9568 0.9568 4.636864 -0.1726982 0.1726928 0.9697178 
-1.874048 0.922464 4.39488 -0.3454719 0.1755117 0.9218703 
-2.712192 0.888128 3.992832 -0.5216475 0.1783416 0.834313 
-0.922464 1.874048 4.39488 -0.1755198 0.345469 0.9218699 
-1.80288 1.80288 4.16832 -0.3426554 0.3426554 0.8747426 
-2.599232 1.72368 3.797088 -0.5073925 0.3393784 0.7920702 
-0.888128 2.712192 3.992832 -0.1783467 0.5216515 0.8343095 
-1.72368 2.599232 3.797088 -0.3393784 0.5073925 0.7920702 
-2.454176 2.454176 3.491936 -0.4895814 0.4895813 0.7215402 
-0.9568 -0.9568 4.636864 -0.1726955 -0.1726955 0.9697178 
-0.922464 -1.874048 4.39488 -0.1755117 -0.3454719 0.9218703 
-0.888128 -2.712192 3.992832 -0.1783416 -0.5216475 0.834313 
-1.874048 -0.922464 4.39488 -0.3454719 -0.1755117 0.9218703 
-1.80288 -1.80288 4.16832 -0.3426554 -0.3426554 0.8747426 
-1.72368 -2.599232 3.797088 -0.3393784 -0.5073925 0.7920702 
-2.712192 -0.888128 3.992832 -0.5216475 -0.1783416 0.834313 
-2.599232 -1.72368 3.797088 -0.5073925 -0.3393784 0.7920702 
-2.454176 -2.454176 3.491936 -0.4895813 -0.4895814 0.7215402 
-4.8 0 0 -1 0 -1.876133e-09 
-4.717824 0 0.973984 -0.9798216 0 0.1998743 
-4.472032 0 1.907648 -0.9265689 2.503896e-09 0.3761251 
-4.063392 0 2.76064 -0.8299274 -5.015469e-09 0.5578713 
-4.717824 0.973984 0 -0.9798216 0.1998743 0 
-4.472032 1.907648 0 -0.9265689 0.3761251 0 
-4.063392 2.76064 0 -0.8299275 0.5578713 2.507735e-09 
-4.717824 0 -0.973984 -0.9798194 0 -0.1998849 
-4.472 0 -1.907648 -0.9265709 0 -0.3761203 
-4.063392 0 -2.76064 -0.8299305 2.507736e-09 -0.5578669 
-4.717824 -0.973984 0 -0.9798216 -0.1998743 0 
-4.472032 -1.907648 0 -0.9265689 -0.3761251 0 
-4.063392 -2.76064 0 -0.8299275 -0.5578713 2.507735e-09 
-4.636864 -0.9568 0.9568 -0.9697178 -0.1726954 0.1726954 
-4.39488 -0.922464 1.874048 -0.9218699 -0.1755198 0.345469 
-3.992832 -0.888128 2.712192 -0.8343095 -0.1783467 0.5216515 
-4.39488 -1.874048 0.922464 -0.9218699 -0.345469 0.1755198 
-4.16832 -1.80288 1.80288 -0.8747426 -0.3426554 0.3426554 
-3.797088 -1.72368 2.599232 -0.7920702 -0.3393784 0.5073925 
-3.992832 -2.712192 0.888128 -0.8343095 -0.5216515 0.1783467 
-3.797088 -2.599232 1.72368 -0.7920702 -0.5073925 0.3393784 
-3.491936 -2.454176 2.454176 -0.7215402 -0.4895813 0.4895814 
-4.636864 0.9568 0.9568 -0.9697178 0.1726954 0.1726954 
-4.39488 1.874048 0.922464 -0.9218699 0.345469 0.1755198 
-3.992832 2.712192 0.888128 -0.8343095 0.5216515 0.1783467 
-4.39488 0.922464 1.874048 -0.9218699 0.1755198 0.345469 
-4.16832 1.80288 1.80288 -0.8747426 0.3426554 0.3426554 
-3.797088 2.599232 1.72368 -0.7920702 0.5073925 0.3393784 
-3.992832 0.888128 2.712192 -0.8343095 0.1783467 0.5216515 
-3.797088 1.72368 2.599232 -0.7920702 0.3393784 0.5073925 
-3.491936 2.454176 2.454176 -0.7215403 0.4895813 0.4895813 
-4.636864 0.9568 -0.9568 -0.9697178 0.1726928 -0.1726982 
-4.39488 0.922464 -1.874048 -0.9218703 0.1755117 -0.345472 
-3.992832 0.888128 -2.712192 -0.834313 0.1783416 -0.5216476 
-4.39488 1.874048 -0.922464 -0.9218699 0.345469 -0.1755198 
-4.16832 1.80288 -1.80288 -0.8747426 0.3426554 -0.3426554 
-3.797088 1.72368 -2.599232 -0.7920702 0.3393784 -0.5073925 
-3.992832 2.712192 -0.888128 -0.8343095 0.5216515 -0.1783467 
-3.797088 2.599232 -1.72368 -0.7920702 0.5073925 -0.3393784 
-3.491936 2.454176 -2.454176 -0.7215402 0.4895813 -0.4895814 
-4.636864 -0.9568 -0.9568 -0.9697178 -0.1726928 -0.1726982 
-4.39488 -1.874048 -0.922464 -0.9218699 -0.345469 -0.1755198 
-3.992832 -2.712192 -0.888128 -0.8343095 -0.5216515 -0.1783467 
-4.39488 -0.922464 -1.874048 -0.9218703 -0.1755117 -0.345472 
-4.16832 -1.80288 -1.80288 -0.8747426 -0.3426554 -0.3426554 
-3.797088 -2.599232 -1.72368 -0.7920702 -0.5073925 -0.3393784 
-3.992832 -0.888128 -2.712192 -0.834313 -0.1783416 -0.5216476 
-3.797088 -1.72368 -2.599232 -0.7920702 -0.3393784 -0.5073925 
-3.491936 -2.454176 -2.454176 -0.7215403 -0.4895813 -0.4895813 
0 0 -4.8 -1.876133e-09 0 -1 
0.973984 0 -4.717824 0.1998849 0 -0.9798194 
1.907648 0 -4.472 0.3761203 0 -0.9265709 
2.76064 0 -4.063392 0.5578669 2.507736e-09 -0.8299305 
0 -0.973984 -4.717824 0 -0.1998743 -0.9798216 
0 -1.907648 -4.472032 -2.503896e-09 -0.3761251 -0.9265689 
0 -2.76064 -4.063392 5.015469e-09 -0.5578713 -0.8299274 
-0.973984 0 -4.717824 -0.1998743 0 -0.9798216 
-1.907648 0 -4.472032 -0.3761251 2.503896e-09 -0.9265689 
-2.76064 0 -4.063392 -0.5578713 -5.015469e-09 -0.8299274 
0 0.973984 -4.717824 0 0.1998849 -0.9798194 
0 1.907648 -4.472 0 0.3761203 -0.9265709 
0 2.76064 -4.063392 2.507736e-09 0.5578669 -0.8299305 
0.9568 0.9568 -4.636864 0.1726955 0.1726955 -0.9697178 
1.874048 0.922464 -4.39488 0.3454719 0.1755117 -0.9218703 
2.712192 0.888128 -3.992832 0.5216475 0.1783416 -0.834313 
0.922464 1.874048 -4.39488 0.1755117 0.3454719 -0.9218703 
1.80288 1.80288 -4.16832 0.3426554 0.3426554 -0.8747426 
2.599232 1.72368 -3.797088 0.5073925 0.3393784 -0.7920702 
0.888128 2.712192 -3.992832 0.1783416 0.5216475 -0.834313 
1.72368 2.599232 -3.797088 0.3393784 0.5073925 -0.7920702 
2.454176 2.454176 -3.491936 0.4895814 0.4895813 -0.7215402 
0.9568 -0.9568 -4.636864 0.1726982 -0.1726928 -0.9697178 
0.922464 -1.874048 -4.39488 0.1755198 -0.345469 -0.9218699 
0.888128 -2.712192 -3.992832 0.1783467 -0.5216515 -0.8343095 
1.874048 -0.922464 -4.39488 0.3454719 -0.1755117 -0.9218703 
1.80288 -1.80288 -4.16832 0.3426554 -0.3426554 -0.8747426 
1.72368 -2.599232 -3.797088 0.3393784 -0.5073925 -0.7920702 
2.712192 -0.888128 -3.992832 0.5216475 -0.1783416 -0.834313 
2.599232 -1.72368 -3.797088 0.5073925 -0.3393784 -0.7920702 
2.454176 -2.454176 -3.491936 0.4895813 -0.4895814 -0.7215402 
-0.9568 -0.9568 -4.636864 -0.1726954 -0.1726954 -0.9697178 
-1.874048 -0.922464 -4.39488 -0.345469 -0.1755198 -0.9218699 
-2.712192 -0.888128 -3.992832 -0.5216515 -0.1783467 -0.8343095 
-0.922464 -1.874048 -4.39488 -0.1755198 -0.345469 -0.9218699 
-1.80288 -1.80288 -4.16832 -0.3426554 -0.3426554 -0.8747426 
-2.599232 -1.72368 -3.797088 -0.5073925 -0.3393784 -0.7920702 
-0.888128 -2.712192 -3.992832 -0.1783467 -0.5216515 -0.8343095 
-1.72368 -2.599232 -3.797088 -0.3393784 -0.5073925 -0.7920702 
-2.454176 -2.454176 -3.491936 -0.4895814 -0.4895813 -0.7215402 
-0.9568 0.9568 -4.636864 -0.1726928 0.1726982 -0.9697178 
-0.922464 1.874048 -4.39488 -0.1755117 0.3454719 -0.9218703 
-0.888128 2.712192 -3.992832 -0.1783416 0.5216475 -0.834313 
-1.874048 0.922464 -4.39488 -0.345469 0.1755198 -0.9218699 
-1.80288 1.80288 -4.16832 -0.3426554 0.3426554 -0.8747426 
-1.72368 2.599232 -3.797088 -0.3393784 0.5073925 -0.7920702 
-2.712192 0.888128 -3.992832 -0.5216515 0.1783467 -0.8343095 
-2.599232 1.72368 -3.797088 -0.5073925 0.3393784 -0.7920702 
-2.454176 2.454176 -3.491936 -0.4895813 0.4895814 -0.7215402 
3.052608 -3.052608 -2.373632 0.6280026 -0.6280026 -0.4595926 
3.27584 -3.27584 -1.68208 0.6715973 -0.6715973 -0.3129124 
3.431648 -3.431648 -0.870944 0.6988283 -0.6988283 -0.1525708 
3.492672 -3.492672 0 0.7071068 -0.7071068 0 
3.431648 -3.431648 0.870944 0.6988283 -0.6988283 0.1525708 
3.27584 -3.27584 1.68208 0.6715973 -0.6715973 0.3129124 
3.052608 -3.052608 2.373632 0.6280026 -0.6280026 0.4595926 
2.373632 -3.052608 -3.052608 0.4595926 -0.6280027 -0.6280026 
1.68208 -3.27584 -3.27584 0.3129124 -0.6715973 -0.6715973 
0.870944 -3.431648 -3.431648 0.1525708 -0.6988283 -0.6988283 
0 -3.492672 -3.492672 0 -0.7071068 -0.7071068 
-0.870944 -3.431648 -3.431648 -0.1525708 -0.6988283 -0.6988283 
-1.68208 -3.27584 -3.27584 -0.3129124 -0.6715973 -0.6715973 
-2.373632 -3.052608 -3.052608 -0.4595926 -0.6280027 -0.6280026 
3.052608 -2.373632 -3.052608 0.6280027 -0.4595926 -0.6280026 
3.27584 -1.68208 -3.27584 0.6715973 -0.3129124 -0.6715973 
3.431648 -0.870944 -3.431648 0.6988283 -0.1525708 -0.6988283 
3.492672 0 -3.492672 0.7071068 0 -0.7071068 
3.431648 0.870944 -3.431648 0.6988283 0.1525708 -0.6988283 
3.27584 1.68208 -3.27584 0.6715973 0.3129124 -0.6715973 
3.052608 2.373632 -3.052608 0.6280027 0.4595926 -0.6280026 
2.373632 -3.052608 3.052608 0.4595926 -0.6280027 0.6280026 
1.68208 -3.27584 3.27584 0.3129124 -0.6715973 0.6715973 
0.870944 -3.431648 3.431648 0.1525708 -0.6988283 0.6988283 
0 -3.492672 3.492672 0 -0.7071068 0.7071068 
-0.870944 -3.431648 3.431648 -0.1525708 -0.6988283 0.6988283 
-1.68208 -3.27584 3.27584 -0.3129124 -0.6715973 0.6715973 
-2.373632 -3.052608 3.052608 -0.4595926 -0.6280027 0.6280026 
3.052608 -2.373632 3.052608 0.6280027 -0.4595926 0.6280026 
3.27584 -1.68208 3.27584 0.6715973 -0.3129124 0.6715973 
3.431648 -0.870944 3.431648 0.6988283 -0.1525708 0.6988283 
3.492672 0 3.492672 0.7071068 0 0.7071068 
3.431648 0.870944 3.431648 0.6988283 0.1525708 0.6988283 
3.27584 1.68208 3.27584 0.6715973 0.3129124 0.6715973 
3.052608 2.373632 3.052608 0.6280027 0.4595926 0.6280026 
-3.052608 -3.052608 2.373632 -0.6280026 -0.6280026 0.4595926 
-3.27584 -3.27584 1.68208 -0.6715973 -0.6715973 0.3129124 
-3.431648 -3.431648 0.870944 -0.6988283 -0.6988283 0.1525708 
-3.492672 -3.492672 0 -0.7071068 -0.7071068 0 
-3.431648 -3.431648 -0.870944 -0.6988283 -0.6988283 -0.1525708 
-3.27584 -3.27584 -1.68208 -0.6715973 -0.6715973 -0.3129124 
-3.052608 -3.052608 -2.373632 -0.6280026 -0.6280026 -0.4595926 
-3.052608 -2.373632 3.052608 -0.6280026 -0.4595926 0.6280027 
-3.27584 -1.68208 3.27584 -0.6715973 -0.3129124 0.6715973 
-3.431648 -0.870944 3.431648 -0.6988283 -0.1525708 0.6988283 
-3.492672 0 3.492672 -0.7071068 0 0.7071068 
-3.431648 0.870944 3.431648 -0.6988283 0.1525708 0.6988283 
-3.27584 1.68208 3.27584 -0.6715973 0.3129124 0.6715973 
-3.052608 2.373632 3.052608 -0.6280026 0.4595926 0.6280027 
-3.052608 -2.373632 -3.052608 -0.6280027 -0.4595926 -0.6280026 
-3.27584 -1.68208 -3.27584 -0.6715973 -0.3129124 -0.6715973 
-3.431648 -0.870944 -3.431648 -0.6988283 -0.1525708 -0.6988283 
-3.492672 0 -3.492672 -0.7071068 0 -0.7071068 
-3.431648 0.870944 -3.431648 -0.6988283 0.1525708 -0.6988283 
-3.27584 1.68208 -3.27584 -0.6715973 0.3129124 -0.6715973 
-3.052608 2.373632 -3.052608 -0.6280027 0.4595926 -0.6280026 
3.052608 3.052608 -2.373632 0.6280026 0.6280026 -0.4595926 
3.27584 3.27584 -1.68208 0.6715973 0.6715973 -0.3129124 
3.431648 3.431648 -0.870944 0.6988283 0.6988283 -0.1525708 
3.492672 3.492672 0 0.7071068 0.7071068 0 
3.431648 3.431648 0.870944 0.6988283 0.6988283 0.1525708 
3.27584 3.27584 1.68208 0.6715973 0.6715973 0.3129124 
3.052608 3.052608 2.373632 0.6280026 0.6280026 0.4595926 
2.373632 3.052608 -3.052608 0.4595926 0.6280027 -0.6280026 
1.68208 3.27584 -3.27584 0.3129124 0.6715973 -0.6715973 
0.870944 3.431648 -3.431648 0.1525708 0.6988283 -0.6988283 
0 3.492672 -3.492672 0 0.7071068 -0.7071068 
-0.870944 3.431648 -3.431648 -0.1525708 0.6988283 -0.6988283 
-1.68208 3.27584 -3.27584 -0.3129124 0.6715973 -0.6715973 
-2.373632 3.052608 -3.052608 -0.4595926 0.6280027 -0.6280026 
2.373632 3.052608 3.052608 0.4595926 0.6280027 0.6280026 
1.68208 3.27584 3.27584 0.3129124 0.6715973 0.6715973 
0.870944 3.431648 3.431648 0.1525708 0.6988283 0.6988283 
0 3.492672 3.492672 0 0.7071068 0.7071068 
-0.870944 3.431648 3.431648 -0.1525708 0.6988283 0.6988283 
-1.68208 3.27584 3.27584 -0.3129124 0.6715973 0.6715973 
-2.373632 3.052608 3.052608 -0.4595926 0.6280027 0.6280026 
-3.052608 3.052608 2.373632 -0.6280026 0.6280026 0.4595926 
-3.27584 3.27584 1.68208 -0.6715973 0.6715973 0.3129124 
-3.431648 3.431648 0.870944 -0.6988283 0.6988283 0.1525708 
-3.492672 3.492672 0 -0.7071068 0.7071068 0 
-3.431648 3.431648 -0.870944 -0.6988283 0.6988283 -0.1525708 
-3.27584 3.27584 -1.68208 -0.6715973 0.6715973 -0.3129124 
-3.052608 3.052608 -2.373632 -0.6280026 0.6280026 -0.4595926 
2.835008 -2.835008 -2.835008 0.5773503 -0.5773502 -0.5773503 
2.835008 -2.835008 2.835008 0.5773503 -0.5773502 0.5773503 
-2.835008 -2.835008 2.835008 -0.5773503 -0.5773502 0.5773503 
-2.835008 -2.835008 -2.835008 -0.5773503 -0.5773502 -0.5773503 
2.835008 2.835008 -2.835008 0.5773503 0.5773502 -0.5773503 
2.835008 2.835008 2.835008 0.5773503 0.5773502 0.5773503 
-2.835008 2.835008 2.835008 -0.5773503 0.5773502 0.5773503 
-2.835008 2.835008 -2.835008 -0.5773503 0.5773502 -0.5773503 
0 4.831424 -1.163552 0.0006104528 -0.07199999 -0.9974045 
0.822752 4.831424 -0.822752 0.7057061 -0.07199955 -0.704837 
1.163552 4.831424 0 0.9974044 -0.07200093 0.0006093862 
-1.163552 4.831424 0 -0.9974045 -0.07199999 -0.0006104474 
-0.822752 4.831424 -0.822752 -0.704837 -0.07199955 -0.7057061 
0 4.831424 1.163552 -0.0006155634 -0.07200504 0.9974041 
-0.822752 4.831424 0.822752 -0.7057061 -0.07199955 0.704837 
0.822752 4.831424 0.822752 0.7048364 -0.0720042 0.7057061 
0 5.896896 -1.31808 -0.0006146571 -0.0720006 -0.9974044 
0.932 5.896896 -0.932 0.7048399 -0.07199895 -0.7057031 
1.31808 5.896896 0 0.9974046 -0.07199769 -0.0006177808 
-1.31808 5.896896 0 -0.9974044 -0.07200059 0.0006146627 
-0.932 5.896896 -0.932 -0.7057031 -0.07199895 -0.7048399 
0 5.896896 1.31808 0.0006072128 -0.07198014 0.9974059 
-0.932 5.896896 0.932 -0.7048399 -0.07199895 0.7057031 
0.932 5.896896 0.932032 0.7057011 -0.07198451 0.7048435 
0 6.129632 -1.31808 0.09128232 0.7263674 -0.681218 
0.932 6.129632 -0.932 0.5462371 0.72636 -0.4171646 
1.31808 6.129632 0 0.6812124 0.7263731 0.09127871 
-1.31808 6.129632 0 -0.6812179 0.7263675 -0.09128232 
-0.932 6.129632 -0.932 -0.4171646 0.72636 -0.5462371 
0 6.129632 1.31808 -0.09128446 0.7263739 0.6812108 
-0.932 6.129632 0.932 -0.5462371 0.72636 0.4171645 
0.932 6.129632 0.932 0.417148 0.7263787 0.5462248 
0 4.176064 0 0 1 0 
0 6.139104 -0.635168 0.09533802 0.736199 0.6700162 
0.44912 6.139104 -0.44912 -0.4063771 0.7361915 0.5411837 
0.635168 6.139104 0 -0.6700162 0.736199 0.09533802 
-0.635168 6.139104 0 0.6700161 0.736199 -0.09533802 
-0.44912 6.139104 -0.44912 0.5411837 0.7361915 0.4063771 
0 6.139104 0.635168 -0.09533802 0.736199 -0.6700161 
-0.44912 6.139104 0.44912 0.4063771 0.7361915 -0.5411837 
0.44912 6.139104 0.44912 -0.5411837 0.7361915 -0.4063771 
0 5.94736 -0.635168 -0.0003024928 0.05003909 0.9987472 
0.44912 5.94736 -0.44912 -0.7064249 0.05003809 0.706017 
0.635168 5.94736 0 -0.9987472 0.05003909 -0.0003024927 
-0.635168 5.94736 0 0.9987472 0.05003909 0.0003025035 
-0.44912 5.94736 -0.44912 0.706017 0.05003808 0.706425 
0 5.94736 0.635168 0.0003025035 0.05003909 -0.9987472 
-0.44912 5.94736 0.44912 0.7064249 0.05003809 -0.706017 
0.44912 5.94736 0.44912 -0.706017 0.05003808 -0.706425 
0 4.176064 -0.45728 -0.1058968 0.6328535 0.7669957 
0.32336 4.176064 -0.32336 -0.6172297 0.632857 0.4674607 
0.45728 4.176064 0 -0.7669957 0.6328535 -0.1058968 
-0.45728 4.176064 0 0.7669957 0.6328535 0.1058968 
-0.32336 4.176064 -0.32336 0.4674607 0.632857 0.6172297 
0 4.176064 0.45728 0.1058968 0.6328535 -0.7669957 
-0.32336 4.176064 0.32336 0.6172297 0.632857 -0.4674607 
0.32336 4.176064 0.32336 -0.4674607 0.632857 -0.6172297 
-1.088832 8.228128 0.241216 -0.2064726 -0.8657239 0.4559509 
-1.068192 8.529632 0.333312 0.09807103 0.4641761 0.8802969 
-1.040352 8.620736 0.027808 0.2183548 0.86333 -0.4549533 
-1.060992 8.319232 -0.064256 -0.08847462 -0.4658967 -0.8804048 
-1.085472 8.356096 0.363616 -0.08328687 -0.2862635 0.9545243 
-1.043712 8.492768 -0.094592 0.08729694 0.2858438 -0.9542916 
-1.080064 8.198304 0.06544 -0.2044614 -0.9327759 -0.2968579 
-1.04912 8.650592 0.203584 0.2230062 0.9283849 0.2972705 
3 0 53 76 
3 0 76 42 
3 0 42 80 
3 0 80 73 
3 0 73 83 
3 0 83 61 
3 0 61 79 
3 0 79 53 
3 1 70 77 
3 1 77 72 
3 1 72 81 
3 1 81 35 
3 1 35 80 
3 1 80 42 
3 1 42 76 
3 1 76 70 
3 2 48 78 
3 2 78 54 
3 2 54 82 
3 2 82 69 
3 2 69 81 
3 2 81 72 
3 2 72 77 
3 2 77 48 
3 3 28 79 
3 3 79 61 
3 3 61 83 
3 3 83 52 
3 3 52 82 
3 3 82 54 
3 3 54 78 
3 3 78 28 
3 4 73 80 
3 4 80 62 
3 4 62 84 
3 4 84 39 
3 4 39 87 
3 4 87 75 
3 4 75 83 
3 4 83 73 
3 5 35 81 
3 5 81 34 
3 5 34 85 
3 5 85 56 
3 5 56 84 
3 5 84 62 
3 5 62 80 
3 5 80 35 
3 6 69 82 
3 6 82 66 
3 6 66 86 
3 6 86 32 
3 6 32 85 
3 6 85 34 
3 6 34 81 
3 6 81 69 
3 7 52 83 
3 7 83 75 
3 7 75 87 
3 7 87 67 
3 7 67 86 
3 7 86 66 
3 7 66 82 
3 7 82 52 
3 8 39 84 
3 8 84 30 
3 8 30 88 
3 8 88 68 
3 8 68 91 
3 8 91 51 
3 8 51 87 
3 8 87 39 
3 9 56 85 
3 9 85 59 
3 9 59 89 
3 9 89 31 
3 9 31 88 
3 9 88 30 
3 9 30 84 
3 9 84 56 
3 10 32 86 
3 10 86 40 
3 10 40 90 
3 10 90 65 
3 10 65 89 
3 10 89 59 
3 10 59 85 
3 10 85 32 
3 11 67 87 
3 11 87 51 
3 11 51 91 
3 11 91 44 
3 11 44 90 
3 11 90 40 
3 11 40 86 
3 11 86 67 
3 12 68 88 
3 12 88 58 
3 12 58 92 
3 12 92 25 
3 12 25 95 
3 12 95 47 
3 12 47 91 
3 12 91 68 
3 13 31 89 
3 13 89 60 
3 13 60 93 
3 13 93 43 
3 13 43 92 
3 13 92 58 
3 13 58 88 
3 13 88 31 
3 14 65 90 
3 14 90 36 
3 14 36 94 
3 14 94 74 
3 14 74 93 
3 14 93 60 
3 14 60 89 
3 14 89 65 
3 15 44 91 
3 15 91 47 
3 15 47 95 
3 15 95 55 
3 15 55 94 
3 15 94 36 
3 15 36 90 
3 15 90 44 
3 16 25 92 
3 16 92 71 
3 16 71 96 
3 16 96 45 
3 16 45 99 
3 16 99 33 
3 16 33 95 
3 16 95 25 
3 17 43 93 
3 17 93 46 
3 17 46 97 
3 17 97 63 
3 17 63 96 
3 17 96 71 
3 17 71 92 
3 17 92 43 
3 18 74 94 
3 18 94 27 
3 18 27 98 
3 18 98 41 
3 18 41 97 
3 18 97 46 
3 18 46 93 
3 18 93 74 
3 19 55 95 
3 19 95 33 
3 19 33 99 
3 19 99 24 
3 19 24 98 
3 19 98 27 
3 19 27 94 
3 19 94 55 
3 20 45 96 
3 20 96 37 
3 538 542 100 
3 538 100 29 
3 538 29 103 
3 538 103 544 
3 20 50 99 
3 20 99 45 
3 21 63 97 
3 21 97 64 
3 539 545 101 
3 539 101 49 
3 539 49 100 
3 539 100 542 
3 21 37 96 
3 21 96 63 
3 22 41 98 
3 22 98 38 
3 540 543 102 
3 540 102 26 
3 540 26 101 
3 540 101 545 
3 22 64 97 
3 22 97 41 
3 23 24 99 
3 23 99 50 
3 541 544 103 
3 541 103 57 
3 541 57 102 
3 541 102 543 
3 23 38 98 
3 23 98 24 
3 26 102 57 
3 26 57 103 
3 101 29 100 
3 101 100 49 
3 103 29 101 
3 103 101 26 
3 23 541 543 
3 23 543 38 
3 23 50 544 
3 23 544 541 
3 22 540 545 
3 22 545 64 
3 22 38 543 
3 22 543 540 
3 21 539 542 
3 21 542 37 
3 21 64 545 
3 21 545 539 
3 20 538 544 
3 20 544 50 
3 20 37 542 
3 20 542 538 
3 104 114 117 
3 104 117 105 
3 105 117 118 
3 105 118 106 
3 106 118 119 
3 106 119 107 
3 107 119 399 
3 107 399 400 
3 114 115 120 
3 114 120 117 
3 117 120 121 
3 117 121 118 
3 118 121 122 
3 118 122 119 
3 119 122 398 
3 119 398 399 
3 115 116 123 
3 115 123 120 
3 120 123 124 
3 120 124 121 
3 121 124 125 
3 121 125 122 
3 122 125 397 
3 122 397 398 
3 116 407 406 
3 116 406 123 
3 123 406 405 
3 123 405 124 
3 124 405 404 
3 124 404 125 
3 125 404 481 
3 125 481 397 
3 104 105 126 
3 104 126 108 
3 108 126 127 
3 108 127 109 
3 109 127 128 
3 109 128 110 
3 110 128 420 
3 110 420 421 
3 105 106 129 
3 105 129 126 
3 126 129 130 
3 126 130 127 
3 127 130 131 
3 127 131 128 
3 128 131 419 
3 128 419 420 
3 106 107 132 
3 106 132 129 
3 129 132 133 
3 129 133 130 
3 130 133 134 
3 130 134 131 
3 131 134 418 
3 131 418 419 
3 107 400 401 
3 107 401 132 
3 132 401 402 
3 132 402 133 
3 133 402 403 
3 133 403 134 
3 134 403 482 
3 134 482 418 
3 104 108 135 
3 104 135 111 
3 111 135 136 
3 111 136 112 
3 112 136 137 
3 112 137 113 
3 113 137 434 
3 113 434 435 
3 108 109 138 
3 108 138 135 
3 135 138 139 
3 135 139 136 
3 136 139 140 
3 136 140 137 
3 137 140 433 
3 137 433 434 
3 109 110 141 
3 109 141 138 
3 138 141 142 
3 138 142 139 
3 139 142 143 
3 139 143 140 
3 140 143 432 
3 140 432 433 
3 110 421 422 
3 110 422 141 
3 141 422 423 
3 141 423 142 
3 142 423 424 
3 142 424 143 
3 143 424 483 
3 143 483 432 
3 104 111 144 
3 104 144 114 
3 114 144 145 
3 114 145 115 
3 115 145 146 
3 115 146 116 
3 116 146 408 
3 116 408 407 
3 111 112 147 
3 111 147 144 
3 144 147 148 
3 144 148 145 
3 145 148 149 
3 145 149 146 
3 146 149 409 
3 146 409 408 
3 112 113 150 
3 112 150 147 
3 147 150 151 
3 147 151 148 
3 148 151 152 
3 148 152 149 
3 149 152 410 
3 149 410 409 
3 113 435 436 
3 113 436 150 
3 150 436 437 
3 150 437 151 
3 151 437 438 
3 151 438 152 
3 152 438 484 
3 152 484 410 
3 165 153 489 
3 165 489 490 
3 153 165 166 
3 153 166 154 
3 154 166 167 
3 154 167 155 
3 155 167 462 
3 155 462 463 
3 162 163 168 
3 162 168 165 
3 165 168 169 
3 165 169 166 
3 166 169 170 
3 166 170 167 
3 167 170 461 
3 167 461 462 
3 163 164 171 
3 163 171 168 
3 168 171 172 
3 168 172 169 
3 169 172 173 
3 169 173 170 
3 170 173 460 
3 170 460 461 
3 164 456 455 
3 164 455 171 
3 171 455 454 
3 171 454 172 
3 172 454 453 
3 172 453 173 
3 173 453 485 
3 173 485 460 
3 156 183 495 
3 156 495 492 
3 156 174 175 
3 156 175 157 
3 157 175 176 
3 157 176 158 
3 158 176 478 
3 158 478 477 
3 153 154 177 
3 153 177 174 
3 174 177 178 
3 174 178 175 
3 175 178 179 
3 175 179 176 
3 176 179 479 
3 176 479 478 
3 154 155 180 
3 154 180 177 
3 177 180 181 
3 177 181 178 
3 178 181 182 
3 178 182 179 
3 179 182 480 
3 179 480 479 
3 155 463 464 
3 155 464 180 
3 180 464 465 
3 180 465 181 
3 181 465 466 
3 181 466 182 
3 182 466 488 
3 182 488 480 
3 174 156 492 
3 174 492 493 
3 159 183 184 
3 159 184 160 
3 160 184 185 
3 160 185 161 
3 161 185 471 
3 161 471 470 
3 156 157 186 
3 156 186 183 
3 183 186 187 
3 183 187 184 
3 184 187 188 
3 184 188 185 
3 185 188 472 
3 185 472 471 
3 157 158 189 
3 157 189 186 
3 186 189 190 
3 186 190 187 
3 187 190 191 
3 187 191 188 
3 188 191 473 
3 188 473 472 
3 158 477 476 
3 158 476 189 
3 189 476 475 
3 189 475 190 
3 190 475 474 
3 190 474 191 
3 191 474 487 
3 191 487 473 
3 159 192 496 
3 159 496 494 
3 162 192 193 
3 162 193 163 
3 163 193 194 
3 163 194 164 
3 164 194 457 
3 164 457 456 
3 159 160 195 
3 159 195 192 
3 192 195 196 
3 192 196 193 
3 193 196 197 
3 193 197 194 
3 194 197 458 
3 194 458 457 
3 160 161 198 
3 160 198 195 
3 195 198 199 
3 195 199 196 
3 196 199 200 
3 196 200 197 
3 197 200 459 
3 197 459 458 
3 161 470 469 
3 161 469 198 
3 198 469 468 
3 198 468 199 
3 199 468 467 
3 199 467 200 
3 200 467 486 
3 200 486 459 
3 201 211 214 
3 201 214 202 
3 202 214 215 
3 202 215 203 
3 203 215 216 
3 203 216 204 
3 204 216 413 
3 204 413 414 
3 211 212 217 
3 211 217 214 
3 214 217 218 
3 214 218 215 
3 215 218 219 
3 215 219 216 
3 216 219 412 
3 216 412 413 
3 212 213 220 
3 212 220 217 
3 217 220 221 
3 217 221 218 
3 218 221 222 
3 218 222 219 
3 219 222 411 
3 219 411 412 
3 213 400 399 
3 213 399 220 
3 220 399 398 
3 220 398 221 
3 221 398 397 
3 221 397 222 
3 222 397 481 
3 222 481 411 
3 201 202 223 
3 201 223 205 
3 205 223 224 
3 205 224 206 
3 206 224 225 
3 206 225 207 
3 207 225 455 
3 207 455 456 
3 202 203 226 
3 202 226 223 
3 223 226 227 
3 223 227 224 
3 224 227 228 
3 224 228 225 
3 225 228 454 
3 225 454 455 
3 203 204 229 
3 203 229 226 
3 226 229 230 
3 226 230 227 
3 227 230 231 
3 227 231 228 
3 228 231 453 
3 228 453 454 
3 204 414 415 
3 204 415 229 
3 229 415 416 
3 229 416 230 
3 230 416 417 
3 230 417 231 
3 231 417 485 
3 231 485 453 
3 201 205 232 
3 201 232 208 
3 208 232 233 
3 208 233 209 
3 209 233 234 
3 209 234 210 
3 210 234 429 
3 210 429 428 
3 205 206 235 
3 205 235 232 
3 232 235 236 
3 232 236 233 
3 233 236 237 
3 233 237 234 
3 234 237 430 
3 234 430 429 
3 206 207 238 
3 206 238 235 
3 235 238 239 
3 235 239 236 
3 236 239 240 
3 236 240 237 
3 237 240 431 
3 237 431 430 
3 207 456 457 
3 207 457 238 
3 238 457 458 
3 238 458 239 
3 239 458 459 
3 239 459 240 
3 240 459 486 
3 240 486 431 
3 201 208 241 
3 201 241 211 
3 211 241 242 
3 211 242 212 
3 212 242 243 
3 212 243 213 
3 213 243 401 
3 213 401 400 
3 208 209 244 
3 208 244 241 
3 241 244 245 
3 241 245 242 
3 242 245 246 
3 242 246 243 
3 243 246 402 
3 243 402 401 
3 209 210 247 
3 209 247 244 
3 244 247 248 
3 244 248 245 
3 245 248 249 
3 245 249 246 
3 246 249 403 
3 246 403 402 
3 210 428 427 
3 210 427 247 
3 247 427 426 
3 247 426 248 
3 248 426 425 
3 248 425 249 
3 249 425 482 
3 249 482 403 
3 250 260 263 
3 250 263 251 
3 251 263 264 
3 251 264 252 
3 252 264 265 
3 252 265 253 
3 253 265 427 
3 253 427 428 
3 260 261 266 
3 260 266 263 
3 263 266 267 
3 263 267 264 
3 264 267 268 
3 264 268 265 
3 265 268 426 
3 265 426 427 
3 261 262 269 
3 261 269 266 
3 266 269 270 
3 266 270 267 
3 267 270 271 
3 267 271 268 
3 268 271 425 
3 268 425 426 
3 262 421 420 
3 262 420 269 
3 269 420 419 
3 269 419 270 
3 270 419 418 
3 270 418 271 
3 271 418 482 
3 271 482 425 
3 250 251 272 
3 250 272 254 
3 254 272 273 
3 254 273 255 
3 255 273 274 
3 255 274 256 
3 256 274 469 
3 256 469 470 
3 251 252 275 
3 251 275 272 
3 272 275 276 
3 272 276 273 
3 273 276 277 
3 273 277 274 
3 274 277 468 
3 274 468 469 
3 252 253 278 
3 252 278 275 
3 275 278 279 
3 275 279 276 
3 276 279 280 
3 276 280 277 
3 277 280 467 
3 277 467 468 
3 253 428 429 
3 253 429 278 
3 278 429 430 
3 278 430 279 
3 279 430 431 
3 279 431 280 
3 280 431 486 
3 280 486 467 
3 250 254 281 
3 250 281 257 
3 257 281 282 
3 257 282 258 
3 258 282 283 
3 258 283 259 
3 259 283 443 
3 259 443 442 
3 254 255 284 
3 254 284 281 
3 281 284 285 
3 281 285 282 
3 282 285 286 
3 282 286 283 
3 283 286 444 
3 283 444 443 
3 255 256 287 
3 255 287 284 
3 284 287 288 
3 284 288 285 
3 285 288 289 
3 285 289 286 
3 286 289 445 
3 286 445 444 
3 256 470 471 
3 256 471 287 
3 287 471 472 
3 287 472 288 
3 288 472 473 
3 288 473 289 
3 289 473 487 
3 289 487 445 
3 250 257 290 
3 250 290 260 
3 260 290 291 
3 260 291 261 
3 261 291 292 
3 261 292 262 
3 262 292 422 
3 262 422 421 
3 257 258 293 
3 257 293 290 
3 290 293 294 
3 290 294 291 
3 291 294 295 
3 291 295 292 
3 292 295 423 
3 292 423 422 
3 258 259 296 
3 258 296 293 
3 293 296 297 
3 293 297 294 
3 294 297 298 
3 294 298 295 
3 295 298 424 
3 295 424 423 
3 259 442 441 
3 259 441 296 
3 296 441 440 
3 296 440 297 
3 297 440 439 
3 297 439 298 
3 298 439 483 
3 298 483 424 
3 299 309 312 
3 299 312 300 
3 300 312 313 
3 300 313 301 
3 301 313 314 
3 301 314 302 
3 302 314 441 
3 302 441 442 
3 309 310 315 
3 309 315 312 
3 312 315 316 
3 312 316 313 
3 313 316 317 
3 313 317 314 
3 314 317 440 
3 314 440 441 
3 310 311 318 
3 310 318 315 
3 315 318 319 
3 315 319 316 
3 316 319 320 
3 316 320 317 
3 317 320 439 
3 317 439 440 
3 311 435 434 
3 311 434 318 
3 318 434 433 
3 318 433 319 
3 319 433 432 
3 319 432 320 
3 320 432 483 
3 320 483 439 
3 299 300 321 
3 299 321 303 
3 303 321 322 
3 303 322 304 
3 304 322 323 
3 304 323 305 
3 305 323 476 
3 305 476 477 
3 300 301 324 
3 300 324 321 
3 321 324 325 
3 321 325 322 
3 322 325 326 
3 322 326 323 
3 323 326 475 
3 323 475 476 
3 301 302 327 
3 301 327 324 
3 324 327 328 
3 324 328 325 
3 325 328 329 
3 325 329 326 
3 326 329 474 
3 326 474 475 
3 302 442 443 
3 302 443 327 
3 327 443 444 
3 327 444 328 
3 328 444 445 
3 328 445 329 
3 329 445 487 
3 329 487 474 
3 299 303 330 
3 299 330 306 
3 306 330 331 
3 306 331 307 
3 307 331 332 
3 307 332 308 
3 308 332 450 
3 308 450 449 
3 303 304 333 
3 303 333 330 
3 330 333 334 
3 330 334 331 
3 331 334 335 
3 331 335 332 
3 332 335 451 
3 332 451 450 
3 304 305 336 
3 304 336 333 
3 333 336 337 
3 333 337 334 
3 334 337 338 
3 334 338 335 
3 335 338 452 
3 335 452 451 
3 305 477 478 
3 305 478 336 
3 336 478 479 
3 336 479 337 
3 337 479 480 
3 337 480 338 
3 338 480 488 
3 338 488 452 
3 299 306 339 
3 299 339 309 
3 309 339 340 
3 309 340 310 
3 310 340 341 
3 310 341 311 
3 311 341 436 
3 311 436 435 
3 306 307 342 
3 306 342 339 
3 339 342 343 
3 339 343 340 
3 340 343 344 
3 340 344 341 
3 341 344 437 
3 341 437 436 
3 307 308 345 
3 307 345 342 
3 342 345 346 
3 342 346 343 
3 343 346 347 
3 343 347 344 
3 344 347 438 
3 344 438 437 
3 308 449 448 
3 308 448 345 
3 345 448 447 
3 345 447 346 
3 346 447 446 
3 346 446 347 
3 347 446 484 
3 347 484 438 
3 348 358 361 
3 348 361 349 
3 349 361 362 
3 349 362 350 
3 350 362 363 
3 350 363 351 
3 351 363 415 
3 351 415 414 
3 358 359 364 
3 358 364 361 
3 361 364 365 
3 361 365 362 
3 362 365 366 
3 362 366 363 
3 363 366 416 
3 363 416 415 
3 359 360 367 
3 359 367 364 
3 364 367 368 
3 364 368 365 
3 365 368 369 
3 365 369 366 
3 366 369 417 
3 366 417 416 
3 360 463 462 
3 360 462 367 
3 367 462 461 
3 367 461 368 
3 368 461 460 
3 368 460 369 
3 369 460 485 
3 369 485 417 
3 348 349 370 
3 348 370 352 
3 352 370 371 
3 352 371 353 
3 353 371 372 
3 353 372 354 
3 354 372 406 
3 354 406 407 
3 349 350 373 
3 349 373 370 
3 370 373 374 
3 370 374 371 
3 371 374 375 
3 371 375 372 
3 372 375 405 
3 372 405 406 
3 350 351 376 
3 350 376 373 
3 373 376 377 
3 373 377 374 
3 374 377 378 
3 374 378 375 
3 375 378 404 
3 375 404 405 
3 351 414 413 
3 351 413 376 
3 376 413 412 
3 376 412 377 
3 377 412 411 
3 377 411 378 
3 378 411 481 
3 378 481 404 
3 348 352 379 
3 348 379 355 
3 355 379 380 
3 355 380 356 
3 356 380 381 
3 356 381 357 
3 357 381 448 
3 357 448 449 
3 352 353 382 
3 352 382 379 
3 379 382 383 
3 379 383 380 
3 380 383 384 
3 380 384 381 
3 381 384 447 
3 381 447 448 
3 353 354 385 
3 353 385 382 
3 382 385 386 
3 382 386 383 
3 383 386 387 
3 383 387 384 
3 384 387 446 
3 384 446 447 
3 354 407 408 
3 354 408 385 
3 385 408 409 
3 385 409 386 
3 386 409 410 
3 386 410 387 
3 387 410 484 
3 387 484 446 
3 348 355 388 
3 348 388 358 
3 358 388 389 
3 358 389 359 
3 359 389 390 
3 359 390 360 
3 360 390 464 
3 360 464 463 
3 355 356 391 
3 355 391 388 
3 388 391 392 
3 388 392 389 
3 389 392 393 
3 389 393 390 
3 390 393 465 
3 390 465 464 
3 356 357 394 
3 356 394 391 
3 391 394 395 
3 391 395 392 
3 392 395 396 
3 392 396 393 
3 393 396 466 
3 393 466 465 
3 357 449 450 
3 357 450 394 
3 394 450 451 
3 394 451 395 
3 395 451 452 
3 395 452 396 
3 396 452 488 
3 396 488 466 
3 492 495 503 
3 492 503 500 
3 496 491 499 
3 496 499 504 
3 490 489 497 
3 490 497 498 
3 489 493 501 
3 489 501 497 
3 192 162 491 
3 192 491 496 
3 153 174 493 
3 153 493 489 
3 183 159 494 
3 183 494 495 
3 162 165 490 
3 162 490 491 
3 498 497 505 
3 498 505 506 
3 497 501 509 
3 497 509 505 
3 503 502 510 
3 503 510 511 
3 502 504 512 
3 502 512 510 
3 493 492 500 
3 493 500 501 
3 491 490 498 
3 491 498 499 
3 494 496 504 
3 494 504 502 
3 495 494 502 
3 495 502 503 
3 511 510 519 
3 511 519 520 
3 510 512 521 
3 510 521 519 
3 507 506 515 
3 507 515 516 
3 509 508 517 
3 509 517 518 
3 504 499 507 
3 504 507 512 
3 500 503 511 
3 500 511 508 
3 501 500 508 
3 501 508 509 
3 499 498 506 
3 499 506 507 
3 518 517 525 
3 518 525 526 
3 517 520 528 
3 517 528 525 
3 521 516 524 
3 521 524 529 
3 515 514 522 
3 515 522 523 
3 505 509 518 
3 505 518 514 
3 506 505 514 
3 506 514 515 
3 512 507 516 
3 512 516 521 
3 508 511 520 
3 508 520 517 
3 529 524 532 
3 529 532 537 
3 523 522 530 
3 523 530 531 
3 522 526 534 
3 522 534 530 
3 528 527 535 
3 528 535 536 
3 516 515 523 
3 516 523 524 
3 519 521 529 
3 519 529 527 
3 520 519 527 
3 520 527 528 
3 514 518 526 
3 514 526 522 
3 513 532 531 
3 513 531 530 
3 513 530 534 
3 513 534 533 
3 513 533 536 
3 513 536 535 
3 513 535 537 
3 513 537 532 
3 525 528 536 
3 525 536 533 
3 526 525 533 
3 526 533 534 
3 524 523 531 
3 524 531 532 
3 527 529 537 
3 527 537 535 
