ply
format ascii 1.0
comment VCGLIB generated
element vertex 26
property float x
property float y
property float z
property float nx
property float ny
property float nz
element face 12
property list uchar int vertex_indices
end_header
56.25 -5 -50 0 0 -1 
-56.25 5 -50 0 0 -1 
56.25 5 -50 0 0 -1 
-56.25 5 50 0 0 1 
56.24992 -5.000004 50 0 0 1 
56.25 4.999996 50 0 0 1 
56.25 4.999996 50 1 0 0 
56.25 -5 -50 1 0 0 
56.25 5 -50 1 0 0 
56.24992 -5.000004 50 -1.695422e-08 -1 -1.907349e-08 
-56.25 -5 -50 -1.695422e-08 -1 -1.907349e-08 
56.25 -5 -50 0 -1 -3.814697e-08 
-56.25 -5 -50 -1 0 0 
-56.25 5 50 -1 0 0 
-56.25 5 -50 -1 0 0 
56.25 5 -50 1.695421e-08 1 1.907349e-08 
-56.25 5 50 1.695421e-08 1 1.907349e-08 
56.25 4.999996 50 3.390842e-08 1 3.814697e-08 
-56.25 -5 -50 0 0 -1 
-56.25 -5 50 0 0 1 
56.25 4.999996 50 1 -8.010864e-06 8.010861e-07 
56.24992 -5.000004 50 1 -8.010864e-06 8.010861e-07 
56.25 -5 -50 1 -8.010864e-06 8.010861e-07 
-56.25 -5 50 -3.390844e-08 -1 0 
-56.25 -5 50 -1 0 0 
-56.25 5 -50 0 1 0 
3 0 1 2 
3 3 4 5 
3 6 7 8 
3 9 10 11 
3 12 13 14 
3 15 16 17 
3 0 18 1 
3 3 19 4 
3 20 21 22 
3 9 23 10 
3 12 24 13 
3 15 25 16 
