ply
format ascii 1.0
comment VCGLIB generated
element vertex 26
property float x
property float y
property float z
property float nx
property float ny
property float nz
element face 12
property list uchar int vertex_indices
end_header
150 -5 -50 0 0 -1 
-150 5 -50 0 0 -1 
150 5 -50 0 0 -1 
-150 5 50 0 0 1 
149.9998 -5.000005 50 0 0 1 
150 4.999995 50 0 0 1 
150 4.999995 50 1 0 0 
150 -5 -50 1 0 0 
150 5 -50 1 0 0 
149.9998 -5.000005 50 -7.94729e-09 -1 -2.384186e-08 
-150 -5 -50 -7.94729e-09 -1 -2.384186e-08 
150 -5 -50 0 -1 -4.768372e-08 
-150 -5 -50 -1 0 0 
-150 5 50 -1 0 0 
-150 5 -50 -1 0 0 
150 5 -50 7.947286e-09 1 2.384186e-08 
-150 5 50 7.947286e-09 1 2.384186e-08 
150 4.999995 50 1.589457e-08 1 4.768372e-08 
-150 -5 -50 0 0 -1 
-150 -5 50 0 0 1 
150 4.999995 50 1 -1.525879e-05 1.525878e-06 
149.9998 -5.000005 50 1 -1.525879e-05 1.525878e-06 
150 -5 -50 1 -1.525879e-05 1.525878e-06 
-150 -5 50 -1.589458e-08 -1 0 
-150 -5 50 -1 0 0 
-150 5 -50 0 1 0 
3 0 1 2 
3 3 4 5 
3 6 7 8 
3 9 10 11 
3 12 13 14 
3 15 16 17 
3 0 18 1 
3 3 19 4 
3 20 21 22 
3 9 23 10 
3 12 24 13 
3 15 25 16 
