ply
format ascii 1.0
comment VCGLIB generated
element vertex 8
property float x
property float y
property float z
property float nx
property float ny
property float nz
element face 12
property list uchar int vertex_indices
end_header
0.263899 -0.687292 1.199281 -0.002053733 -0.9735307 0.2285471 
0.28156 -0.664168 -0.744449 0.01426142 -0.565161 -0.8248574 
-1.556993 -0.656486 1.16905 -0.4657564 0.3500457 0.8127356 
-1.564121 -0.693929 -0.691274 -0.828403 -0.3527319 -0.4351192 
0.777232 -0.688215 -0.717856 0.8428549 -0.226612 -0.4881011 
0.783014 -0.665462 1.177256 0.4075205 0.4300179 0.8056127 
-0.643424 1.196732 -0.036835 -0.02499532 0.6869174 -0.7263056 
-0.644137 1.196419 0.0406 -0.07101292 0.9588874 0.2747582 
3 0 2 3 
3 0 3 1 
3 4 6 7 
3 4 7 5 
3 4 5 0 
3 4 0 1 
3 7 6 3 
3 7 3 2 
3 5 7 2 
3 5 2 0 
3 1 3 6 
3 1 6 4 
