ply
format ascii 1.0
comment VCGLIB generated
element vertex 5
property float x
property float y
property float z
property float nx
property float ny
property float nz
element face 6
property list uchar int vertex_indices
end_header
0 0 0 -0.6407998 -0.4227895 0.6407999 
7.999999 0 0 0.6407998 -0.4227895 0.6407999 
7.999999 1.049073e-06 -8 0.6407998 -0.4227893 -0.6407999 
0 1.049073e-06 -8 -0.6407998 -0.4227893 -0.6407999 
3.999999 12.8 -3.999999 0 1 1.311342e-07 
3 1 0 3 
3 1 3 2 
3 0 1 4 
3 0 4 3 
3 3 4 2 
3 1 2 4 
