ply
format ascii 1.0
comment VCGLIB generated
element vertex 5
property float x
property float y
property float z
property float nx
property float ny
property float nz
element face 6
property list uchar int vertex_indices
end_header
0 0 0 -0.5822052 -0.2880974 0.5822054 
19.99999 0 0 0.5822052 -0.2880974 0.5822054 
19.99999 1.967013e-06 -20 0.5822052 -0.2880972 -0.5822054 
0 1.967013e-06 -20 -0.5822052 -0.2880972 -0.5822054 
9.999997 24 -9.999997 0 0.6814202 1.191433e-07 
3 1 0 3 
3 1 3 2 
3 0 1 4 
3 0 4 3 
3 3 4 2 
3 1 2 4 
