ply
format ascii 1.0
comment VCGLIB generated
element vertex 26
property float x
property float y
property float z
property float nx
property float ny
property float nz
element face 12
property list uchar int vertex_indices
end_header
4.5 -5 -4.5 0 0 -1 
-4.5 5 -4.5 0 0 -1 
4.5 5 -4.5 0 0 -1 
-4.5 5 4.5 0 0 1 
4.499994 -5.000005 4.5 0 0 1 
4.5 4.999995 4.5 0 0 1 
4.5 4.999995 4.5 1 0 0 
4.5 -5 -4.5 1 0 0 
4.5 5 -4.5 1 0 0 
4.499994 -5.000005 4.5 -2.384187e-10 -1 -2.145767e-09 
-4.5 -5 -4.5 -2.384187e-10 -1 -2.145767e-09 
4.5 -5 -4.5 0 -1 -4.291535e-09 
-4.5 -5 -4.5 -1 0 0 
-4.5 5 4.5 -1 0 0 
-4.5 5 -4.5 -1 0 0 
4.5 5 -4.5 2.384186e-10 1 2.145767e-09 
-4.5 5 4.5 2.384186e-10 1 2.145767e-09 
4.5 4.999995 4.5 4.768371e-10 1 4.291535e-09 
-4.5 -5 -4.5 0 0 -1 
-4.5 -5 4.5 0 0 1 
4.5 4.999995 4.5 0.9999999 -0.0005086263 4.577633e-06 
4.499994 -5.000005 4.5 0.9999999 -0.0005086263 4.577633e-06 
4.5 -5 -4.5 0.9999999 -0.0005086263 4.577633e-06 
-4.5 -5 4.5 -4.768374e-10 -1 0 
-4.5 -5 4.5 -1 0 0 
-4.5 5 -4.5 0 1 0 
3 0 1 2 
3 3 4 5 
3 6 7 8 
3 9 10 11 
3 12 13 14 
3 15 16 17 
3 0 18 1 
3 3 19 4 
3 20 21 22 
3 9 23 10 
3 12 24 13 
3 15 25 16 
