ply
format ascii 1.0
comment VCGLIB generated
element vertex 126
property float x
property float y
property float z
property float nx
property float ny
property float nz
element face 142
property list uchar int vertex_indices
end_header
0.161145 -0.045231 -0 -0.000153 -0.000153 -0.999969 
0.314583 0.220533 0.001022 0.104831 0.171331 -0.979614 
0.426908 0.108208 0 0.190802 0.14893 -0.970244 
0.161145 0.261646 0 0.043001 0.199286 -0.978973 
-0.104618 -0.198669 0.000344 -0.204596 -0.484848 -0.850307 
-0.145733 -0.045231 0.000116 -0.276589 0.012391 -0.960875 
-0.039332 0.302006 0 -0.119053 0.198218 -0.972869 
0.107427 -0.245708 0.000463 -0.0889 -0.159032 -0.983245 
0.314583 -0.310995 -0 0.083102 -0.193732 -0.977508 
0.457564 0.034195 0 0.225318 0.026368 -0.973907 
-0.350209 -0.197121 0.109296 -0.324931 -0.163488 -0.931486 
0.50838 -0.245708 0.029946 0.35728 -0.194311 -0.913541 
0.868768 0.178022 0.1831 0.678762 0.003601 -0.734336 
0.820427 0.594433 0.193425 0.711142 0.443159 -0.545762 
-0.18454 0.879948 0.238654 0.061922 0.901059 -0.429212 
-0.301861 0.651642 0.157754 -0.281777 0.351695 -0.892666 
-0.350209 -0.197121 0.109296 -0.324931 -0.163488 -0.931486 
-0.104618 -0.198669 0.000344 -0.204596 -0.484848 -0.850307 
0.107427 -0.245708 0.000463 -0.0889 -0.159032 -0.983245 
0.739884 -0.327726 0.190542 0.379315 -0.160985 -0.91113 
0.828743 0.380207 0.147368 0.594897 0.102115 -0.797266 
-0.175709 -0.754059 0.209659 -0.509445 -0.639515 -0.575701 
0.033145 -0.888466 0.190035 -0.258217 -0.841395 -0.474715 
0.224895 -0.91371 0.190035 0.06061 -0.890927 -0.450056 
0.935728 -0.045231 0.279096 0.868374 0.063021 -0.491836 
0.70505 0.712244 0.220084 0.329722 0.681478 -0.65331 
-0.999198 0.164299 0.238654 -0.626606 -0.154454 -0.763848 
1.047176 -0.43453 0.276558 0.63976 -0.056459 -0.766472 
-0.18454 0.879948 0.238654 0.061922 0.901059 -0.429212 
0.553308 0.792885 0.32336 0.202216 0.970244 0.133061 
0.70505 0.712244 0.220084 0.329722 0.681478 -0.65331 
0.618995 -0.793991 0.253483 0.263497 -0.690909 -0.673177 
0.828743 0.380207 0.147368 0.594897 0.102115 -0.797266 
0.946971 0.175608 0.335828 0.985626 0.142247 -0.091006 
0.868768 0.178022 0.1831 0.678762 0.003601 -0.734336 
0.820427 0.594433 0.193425 0.711142 0.443159 -0.545762 
-0.425624 0.868629 0.301811 -0.322855 0.690451 -0.647298 
0.981701 -0.785492 0.458239 0.693014 -0.720237 -0.030732 
0.935728 -0.045231 0.279096 0.868374 0.063021 -0.491836 
-1.080425 0.512241 0.464669 -0.885647 0.456862 -0.082949 
-0.999198 0.164299 0.238654 -0.626606 -0.154454 -0.763848 
-0.175709 -0.754059 0.209659 -0.509445 -0.639515 -0.575701 
-0.798673 -0.193213 0.417708 -0.801935 -0.594867 -0.054933 
1.047176 -0.43453 0.276558 0.63976 -0.056459 -0.766472 
1.100253 -0.493168 0.360495 0.968169 -0.182165 -0.171453 
-1.100253 0.258289 0.339541 -0.967284 -0.061525 -0.24604 
-1.100253 0.258289 0.339541 -0.967284 -0.061525 -0.24604 
-0.40589 -0.612265 0.472711 -0.664388 -0.741722 0.091464 
0.033145 -0.888466 0.190035 -0.258217 -0.841395 -0.474715 
0.224895 -0.91371 0.190035 0.06061 -0.890927 -0.450056 
0.383094 -0.84864 0.40591 0.063265 -0.966033 0.250465 
0.618995 -0.793991 0.253483 0.263497 -0.690909 -0.673177 
0.981701 -0.785492 0.458239 0.693014 -0.720237 -0.030732 
-0.0304 0.670469 0.51939 0.181707 0.759239 0.624897 
-0.425624 0.868629 0.301811 -0.322855 0.690451 -0.647298 
-0.43848 0.913712 0.435572 -0.103488 0.978332 0.179144 
-1.080425 0.512241 0.464669 -0.885647 0.456862 -0.082949 
1.100253 -0.493168 0.360495 0.968169 -0.182165 -0.171453 
0.876766 0.146519 0.871778 0.756676 0.339702 0.55855 
0.70505 0.712244 0.220084 0.329722 0.681478 -0.65331 
0.751525 0.710466 0.336285 0.640919 0.729728 0.238044 
0.751525 0.710466 0.336285 0.640919 0.729728 0.238044 
-0.701361 0.735077 0.654266 -0.33607 0.655904 0.675863 
-1.020562 0.465425 0.572283 -0.702109 0.088809 0.706473 
-1.080425 0.512241 0.464669 -0.885647 0.456862 -0.082949 
-1.020562 0.465425 0.572283 -0.702109 0.088809 0.706473 
-0.209289 -0.68684 0.67908 -0.442305 -0.821345 0.360149 
-0.23981 -0.446184 1.052504 -0.468184 -0.34019 0.815485 
0.671373 -0.841282 0.496125 0.076662 -0.972533 0.219703 
0.759019 0.495346 0.530648 0.700278 0.540513 0.466231 
-0.43848 0.913712 0.435572 -0.103488 0.978332 0.179144 
-0.701361 0.735077 0.654266 -0.33607 0.655904 0.675863 
-0.321225 0.714256 0.626494 0.188116 0.607196 0.771935 
-0.778188 -0.150784 0.590886 -0.744835 -0.394147 0.538347 
-0.389817 -0.363329 0.847816 -0.774804 -0.297189 0.557939 
-0.025754 -0.770565 0.625706 -0.140324 -0.914365 0.379711 
0.342689 -0.718676 0.632444 0.081118 -0.800409 0.593921 
0.906335 -0.740925 0.590412 0.469436 -0.558611 0.683767 
0.981701 -0.785492 0.458239 0.693014 -0.720237 -0.030732 
0.906335 -0.740925 0.590412 0.469436 -0.558611 0.683767 
0.759019 0.495346 0.530648 0.700278 0.540513 0.466231 
0.775663 0.119429 0.956163 0.413862 0.191321 0.889981 
0.876766 0.146519 0.871778 0.756676 0.339702 0.55855 
0.751525 0.710466 0.336285 0.640919 0.729728 0.238044 
0.553308 0.792885 0.32336 0.202216 0.970244 0.133061 
0.536685 0.480412 0.706681 0.156346 0.7051 0.69161 
0.536685 0.480412 0.706681 0.156346 0.7051 0.69161 
-0.0304 0.670469 0.51939 0.181707 0.759239 0.624897 
0.933571 -0.337236 0.720127 0.65212 -0.239387 0.719291 
0.933571 -0.337236 0.720127 0.65212 -0.239387 0.719291 
0.775663 0.119429 0.956163 0.413862 0.191321 0.889981 
0.759019 0.495346 0.530648 0.700278 0.540513 0.466231 
0.652211 0.238287 0.934741 0.205939 0.568621 0.796381 
-1.020562 0.465425 0.572283 -0.702109 0.088809 0.706473 
-0.797989 0.430428 0.678742 -0.336039 0.054537 0.940245 
-0.778188 -0.150784 0.590886 -0.744835 -0.394147 0.538347 
-0.437055 -0.157845 0.78609 -0.472396 0.143925 0.869533 
-0.389817 -0.363329 0.847816 -0.774804 -0.297189 0.557939 
0.034796 -0.516768 1.052504 0.16892 -0.436384 0.883724 
0.65537 -0.095387 0.956163 0.235694 -0.258461 0.936796 
0.652211 0.238287 0.934741 0.205939 0.568621 0.796381 
0.034797 0.426306 0.735833 0.020569 0.549791 0.835017 
-0.229588 0.292923 0.792566 -0.135044 0.26899 0.953612 
-0.23981 -0.446184 1.052504 -0.468184 -0.34019 0.815485 
0.906335 -0.740925 0.590412 0.469436 -0.558611 0.683767 
0.628987 -0.339113 0.785743 0.324747 -0.406476 0.853969 
0.05737 0.134512 0.910304 -0.133396 0.307413 0.942167 
0.652211 0.238287 0.934741 0.205939 0.568621 0.796381 
0.05737 0.134512 0.910304 -0.133396 0.307413 0.942167 
0.378139 0.171764 0.971973 -0.1301 0.516068 0.846583 
-0.186092 -0.245708 1.045072 -0.253792 0.351604 0.901059 
0.034796 -0.516768 1.052504 0.16892 -0.436384 0.883724 
0.342689 -0.718676 0.632444 0.081118 -0.800409 0.593921 
0.264919 -0.432522 0.927796 0.36552 -0.308817 0.878048 
0.671373 -0.841282 0.496125 0.076662 -0.972533 0.219703 
0.378139 0.171764 0.971973 -0.1301 0.516068 0.846583 
-0.018598 0.058544 0.910304 -0.210242 0.136509 0.968047 
-0.437055 -0.157845 0.78609 -0.472396 0.143925 0.869533 
-0.186092 -0.245708 1.045072 -0.253792 0.351604 0.901059 
-0.135276 -0.124657 0.952148 -0.282723 0.667135 0.689169 
0.361621 0.008488 0.964893 -0.069704 -0.046175 0.99649 
-0.046404 -0.045231 0.914569 -0.203681 0.326853 0.922849 
-0.046404 -0.045231 0.914569 -0.203681 0.326853 0.922849 
0.161145 -0.252779 0.962154 0.384594 0.144871 0.911618 
0.161145 -0.045231 0.929986 -0.051943 0.08475 0.995025 
-0.135276 -0.124657 0.952148 -0.282723 0.667135 0.689169 
3 0 1 2 
3 0 3 1 
3 0 4 5 
3 3 0 6 
3 6 0 5 
3 4 0 7 
3 0 8 7 
3 0 9 8 
3 5 4 10 
3 8 9 11 
3 2 12 9 
3 2 1 12 
3 1 3 13 
3 3 6 14 
3 6 5 15 
3 15 5 10 
3 16 17 18 
3 19 11 12 
3 9 12 11 
3 12 1 20 
3 3 14 13 
3 6 15 14 
3 7 21 10 
3 21 7 22 
3 7 8 22 
3 22 8 23 
3 8 11 23 
3 23 11 19 
3 12 24 19 
3 20 1 13 
3 13 14 25 
3 15 10 26 
3 23 19 27 
3 19 24 27 
3 28 29 30 
3 14 15 26 
3 10 21 26 
3 23 27 31 
3 32 33 34 
3 32 35 33 
3 14 26 36 
3 31 27 37 
3 34 33 38 
3 36 26 39 
3 40 41 42 
3 43 38 44 
3 26 45 39 
3 40 42 46 
3 41 47 42 
3 41 48 47 
3 49 50 48 
3 49 51 50 
3 50 51 52 
3 28 53 29 
3 28 54 55 
3 55 54 56 
3 27 57 37 
3 44 38 58 
3 35 59 60 
3 30 29 61 
3 53 28 55 
3 56 62 55 
3 56 63 62 
3 64 46 65 
3 47 66 67 
3 47 48 66 
3 50 52 68 
3 38 33 58 
3 33 69 58 
3 35 60 33 
3 33 60 69 
3 70 71 72 
3 46 42 65 
3 65 42 73 
3 42 47 73 
3 73 47 74 
3 47 67 74 
3 48 75 66 
3 48 50 75 
3 50 68 76 
3 52 77 68 
3 78 44 79 
3 80 81 82 
3 83 84 85 
3 29 53 86 
3 70 72 87 
3 50 76 75 
3 44 58 88 
3 89 82 81 
3 90 91 92 
3 93 94 71 
3 93 95 96 
3 95 97 96 
3 67 66 98 
3 66 75 98 
3 44 88 79 
3 89 81 99 
3 83 85 80 
3 80 85 100 
3 85 87 101 
3 71 102 72 
3 71 94 102 
3 93 96 94 
3 96 97 103 
3 75 76 98 
3 104 89 105 
3 89 99 105 
3 85 106 100 
3 107 108 109 
3 87 72 101 
3 101 72 102 
3 102 94 96 
3 96 103 110 
3 103 111 110 
3 112 113 111 
3 114 113 112 
3 104 113 114 
3 104 105 113 
3 105 99 113 
3 100 115 81 
3 85 101 106 
3 101 102 106 
3 102 116 106 
3 102 96 116 
3 117 118 119 
3 113 99 120 
3 99 81 120 
3 81 115 120 
3 96 121 116 
3 117 119 122 
3 110 111 123 
3 111 113 123 
3 106 124 115 
3 110 124 125 
3 110 123 124 
3 113 124 123 
3 124 113 120 
3 115 124 120 
3 106 116 124 
3 116 121 124 
3 2 9 0 
3 121 125 124 
