ply
format ascii 1.0
comment VCGLIB generated
element vertex 136
property float x
property float y
property float z
property float nx
property float ny
property float nz
element face 142
property list uchar int vertex_indices
end_header
-0.706654 0.050341 1.004014 -0.900113 -0.030152 0.434584 
-0.661313 0.400618 1.030269 -0.724235 0.417341 0.548845 
-0.812873 0.445223 0.751387 -0.807672 0.433332 0.399823 
-0.600453 0.294193 1.161898 -0.810358 0.333232 0.481887 
-0.584329 -0.261316 1.121632 -0.772332 -0.46263 0.435224 
-0.582578 -0.14855 1.201062 -0.788507 -0.255501 0.559404 
-0.5735 0.193855 1.268369 -0.846095 0.104038 0.522752 
-0.731434 -0.198322 0.906078 -0.857814 -0.363292 0.363475 
-0.912997 -0.120182 0.456502 -0.894314 -0.280618 -0.348399 
-0.913155 0.427778 0.503014 -0.903195 0.342814 -0.258217 
-0.395242 -0.415638 1.227507 -0.814508 -0.452956 0.362407 
-0.912997 -0.120182 0.456502 -0.894314 -0.280618 -0.348399 
-0.913155 0.427778 0.503014 -0.903195 0.342814 -0.258217 
-0.814339 0.115078 0.387512 -0.491714 0.027985 -0.870266 
-0.434771 0.906013 0.362448 -0.516587 0.663381 -0.541307 
-0.812873 0.445223 0.751387 -0.807672 0.433332 0.399823 
-0.661313 0.400618 1.030269 -0.724235 0.417341 0.548845 
-0.434771 0.906013 0.362448 -0.516587 0.663381 -0.541307 
-0.188371 0.954222 0.880704 -0.236274 0.932066 0.274514 
-0.155146 0.52507 1.705886 -0.322916 0.761223 0.562334 
-0.276152 0.282698 1.666487 -0.775079 0.152532 0.613147 
-0.483819 0.191135 0.256463 -0.476363 0.021424 -0.878964 
-0.434771 0.906013 0.362448 -0.516587 0.663381 -0.541307 
-0.39228 0.978409 0.621285 -0.484359 0.868496 0.105197 
-0.215136 -0.823809 0.849709 -0.487106 -0.852168 0.191015 
-0.306675 -0.858768 0.405114 -0.437819 -0.818628 -0.371654 
-0.306675 -0.858768 0.405114 -0.437819 -0.818628 -0.371654 
-0.30179 -0.721643 0.306155 -0.277444 -0.458663 -0.844142 
-0.284826 0.688917 0.260285 -0.214606 0.298227 -0.930021 
-0.188371 0.954222 0.880704 -0.236274 0.932066 0.274514 
-0.155146 0.52507 1.705886 -0.322916 0.761223 0.562334 
-0.121501 0.899786 1.044986 -0.25367 0.878567 0.404645 
-0.178004 -0.529591 1.962905 -0.757927 -0.488052 0.432783 
-0.250569 0.301195 0.078871 -0.415204 0.175695 -0.892575 
-0.022663 0.873606 1.144469 0.213752 0.843989 0.491867 
-0.30179 -0.721643 0.306155 -0.277444 -0.458663 -0.844142 
-0.250569 0.301195 0.078871 -0.415204 0.175695 -0.892575 
-0.289945 -0.365644 0.161636 -0.777429 -0.198279 -0.596851 
-0.39228 0.978409 0.621285 -0.484359 0.868496 0.105197 
-0.137142 0.949984 0.329883 0.061281 0.789087 -0.611194 
-0.434771 0.906013 0.362448 -0.516587 0.663381 -0.541307 
-0.099527 0.375389 1.900352 -0.672048 0.385784 0.632038 
-0.289945 -0.365644 0.161636 -0.777429 -0.198279 -0.596851 
0.097997 -0.207697 -0 0.001495 -0.15833 -0.987365 
-0.137142 0.949984 0.329883 0.061281 0.789087 -0.611194 
0.034985 -0.293697 2.241715 -0.142613 -0.131352 0.981017 
-0.178004 -0.529591 1.962905 -0.757927 -0.488052 0.432783 
-0.215136 -0.823809 0.849709 -0.487106 -0.852168 0.191015 
0.020188 -0.71018 1.604865 -0.053957 -0.933897 0.353374 
-0.074688 0.260824 0.037262 -0.019501 0.216346 -0.976104 
-0.085101 -0.511662 2.105285 -0.297891 -0.601032 0.7416 
-0.085101 -0.511662 2.105285 -0.297891 -0.601032 0.7416 
0.102738 -0.840618 1.161099 -0.033998 -0.946745 0.320109 
-0.306675 -0.858768 0.405114 -0.437819 -0.818628 -0.371654 
-0.30179 -0.721643 0.306155 -0.277444 -0.458663 -0.844142 
0.015009 -0.605501 0.260238 -0.009247 -0.534562 -0.845058 
-0.306675 -0.858768 0.405114 -0.437819 -0.818628 -0.371654 
0.015009 -0.605501 0.260238 -0.009247 -0.534562 -0.845058 
-0.155146 0.52507 1.705886 -0.322916 0.761223 0.562334 
0.130482 0.440248 1.476468 0.617481 0.697775 0.362957 
-0.022663 0.873606 1.144469 0.213752 0.843989 0.491867 
-0.155146 0.52507 1.705886 -0.322916 0.761223 0.562334 
-0.099527 0.375389 1.900352 -0.672048 0.385784 0.632038 
0.032227 0.403292 1.944533 0.152135 0.741081 0.65392 
0.032227 0.403292 1.944533 0.152135 0.741081 0.65392 
-0.074688 0.260824 0.037262 -0.019501 0.216346 -0.976104 
-0.284826 0.688917 0.260285 -0.214606 0.298227 -0.930021 
0.689215 0.835825 0.37167 0.514786 0.783074 -0.348949 
0.002483 0.922657 1.015996 0.304117 0.919309 0.249641 
0.130482 0.440248 1.476468 0.617481 0.697775 0.362957 
0.034985 -0.293697 2.241715 -0.142613 -0.131352 0.981017 
0.240092 0.103577 2.07026 0.641774 0.336589 0.689047 
0.032227 0.403292 1.944533 0.152135 0.741081 0.65392 
0.146819 -0.299177 2.172293 0.664144 -0.338054 0.666768 
0.034985 -0.293697 2.241715 -0.142613 -0.131352 0.981017 
0.146819 -0.299177 2.172293 0.664144 -0.338054 0.666768 
0.334404 -0.937975 0.9653 0.129643 -0.949034 0.28721 
0.737805 -0.66522 1.180229 0.673879 -0.435774 0.596606 
0.150676 -0.481091 0.129504 0.057924 -0.557024 -0.828455 
-0.137142 0.949984 0.329883 0.061281 0.789087 -0.611194 
0.194848 0.824387 0.845171 0.421918 0.877743 0.226966 
0.689215 0.835825 0.37167 0.514786 0.783074 -0.348949 
0.233959 0.304464 1.745738 0.765954 0.59917 0.232917 
0.1932 -0.665869 1.622574 0.50679 -0.741905 0.438948 
0.476179 -0.621071 1.234412 0.272011 -0.584857 0.764122 
0.29518 -0.978409 0.486724 0.133366 -0.890133 -0.435682 
-0.306675 -0.858768 0.405114 -0.437819 -0.818628 -0.371654 
0.015009 -0.605501 0.260238 -0.009247 -0.534562 -0.845058 
0.29518 -0.978409 0.486724 0.133366 -0.890133 -0.435682 
0.326463 -0.634783 0.329986 0.308145 -0.439833 -0.843532 
0.097997 -0.207697 -0 0.001495 -0.15833 -0.987365 
0.300919 -0.226101 0.05484 0.446883 -0.167455 -0.87875 
0.150676 -0.481091 0.129504 0.057924 -0.557024 -0.828455 
0.194848 0.824387 0.845171 0.421918 0.877743 0.226966 
0.808231 0.713936 0.413366 0.855983 0.447401 -0.259011 
0.689215 0.835825 0.37167 0.514786 0.783074 -0.348949 
0.002483 0.922657 1.015996 0.304117 0.919309 0.249641 
0.368367 0.61517 1.010494 0.550798 0.607013 0.572802 
0.233959 0.304464 1.745738 0.765954 0.59917 0.232917 
0.015009 -0.605501 0.260238 -0.009247 -0.534562 -0.845058 
0.326463 -0.634783 0.329986 0.308145 -0.439833 -0.843532 
0.29518 -0.978409 0.486724 0.133366 -0.890133 -0.435682 
0.483534 0.291901 0.179793 0.444746 0.047975 -0.894345 
0.808231 0.713936 0.413366 0.855983 0.447401 -0.259011 
0.808231 0.713936 0.413366 0.855983 0.447401 -0.259011 
0.194848 0.824387 0.845171 0.421918 0.877743 0.226966 
0.710781 0.659277 0.736742 0.629566 0.637349 0.444258 
0.266256 -0.201815 1.976456 0.91937 -0.158391 0.360027 
0.407153 -0.478861 1.350953 0.750816 -0.143132 0.644795 
0.1932 -0.665869 1.622574 0.50679 -0.741905 0.438948 
0.476179 -0.621071 1.234412 0.272011 -0.584857 0.764122 
0.407153 -0.478861 1.350953 0.750816 -0.143132 0.644795 
0.913155 -0.708199 0.556497 0.873379 -0.335459 -0.353008 
0.805725 0.346016 0.399217 0.886013 -0.062624 -0.459365 
0.194848 0.824387 0.845171 0.421918 0.877743 0.226966 
0.710781 0.659277 0.736742 0.629566 0.637349 0.444258 
0.361216 0.273138 1.310043 0.762932 0.466445 0.447584 
0.411474 0.010263 1.439499 0.907346 0.132664 0.398816 
0.407153 -0.478861 1.350953 0.750816 -0.143132 0.644795 
0.913155 -0.708199 0.556497 0.873379 -0.335459 -0.353008 
0.556563 0.026482 0.325341 0.621937 -0.108493 -0.775475 
0.567957 0.051458 1.222183 0.816401 0.122654 0.564257 
0.729555 0.362612 0.966652 0.705557 0.321268 0.631581 
0.737805 -0.66522 1.180229 0.673879 -0.435774 0.596606 
0.703303 -0.427605 1.216813 0.741234 0.17835 0.647084 
0.913155 -0.708199 0.556497 0.873379 -0.335459 -0.353008 
0.742437 -0.404245 0.471349 0.822504 0.037049 -0.567522 
0.808231 0.713936 0.413366 0.855983 0.447401 -0.259011 
0.557358 -0.062212 1.215163 0.864009 -0.111637 0.490921 
0.592672 -0.283268 1.221337 0.421125 0.369274 0.828394 
0.742437 -0.404245 0.471349 0.822504 0.037049 -0.567522 
0.805725 0.346016 0.399217 0.886013 -0.062624 -0.459365 
0.790682 0.221203 0.572663 0.989074 -0.069613 0.129765 
0.561047 -0.166059 1.181409 0.762047 0.122715 0.635762 
0.701479 -0.245419 0.913381 0.960295 0.270943 0.066256 
0.646557 -0.032621 1.02527 0.946013 0.00177 0.324076 
3 0 1 2 
3 0 3 1 
3 0 4 5 
3 3 0 6 
3 6 0 5 
3 4 0 7 
3 0 8 7 
3 0 9 8 
3 5 4 10 
3 11 12 13 
3 2 14 9 
3 15 16 17 
3 1 3 18 
3 3 6 19 
3 6 5 20 
3 20 5 10 
3 10 4 7 
3 21 13 22 
3 12 22 13 
3 14 1 23 
3 3 19 18 
3 6 20 19 
3 7 24 10 
3 24 7 25 
3 7 8 25 
3 26 11 27 
3 11 13 27 
3 27 13 21 
3 22 28 21 
3 23 1 18 
3 29 30 31 
3 20 10 32 
3 27 21 33 
3 21 28 33 
3 30 34 31 
3 19 20 32 
3 10 24 32 
3 35 36 37 
3 38 39 40 
3 38 29 39 
3 19 32 41 
3 42 33 43 
3 22 44 28 
3 41 32 45 
3 46 47 48 
3 33 28 49 
3 32 50 45 
3 46 48 51 
3 47 52 48 
3 47 53 52 
3 54 55 56 
3 27 42 57 
3 57 42 43 
3 58 59 60 
3 61 62 63 
3 64 41 45 
3 33 49 43 
3 65 66 67 
3 29 31 68 
3 31 34 68 
3 69 61 63 
3 70 71 72 
3 70 73 71 
3 74 51 75 
3 52 76 77 
3 52 53 76 
3 57 43 78 
3 66 79 67 
3 39 80 81 
3 29 68 39 
3 39 68 80 
3 72 71 82 
3 51 48 75 
3 75 48 83 
3 48 52 83 
3 83 52 84 
3 52 77 84 
3 53 85 76 
3 86 87 88 
3 57 78 89 
3 90 91 92 
3 90 65 91 
3 93 94 95 
3 96 60 97 
3 60 59 97 
3 63 98 69 
3 99 100 101 
3 65 67 102 
3 102 67 103 
3 104 105 106 
3 73 107 71 
3 75 83 108 
3 109 110 111 
3 77 76 112 
3 76 85 112 
3 65 102 91 
3 102 103 113 
3 96 97 114 
3 114 97 115 
3 97 59 116 
3 71 117 82 
3 71 107 117 
3 73 118 107 
3 108 84 77 
3 101 100 119 
3 91 102 120 
3 102 113 120 
3 97 121 115 
3 115 121 122 
3 59 82 116 
3 116 82 117 
3 117 107 118 
3 118 123 124 
3 123 125 124 
3 100 126 119 
3 92 126 100 
3 91 126 92 
3 91 120 126 
3 120 113 126 
3 115 122 127 
3 97 116 121 
3 116 117 121 
3 117 128 121 
3 117 118 128 
3 118 124 129 
3 130 131 132 
3 131 127 132 
3 127 122 132 
3 118 133 128 
3 118 129 133 
3 124 125 134 
3 125 130 134 
3 121 135 122 
3 124 135 129 
3 124 134 135 
3 130 135 134 
3 135 130 132 
3 122 135 132 
3 121 128 135 
3 128 133 135 
3 2 9 0 
3 133 129 135 
