ply
format ascii 1.0
comment VCGLIB generated
element vertex 611
property float x
property float y
property float z
property float nx
property float ny
property float nz
element face 552
property list uchar int vertex_indices
end_header
6.09256 0.502835 13.9287 0.336985 -0.826563 0.450758 
9.53076 0.23143 12.3865 0.189764 -0.884487 0.42616 
10.0848 0.561305 12.4655 0.467025 -0.324107 0.822657 
-4.80121 12.6414 -1.68097 -0.680105 0.517808 -0.518906 
-5.04352 10.1902 -2.6328 -0.799829 0.339091 -0.495224 
-6.40729 12.0499 -0.855585 -0.656453 0.563311 -0.501724 
2.10651 12.0878 10.062 -0.196783 0.561205 0.803919 
2.34952 13.0436 8.58095 0.282449 0.855647 0.433607 
1.10413 13.746 7.51328 -0.029572 0.914609 0.40318 
6.87485 12.9325 -8.09774 0.247688 0.956969 -0.151097 
10.1061 12.8843 -4.63596 0.590258 0.806787 -0.0249339 
9.75781 12.7604 -8.97296 0.60622 0.726951 -0.322489 
8.66659 3.98758 -12.5254 0.719047 0.0220341 -0.694571 
7.94501 5.46471 -12.8013 0.551805 0.400128 -0.731681 
9.12646 4.84601 -11.7756 0.824213 0.358623 -0.438185 
7.42905 6.32149 -12.2584 0.742027 0.241951 -0.625141 
12.2297 4.61627 -4.76384 0.736808 0.655904 -0.163884 
12.253 3.0683 -7.19736 0.828181 0.451186 -0.332408 
10.5673 4.22652 -8.86748 0.858943 0.270669 -0.434614 
-15.623 4.16084 8.71242 -0.935362 0.350475 -0.046876 
-16.6345 0.630223 8.93371 -0.867641 -0.388531 0.31016 
-15.4597 5.09423 9.76818 -0.782189 0.578722 0.230628 
11.6096 0.255137 -11.4441 0.542528 -0.204443 -0.814753 
12.7814 0.183991 -6.65893 0.256081 -0.965239 -0.0517591 
4.45163 0.100236 -14.3206 0.177953 -0.728294 -0.661702 
10.1241 6.31658 1.9955 0.646626 0.740898 0.181371 
9.06604 9.19079 1.40185 0.809076 0.134739 -0.572008 
9.63482 10.4601 2.17713 0.806482 0.572069 -0.149297 
1.35062 14.2298 2.21668 0.351695 0.834315 0.424482 
2.43866 14.2815 1.13136 0.26606 0.735893 0.622608 
1.16476 17.1491 0.946643 0.401624 0.703024 0.586871 
5.32645 9.91671 10.6637 0.495529 0.583483 0.643391 
-15.4597 5.09423 9.76818 -0.782189 0.578722 0.230628 
-16.1012 1.38747 10.5616 -0.841456 0.00158693 0.540269 
-14.096 5.15771 11.4909 -0.379772 0.648946 0.65923 
10.1333 0.306173 -12.3753 0.591052 -0.0466629 -0.805261 
15.252 1.77944 -2.02173 0.838343 0.32606 -0.436811 
13.6206 2.07626 -3.97276 0.843837 0.41905 -0.335093 
13.2216 3.24531 -2.24059 0.715415 0.490799 -0.497238 
8.06643 2.84515 -13.048 0.590472 0.0644861 -0.804437 
8.81686 0.581103 -12.898 0.573779 0.335704 -0.747032 
7.72629 0.365448 -13.4247 0.32844 -0.40376 -0.853847 
5.97497 6.33562 12.0714 0.116581 0.773034 0.623493 
5.87854 6.09457 12.967 -0.120243 0.734031 0.668355 
7.51257 5.84933 12.9813 0.257729 0.602527 0.755303 
-9.80127 9.09647 2.45461 -0.442335 0.895383 -0.0509659 
-14.8375 7.98829 6.08161 -0.756157 0.599048 -0.263314 
-12.2739 8.38352 7.78887 -0.106021 0.954039 0.280251 
5.32645 9.91671 10.6637 0.495529 0.583483 0.643391 
5.97497 6.33562 12.0714 0.116581 0.773034 0.623493 
7.68225 7.12765 10.2258 0.458541 0.754265 0.469863 
7.97287 10.5294 -0.0862776 0.512497 0.812006 0.279183 
9.18826 12.7447 -1.07531 -0.191748 0.831233 0.521744 
6.88891 12.8492 -4.8937 0.509201 0.853603 0.109684 
-10.088 7.41682 0.442272 -0.7463 0.613147 -0.258889 
-12.3019 7.45634 3.36542 -0.736686 0.220923 -0.639088 
-8.38382 8.86899 -0.504208 -0.655354 0.526109 -0.541887 
9.53119 0.026855 -0.184544 0.016236 -0.999847 -0.000244131 
13.6482 0.152934 -2.91267 0.195044 -0.976257 -0.0939051 
11.2325 0.127903 10.5304 0.206061 -0.965117 0.161351 
-3.02805 0.447077 10.7078 -0.660298 0.0245979 0.750572 
-1.48624 0.0993504 11.8574 -0.321574 -0.87814 0.354106 
-0.796753 0.525451 12.9035 -0.646718 -0.311991 0.695944 
11.6096 0.255137 -11.4441 0.542528 -0.204443 -0.814753 
10.1333 0.306173 -12.3753 0.591052 -0.0466629 -0.805261 
9.76718 1.0648 -9.48375 0.417188 0.269173 -0.868007 
-9.84115 9.50732 5.61364 -0.347301 0.920072 0.181188 
-6.29104 12.1139 2.09102 -0.573168 0.690023 0.441939 
6.57611 11.5498 -0.547875 0.645985 0.746818 0.15775 
6.88891 12.8492 -4.8937 0.509201 0.853603 0.109684 
5.49914 12.7635 0.560259 0.898007 0.303598 0.318369 
1.42569 6.77907 -13.7397 -0.488205 0.417524 -0.76635 
-0.394135 5.4853 -12.363 -0.553087 0.608142 -0.569384 
-0.817627 7.78919 -10.6033 -0.732383 0.205329 -0.649159 
-5.6456 8.37732 -2.70811 -0.626362 0.70217 -0.33845 
-6.50491 8.07136 -3.78996 -0.361064 0.808283 -0.465041 
-8.35681 8.33505 -1.38657 -0.304849 0.918943 -0.25013 
-7.94348 2.78882 9.77032 0.160344 -0.248695 0.955199 
-11.5944 5.18132 12.0783 0.057619 0.366222 0.928709 
-12.9498 4.85294 11.8736 -0.08536 -0.0158091 0.996216 
-17.7072 0.449562 4.59319 -0.898007 -0.376629 -0.227393 
-16.6345 0.630223 8.93371 -0.867641 -0.388531 0.31016 
-17.5453 1.2509 5.66434 -0.946471 0.322764 -0.00332696 
-10.088 7.41682 0.442272 -0.7463 0.613147 -0.258889 
-10.4648 7.60989 -1.14989 -0.596851 0.730827 0.331065 
10.0614 4.88022 -8.38415 0.477645 0.863338 -0.162633 
5.97497 6.33562 12.0714 0.116581 0.773034 0.623493 
2.45026 6.26247 12.3443 0.00116 0.256935 0.966399 
3.37415 4.9539 12.958 -0.131077 0.553728 0.822291 
-6.27518 0.156299 9.08486 0.006531 -0.751823 0.659322 
-10.4669 1.62841 10.2543 0.323862 -0.0548421 0.944487 
-10.0367 0.269463 10.2277 0.241493 -0.541307 0.805353 
-12.2232 0.0462763 -2.3551 -0.044618 -0.998413 -0.0335091 
0.30899 0.0072416 -4.58199 -0.002747 -0.999969 -0.00473013 
3.51916 0.0904254 12.421 0.024018 -0.998321 0.0524609 
3.00717 0.252934 15.379 -0.102298 -0.658986 0.74514 
-12.9498 4.85294 11.8736 -0.08536 -0.0158091 0.996216 
-11.5944 5.18132 12.0783 0.057619 0.366222 0.928709 
14.4735 5.72951 2.43925 0.776177 0.620197 0.113315 
12.749 4.1659 4.85135 0.854732 0.191412 0.482406 
14.9255 3.05293 2.23807 0.9082 0.322092 0.26719 
-12.0578 5.31024 10.2435 -0.135563 0.80752 0.573992 
-7.20624 5.59602 9.43255 0.245125 0.685476 0.685568 
-11.2044 7.54882 10.0919 0.044008 0.618275 0.784692 
10.1241 6.31658 1.9955 0.646626 0.740898 0.181371 
12.5591 5.82883 4.3513 0.546129 0.787713 0.284982 
14.4735 5.72951 2.43925 0.776177 0.620197 0.113315 
11.6962 5.93243 7.94644 0.840846 0.430219 0.32841 
12.5299 5.87068 0.0755708 0.574633 0.814386 -0.0808129 
13.0498 5.70972 -0.868435 0.723716 0.682607 0.101291 
11.617 6.2847 -1.09436 0.703146 0.71099 0.00613409 
-5.62576 4.80138 -7.19403 -0.352397 0.62273 -0.698538 
-2.53754 5.20064 -9.40672 -0.541459 0.736503 -0.405377 
-4.98221 4.93039 -8.69862 -0.55446 0.764031 -0.329814 
-11.5425 7.82834 -2.83237 -0.58327 0.78811 0.196509 
-3.33136 7.88866 8.98133 -0.449812 0.775018 0.443831 
-0.470001 8.30815 8.52053 -0.527055 0.74694 0.405255 
-3.07669 7.87048 4.75795 -0.228492 0.683523 0.693228 
-4.49261 7.92037 -5.37977 -0.666677 0.406384 -0.624775 
-6.50491 8.07136 -3.78996 -0.361064 0.808283 -0.465041 
-5.49716 8.78244 -4.07588 -0.746971 0.537522 -0.391217 
-5.6456 8.37732 -2.70811 -0.626362 0.70217 -0.33845 
-4.50949 13.516 -0.315102 -0.559069 0.828852 -0.0202029 
7.05423 10.8558 3.15704 0.251534 0.926298 0.280526 
9.21237 10.4286 4.3849 0.590045 0.736503 0.330668 
9.63482 10.4601 2.17713 0.806482 0.572069 -0.149297 
-6.21246 10.6573 4.28448 -0.013977 0.723746 0.689871 
-14.9851 5.58123 8.67934 -0.77871 0.470901 0.414502 
-14.9106 7.60952 8.35587 -0.703238 0.558031 0.440474 
-5.44662 0.0620979 8.49985 -0.013153 -0.998779 0.0472119 
-1.48624 0.0993504 11.8574 -0.321574 -0.87814 0.354106 
-4.03677 0.147937 9.92243 -0.449263 -0.534532 0.715812 
-7.20624 5.59602 9.43255 0.245125 0.685476 0.685568 
-4.77383 4.85043 9.6734 -0.118259 0.513657 0.849788 
-5.85974 6.52374 8.28111 0.007111 0.7846 0.619953 
-12.3966 4.16984 -1.86587 -0.8052 0.567064 -0.173406 
-10.088 7.41682 0.442272 -0.7463 0.613147 -0.258889 
-10.4648 7.60989 -1.14989 -0.596851 0.730827 0.331065 
-8.78469 9.35624 0.547239 -0.720695 0.558489 -0.410688 
-14.8375 7.98829 6.08161 -0.756157 0.599048 -0.263314 
5.93606 11.7445 1.1054 0.638844 0.742759 0.200385 
-1.91537 10.1663 -9.37107 -0.790307 0.194922 -0.580828 
-1.92429 13.4271 -5.8396 -0.736778 0.495804 -0.459639 
0.864624 12.6168 -11.6225 -0.63332 0.515488 -0.577166 
-1.36014 17.3079 0.0328603 -0.637104 0.734947 0.232185 
-0.606689 16.7827 1.42102 -0.294015 0.591266 0.750938 
-0.103821 17.4682 0.515264 -0.061586 0.914945 0.398755 
3.53348 13.6236 5.61167 0.357463 0.894803 0.267373 
4.48013 13.8622 1.82653 0.533677 0.691641 0.486587 
1.96466 13.9068 4.33427 0.14597 0.982635 0.114383 
5.6521 13.2798 3.32538 0.829249 0.550249 -0.0977199 
-6.40729 12.0499 -0.855585 -0.656453 0.563311 -0.501724 
-6.24652 12.849 1.17352 -0.55974 0.823115 0.0957061 
-4.50949 13.516 -0.315102 -0.559069 0.828852 -0.0202029 
1.51312 13.621 -11.4023 -0.386975 0.598865 -0.701102 
4.44943 12.4745 -11.6537 0.354808 0.602344 -0.715018 
3.27771 15.1373 -8.33223 0.793329 0.599261 -0.107059 
4.35589 14.2755 -8.84693 0.503677 0.800745 -0.324168 
1.52994 17.9512 -2.52396 0.479812 0.877224 -0.0145569 
3.27771 15.1373 -8.33223 0.793329 0.599261 -0.107059 
2.87149 16.3202 -8.31663 0.441786 0.861141 -0.251473 
6.87485 12.9325 -8.09774 0.247688 0.956969 -0.151097 
5.00458 14.0904 -5.14507 0.48381 0.860439 -0.159764 
5.64145 15.0345 -0.957237 0.696371 0.717673 0.000641094 
-4.67077 10.4471 -4.10165 -0.859493 0.419446 -0.292032 
-3.25717 12.2531 -5.18842 -0.784631 0.459059 -0.416608 
-3.11642 10.1545 4.08986 -0.260262 0.30314 0.916684 
-1.84387 9.28652 5.39122 -0.75927 0.253365 0.599384 
-3.07352 12.9525 3.5095 -0.489792 0.645772 0.585681 
-5.05044 12.6653 3.21277 -0.304239 0.732444 0.609058 
-2.53754 5.20064 -9.40672 -0.541459 0.736503 -0.405377 
-3.5574 7.24515 -6.73854 -0.724418 0.286264 -0.627064 
6.74057 6.39208 -12.8318 0.362621 0.369091 -0.855708 
9.397 8.34664 -11.0907 0.755272 -0.155217 -0.636708 
11.2831 7.61515 -2.62601 0.945708 0.323313 0.032441 
11.617 6.2847 -1.09436 0.703146 0.71099 0.00613409 
12.0367 4.92668 -2.75985 0.74984 0.49147 -0.442885 
12.5299 5.87068 0.0755708 0.574633 0.814386 -0.0808129 
12.9961 4.10955 0.247452 0.840663 0.532701 -0.0972929 
13.0498 5.70972 -0.868435 0.723716 0.682607 0.101291 
3.37415 4.9539 12.958 -0.131077 0.553728 0.822291 
14.9255 3.05293 2.23807 0.9082 0.322092 0.26719 
14.0981 3.61821 0.958294 0.711112 0.594134 -0.375866 
13.8155 5.55243 1.04504 0.678304 0.479202 -0.556963 
-6.41867 2.9693 -7.98744 -0.433302 0.388409 -0.813227 
-5.62576 4.80138 -7.19403 -0.352397 0.62273 -0.698538 
-4.98221 4.93039 -8.69862 -0.55446 0.764031 -0.329814 
-5.23511 6.13197 -6.27506 -0.42613 0.627186 -0.651906 
-7.24307 5.23738 -6.98933 -0.134709 0.670583 -0.729453 
-5.31372 2.45012 -9.01266 -0.668416 0.243904 -0.702628 
-3.17886 4.83069 -11.3289 -0.59563 0.678182 -0.430433 
-1.52274 2.43031 -14.4636 -0.482925 0.188299 -0.855129 
5.76605 3.95581 13.4468 0.226569 0.36903 0.901364 
5.87854 6.09457 12.967 -0.120243 0.734031 0.668355 
3.37415 4.9539 12.958 -0.131077 0.553728 0.822291 
-12.3966 4.16984 -1.86587 -0.8052 0.567064 -0.173406 
-14.842 2.49584 1.05651 -0.78402 0.507645 -0.357189 
-13.6034 4.18719 2.60004 -0.714743 0.661122 -0.228034 
-11.9221 7.58447 -3.58297 -0.732963 0.66924 -0.121799 
-11.6019 7.36318 -4.46401 -0.385144 0.545762 -0.744133 
-12.5717 3.78153 -4.00886 -0.884365 0.250984 -0.393506 
-10.1139 4.66915 -6.93964 -0.436659 0.492447 -0.752831 
-11.1869 2.7081 -6.42749 -0.736442 0.200537 -0.646046 
-11.0336 5.54334 -4.82839 -0.382916 0.417707 -0.823908 
6.94742 1.33736 13.6801 0.462966 0.0328989 0.885739 
10.0848 0.561305 12.4655 0.467025 -0.324107 0.822657 
9.4433 2.40762 12.4353 0.514389 0.159124 0.842647 
-3.75125 1.82151 9.75503 -0.34138 -0.127171 0.931242 
-0.5784 3.81289 12.6056 -0.574023 0.625294 0.528642 
-1.59735 4.4776 10.9427 -0.566057 0.259316 0.782464 
-13.5448 0.124768 -2.23006 -0.682424 -0.709067 -0.177465 
-15.57 0.375474 0.892006 -0.746269 -0.494247 -0.445845 
-12.8832 0.327738 -4.98328 -0.671133 -0.560533 -0.485092 
-13.6011 1.04589 -3.49438 -0.982238 0.031831 -0.18482 
-14.2458 0.360261 11.4099 -0.054628 -0.640217 0.766228 
-14.0303 3.35943 11.6236 -0.161596 -0.0573751 0.985168 
-15.5162 0.873299 11.085 -0.550188 -0.288858 0.783441 
-6.27518 0.156299 9.08486 0.006531 -0.751823 0.659322 
-10.3342 0.138688 9.94997 0.034028 -0.980865 0.191534 
-15.0277 0.175752 9.73513 -0.087436 -0.992584 0.0842619 
-15.8229 0.370653 10.2395 -0.532975 -0.766259 0.358776 
-17.0113 0.215267 5.86231 -0.328166 -0.941618 0.0751669 
-4.90994 0.160463 -10.1568 -0.532456 -0.633595 -0.561235 
-9.75079 0.263959 -6.87667 -0.305673 -0.71923 -0.623859 
-1.17233 0.401023 -13.9299 -0.501938 -0.658254 -0.560991 
-1.14792 0.152419 -13.2296 -0.132328 -0.976104 -0.172277 
4.45163 0.100236 -14.3206 0.177953 -0.728294 -0.661702 
1.84622 0.600474 -15.0793 0.154698 -0.26722 -0.951109 
-12.8832 0.327738 -4.98328 -0.671133 -0.560533 -0.485092 
4.41687 2.95356 -14.2819 0.275643 0.0994901 -0.956084 
2.20959 2.93824 -14.914 0.090945 0.188574 -0.977813 
1.02704 7.77314 12.1342 0.002319 0.667592 0.744469 
1.74145 8.30369 10.517 -0.420789 0.623249 0.659139 
-0.180786 7.68445 11.985 -0.393994 0.578784 0.71395 
-8.45745 6.99486 8.5639 0.225593 0.936521 0.268319 
-10.65 8.5528 7.40148 0.09476 0.78402 0.613392 
-11.2044 7.54882 10.0919 0.044008 0.618275 0.784692 
1.74145 8.30369 10.517 -0.420789 0.623249 0.659139 
2.4494 7.76883 11.1805 0.026215 0.681936 0.730918 
2.10651 12.0878 10.062 -0.196783 0.561205 0.803919 
-4.50949 13.516 -0.315102 -0.559069 0.828852 -0.0202029 
-2.46439 13.9832 1.34489 -0.553148 0.73159 0.39845 
-2.8786 14.973 -0.248075 -0.738823 0.644124 0.198065 
1.34051 12.0563 -12.6117 -0.347758 0.316691 -0.882443 
10.3127 9.04159 -1.84242 0.946135 0.243782 0.212928 
10.2973 12.7577 -1.58747 0.679373 0.672903 0.292581 
9.81213 8.94197 0.0906812 0.626423 0.387005 0.676595 
9.66018 11.9807 -0.525974 0.347362 0.399823 0.848201 
0.724792 0.301546 -15.0184 -0.051759 -0.808649 -0.585986 
1.52994 17.9512 -2.52396 0.479812 0.877224 -0.0145569 
0.302551 18.2023 -2.14807 -0.071535 0.997314 0.0149241 
4.94208 0.668232 15.4908 0.355296 -0.420942 0.834559 
3.75885 3.68453 14.9489 0.153569 0.623066 0.7669 
1.85315 3.77301 15.0811 -0.22663 0.622211 0.74929 
-1.17233 0.401023 -13.9299 -0.501938 -0.658254 -0.560991 
-4.90994 0.160463 -10.1568 -0.532456 -0.633595 -0.561235 
-5.58212 0.722983 -9.31773 -0.582812 0.294961 -0.757134 
14.4872 0.160651 2.71262 0.430372 -0.878384 0.207831 
15.5625 0.480505 -1.36634 0.797662 -0.566698 -0.206244 
3.00717 0.252934 15.379 -0.102298 -0.658986 0.74514 
12.0994 0.685677 11.1842 0.809839 -0.157964 0.564928 
14.0868 1.14693 4.40985 0.911802 0.140721 0.385723 
11.6121 3.47389 7.24832 0.84872 0.183569 0.495956 
8.66659 3.98758 -12.5254 0.719047 0.0220341 -0.694571 
10.4694 2.64045 -10.7952 0.613361 -0.114902 -0.781365 
9.76718 1.0648 -9.48375 0.417188 0.269173 -0.868007 
12.0948 1.43526 -9.56351 0.730766 0.386547 -0.562578 
10.8617 5.458 -4.66833 0.857295 0.430219 -0.282693 
12.2297 4.61627 -4.76384 0.736808 0.655904 -0.163884 
10.0614 4.88022 -8.38415 0.477645 0.863338 -0.162633 
-8.81814 5.88477 -4.28424 -0.083346 0.686789 -0.722037 
7.68225 7.12765 10.2258 0.458541 0.754265 0.469863 
9.57907 5.80665 11.8393 0.63039 0.504532 0.589923 
2.45227 8.67538 -13.0519 -0.152226 0.300607 -0.941496 
-1.8584 15.3077 -2.90409 -0.724631 0.627003 -0.285897 
-0.20575 17.8766 -3.08735 -0.476455 0.821162 -0.314005 
1.27701 15.0821 -9.47145 -0.5215 0.684744 -0.509049 
2.10745 5.95141 -14.3028 -0.024415 0.317454 -0.947935 
4.35412 15.3384 -1.05966 0.191412 0.972839 -0.129978 
5.07538 15.3248 1.20435 0.437544 0.680837 0.587329 
6.29544 10.1351 5.96462 0.684103 0.673055 0.280953 
5.59451 11.4154 3.22251 0.825068 0.564989 -0.00231893 
5.6521 13.2798 3.32538 0.829249 0.550249 -0.0977199 
1.27045 4.13016 -14.7051 -0.236885 0.210425 -0.948454 
2.20959 2.93824 -14.914 0.090945 0.188574 -0.977813 
0.104462 2.91527 -14.2535 -0.252174 0.323618 -0.911924 
9.75781 12.7604 -8.97296 0.60622 0.726951 -0.322489 
10.1061 12.8843 -4.63596 0.590258 0.806787 -0.0249339 
10.9142 9.83566 -6.69236 0.985748 0.093387 -0.139866 
13.4504 0.334616 7.20855 0.821802 -0.501755 0.269875 
12.0994 0.685677 11.1842 0.809839 -0.157964 0.564928 
9.57907 5.80665 11.8393 0.63039 0.504532 0.589923 
10.2203 2.28409 11.7413 0.774499 0.433546 0.460585 
7.51257 5.84933 12.9813 0.257729 0.602527 0.755303 
14.1101 3.66603 -0.313664 0.655019 0.740806 0.148625 
15.5837 2.67052 0.229031 0.868954 0.492996 -0.0426039 
14.0715 3.51601 -1.30726 0.735771 0.53737 -0.412122 
13.0498 5.70972 -0.868435 0.723716 0.682607 0.101291 
14.1101 3.66603 -0.313664 0.655019 0.740806 0.148625 
14.0715 3.51601 -1.30726 0.735771 0.53737 -0.412122 
1.27045 4.13016 -14.7051 -0.236885 0.210425 -0.948454 
2.45227 8.67538 -13.0519 -0.152226 0.300607 -0.941496 
7.88632 8.56076 -11.7669 0.316202 0.191717 -0.929106 
7.17889 12.2803 -11.1537 0.280099 0.671438 -0.686056 
4.44943 12.4745 -11.6537 0.354808 0.602344 -0.715018 
1.34051 12.0563 -12.6117 -0.347758 0.316691 -0.882443 
3.10455 13.5484 -11.7844 0.062624 0.475143 -0.877651 
2.91693 15.617 -0.02942 0.448195 0.81341 0.370708 
10.5423 2.81521 8.17488 0.688101 0.376202 0.620441 
10.5423 2.81521 8.17488 0.688101 0.376202 0.620441 
10.2203 2.28409 11.7413 0.774499 0.433546 0.460585 
12.0994 0.685677 11.1842 0.809839 -0.157964 0.564928 
-7.88461 1.47107 -8.11113 -0.4279 0.0785241 -0.900388 
14.0981 3.61821 0.958294 0.711112 0.594134 -0.375866 
14.9255 3.05293 2.23807 0.9082 0.322092 0.26719 
-5.85974 6.52374 8.28111 0.007111 0.7846 0.619953 
1.16476 17.1491 0.946643 0.401624 0.703024 0.586871 
-0.606689 16.7827 1.42102 -0.294015 0.591266 0.750938 
1.35062 14.2298 2.21668 0.351695 0.834315 0.424482 
-3.40158 14.0894 -2.72471 -0.732322 0.611652 -0.299264 
7.17889 12.2803 -11.1537 0.280099 0.671438 -0.686056 
4.44943 12.4745 -11.6537 0.354808 0.602344 -0.715018 
-0.470001 8.30815 8.52053 -0.527055 0.74694 0.405255 
0.932953 12.5015 8.73501 -0.645497 0.415479 0.640828 
-3.07669 7.87048 4.75795 -0.228492 0.683523 0.693228 
7.88632 8.56076 -11.7669 0.316202 0.191717 -0.929106 
7.67013 11.3222 -11.223 0.308023 0.333659 -0.890927 
8.99847 10.8286 -11.2339 0.515183 0.331065 -0.790521 
9.18826 12.7447 -1.07531 -0.191748 0.831233 0.521744 
10.2973 12.7577 -1.58747 0.679373 0.672903 0.292581 
9.31643 7.94487 4.72955 0.942595 0.33079 0.045289 
9.37146 7.38749 7.712 0.612812 0.723014 0.318857 
11.6962 5.93243 7.94644 0.840846 0.430219 0.32841 
10.1241 6.31658 1.9955 0.646626 0.740898 0.181371 
9.31643 7.94487 4.72955 0.942595 0.33079 0.045289 
11.6962 5.93243 7.94644 0.840846 0.430219 0.32841 
9.37146 7.38749 7.712 0.612812 0.723014 0.318857 
9.31643 7.94487 4.72955 0.942595 0.33079 0.045289 
9.21237 10.4286 4.3849 0.590045 0.736503 0.330668 
6.29544 10.1351 5.96462 0.684103 0.673055 0.280953 
7.68225 7.12765 10.2258 0.458541 0.754265 0.469863 
5.59451 11.4154 3.22251 0.825068 0.564989 -0.00231893 
-15.3004 5.46611 7.81722 -0.974761 0.2219 -0.023743 
-15.2142 4.42542 6.50248 -0.914884 0.261422 -0.307627 
-14.9106 7.60952 8.35587 -0.703238 0.558031 0.440474 
-15.3004 5.46611 7.81722 -0.974761 0.2219 -0.023743 
-8.78469 9.35624 0.547239 -0.720695 0.558489 -0.410688 
-8.81814 5.88477 -4.28424 -0.083346 0.686789 -0.722037 
-5.23511 6.13197 -6.27506 -0.42613 0.627186 -0.651906 
-7.24307 5.23738 -6.98933 -0.134709 0.670583 -0.729453 
10.7743 4.76102 -8.3894 0.717002 0.637135 -0.282662 
9.12646 4.84601 -11.7756 0.824213 0.358623 -0.438185 
-0.5784 3.81289 12.6056 -0.574023 0.625294 0.528642 
0.497162 4.14217 12.6827 -0.332804 0.649617 0.683523 
-1.59735 4.4776 10.9427 -0.566057 0.259316 0.782464 
0.497162 4.14217 12.6827 -0.332804 0.649617 0.683523 
-3.33136 7.88866 8.98133 -0.449812 0.775018 0.443831 
-1.80566 4.98477 -12.6689 -0.431684 0.723441 -0.538713 
1.27045 4.13016 -14.7051 -0.236885 0.210425 -0.948454 
-1.80566 4.98477 -12.6689 -0.431684 0.723441 -0.538713 
-0.394135 5.4853 -12.363 -0.553087 0.608142 -0.569384 
4.41687 2.95356 -14.2819 0.275643 0.0994901 -0.956084 
2.10745 5.95141 -14.3028 -0.024415 0.317454 -0.947935 
4.18597 5.95445 -13.9911 0.180151 0.528184 -0.829768 
15.5837 2.67052 0.229031 0.868954 0.492996 -0.0426039 
15.5625 0.480505 -1.36634 0.797662 -0.566698 -0.206244 
12.0948 1.43526 -9.56351 0.730766 0.386547 -0.562578 
-11.4442 0.866349 -6.5541 -0.538438 -0.248512 -0.805139 
1.84622 0.600474 -15.0793 0.154698 -0.26722 -0.951109 
0.206604 0.66128 -15.2238 -0.275369 -0.286264 -0.917692 
-16.6345 0.630223 8.93371 -0.867641 -0.388531 0.31016 
-15.57 0.375474 0.892006 -0.746269 -0.494247 -0.445845 
-17.7072 0.449562 4.59319 -0.898007 -0.376629 -0.227393 
-9.75079 0.263959 -6.87667 -0.305673 -0.71923 -0.623859 
-4.05215 5.87603 9.11214 -0.331217 0.392712 0.857906 
-4.77383 4.85043 9.6734 -0.118259 0.513657 0.849788 
9.66018 11.9807 -0.525974 0.347362 0.399823 0.848201 
-4.50949 13.516 -0.315102 -0.559069 0.828852 -0.0202029 
-2.8786 14.973 -0.248075 -0.738823 0.644124 0.198065 
-3.40158 14.0894 -2.72471 -0.732322 0.611652 -0.299264 
-0.20575 17.8766 -3.08735 -0.476455 0.821162 -0.314005 
5.97497 6.33562 12.0714 0.116581 0.773034 0.623493 
2.4494 7.76883 11.1805 0.026215 0.681936 0.730918 
0.206604 0.66128 -15.2238 -0.275369 -0.286264 -0.917692 
0.724792 0.301546 -15.0184 -0.051759 -0.808649 -0.585986 
1.84622 0.600474 -15.0793 0.154698 -0.26722 -0.951109 
-13.6011 1.04589 -3.49438 -0.982238 0.031831 -0.18482 
-13.5448 0.124768 -2.23006 -0.682424 -0.709067 -0.177465 
-12.8704 3.2254 -2.40245 -0.927183 0.345164 -0.14536 
5.93606 11.7445 1.1054 0.638844 0.742759 0.200385 
6.57611 11.5498 -0.547875 0.645985 0.746818 0.15775 
5.59451 11.4154 3.22251 0.825068 0.564989 -0.00231893 
4.48013 13.8622 1.82653 0.533677 0.691641 0.486587 
7.97287 10.5294 -0.0862776 0.512497 0.812006 0.279183 
6.88891 12.8492 -4.8937 0.509201 0.853603 0.109684 
6.57611 11.5498 -0.547875 0.645985 0.746818 0.15775 
9.81213 8.94197 0.0906812 0.626423 0.387005 0.676595 
9.66018 11.9807 -0.525974 0.347362 0.399823 0.848201 
2.43866 14.2815 1.13136 0.26606 0.735893 0.622608 
1.35062 14.2298 2.21668 0.351695 0.834315 0.424482 
1.16476 17.1491 0.946643 0.401624 0.703024 0.586871 
0.410095 13.5673 7.2891 -0.523515 0.685446 0.505997 
-0.79538 15.111 2.27179 -0.327372 0.716056 0.616443 
5.97497 6.33562 12.0714 0.116581 0.773034 0.623493 
-14.9106 7.60952 8.35587 -0.703238 0.558031 0.440474 
-5.49716 8.78244 -4.07588 -0.746971 0.537522 -0.391217 
2.80368 4.14828 13.2772 -0.294748 0.753594 0.587512 
2.10745 5.95141 -14.3028 -0.024415 0.317454 -0.947935 
12.7907 5.69761 -2.12796 0.455794 0.670736 -0.58507 
-17.2328 1.26754 7.58964 -0.966857 -0.012543 0.254921 
-15.623 4.16084 8.71242 -0.935362 0.350475 -0.046876 
-17.5453 1.2509 5.66434 -0.946471 0.322764 -0.00332696 
-15.623 4.16084 8.71242 -0.935362 0.350475 -0.046876 
-15.5474 3.46195 6.31453 -0.775597 0.576769 -0.256386 
12.0948 1.43526 -9.56351 0.730766 0.386547 -0.562578 
-0.08252 3.41258 13.8207 -0.623188 0.429548 0.653523 
1.3577 0.227699 14.6577 -0.3708 -0.679678 0.632862 
-13.5448 0.124768 -2.23006 -0.682424 -0.709067 -0.177465 
-14.2458 0.360261 11.4099 -0.054628 -0.640217 0.766228 
-16.6345 0.630223 8.93371 -0.867641 -0.388531 0.31016 
-15.5162 0.873299 11.085 -0.550188 -0.288858 0.783441 
-15.8229 0.370653 10.2395 -0.532975 -0.766259 0.358776 
-10.0367 0.269463 10.2277 0.241493 -0.541307 0.805353 
12.9913 0.393239 -7.76212 0.867916 -0.423322 -0.259713 
13.8873 0.576989 -4.22203 0.854122 -0.391614 -0.342143 
10.1333 0.306173 -12.3753 0.591052 -0.0466629 -0.805261 
14.4872 0.160651 2.71262 0.430372 -0.878384 0.207831 
15.6916 0.764799 1.63602 0.898923 -0.370556 0.233619 
13.8873 0.576989 -4.22203 0.854122 -0.391614 -0.342143 
12.9913 0.393239 -7.76212 0.867916 -0.423322 -0.259713 
-12.8704 3.2254 -2.40245 -0.927183 0.345164 -0.14536 
-10.4648 7.60989 -1.14989 -0.596851 0.730827 0.331065 
-17.7072 0.449562 4.59319 -0.898007 -0.376629 -0.227393 
5.76605 3.95581 13.4468 0.226569 0.36903 0.901364 
5.26312 2.65462 14.6548 0.528275 0.349803 0.773644 
6.09256 0.502835 13.9287 0.336985 -0.826563 0.450758 
9.76718 1.0648 -9.48375 0.417188 0.269173 -0.868007 
4.18597 5.95445 -13.9911 0.180151 0.528184 -0.829768 
-3.17886 4.83069 -11.3289 -0.59563 0.678182 -0.430433 
3.75885 3.68453 14.9489 0.153569 0.623066 0.7669 
1.85315 3.77301 15.0811 -0.22663 0.622211 0.74929 
2.80368 4.14828 13.2772 -0.294748 0.753594 0.587512 
6.94742 1.33736 13.6801 0.462966 0.0328989 0.885739 
7.51257 5.84933 12.9813 0.257729 0.602527 0.755303 
3.37415 4.9539 12.958 -0.131077 0.553728 0.822291 
3.75885 3.68453 14.9489 0.153569 0.623066 0.7669 
5.76605 3.95581 13.4468 0.226569 0.36903 0.901364 
2.10745 5.95141 -14.3028 -0.024415 0.317454 -0.947935 
6.74057 6.39208 -12.8318 0.362621 0.369091 -0.855708 
4.18597 5.95445 -13.9911 0.180151 0.528184 -0.829768 
-11.0336 5.54334 -4.82839 -0.382916 0.417707 -0.823908 
-10.1139 4.66915 -6.93964 -0.436659 0.492447 -0.752831 
-7.94348 2.78882 9.77032 0.160344 -0.248695 0.955199 
-4.77383 4.85043 9.6734 -0.118259 0.513657 0.849788 
-11.5944 5.18132 12.0783 0.057619 0.366222 0.928709 
-7.94348 2.78882 9.77032 0.160344 -0.248695 0.955199 
1.02704 7.77314 12.1342 0.002319 0.667592 0.744469 
-0.180786 7.68445 11.985 -0.393994 0.578784 0.71395 
12.9961 4.10955 0.247452 0.840663 0.532701 -0.0972929 
14.4735 5.72951 2.43925 0.776177 0.620197 0.113315 
11.6962 5.93243 7.94644 0.840846 0.430219 0.32841 
13.8155 5.55243 1.04504 0.678304 0.479202 -0.556963 
11.3854 6.27546 0.905912 0.444105 0.877041 0.183081 
10.8617 5.458 -4.66833 0.857295 0.430219 -0.282693 
10.1241 6.31658 1.9955 0.646626 0.740898 0.181371 
9.21237 10.4286 4.3849 0.590045 0.736503 0.330668 
9.31643 7.94487 4.72955 0.942595 0.33079 0.045289 
9.63482 10.4601 2.17713 0.806482 0.572069 -0.149297 
11.617 6.2847 -1.09436 0.703146 0.71099 0.00613409 
11.3854 6.27546 0.905912 0.444105 0.877041 0.183081 
7.97287 10.5294 -0.0862776 0.512497 0.812006 0.279183 
6.57611 11.5498 -0.547875 0.645985 0.746818 0.15775 
11.2831 7.61515 -2.62601 0.945708 0.323313 0.032441 
10.9142 9.83566 -6.69236 0.985748 0.093387 -0.139866 
7.67013 11.3222 -11.223 0.308023 0.333659 -0.890927 
8.99847 10.8286 -11.2339 0.515183 0.331065 -0.790521 
-9.80127 9.09647 2.45461 -0.442335 0.895383 -0.0509659 
-6.24652 12.849 1.17352 -0.55974 0.823115 0.0957061 
-6.29104 12.1139 2.09102 -0.573168 0.690023 0.441939 
-6.24652 12.849 1.17352 -0.55974 0.823115 0.0957061 
-9.80127 9.09647 2.45461 -0.442335 0.895383 -0.0509659 
5.6521 13.2798 3.32538 0.829249 0.550249 -0.0977199 
3.53348 13.6236 5.61167 0.357463 0.894803 0.267373 
6.29544 10.1351 5.96462 0.684103 0.673055 0.280953 
4.35589 14.2755 -8.84693 0.503677 0.800745 -0.324168 
3.53183 14.7546 -11.066 0.411176 0.716056 -0.564043 
4.44943 12.4745 -11.6537 0.354808 0.602344 -0.715018 
3.10455 13.5484 -11.7844 0.062624 0.475143 -0.877651 
2.45538 13.9281 -11.1015 -0.244697 0.715995 -0.653768 
1.51312 13.621 -11.4023 -0.386975 0.598865 -0.701102 
1.27701 15.0821 -9.47145 -0.5215 0.684744 -0.509049 
3.10455 13.5484 -11.7844 0.062624 0.475143 -0.877651 
-0.79538 15.111 2.27179 -0.327372 0.716056 0.616443 
0.410095 13.5673 7.2891 -0.523515 0.685446 0.505997 
0.410095 13.5673 7.2891 -0.523515 0.685446 0.505997 
-2.46439 13.9832 1.34489 -0.553148 0.73159 0.39845 
-3.07352 12.9525 3.5095 -0.489792 0.645772 0.585681 
4.35412 15.3384 -1.05966 0.191412 0.972839 -0.129978 
5.00458 14.0904 -5.14507 0.48381 0.860439 -0.159764 
4.35589 14.2755 -8.84693 0.503677 0.800745 -0.324168 
2.43866 14.2815 1.13136 0.26606 0.735893 0.622608 
5.07538 15.3248 1.20435 0.437544 0.680837 0.587329 
2.91693 15.617 -0.02942 0.448195 0.81341 0.370708 
1.55624 16.6985 -6.32078 -0.202704 0.905637 -0.372356 
1.27701 15.0821 -9.47145 -0.5215 0.684744 -0.509049 
2.91693 15.617 -0.02942 0.448195 0.81341 0.370708 
2.45538 13.9281 -11.1015 -0.244697 0.715995 -0.653768 
3.53183 14.7546 -11.066 0.411176 0.716056 -0.564043 
3.10455 13.5484 -11.7844 0.062624 0.475143 -0.877651 
1.27701 15.0821 -9.47145 -0.5215 0.684744 -0.509049 
-0.606689 16.7827 1.42102 -0.294015 0.591266 0.750938 
-1.36014 17.3079 0.0328603 -0.637104 0.734947 0.232185 
-0.606689 16.7827 1.42102 -0.294015 0.591266 0.750938 
-0.79538 15.111 2.27179 -0.327372 0.716056 0.616443 
1.35062 14.2298 2.21668 0.351695 0.834315 0.424482 
-1.8584 15.3077 -2.90409 -0.724631 0.627003 -0.285897 
6.88891 12.8492 -4.8937 0.509201 0.853603 0.109684 
-8.38382 8.86899 -0.504208 -0.655354 0.526109 -0.541887 
-8.35681 8.33505 -1.38657 -0.304849 0.918943 -0.25013 
-5.85974 6.52374 8.28111 0.007111 0.7846 0.619953 
-7.20624 5.59602 9.43255 0.245125 0.685476 0.685568 
-5.85974 6.52374 8.28111 0.007111 0.7846 0.619953 
-11.2044 7.54882 10.0919 0.044008 0.618275 0.784692 
10.7743 4.76102 -8.3894 0.717002 0.637135 -0.282662 
-9.71075 7.8543 -3.6846 0.011505 0.816309 -0.577471 
-11.9221 7.58447 -3.58297 -0.732963 0.66924 -0.121799 
-12.9498 4.85294 11.8736 -0.08536 -0.0158091 0.996216 
-7.94348 2.78882 9.77032 0.160344 -0.248695 0.955199 
-14.0303 3.35943 11.6236 -0.161596 -0.0573751 0.985168 
-6.27518 0.156299 9.08486 0.006531 -0.751823 0.659322 
-4.03677 0.147937 9.92243 -0.449263 -0.534532 0.715812 
-6.21246 10.6573 4.28448 -0.013977 0.723746 0.689871 
5.41888 14.3793 0.979256 0.635487 -0.0382701 0.771142 
5.64145 15.0345 -0.957237 0.696371 0.717673 0.000641094 
5.07538 15.3248 1.20435 0.437544 0.680837 0.587329 
4.35589 14.2755 -8.84693 0.503677 0.800745 -0.324168 
1.52994 17.9512 -2.52396 0.479812 0.877224 -0.0145569 
1.10413 13.746 7.51328 -0.029572 0.914609 0.40318 
0.410095 13.5673 7.2891 -0.523515 0.685446 0.505997 
-5.05044 12.6653 3.21277 -0.304239 0.732444 0.609058 
4.48013 13.8622 1.82653 0.533677 0.691641 0.486587 
10.2973 12.7577 -1.58747 0.679373 0.672903 0.292581 
-3.11642 10.1545 4.08986 -0.260262 0.30314 0.916684 
-3.07669 7.87048 4.75795 -0.228492 0.683523 0.693228 
-3.11642 10.1545 4.08986 -0.260262 0.30314 0.916684 
-10.65 8.5528 7.40148 0.09476 0.78402 0.613392 
9.88952 8.91647 -10.1038 0.927641 -0.029633 -0.372234 
-14.096 5.15771 11.4909 -0.379772 0.648946 0.65923 
-14.9851 5.58123 8.67934 -0.77871 0.470901 0.414502 
-15.4597 5.09423 9.76818 -0.782189 0.578722 0.230628 
-12.0578 5.31024 10.2435 -0.135563 0.80752 0.573992 
12.7907 5.69761 -2.12796 0.455794 0.670736 -0.58507 
-11.6019 7.36318 -4.46401 -0.385144 0.545762 -0.744133 
-8.81814 5.88477 -4.28424 -0.083346 0.686789 -0.722037 
-11.0336 5.54334 -4.82839 -0.382916 0.417707 -0.823908 
-9.71075 7.8543 -3.6846 0.011505 0.816309 -0.577471 
12.9961 4.10955 0.247452 0.840663 0.532701 -0.0972929 
14.1101 3.66603 -0.313664 0.655019 0.740806 0.148625 
12.5591 5.82883 4.3513 0.546129 0.787713 0.284982 
-0.08252 3.41258 13.8207 -0.623188 0.429548 0.653523 
4.94208 0.668232 15.4908 0.355296 -0.420942 0.834559 
15.6916 0.764799 1.63602 0.898923 -0.370556 0.233619 
-14.2458 0.360261 11.4099 -0.054628 -0.640217 0.766228 
3.53183 14.7546 -11.066 0.411176 0.716056 -0.564043 
-11.5944 5.18132 12.0783 0.057619 0.366222 0.928709 
-14.9851 5.58123 8.67934 -0.77871 0.470901 0.414502 
1.52994 17.9512 -2.52396 0.479812 0.877224 -0.0145569 
3.75885 3.68453 14.9489 0.153569 0.623066 0.7669 
8.81686 0.581103 -12.898 0.573779 0.335704 -0.747032 
4.94208 0.668232 15.4908 0.355296 -0.420942 0.834559 
1.3577 0.227699 14.6577 -0.3708 -0.679678 0.632862 
-11.5425 7.82834 -2.83237 -0.58327 0.78811 0.196509 
-12.8704 3.2254 -2.40245 -0.927183 0.345164 -0.14536 
-10.4648 7.60989 -1.14989 -0.596851 0.730827 0.331065 
-11.9221 7.58447 -3.58297 -0.732963 0.66924 -0.121799 
-11.6019 7.36318 -4.46401 -0.385144 0.545762 -0.744133 
4.48013 13.8622 1.82653 0.533677 0.691641 0.486587 
7.97287 10.5294 -0.0862776 0.512497 0.812006 0.279183 
10.1241 6.31658 1.9955 0.646626 0.740898 0.181371 
9.37146 7.38749 7.712 0.612812 0.723014 0.318857 
9.21237 10.4286 4.3849 0.590045 0.736503 0.330668 
7.68225 7.12765 10.2258 0.458541 0.754265 0.469863 
12.5299 5.87068 0.0755708 0.574633 0.814386 -0.0808129 
12.0367 4.92668 -2.75985 0.74984 0.49147 -0.442885 
11.6096 0.255137 -11.4441 0.542528 -0.204443 -0.814753 
-11.4442 0.866349 -6.5541 -0.538438 -0.248512 -0.805139 
7.72629 0.365448 -13.4247 0.32844 -0.40376 -0.853847 
12.0367 4.92668 -2.75985 0.74984 0.49147 -0.442885 
11.617 6.2847 -1.09436 0.703146 0.71099 0.00613409 
12.7907 5.69761 -2.12796 0.455794 0.670736 -0.58507 
5.32645 9.91671 10.6637 0.495529 0.583483 0.643391 
5.41888 14.3793 0.979256 0.635487 -0.0382701 0.771142 
5.07538 15.3248 1.20435 0.437544 0.680837 0.587329 
5.49914 12.7635 0.560259 0.898007 0.303598 0.318369 
11.6121 3.47389 7.24832 0.84872 0.183569 0.495956 
15.6916 0.764799 1.63602 0.898923 -0.370556 0.233619 
15.5837 2.67052 0.229031 0.868954 0.492996 -0.0426039 
10.4694 2.64045 -10.7952 0.613361 -0.114902 -0.781365 
-15.623 4.16084 8.71242 -0.935362 0.350475 -0.046876 
4.44943 12.4745 -11.6537 0.354808 0.602344 -0.715018 
4.35589 14.2755 -8.84693 0.503677 0.800745 -0.324168 
6.87485 12.9325 -8.09774 0.247688 0.956969 -0.151097 
-2.8786 14.973 -0.248075 -0.738823 0.644124 0.198065 
-1.36014 17.3079 0.0328603 -0.637104 0.734947 0.232185 
2.87149 16.3202 -8.31663 0.441786 0.861141 -0.251473 
3.53183 14.7546 -11.066 0.411176 0.716056 -0.564043 
5.64145 15.0345 -0.957237 0.696371 0.717673 0.000641094 
6.88891 12.8492 -4.8937 0.509201 0.853603 0.109684 
6.87485 12.9325 -8.09774 0.247688 0.956969 -0.151097 
-9.71075 7.8543 -3.6846 0.011505 0.816309 -0.577471 
13.4504 0.334616 7.20855 0.821802 -0.501755 0.269875 
3 0 1 2 
3 3 4 5 
3 6 7 8 
3 9 10 11 
3 12 13 14 
3 14 13 15 
3 16 17 18 
3 19 20 21 
3 22 23 24 
3 25 26 27 
3 28 29 30 
3 6 31 7 
3 32 33 34 
3 22 24 35 
3 36 37 38 
3 39 40 41 
3 42 43 44 
3 45 46 47 
3 48 49 50 
3 51 52 53 
3 54 55 56 
3 57 58 59 
3 60 61 62 
3 63 64 65 
3 45 66 67 
3 68 69 70 
3 71 72 73 
3 74 75 76 
3 77 78 79 
3 80 81 82 
3 83 76 84 
3 14 15 85 
3 86 87 88 
3 89 90 91 
3 57 92 93 
3 94 0 95 
3 96 97 34 
3 98 99 100 
3 101 102 103 
3 104 105 106 
3 104 107 105 
3 108 109 110 
3 111 112 113 
3 76 75 114 
3 115 116 117 
3 118 119 120 
3 4 121 5 
3 3 5 122 
3 56 5 121 
3 123 124 125 
3 67 66 126 
3 127 101 128 
3 129 130 131 
3 132 133 134 
3 135 136 137 
3 138 55 139 
3 56 55 138 
3 68 70 140 
3 141 142 143 
3 144 145 146 
3 147 148 149 
3 147 150 148 
3 151 152 153 
3 143 142 154 
3 155 156 157 
3 158 159 160 
3 161 162 163 
3 141 164 165 
3 166 167 168 
3 169 166 168 
3 73 170 171 
3 15 172 173 
3 174 175 176 
3 177 178 179 
3 43 42 180 
3 181 182 183 
3 184 185 186 
3 187 185 188 
3 189 190 191 
3 189 186 190 
3 192 193 194 
3 195 196 197 
3 198 199 200 
3 201 202 203 
3 204 205 206 
3 207 208 209 
3 60 208 207 
3 210 211 196 
3 212 213 200 
3 214 215 216 
3 57 59 94 
3 129 217 218 
3 219 220 221 
3 222 92 223 
3 224 225 222 
3 41 226 227 
3 223 92 228 
3 229 41 230 
3 215 33 216 
3 231 232 233 
3 47 234 235 
3 47 236 234 
3 237 238 239 
3 240 241 242 
3 141 143 243 
3 244 245 246 
3 52 51 247 
3 24 225 248 
3 249 250 146 
3 251 252 253 
3 254 255 256 
3 257 58 258 
3 259 251 253 
3 260 261 262 
3 263 264 265 
3 266 17 37 
3 267 268 269 
3 187 119 171 
3 270 119 187 
3 271 42 272 
3 73 141 273 
3 274 275 276 
3 71 273 277 
3 278 279 163 
3 280 281 282 
3 283 284 285 
3 286 287 288 
3 131 217 129 
3 289 59 257 
3 289 290 59 
3 291 206 292 
3 293 206 291 
3 204 206 293 
3 294 295 296 
3 297 298 299 
3 230 300 229 
3 121 4 164 
3 301 302 172 
3 302 301 303 
3 304 303 305 
3 306 304 305 
3 279 278 307 
3 308 291 292 
3 309 310 311 
3 184 312 188 
3 295 313 314 
3 236 315 234 
3 47 66 45 
3 316 317 318 
3 142 319 276 
3 320 321 9 
3 3 319 4 
3 167 322 323 
3 167 324 322 
3 56 138 5 
3 273 141 243 
3 325 326 327 
3 10 328 329 
3 322 237 323 
3 330 331 332 
3 333 334 335 
3 336 337 338 
3 123 339 340 
3 123 341 339 
3 124 123 340 
3 235 234 117 
3 128 342 127 
3 343 344 139 
3 343 345 344 
3 346 46 45 
3 171 119 118 
3 347 348 349 
3 269 350 351 
3 269 268 350 
3 352 353 354 
3 209 355 356 
3 357 285 191 
3 358 359 360 
3 285 357 283 
3 361 362 363 
3 37 17 16 
3 36 364 365 
3 265 264 366 
3 367 202 201 
3 368 369 284 
3 33 32 370 
3 371 221 372 
3 221 92 219 
3 371 92 221 
3 256 255 373 
3 374 209 356 
3 375 209 374 
3 328 376 329 
3 377 378 379 
3 144 250 380 
3 146 250 144 
3 381 382 231 
3 176 37 16 
3 248 224 383 
3 248 225 224 
3 368 384 369 
3 24 248 385 
3 386 387 388 
3 389 125 390 
3 123 389 341 
3 391 140 392 
3 393 394 395 
3 247 51 396 
3 246 245 397 
3 148 398 399 
3 146 400 249 
3 401 8 402 
3 142 165 319 
3 239 238 403 
3 47 404 236 
3 235 66 47 
3 405 75 74 
3 382 232 231 
3 233 116 115 
3 233 232 116 
3 406 252 88 
3 300 407 229 
3 297 299 408 
3 191 256 189 
3 409 81 410 
3 411 412 413 
3 230 41 227 
3 63 65 414 
3 415 62 416 
3 62 415 60 
3 253 415 416 
3 371 417 92 
3 219 92 129 
3 219 218 418 
3 218 219 129 
3 228 92 417 
3 222 225 24 
3 221 419 372 
3 221 220 419 
3 220 219 418 
3 420 220 418 
3 421 33 370 
3 216 33 421 
3 218 422 418 
3 218 217 422 
3 1 94 59 
3 0 94 1 
3 423 23 22 
3 23 424 58 
3 423 424 23 
3 425 41 40 
3 426 427 261 
3 428 37 36 
3 37 429 266 
3 428 429 37 
3 373 367 201 
3 202 367 200 
3 200 367 212 
3 200 213 430 
3 369 285 284 
3 285 369 191 
3 256 191 254 
3 431 430 195 
3 196 211 432 
3 204 433 434 
3 205 204 435 
3 206 260 292 
3 206 205 260 
3 176 408 38 
3 13 12 39 
3 12 436 39 
3 41 229 437 
3 112 438 113 
3 112 359 438 
3 203 202 200 
3 199 203 200 
3 198 200 430 
3 197 196 411 
3 439 353 440 
3 439 441 353 
3 442 443 192 
3 444 445 446 
3 443 193 192 
3 447 448 449 
3 191 190 357 
3 171 185 187 
3 185 184 188 
3 450 347 349 
3 450 349 451 
3 375 452 209 
3 453 454 455 
3 87 456 355 
3 355 457 356 
3 355 456 457 
3 88 87 355 
3 458 183 182 
3 181 183 459 
3 291 262 460 
3 291 308 262 
3 412 343 413 
3 345 343 412 
3 461 108 106 
3 106 108 462 
3 15 173 463 
3 173 172 302 
3 331 272 332 
3 272 331 271 
3 464 465 466 
3 467 465 464 
3 468 246 469 
3 171 118 141 
3 27 26 470 
3 27 470 471 
3 73 171 141 
3 244 472 473 
3 474 286 475 
3 118 164 141 
3 138 476 477 
3 478 479 480 
3 167 166 324 
3 168 167 323 
3 481 482 483 
3 165 142 141 
3 4 319 165 
3 484 162 161 
3 485 159 486 
3 160 159 485 
3 11 320 9 
3 286 474 303 
3 487 243 143 
3 154 142 276 
3 149 399 8 
3 149 8 7 
3 488 489 490 
3 154 487 143 
3 488 491 489 
3 492 242 241 
3 493 492 241 
3 153 494 495 
3 496 494 153 
3 149 148 399 
3 497 498 499 
3 278 484 307 
3 163 162 278 
3 500 501 502 
3 380 503 504 
3 503 250 249 
3 380 250 503 
3 146 145 400 
3 30 29 505 
3 506 507 508 
3 506 509 507 
3 492 510 242 
3 242 510 511 
3 512 513 514 
3 378 515 379 
3 10 516 328 
3 9 516 10 
3 48 50 482 
3 50 483 482 
3 140 70 392 
3 120 164 118 
3 404 47 46 
3 301 172 407 
3 174 463 288 
3 463 174 176 
3 246 468 472 
3 74 76 517 
3 56 518 54 
3 413 55 54 
3 343 55 413 
3 519 375 374 
3 519 374 356 
3 520 521 522 
3 14 18 12 
3 18 523 16 
3 14 523 18 
3 114 524 525 
3 76 114 84 
3 526 90 527 
3 526 528 90 
3 411 196 432 
3 184 186 189 
3 312 184 189 
3 209 529 207 
3 452 529 209 
3 436 40 39 
3 530 61 60 
3 312 189 256 
3 430 210 196 
3 197 54 195 
3 413 54 197 
3 128 101 103 
3 531 169 478 
3 126 66 235 
3 532 69 533 
3 532 70 69 
3 534 532 533 
3 3 122 319 
3 535 536 505 
3 537 323 239 
3 537 538 323 
3 539 153 152 
3 169 479 478 
3 153 539 496 
3 281 540 282 
3 288 287 541 
3 542 126 235 
3 543 544 545 
3 169 531 166 
3 239 323 237 
3 168 323 538 
3 117 315 115 
3 302 475 173 
3 463 546 288 
3 173 546 463 
3 114 75 524 
3 547 548 549 
3 550 548 547 
3 185 171 170 
3 110 109 551 
3 108 110 462 
3 552 553 554 
3 555 553 552 
3 112 360 359 
3 556 295 294 
3 178 557 179 
3 558 99 98 
3 99 262 261 
3 100 99 261 
3 353 559 440 
3 353 352 559 
3 41 13 39 
3 437 13 41 
3 36 299 364 
3 36 38 299 
3 204 560 435 
3 207 530 60 
3 207 529 530 
3 82 409 410 
3 364 561 365 
3 312 201 188 
3 94 130 129 
3 94 95 130 
3 92 94 129 
3 94 92 57 
3 93 92 222 
3 210 213 212 
3 90 89 527 
3 91 528 562 
3 91 90 528 
3 85 15 463 
3 470 26 25 
3 475 546 173 
3 546 286 288 
3 475 286 546 
3 306 563 304 
3 86 456 87 
3 71 277 283 
3 100 261 427 
3 30 505 536 
3 82 81 409 
3 44 272 42 
3 460 262 99 
3 558 460 99 
3 547 132 550 
3 547 564 132 
3 565 19 21 
3 73 72 170 
3 138 477 5 
3 156 566 157 
3 434 433 567 
3 65 64 568 
3 569 95 0 
3 570 130 95 
3 62 61 416 
3 59 58 257 
3 373 312 256 
3 34 215 96 
3 571 572 573 
3 574 572 571 
3 524 575 525 
3 564 133 132 
3 343 139 55 
3 576 501 500 
3 402 8 399 
3 4 165 164 
3 469 577 578 
3 469 246 577 
3 579 580 581 
3 183 458 582 
3 106 462 104 
3 72 71 283 
3 267 583 268 
3 406 88 355 
3 197 411 413 
3 430 196 195 
3 369 254 191 
3 434 567 560 
3 429 584 266 
3 312 373 201 
3 424 258 58 
3 228 585 223 
3 35 24 586 
3 415 208 60 
3 259 253 416 
3 434 560 204 
3 34 33 215 
3 38 408 299 
3 587 588 589 
3 7 31 147 
3 590 239 403 
3 149 7 147 
3 70 534 392 
3 591 592 593 
3 244 473 245 
3 125 389 123 
3 120 121 164 
3 38 37 176 
3 594 309 311 
3 234 315 117 
3 24 58 57 
3 24 23 58 
3 258 595 257 
3 427 596 100 
3 36 365 428 
3 18 597 12 
3 597 17 266 
3 18 17 597 
3 172 13 437 
3 15 13 172 
3 342 598 127 
3 302 303 474 
3 599 600 601 
3 602 275 274 
3 602 603 275 
3 274 276 319 
3 504 604 605 
3 604 503 249 
3 504 503 604 
3 606 607 608 
3 270 609 119 
3 556 313 295 
3 610 261 260 
3 610 426 261 
3 73 273 71 
3 244 246 472 
3 305 303 301 
3 93 24 57 
3 93 222 24 
3 290 1 59 
3 2 1 290 
