ply
format ascii 1.0
comment VCGLIB generated
element vertex 677
property float x
property float y
property float z
property float nx
property float ny
property float nz
element face 652
property list uchar int vertex_indices
end_header
-1.21015 0.711607 2.95462 -0.423963 0.116306 0.89816 
-1.39361 0.269714 2.4997 -0.705924 -0.00692809 0.708213 
-0.567932 0.271027 2.86656 0.136357 0.0996429 0.985626 
-1.39361 0.269714 2.4997 -0.705924 -0.00692809 0.708213 
-1.00876 0.0249146 3.0293 -0.291177 -0.304575 0.906857 
-0.567932 0.271027 2.86656 0.136357 0.0996429 0.985626 
-1.00876 0.0249146 3.0293 -0.291177 -0.304575 0.906857 
0.113151 0.0956896 2.67294 0.387646 -0.628407 0.674367 
-0.567932 0.271027 2.86656 0.136357 0.0996429 0.985626 
1.8932 0.706379 1.88112 0.720481 -0.321146 0.614612 
1.30512 0.271027 2.89958 0.382397 -0.209754 0.899838 
1.96585 0.0236018 1.73029 0.517594 -0.747246 0.41673 
-1.39361 0.269714 2.4997 -0.705924 -0.00692809 0.708213 
-1.93159 0.503414 2.02297 -0.801752 0.121738 0.585101 
-1.87486 0.0236007 2.02229 -0.579943 -0.70867 0.401746 
-1.79199 0.668245 2.11038 -0.774041 0.334758 0.53737 
-1.21015 0.711607 2.95462 -0.423963 0.116306 0.89816 
-1.21015 0.711607 2.95462 -0.423963 0.116306 0.89816 
0.165211 0.690036 2.68209 0.507645 0.0874659 0.857082 
0.369511 0.256441 2.5647 -0.056276 -0.275063 0.959746 
0.35641 0.597899 2.49854 0.233436 0.231117 0.944487 
0.369511 0.256441 2.5647 -0.056276 -0.275063 0.959746 
1.04449 0.108975 2.91503 -0.076388 -0.478347 0.874813 
0.35641 0.597899 2.49854 0.233436 0.231117 0.944487 
1.04449 0.108975 2.91503 -0.076388 -0.478347 0.874813 
0.55208 0.721991 2.48546 -0.241005 0.309244 0.919919 
1.30512 0.271027 2.89958 0.382397 -0.209754 0.899838 
1.39764 0.706647 2.86727 0.358623 0.129307 0.924467 
0.55208 0.721991 2.48546 -0.241005 0.309244 0.919919 
1.30512 0.271027 2.89958 0.382397 -0.209754 0.899838 
1.4989 0.0249147 2.31242 0.319224 -0.904782 0.281747 
1.30512 0.271027 2.89958 0.382397 -0.209754 0.899838 
1.04449 0.108975 2.91503 -0.076388 -0.478347 0.874813 
1.39764 0.706647 2.86727 0.358623 0.129307 0.924467 
2.10403 0.690686 1.68109 0.798853 0.0789509 0.596301 
-1.2656 1.075 2.47533 -0.566179 0.544298 0.618976 
-0.329743 1.10997 2.75465 0.066256 -0.0180361 0.99762 
0.102048 1.08805 2.62135 0.500778 0.258156 0.826136 
0.311189 1.19775 2.31592 0.320444 -0.127873 0.938566 
0.570266 1.11026 2.38226 -0.29429 0.0147709 0.955596 
-1.21015 0.711607 2.95462 -0.423963 0.116306 0.89816 
-0.329743 1.10997 2.75465 0.066256 -0.0180361 0.99762 
-1.2656 1.075 2.47533 -0.566179 0.544298 0.618976 
0.570266 1.11026 2.38226 -0.29429 0.0147709 0.955596 
1.42672 1.10628 2.72107 0.445418 0.0208139 0.895047 
1.42672 1.10628 2.72107 0.445418 0.0208139 0.895047 
-0.329743 1.10997 2.75465 0.066256 -0.0180361 0.99762 
-1.10144 1.48834 2.35226 -0.500839 0.321543 0.803552 
-1.56781 1.09517 2.00932 -0.707358 0.105533 0.698904 
-1.10144 1.48834 2.35226 -0.500839 0.321543 0.803552 
-1.42396 1.40889 2.27036 -0.325999 -0.131657 0.936125 
-1.56781 1.09517 2.00932 -0.707358 0.105533 0.698904 
-1.75606 1.54511 2.06274 -0.503952 0.210181 0.837733 
-1.42396 1.40889 2.27036 -0.325999 -0.131657 0.936125 
-0.462394 1.47562 2.8863 -0.324534 -0.151067 0.933714 
0.103114 1.52464 2.79324 0.532945 -0.22956 0.814386 
-0.462394 1.47562 2.8863 -0.324534 -0.151067 0.933714 
0.322816 1.38255 2.40753 0.304056 -0.300058 0.904141 
0.570266 1.11026 2.38226 -0.29429 0.0147709 0.955596 
0.322816 1.38255 2.40753 0.304056 -0.300058 0.904141 
0.311189 1.19775 2.31592 0.320444 -0.127873 0.938566 
0.545269 1.49205 2.49121 -0.288369 -0.0911281 0.953154 
0.570266 1.11026 2.38226 -0.29429 0.0147709 0.955596 
0.545269 1.49205 2.49121 -0.288369 -0.0911281 0.953154 
0.322816 1.38255 2.40753 0.304056 -0.300058 0.904141 
0.835311 1.72173 2.54854 -0.21659 0.237922 0.946806 
1.41783 1.47548 2.84974 0.331065 0.117649 0.936216 
0.243623 1.73966 2.631 0.733299 -0.0469991 0.678243 
1.41783 1.47548 2.84974 0.331065 0.117649 0.936216 
1.40183 2.24876 2.17307 0.518143 -0.328074 0.789819 
0.835311 1.72173 2.54854 -0.21659 0.237922 0.946806 
1.88723 1.50963 1.90238 0.767876 -0.0972011 0.633137 
1.40183 2.24876 2.17307 0.518143 -0.328074 0.789819 
1.41783 1.47548 2.84974 0.331065 0.117649 0.936216 
-1.2553 1.70434 2.10984 -0.394971 0.457198 0.796838 
-1.87791 2.011 1.63736 -0.700278 0.383038 0.602344 
-1.75606 1.54511 2.06274 -0.503952 0.210181 0.837733 
-1.94271 1.48298 1.92761 -0.725822 -0.0397661 0.686697 
-1.87791 2.011 1.63736 -0.700278 0.383038 0.602344 
-1.10144 1.48834 2.35226 -0.500839 0.321543 0.803552 
-1.09149 2.01266 2.13161 -0.464888 -0.277871 0.840602 
-1.2553 1.70434 2.10984 -0.394971 0.457198 0.796838 
-0.689848 1.90753 2.28009 -0.78927 -0.0381791 0.612842 
-0.689848 1.90753 2.28009 -0.78927 -0.0381791 0.612842 
-1.2553 1.70434 2.10984 -0.394971 0.457198 0.796838 
-0.462394 1.47562 2.8863 -0.324534 -0.151067 0.933714 
1.93146 2.13995 1.86548 0.653676 0.0435499 0.755486 
-1.60258 2.23509 1.88584 -0.425001 -0.668905 0.609821 
-1.09373 2.5984 2.36585 -0.481826 -0.0878631 0.871822 
-0.152864 2.64818 2.79624 0.073733 0.0546279 0.995758 
-0.152864 2.64818 2.79624 0.073733 0.0546279 0.995758 
-1.04042 3.38803 2.36818 -0.470626 -0.274148 0.838618 
2.08695 1.54928 1.71419 0.646321 -0.102115 0.756157 
-1.76413 2.51773 2.12219 -0.498337 -0.125431 0.857814 
-1.9162 2.33114 1.97131 -0.681997 -0.500961 0.532792 
-1.42 2.32013 2.20994 -0.386853 -0.463485 0.797174 
-1.9162 2.33114 1.97131 -0.681997 -0.500961 0.532792 
-1.60258 2.23509 1.88584 -0.425001 -0.668905 0.609821 
-1.42 2.32013 2.20994 -0.386853 -0.463485 0.797174 
-1.09149 2.01266 2.13161 -0.464888 -0.277871 0.840602 
-1.09373 2.5984 2.36585 -0.481826 -0.0878631 0.871822 
-1.42 2.32013 2.20994 -0.386853 -0.463485 0.797174 
-0.689848 1.90753 2.28009 -0.78927 -0.0381791 0.612842 
-0.689848 1.90753 2.28009 -0.78927 -0.0381791 0.612842 
0.421715 2.07263 2.48982 0.514634 0.0825529 0.853389 
0.418714 2.78079 2.39795 0.682607 0.0943019 0.724662 
0.235764 2.37568 2.69111 0.578692 0.00732389 0.815485 
0.322816 1.38255 2.40753 0.304056 -0.300058 0.904141 
0.545269 1.49205 2.49121 -0.288369 -0.0911281 0.953154 
0.421715 2.07263 2.48982 0.514634 0.0825529 0.853389 
0.50307 2.7313 2.3376 0.079928 -0.0358591 0.996155 
0.545269 1.49205 2.49121 -0.288369 -0.0911281 0.953154 
0.634784 2.36545 2.38672 -0.301187 0.0588089 0.95172 
0.634784 2.36545 2.38672 -0.301187 0.0588089 0.95172 
1.12545 2.5418 2.68395 0.177892 -0.112461 0.977569 
1.40183 2.24876 2.17307 0.518143 -0.328074 0.789819 
1.12545 2.5418 2.68395 0.177892 -0.112461 0.977569 
0.835311 1.72173 2.54854 -0.21659 0.237922 0.946806 
2.11713 2.17961 1.67629 0.671651 0.135319 0.728355 
1.40183 2.24876 2.17307 0.518143 -0.328074 0.789819 
1.93146 2.13995 1.86548 0.653676 0.0435499 0.755486 
1.12545 2.5418 2.68395 0.177892 -0.112461 0.977569 
1.63461 2.79007 2.01625 0.724998 0.0199289 0.688437 
1.12545 2.5418 2.68395 0.177892 -0.112461 0.977569 
0.315197 3.20943 2.4352 0.22132 -0.261849 0.93936 
0.50307 2.7313 2.3376 0.079928 -0.0358591 0.996155 
0.315197 3.20943 2.4352 0.22132 -0.261849 0.93936 
1.22988 2.91781 2.67141 0.423994 -0.00839312 0.905606 
1.22988 2.91781 2.67141 0.423994 -0.00839312 0.905606 
-1.91463 3.38809 2.00824 -0.81109 0.0942409 0.577258 
-1.72458 3.64704 2.11005 -0.664663 0.433729 0.608325 
-1.44405 3.60257 2.25587 -0.402203 0.264077 0.876614 
0.972278 3.294 2.754 0.176336 -0.106571 0.978515 
0.08373 3.63394 2.76621 0.293558 0.294656 0.90936 
0.972278 3.294 2.754 0.176336 -0.106571 0.978515 
1.57824 3.17178 2.0959 0.711783 0.0534989 0.700339 
2.00761 2.51249 1.69358 0.72982 0.0965299 0.676778 
2.0483 3.29439 1.77252 0.679739 0.101566 0.726371 
0.918352 3.68731 2.75214 0.139897 0.429548 0.892117 
1.84927 3.49106 1.81023 0.61214 0.372234 0.697623 
2.08889 3.48014 1.63732 0.526658 0.463301 0.712699 
2.52676 3.59399 1.20311 0.792535 0.113254 0.59917 
-0.522233 3.52235 2.88969 -0.298959 0.20481 0.932005 
-0.522233 3.52235 2.88969 -0.298959 0.20481 0.932005 
0.397401 3.49048 2.61018 0.025727 -0.243019 0.969665 
0.324754 3.65704 2.67481 0.408399 0.35728 0.83993 
0.397401 3.49048 2.61018 0.025727 -0.243019 0.969665 
0.397401 3.49048 2.61018 0.025727 -0.243019 0.969665 
-0.522233 3.52235 2.88969 -0.298959 0.20481 0.932005 
-1.32498 3.78563 2.16038 -0.256905 0.806055 0.533128 
-1.44405 3.60257 2.25587 -0.402203 0.264077 0.876614 
-1.72458 3.64704 2.11005 -0.664663 0.433729 0.608325 
-1.61679 3.81354 2.0302 -0.319651 0.775628 0.544206 
-1.61679 3.81354 2.0302 -0.319651 0.775628 0.544206 
-1.89132 3.73701 1.90897 -0.714499 0.524644 0.462783 
0.08373 3.63394 2.76621 0.293558 0.294656 0.90936 
-0.228513 3.90503 2.55486 -0.055147 0.836573 0.545 
0.324754 3.65704 2.67481 0.408399 0.35728 0.83993 
0.918352 3.68731 2.75214 0.139897 0.429548 0.892117 
0.526906 3.6933 2.52097 -0.0206 0.44731 0.894101 
0.397401 3.49048 2.61018 0.025727 -0.243019 0.969665 
0.526906 3.6933 2.52097 -0.0206 0.44731 0.894101 
0.526906 3.6933 2.52097 -0.0206 0.44731 0.894101 
-0.228513 3.90503 2.55486 -0.055147 0.836573 0.545 
0.526906 3.6933 2.52097 -0.0206 0.44731 0.894101 
1.07631 3.93275 2.44548 0.336711 0.783807 0.521744 
1.07631 3.93275 2.44548 0.336711 0.783807 0.521744 
1.07631 3.93275 2.44548 0.336711 0.783807 0.521744 
0.526906 3.6933 2.52097 -0.0206 0.44731 0.894101 
0.918352 3.68731 2.75214 0.139897 0.429548 0.892117 
2.00196 3.89504 1.3234 0.242653 0.88525 0.396771 
-1.08263 3.98407 1.64033 -0.06595 0.991211 0.114536 
-1.58949 3.92292 1.75083 -0.238227 0.937712 0.252815 
-1.89132 3.73701 1.90897 -0.714499 0.524644 0.462783 
-0.39792 3.98091 2.26722 -0.105136 0.972991 0.205451 
1.07631 3.93275 2.44548 0.336711 0.783807 0.521744 
0.043986 3.9841 2.13242 0.008515 0.998901 0.0455951 
0.950314 3.984 2.05068 0.057222 0.996338 0.0633561 
2.00196 3.89504 1.3234 0.242653 0.88525 0.396771 
2.56184 3.87996 1.1679 0.714866 0.58507 0.382946 
2.60691 3.72969 0.443166 0.8829 0.465651 0.0598471 
-1.59574 3.97457 1.45688 -0.237526 0.969878 -0.0538959 
-2.03172 3.7286 1.25719 -0.714438 0.262551 0.648518 
-0.479242 3.98428 1.85317 -0.000488 0.999969 0.00421213 
-0.486746 3.98517 1.20952 -0.01767 0.999817 -0.00292987 
2.56184 3.87996 1.1679 0.714866 0.58507 0.382946 
1.29742 3.98323 1.07246 0.04358 0.998688 0.0265511 
2.16452 3.96049 0.57689 0.11124 0.99353 0.0225531 
-2.34556 3.73558 1.06523 -0.559435 0.386029 0.733451 
-0.149395 3.98281 1.83704 0.001862 0.999969 -0.00289887 
0.189643 3.98133 0.795454 0.001038 0.999969 -0.00100687 
1.04327 3.98446 1.59735 0.046175 0.99884 0.0129091 
-2.21723 3.95166 0.792256 -0.207739 0.929075 0.305979 
-2.5666 3.75617 0.842419 -0.696799 0.647145 0.309183 
-0.942752 3.98698 0.798306 -0.052065 0.995148 0.0831321 
1.22104 3.98164 0.0193525 0.005249 0.999969 0.00433413 
-0.936606 3.98295 0.0288655 0.002625 0.999969 -0.00170887 
-1.23327 3.98402 -1.2719 -0.029969 0.99939 -0.0163879 
1.9548 3.98534 -0.574211 0.136387 0.985595 -0.0997339 
2.5897 3.87033 -0.378172 0.59447 0.802515 -0.0500499 
-2.74742 3.81591 -0.743529 -0.868129 0.446455 -0.216773 
-2.42612 3.9377 -0.753719 -0.255593 0.96057 -0.109195 
-1.92492 3.9867 0.127491 -0.050569 0.998688 0.00607313 
2.5897 3.87033 -0.378172 0.59447 0.802515 -0.0500499 
-1.54246 3.90548 -2.26003 -0.147313 0.73336 -0.663656 
-1.82356 3.93183 -1.91163 -0.374493 0.889584 -0.261452 
-1.04525 3.98929 -1.8032 -0.050874 0.996765 -0.0621049 
0.508021 3.98391 -0.87397 -0.002411 0.999939 0.00793513 
1.56899 3.9798 -0.990481 0.042421 0.998962 -0.0149539 
2.29437 3.93307 -1.22186 0.37141 0.916745 -0.146825 
-2.14061 3.70139 -1.72012 -0.613819 0.704703 -0.355785 
-0.616313 3.98387 -1.92024 -0.019318 0.953948 -0.299295 
-0.053127 3.98051 -1.52298 -0.00177 0.999969 -0.00399787 
0.748956 4.00578 -1.80027 0.010315 0.999878 -0.0113529 
1.49128 3.97222 -1.47877 0.099429 0.988098 -0.117252 
2.36031 3.74446 -1.62233 0.679342 0.434248 -0.59151 
2.53803 3.67032 -1.34653 0.91641 0.150273 -0.370922 
-2.74742 3.81591 -0.743529 -0.868129 0.446455 -0.216773 
-2.14061 3.70139 -1.72012 -0.613819 0.704703 -0.355785 
-2.59906 3.64556 -1.08684 -0.900571 -0.0769069 -0.427839 
-0.186716 3.98368 -1.8693 0.00412 0.99942 -0.0333569 
0.158088 3.98145 -1.93878 -0.030763 0.999176 -0.0257269 
0.620523 3.99799 -2.12674 0.063814 0.966948 -0.246773 
1.11434 3.98206 -1.93018 0.214179 0.933317 -0.288095 
1.53247 3.86315 -1.82989 0.269601 0.833979 -0.481399 
1.92627 3.87847 -1.70556 0.224982 0.83932 -0.494827 
2.36031 3.74446 -1.62233 0.679342 0.434248 -0.59151 
1.58356 3.47845 -2.18478 0.430586 0.466353 -0.772698 
1.92627 3.87847 -1.70556 0.224982 0.83932 -0.494827 
1.53247 3.86315 -1.82989 0.269601 0.833979 -0.481399 
-1.87789 3.63798 -2.29036 -0.423811 0.555101 -0.71569 
-0.928204 3.72794 -2.32361 0.125004 0.491104 -0.862056 
-1.87789 3.63798 -2.29036 -0.423811 0.555101 -0.71569 
-1.54246 3.90548 -2.26003 -0.147313 0.73336 -0.663656 
-0.928204 3.72794 -2.32361 0.125004 0.491104 -0.862056 
-0.555812 3.69295 -2.21884 -0.167302 0.600513 -0.781884 
-0.185674 3.95676 -2.20765 -0.175115 0.927763 -0.329447 
0.483365 3.78656 -2.60987 0.058687 0.808802 -0.585131 
0.718131 3.50408 -2.90141 0.217078 0.190863 -0.957305 
-0.289324 3.79183 -2.47726 -0.509568 0.489639 -0.70748 
0.243826 3.49871 -2.82759 -0.426038 0.0320751 -0.904111 
0.718131 3.50408 -2.90141 0.217078 0.190863 -0.957305 
-2.06451 3.54662 -2.20239 -0.84228 0.0514851 -0.536515 
-0.903439 3.59678 -2.35076 0.151799 -0.179388 -0.971984 
-2.06451 3.54662 -2.20239 -0.84228 0.0514851 -0.536515 
-1.82202 3.41501 -2.42656 -0.425306 -0.0742209 -0.901975 
-0.52226 3.60433 -2.25919 -0.205908 -0.342845 -0.916532 
-0.555812 3.69295 -2.21884 -0.167302 0.600513 -0.781884 
-0.52226 3.60433 -2.25919 -0.205908 -0.342845 -0.916532 
-0.289324 3.79183 -2.47726 -0.509568 0.489639 -0.70748 
0.243826 3.49871 -2.82759 -0.426038 0.0320751 -0.904111 
-0.555812 3.69295 -2.21884 -0.167302 0.600513 -0.781884 
-0.289324 3.79183 -2.47726 -0.509568 0.489639 -0.70748 
-0.52226 3.60433 -2.25919 -0.205908 -0.342845 -0.916532 
0.243826 3.49871 -2.82759 -0.426038 0.0320751 -0.904111 
0.878226 3.01158 -2.65011 0.551408 0.14246 -0.821955 
0.243826 3.49871 -2.82759 -0.426038 0.0320751 -0.904111 
0.187428 3.4501 -2.65894 -0.589862 -0.339366 -0.732688 
-0.52226 3.60433 -2.25919 -0.205908 -0.342845 -0.916532 
-0.42943 3.52743 -2.17968 -0.405988 -0.357219 -0.841151 
-1.72176 3.27256 -2.40059 -0.372082 -0.155614 -0.915036 
-1.94784 3.20289 -1.99638 -0.907071 -0.0325329 -0.419691 
-1.82202 3.41501 -2.42656 -0.425306 -0.0742209 -0.901975 
-1.72176 3.27256 -2.40059 -0.372082 -0.155614 -0.915036 
-0.56968 3.34497 -2.11439 -0.190619 0.0605181 -0.979766 
1.75707 3.3562 -2.16421 0.54088 0.0801421 -0.837245 
-0.435643 2.6835 -2.43994 -0.418439 -0.211829 -0.883175 
-1.46632 2.71247 -2.61775 -0.229957 -0.112125 -0.966704 
-0.42943 3.52743 -2.17968 -0.405988 -0.357219 -0.841151 
-0.440245 3.02242 -2.47936 -0.735496 0.114017 -0.667837 
-0.56968 3.34497 -2.11439 -0.190619 0.0605181 -0.979766 
-0.435643 2.6835 -2.43994 -0.418439 -0.211829 -0.883175 
-0.42943 3.52743 -2.17968 -0.405988 -0.357219 -0.841151 
-0.440245 3.02242 -2.47936 -0.735496 0.114017 -0.667837 
-0.42943 3.52743 -2.17968 -0.405988 -0.357219 -0.841151 
-0.038629 3.34173 -2.60711 -0.434065 0.35847 -0.826441 
0.187428 3.4501 -2.65894 -0.589862 -0.339366 -0.732688 
0.243826 3.49871 -2.82759 -0.426038 0.0320751 -0.904111 
0.464077 3.12955 -2.86316 -0.074038 0.000305131 -0.997253 
0.187428 3.4501 -2.65894 -0.589862 -0.339366 -0.732688 
0.464077 3.12955 -2.86316 -0.074038 0.000305131 -0.997253 
-0.038629 3.34173 -2.60711 -0.434065 0.35847 -0.826441 
0.187428 3.4501 -2.65894 -0.589862 -0.339366 -0.732688 
0.464077 3.12955 -2.86316 -0.074038 0.000305131 -0.997253 
1.62597 2.8893 -2.07554 0.583453 -0.0574659 -0.810083 
0.781105 2.75509 -2.87525 0.223151 0.260872 -0.939207 
-1.46632 2.71247 -2.61775 -0.229957 -0.112125 -0.966704 
-1.94784 3.20289 -1.99638 -0.907071 -0.0325329 -0.419691 
-1.72176 3.27256 -2.40059 -0.372082 -0.155614 -0.915036 
-0.038629 3.34173 -2.60711 -0.434065 0.35847 -0.826441 
0.464077 3.12955 -2.86316 -0.074038 0.000305131 -0.997253 
0.781105 2.75509 -2.87525 0.223151 0.260872 -0.939207 
-2.08987 2.67703 -1.64679 -0.801752 -0.117618 -0.585925 
-2.60986 2.78732 -1.02364 -0.757927 0.201361 -0.620441 
-0.435643 2.6835 -2.43994 -0.418439 -0.211829 -0.883175 
-0.440245 3.02242 -2.47936 -0.735496 0.114017 -0.667837 
0.113843 2.37602 -2.79818 -0.452254 0.0214851 -0.891598 
1.05703 2.34121 -2.98077 0.495682 0.28312 -0.821039 
0.719181 2.18495 -2.97886 -0.172735 0.161382 -0.971648 
-0.038629 3.34173 -2.60711 -0.434065 0.35847 -0.826441 
1.62491 2.09073 -2.16194 0.538591 0.0233471 -0.842219 
-2.10507 2.40125 -1.59515 -0.838374 -0.219947 -0.498703 
-0.626492 2.15654 -1.92521 -0.184851 -0.0273449 -0.98236 
-1.33222 2.33156 -2.25499 0.178625 -0.553331 -0.813562 
-0.435643 2.6835 -2.43994 -0.418439 -0.211829 -0.883175 
-1.33222 2.33156 -2.25499 0.178625 -0.553331 -0.813562 
-0.211791 2.2212 -2.4022 -0.724937 -0.137028 -0.675039 
-0.626492 2.15654 -1.92521 -0.184851 -0.0273449 -0.98236 
-0.435643 2.6835 -2.43994 -0.418439 -0.211829 -0.883175 
0.113843 2.37602 -2.79818 -0.452254 0.0214851 -0.891598 
-0.075915 1.68257 -2.64741 -0.696585 0.149968 -0.70159 
-1.80054 2.1836 -2.24736 -0.598712 -0.269112 -0.754387 
-2.10723 2.12012 -1.25953 -0.852351 -0.198584 -0.483749 
-1.36383 2.0443 -2.15135 0.10303 0.14832 -0.983551 
-1.7476 1.97469 -2.1579 -0.634388 -0.0562759 -0.770928 
-1.80054 2.1836 -2.24736 -0.598712 -0.269112 -0.754387 
-0.626492 2.15654 -1.92521 -0.184851 -0.0273449 -0.98236 
0.936497 1.78309 -3.0293 0.35258 -0.0944239 -0.930998 
-0.909115 1.61773 -2.4895 -0.042055 0.383404 -0.922605 
-1.49106 1.48145 -2.52375 -0.312449 0.282693 -0.906857 
0.17547 1.92521 -2.84096 -0.47087 0.0479751 -0.880856 
0.17547 1.92521 -2.84096 -0.47087 0.0479751 -0.880856 
-0.02195 1.22845 -2.79273 -0.289102 0.15714 -0.944273 
-0.02195 1.22845 -2.79273 -0.289102 0.15714 -0.944273 
0.76529 1.0076 -2.98132 0.267067 -0.402356 -0.875637 
1.43059 1.05764 -2.05289 0.389752 0.24485 -0.887753 
1.73516 1.22934 -2.19481 0.18067 -0.104709 -0.977935 
1.91839 1.94402 -2.06216 0.606006 0.0462661 -0.794092 
1.82114 2.32867 -2.09084 0.501663 0.109684 -0.858058 
-1.7476 1.97469 -2.1579 -0.634388 -0.0562759 -0.770928 
-1.49106 1.48145 -2.52375 -0.312449 0.282693 -0.906857 
-2.06588 1.42649 -1.67159 -0.856197 0.179388 -0.484481 
-0.384052 1.74421 -2.33031 -0.331767 0.536515 -0.775903 
-0.909115 1.61773 -2.4895 -0.042055 0.383404 -0.922605 
-0.626492 2.15654 -1.92521 -0.184851 -0.0273449 -0.98236 
-0.384052 1.74421 -2.33031 -0.331767 0.536515 -0.775903 
-0.02195 1.22845 -2.79273 -0.289102 0.15714 -0.944273 
-0.359691 0.999407 -2.74786 -0.419996 -0.306955 -0.85403 
-0.909115 1.61773 -2.4895 -0.042055 0.383404 -0.922605 
-1.63174 1.11057 -2.57777 -0.462966 -0.0316479 -0.8858 
-2.08987 1.10628 -1.76528 -0.846644 0.10181 -0.522294 
-1.63174 1.11057 -2.57777 -0.462966 -0.0316479 -0.8858 
-0.640691 0.921777 -2.38243 -0.257118 -0.264412 -0.929472 
-0.359691 0.999407 -2.74786 -0.419996 -0.306955 -0.85403 
-0.640691 0.921777 -2.38243 -0.257118 -0.264412 -0.929472 
-0.909115 1.61773 -2.4895 -0.042055 0.383404 -0.922605 
-1.9021 0.798642 -2.00653 -0.758995 -0.339274 -0.555681 
-1.55813 0.801614 -2.48107 -0.414045 -0.358806 -0.836512 
-1.90637 0.56046 -1.68968 -0.83169 -0.0126649 -0.55504 
-1.90637 0.56046 -1.68968 -0.83169 -0.0126649 -0.55504 
-1.55813 0.801614 -2.48107 -0.414045 -0.358806 -0.836512 
-1.4425 0.493095 -2.39217 -0.490097 0.237037 -0.838801 
-1.55813 0.801614 -2.48107 -0.414045 -0.358806 -0.836512 
-1.9021 0.798642 -2.00653 -0.758995 -0.339274 -0.555681 
-0.57359 0.589858 -2.36113 -0.119968 0.288827 -0.949828 
-1.4425 0.493095 -2.39217 -0.490097 0.237037 -0.838801 
-1.55813 0.801614 -2.48107 -0.414045 -0.358806 -0.836512 
0.775018 0.565114 -2.28298 0.421552 -0.0661339 -0.904355 
-0.014256 0.594912 -2.55091 -0.22541 -0.207709 -0.951842 
0.76529 1.0076 -2.98132 0.267067 -0.402356 -0.875637 
-0.014256 0.594912 -2.55091 -0.22541 -0.207709 -0.951842 
1.71372 0.875582 -2.09862 0.46147 -0.54442 -0.70043 
1.49612 0.71515 -1.86855 0.748741 -0.127903 -0.65038 
0.76529 1.0076 -2.98132 0.267067 -0.402356 -0.875637 
1.43059 1.05764 -2.05289 0.389752 0.24485 -0.887753 
1.71372 0.875582 -2.09862 0.46147 -0.54442 -0.70043 
1.71372 0.875582 -2.09862 0.46147 -0.54442 -0.70043 
-0.359691 0.999407 -2.74786 -0.419996 -0.306955 -0.85403 
-0.014256 0.594912 -2.55091 -0.22541 -0.207709 -0.951842 
-0.640691 0.921777 -2.38243 -0.257118 -0.264412 -0.929472 
-0.014256 0.594912 -2.55091 -0.22541 -0.207709 -0.951842 
0.234763 0.466476 -2.65161 0.049776 0.813196 -0.579821 
0.775018 0.565114 -2.28298 0.421552 -0.0661339 -0.904355 
0.234763 0.466476 -2.65161 0.049776 0.813196 -0.579821 
-0.014256 0.594912 -2.55091 -0.22541 -0.207709 -0.951842 
0.234763 0.466476 -2.65161 0.049776 0.813196 -0.579821 
0.775018 0.565114 -2.28298 0.421552 -0.0661339 -0.904355 
1.37638 0.322702 -2.22639 -0.033692 -0.156835 -0.98703 
1.65897 0.443185 -2.26162 0.270486 0.605762 -0.748222 
0.775018 0.565114 -2.28298 0.421552 -0.0661339 -0.904355 
1.49612 0.71515 -1.86855 0.748741 -0.127903 -0.65038 
-0.57359 0.589858 -2.36113 -0.119968 0.288827 -0.949828 
-1.36175 0.3253 -2.60532 -0.321879 -0.0364089 -0.946043 
-1.4425 0.493095 -2.39217 -0.490097 0.237037 -0.838801 
-1.49807 0.329306 -2.48594 -0.690085 0.0390031 -0.722648 
-2.26032 0.291375 -1.55256 -0.703299 0.576739 -0.415509 
-0.469566 0.27893 -2.67301 -0.163549 0.276254 -0.94705 
0.41432 0.314204 -2.91787 0.237617 0.373119 -0.896817 
0.372141 0.0875314 -2.8843 0.144963 -0.666646 -0.731101 
-0.469566 0.27893 -2.67301 -0.163549 0.276254 -0.94705 
0.234763 0.466476 -2.65161 0.049776 0.813196 -0.579821 
0.41432 0.314204 -2.91787 0.237617 0.373119 -0.896817 
1.37638 0.322702 -2.22639 -0.033692 -0.156835 -0.98703 
1.65897 0.443185 -2.26162 0.270486 0.605762 -0.748222 
1.20828 0.0801013 -2.10864 0.216865 0.418531 -0.881924 
1.82374 0.106113 -2.40675 0.372173 -0.396466 -0.839198 
-2.6614 0.0236012 -1.31948 -0.81225 -0.288064 -0.507157 
-2.40706 0.0727172 -1.54043 -0.731376 0.171575 -0.660024 
-1.52688 0.0840973 -2.25741 -0.239601 -0.822352 -0.516007 
-2.26032 0.291375 -1.55256 -0.703299 0.576739 -0.415509 
-1.49807 0.329306 -2.48594 -0.690085 0.0390031 -0.722648 
-2.40706 0.0727172 -1.54043 -0.731376 0.171575 -0.660024 
-1.52688 0.0840973 -2.25741 -0.239601 -0.822352 -0.516007 
-2.40706 0.0727172 -1.54043 -0.731376 0.171575 -0.660024 
-1.49807 0.329306 -2.48594 -0.690085 0.0390031 -0.722648 
-1.36175 0.3253 -2.60532 -0.321879 -0.0364089 -0.946043 
-0.44881 0.0653283 -2.62845 -0.161992 -0.758049 -0.631733 
-1.36175 0.3253 -2.60532 -0.321879 -0.0364089 -0.946043 
0.372141 0.0875314 -2.8843 0.144963 -0.666646 -0.731101 
1.20828 0.0801013 -2.10864 0.216865 0.418531 -0.881924 
1.20828 0.0801013 -2.10864 0.029908 -0.999176 -0.0273141 
1.20828 0.0801013 -2.10864 0.029908 -0.999176 -0.0273141 
1.20828 0.0801013 -2.10864 0.216865 0.418531 -0.881924 
1.82374 0.106113 -2.40675 0.372173 -0.396466 -0.839198 
-0.44881 0.0653283 -2.62845 -0.161992 -0.758049 -0.631733 
-0.47394 0.0152613 -2.40036 -0.112186 -0.990875 -0.0744961 
-0.114267 0.00724028 -2.12483 0.024751 -0.99884 -0.0408641 
-1.096 0.0134083 -2.08094 -0.032136 -0.975921 -0.215674 
-2.34145 0.00968021 -1.60846 -0.568773 -0.494064 -0.657521 
-2.6614 0.0236012 -1.31948 -0.81225 -0.288064 -0.507157 
-1.52688 0.0840973 -2.25741 -0.239601 -0.822352 -0.516007 
-2.34145 0.00968021 -1.60846 -0.568773 -0.494064 -0.657521 
1.82374 0.106113 -2.40675 0.372173 -0.396466 -0.839198 
2.25856 0.115511 -1.49709 0.637013 -0.755364 -0.153722 
-1.14746 0.00244399 0.066114 -0.00354 -0.999908 0.0121159 
-1.00549 0.111679 -2.34075 -0.164403 -0.9111 -0.37788 
1.17566 0.0993951 -0.952047 0.012268 -0.997833 -0.0642111 
2.37391 0.217561 -1.33381 0.499344 -0.487869 -0.715964 
2.6603 0.0318721 -0.828789 0.360302 -0.924253 -0.126041 
-2.96572 0.085129 -0.400733 -0.971221 -0.185125 -0.149815 
-2.6614 0.0236012 -1.31948 -0.81225 -0.288064 -0.507157 
-2.83319 0.036169 0.360523 -0.679556 -0.686911 0.257576 
-2.45023 0.00392099 0.060628 -0.035188 -0.998901 0.0305189 
-1.58021 0.0377939 0.613208 -0.054384 -0.984161 0.168676 
0.020566 0.0105798 1.61762 -0.035066 -0.999268 -0.0133671 
-0.916513 0.173976 1.27393 -0.179998 -0.971068 0.156865 
-0.998536 0.00918872 2.128 -0.021088 -0.99707 -0.0732751 
1.80511 0.00530394 0.440754 0.011414 -0.999908 -0.00344913 
2.94901 0.0974829 0.872415 0.773278 -0.560472 0.296426 
2.60032 0.0236009 0.75311 0.119541 -0.992218 0.0345469 
-2.11472 0.364716 1.14664 -0.697104 -0.525101 0.488113 
-2.00564 0.176746 0.965132 -0.218055 -0.890164 0.400037 
-1.67433 0.179865 1.32888 -0.058016 -0.988647 -0.138524 
0.066097 -2.7691e-07 2.11165 0.032563 -0.995758 0.0858489 
0.896025 0.0111227 2.40405 -0.057772 -0.986358 0.153966 
1.96585 0.0236018 1.73029 0.517594 -0.747246 0.41673 
-2.02981 0.118364 1.50418 -0.588244 -0.75222 -0.296731 
-2.03701 0.0392878 1.69627 -0.651967 -0.757866 -0.0225841 
-1.87486 0.0236007 2.02229 -0.579943 -0.70867 0.401746 
-1.00876 0.0249146 3.0293 -0.291177 -0.304575 0.906857 
0.330273 0.146375 2.42002 0.063509 -0.900937 0.429212 
0.113151 0.0956896 2.67294 0.387646 -0.628407 0.674367 
0.369511 0.256441 2.5647 -0.056276 -0.275063 0.959746 
-1.00876 0.0249146 3.0293 -0.291177 -0.304575 0.906857 
1.4989 0.0249147 2.31242 0.319224 -0.904782 0.281747 
2.14161 0.354299 -1.71475 0.787835 0.485702 -0.378613 
2.25856 0.115511 -1.49709 0.637013 -0.755364 -0.153722 
2.94901 0.0974829 0.872415 0.773278 -0.560472 0.296426 
2.6603 0.0318721 -0.828789 0.360302 -0.924253 -0.126041 
2.73852 0.141476 -0.513857 0.9747 0.220099 -0.038209 
2.73852 0.141476 -0.513857 0.9747 0.220099 -0.038209 
2.84825 0.211178 -1.20958 0.84106 -0.0885339 -0.533616 
2.96572 0.346274 0.866817 0.942106 0.139317 0.30488 
1.76475 0.762691 -1.3208 0.838099 -0.14127 -0.526841 
2.14161 0.354299 -1.71475 0.787835 0.485702 -0.378613 
2.37391 0.217561 -1.33381 0.499344 -0.487869 -0.715964 
2.37391 0.217561 -1.33381 0.499344 -0.487869 -0.715964 
2.84825 0.211178 -1.20958 0.84106 -0.0885339 -0.533616 
2.37391 0.217561 -1.33381 0.499344 -0.487869 -0.715964 
1.76475 0.762691 -1.3208 0.838099 -0.14127 -0.526841 
2.31244 0.500386 -0.0882189 0.978301 -0.053896 -0.199896 
2.84825 0.211178 -1.20958 0.84106 -0.0885339 -0.533616 
2.35282 0.562937 -0.966797 0.812586 0.430799 -0.392499 
1.76475 0.762691 -1.3208 0.838099 -0.14127 -0.526841 
2.96572 0.346274 0.866817 0.942106 0.139317 0.30488 
2.73852 0.141476 -0.513857 0.9747 0.220099 -0.038209 
2.31244 0.500386 -0.0882189 0.978301 -0.053896 -0.199896 
2.31244 0.500386 -0.0882189 0.978301 -0.053896 -0.199896 
2.73852 0.141476 -0.513857 0.9747 0.220099 -0.038209 
2.84825 0.211178 -1.20958 0.84106 -0.0885339 -0.533616 
2.21583 0.386564 1.48998 0.730613 -0.00155609 0.68276 
2.96572 0.346274 0.866817 0.942106 0.139317 0.30488 
2.31244 0.500386 -0.0882189 0.978301 -0.053896 -0.199896 
2.93767 0.744631 0.648459 0.968932 0.247291 0.000855032 
2.37916 0.724135 -0.998321 0.653157 -0.513688 -0.556261 
2.35282 0.562937 -0.966797 0.812586 0.430799 -0.392499 
1.76475 0.762691 -1.3208 0.838099 -0.14127 -0.526841 
2.93767 0.744631 0.648459 0.968932 0.247291 0.000855032 
2.93767 0.744631 0.648459 0.968932 0.247291 0.000855032 
2.31244 0.500386 -0.0882189 0.978301 -0.053896 -0.199896 
2.35282 0.562937 -0.966797 0.812586 0.430799 -0.392499 
2.93767 0.744631 0.648459 0.968932 0.247291 0.000855032 
2.43825 0.680716 1.20228 0.704672 0.257454 0.661122 
2.25299 1.06249 -1.69843 0.753899 -0.420972 -0.504349 
2.1635 0.914616 -1.51632 0.597003 -0.794031 0.114353 
1.76475 0.762691 -1.3208 0.838099 -0.14127 -0.526841 
2.1635 0.914616 -1.51632 0.597003 -0.794031 0.114353 
2.12722 1.05366 -1.33527 0.556291 -0.809229 -0.188757 
2.53738 1.38056 -1.40203 0.802393 -0.10773 -0.586963 
1.76475 0.762691 -1.3208 0.838099 -0.14127 -0.526841 
2.53738 1.38056 -1.40203 0.802393 -0.10773 -0.586963 
2.64604 1.0083 -1.23856 0.71807 -0.443007 -0.536729 
2.12722 1.05366 -1.33527 0.556291 -0.809229 -0.188757 
2.53738 1.38056 -1.40203 0.802393 -0.10773 -0.586963 
2.64604 1.0083 -1.23856 0.71807 -0.443007 -0.536729 
2.37916 0.724135 -0.998321 0.653157 -0.513688 -0.556261 
2.12722 1.05366 -1.33527 0.556291 -0.809229 -0.188757 
2.12722 1.05366 -1.33527 0.556291 -0.809229 -0.188757 
2.492 0.9317 -0.0772379 0.979492 -0.144169 -0.140538 
2.93767 0.744631 0.648459 0.968932 0.247291 0.000855032 
2.37916 0.724135 -0.998321 0.653157 -0.513688 -0.556261 
2.492 0.9317 -0.0772379 0.979492 -0.144169 -0.140538 
2.68743 1.04978 0.601256 0.790948 0.568529 0.226112 
2.93767 0.744631 0.648459 0.968932 0.247291 0.000855032 
2.11187 1.10628 1.37492 0.775231 -0.218451 0.592669 
2.68743 1.04978 0.601256 0.790948 0.568529 0.226112 
2.68493 0.992638 -0.6021 0.945067 -0.326792 0.00451696 
2.492 0.9317 -0.0772379 0.979492 -0.144169 -0.140538 
2.75574 1.12708 0.37203 0.955901 -0.289956 -0.046419 
2.68743 1.04978 0.601256 0.790948 0.568529 0.226112 
2.75574 1.12708 0.37203 0.955901 -0.289956 -0.046419 
1.80349 1.22934 1.86362 0.846828 -0.0386361 0.530412 
2.28157 1.81871 -1.6355 0.729392 0.0455031 -0.682546 
2.25299 1.06249 -1.69843 0.753899 -0.420972 -0.504349 
2.65716 2.74868 -1.15895 0.867641 0.221809 -0.44496 
2.7773 2.41399 -0.566257 0.994324 0.026399 -0.102847 
2.55538 1.46956 -0.147635 0.996796 0.023408 -0.076449 
2.68493 0.992638 -0.6021 0.945067 -0.326792 0.00451696 
2.64604 1.0083 -1.23856 0.71807 -0.443007 -0.536729 
2.75574 1.12708 0.37203 0.955901 -0.289956 -0.046419 
2.82978 1.35239 1.07342 0.788598 -0.514664 0.336406 
2.11187 1.10628 1.37492 0.775231 -0.218451 0.592669 
2.82978 1.35239 1.07342 0.788598 -0.514664 0.336406 
1.80349 1.22934 1.86362 0.846828 -0.0386361 0.530412 
2.7773 2.41399 -0.566257 0.994324 0.026399 -0.102847 
2.9557 2.33901 0.93648 0.934263 0.122623 0.334727 
2.9557 2.33901 0.93648 0.934263 0.122623 0.334727 
2.95506 1.72156 1.05752 0.944823 -0.107486 0.309366 
2.55538 1.46956 -0.147635 0.996796 0.023408 -0.076449 
2.95506 1.72156 1.05752 0.944823 -0.107486 0.309366 
2.16867 2.3843 -1.68124 0.731712 0.0800811 -0.67684 
2.82978 1.35239 1.07342 0.788598 -0.514664 0.336406 
2.00581 2.92371 -1.81347 0.737571 -0.0177009 -0.675008 
2.62457 3.15741 -0.109348 0.988556 -0.024384 -0.148656 
2.43745 2.70422 1.15785 0.663625 0.179785 0.726096 
2.90674 3.2299 0.672582 0.991455 -0.130253 0.00564598 
2.62457 3.15741 -0.109348 0.988556 -0.024384 -0.148656 
2.90674 3.2299 0.672582 0.991455 -0.130253 0.00564598 
2.9557 2.33901 0.93648 0.934263 0.122623 0.334727 
2.65716 2.74868 -1.15895 0.867641 0.221809 -0.44496 
2.22045 3.15627 -1.22424 0.855159 0.00277707 -0.518326 
2.67506 3.28293 -0.73113 0.981567 -0.024873 -0.189428 
2.67506 3.28293 -0.73113 0.981567 -0.024873 -0.189428 
2.18822 3.00988 1.43271 0.796838 -0.108524 0.594317 
2.2134 3.34517 -1.71237 0.814692 -0.286752 -0.503952 
2.2134 3.34517 -1.71237 0.814692 -0.286752 -0.503952 
2.53803 3.67032 -1.34653 0.91641 0.150273 -0.370922 
2.22045 3.15627 -1.22424 0.855159 0.00277707 -0.518326 
2.53803 3.67032 -1.34653 0.91641 0.150273 -0.370922 
2.70458 3.68332 -0.311915 0.962523 0.264016 -0.061586 
2.53803 3.67032 -1.34653 0.91641 0.150273 -0.370922 
2.70458 3.68332 -0.311915 0.962523 0.264016 -0.061586 
2.18822 3.00988 1.43271 0.796838 -0.108524 0.594317 
2.90674 3.2299 0.672582 0.991455 -0.130253 0.00564598 
2.94785 3.33927 0.943949 0.920103 -0.024873 0.39079 
2.94785 3.33927 0.943949 0.920103 -0.024873 0.39079 
2.90674 3.2299 0.672582 0.991455 -0.130253 0.00564598 
2.70458 3.68332 -0.311915 0.962523 0.264016 -0.061586 
2.94785 3.33927 0.943949 0.920103 -0.024873 0.39079 
2.70458 3.68332 -0.311915 0.962523 0.264016 -0.061586 
2.60691 3.72969 0.443166 0.8829 0.465651 0.0598471 
2.52676 3.59399 1.20311 0.792535 0.113254 0.59917 
2.94785 3.33927 0.943949 0.920103 -0.024873 0.39079 
-2.96572 0.085129 -0.400733 -0.971221 -0.185125 -0.149815 
-2.56232 0.258394 -0.936411 -0.649556 0.714377 -0.260231 
-2.6614 0.0236012 -1.31948 -0.81225 -0.288064 -0.507157 
-2.56232 0.258394 -0.936411 -0.649556 0.714377 -0.260231 
-2.40706 0.0727172 -1.54043 -0.731376 0.171575 -0.660024 
-2.63663 0.385853 -0.144946 -0.748375 0.611957 -0.255715 
-1.90637 0.56046 -1.68968 -0.83169 -0.0126649 -0.55504 
-2.83319 0.036169 0.360523 -0.679556 -0.686911 0.257576 
-2.75352 0.289938 0.758623 -0.806055 -0.298074 0.511246 
-2.96572 0.085129 -0.400733 -0.971221 -0.185125 -0.149815 
-2.64634 0.829406 -0.0177829 -0.988617 -0.036012 -0.146062 
-2.63663 0.385853 -0.144946 -0.748375 0.611957 -0.255715 
-2.75352 0.289938 0.758623 -0.806055 -0.298074 0.511246 
-2.75352 0.289938 0.758623 -0.806055 -0.298074 0.511246 
-2.65455 0.741807 0.868245 -0.833003 0.305368 0.461318 
-2.75352 0.289938 0.758623 -0.806055 -0.298074 0.511246 
-2.36615 0.622619 1.05765 -0.527635 -0.0511801 0.847896 
-2.11472 0.364716 1.14664 -0.697104 -0.525101 0.488113 
-2.11024 0.528782 1.65448 -0.96878 0.144658 0.2013 
-2.02981 0.118364 1.50418 -0.588244 -0.75222 -0.296731 
-2.00681 0.765784 1.26176 -0.851894 0.0826749 0.517075 
-2.31695 0.552529 -0.755533 -0.97644 -0.062746 -0.206305 
-2.36869 0.55253 -0.193132 -0.875546 0.183721 -0.446791 
-2.63705 0.925771 -0.244707 -0.869015 -0.483108 0.106815 
-2.79507 0.850786 -0.840839 -0.820215 -0.506058 -0.26664 
-2.31695 0.552529 -0.755533 -0.97644 -0.062746 -0.206305 
-2.63705 0.925771 -0.244707 -0.869015 -0.483108 0.106815 
-2.31695 0.552529 -0.755533 -0.97644 -0.062746 -0.206305 
-2.36869 0.55253 -0.193132 -0.875546 0.183721 -0.446791 
-2.36869 0.55253 -0.193132 -0.875546 0.183721 -0.446791 
-2.63663 0.385853 -0.144946 -0.748375 0.611957 -0.255715 
-2.64634 0.829406 -0.0177829 -0.988617 -0.036012 -0.146062 
-2.03701 0.0392878 1.69627 -0.651967 -0.757866 -0.0225841 
-2.79507 0.850786 -0.840839 -0.820215 -0.506058 -0.26664 
-2.08987 1.10628 -1.76528 -0.846644 0.10181 -0.522294 
-2.79507 0.850786 -0.840839 -0.820215 -0.506058 -0.26664 
-2.26607 1.10628 -1.33443 -0.787774 0.365368 -0.495834 
-2.64634 0.829406 -0.0177829 -0.988617 -0.036012 -0.146062 
-2.65455 0.741807 0.868245 -0.833003 0.305368 0.461318 
-2.46484 0.929585 0.632922 -0.78103 0.623707 0.0307021 
-2.37534 1.14438 0.947173 -0.939116 -0.00314304 0.343516 
-2.1216 1.14574 1.22959 -0.741661 -0.34196 0.577013 
-1.80135 1.11083 1.78032 -0.819361 -0.110569 0.562487 
-2.92586 1.10628 -0.701769 -0.970214 -0.179785 -0.162328 
-2.26607 1.10628 -1.33443 -0.787774 0.365368 -0.495834 
-2.21673 1.45836 -1.40595 -0.798059 0.263924 -0.541642 
-2.64025 1.16781 0.00155915 -0.919248 -0.195898 0.341441 
-2.46484 0.929585 0.632922 -0.78103 0.623707 0.0307021 
-2.35805 1.0832 0.459717 -0.924772 0.203681 0.32136 
-2.64025 1.16781 0.00155915 -0.919248 -0.195898 0.341441 
-2.46484 0.929585 0.632922 -0.78103 0.623707 0.0307021 
-2.35805 1.0832 0.459717 -0.924772 0.203681 0.32136 
-2.63357 1.43183 0.246193 -0.900296 -0.358013 0.247505 
-2.42421 1.40756 1.13853 -0.866451 -0.339152 0.366314 
-2.42488 1.49227 1.23252 -0.914274 -0.066927 0.399487 
-2.90138 1.45836 -0.669273 -0.918241 0.270821 -0.288919 
-2.63357 1.43183 0.246193 -0.900296 -0.358013 0.247505 
-2.42421 1.40756 1.13853 -0.866451 -0.339152 0.366314 
-2.57622 1.46753 0.872748 -0.877194 -0.333232 0.345622 
-2.33669 1.69159 -1.02699 -0.75985 0.387005 -0.522324 
-2.85693 1.95798 -0.10807 -0.998718 -0.0159 0.047426 
-2.21673 1.45836 -1.40595 -0.798059 0.263924 -0.541642 
-2.90138 1.45836 -0.669273 -0.918241 0.270821 -0.288919 
-2.33669 1.69159 -1.02699 -0.75985 0.387005 -0.522324 
-2.85693 1.95798 -0.10807 -0.998718 -0.0159 0.047426 
-2.57622 1.46753 0.872748 -0.877194 -0.333232 0.345622 
-2.41675 1.92119 0.857574 -0.856807 0.230598 0.461135 
-2.35409 2.16752 0.923322 -0.794122 -0.0743131 0.603168 
-1.9597 2.10812 1.41743 -0.869167 0.0714739 0.489273 
-1.9597 2.10812 1.41743 -0.869167 0.0714739 0.489273 
-2.60734 2.48092 0.775473 -0.841731 -0.164129 0.514298 
-2.86658 2.45464 -0.734759 -0.905484 -0.238411 -0.350993 
-2.85693 1.95798 -0.10807 -0.998718 -0.0159 0.047426 
-2.86658 2.45464 -0.734759 -0.905484 -0.238411 -0.350993 
-2.10723 2.12012 -1.25953 -0.852351 -0.198584 -0.483749 
-2.10507 2.40125 -1.59515 -0.838374 -0.219947 -0.498703 
-2.23292 2.99654 1.13741 -0.735893 0.0864889 0.671499 
-2.89694 2.94731 -0.639301 -0.926664 0.269784 -0.261635 
-2.61855 3.03388 0.865763 -0.823328 0.0599379 0.564348 
-2.0834 3.26557 1.2159 -0.844356 0.0854819 0.528886 
-2.18195 3.29906 -1.08887 -0.865078 -0.151219 -0.478256 
-2.89694 2.94731 -0.639301 -0.926664 0.269784 -0.261635 
-2.18195 3.29906 -1.08887 -0.865078 -0.151219 -0.478256 
-2.60986 2.78732 -1.02364 -0.757927 0.201361 -0.620441 
-2.78739 3.19159 -0.434442 -0.963164 0.212622 -0.164464 
-2.69839 3.4372 0.404522 -0.912625 0.322153 0.251503 
-2.45186 3.51935 0.83872 -0.799341 -0.159429 0.579302 
-2.78739 3.19159 -0.434442 -0.963164 0.212622 -0.164464 
-2.03172 3.7286 1.25719 -0.714438 0.262551 0.648518 
-2.78739 3.19159 -0.434442 -0.963164 0.212622 -0.164464 
-2.54108 3.50766 -1.02035 -0.743095 -0.560137 -0.36607 
-2.18195 3.29906 -1.08887 -0.865078 -0.151219 -0.478256 
-1.82202 3.41501 -2.42656 -0.425306 -0.0742209 -0.901975 
-2.06451 3.54662 -2.20239 -0.84228 0.0514851 -0.536515 
-1.82202 3.41501 -2.42656 -0.425306 -0.0742209 -0.901975 
-2.8188 3.41045 -0.252469 -0.999817 -0.018494 0.003601 
-2.78213 3.64764 -0.326319 -0.974609 0.222724 -0.022279 
-2.58352 3.68777 0.885848 -0.837214 -0.0997651 0.537675 
-2.54108 3.50766 -1.02035 -0.743095 -0.560137 -0.36607 
-2.34556 3.73558 1.06523 -0.559435 0.386029 0.733451 
-2.06451 3.54662 -2.20239 -0.84228 0.0514851 -0.536515 
-2.59906 3.64556 -1.08684 -0.900571 -0.0769069 -0.427839 
-2.5666 3.75617 0.842419 -0.696799 0.647145 0.309183 
-1.59574 3.97457 1.45688 -0.237526 0.969878 -0.0538959 
3 0 1 2 
3 3 4 5 
3 6 7 8 
3 9 10 11 
3 12 13 14 
3 15 13 12 
3 16 15 12 
3 17 8 18 
3 7 18 8 
3 19 20 7 
3 7 20 18 
3 21 22 23 
3 20 24 25 
3 24 26 25 
3 27 28 29 
3 30 31 32 
3 9 33 10 
3 34 9 11 
3 16 35 15 
3 17 18 36 
3 37 36 18 
3 18 20 37 
3 37 20 38 
3 25 39 20 
3 20 39 38 
3 40 41 42 
3 28 27 43 
3 44 43 27 
3 45 33 9 
3 46 47 35 
3 48 35 47 
3 49 50 51 
3 52 48 53 
3 54 47 46 
3 55 56 36 
3 57 36 37 
3 55 36 57 
3 38 57 37 
3 58 59 60 
3 44 61 43 
3 62 63 64 
3 65 61 66 
3 66 61 44 
3 55 57 67 
3 47 52 53 
3 68 69 70 
3 71 72 73 
3 74 75 76 
3 77 52 78 
3 79 74 76 
3 80 78 81 
3 54 81 47 
3 80 81 82 
3 83 84 85 
3 71 86 72 
3 78 80 87 
3 82 54 88 
3 55 89 56 
3 90 91 54 
3 91 88 54 
3 92 86 71 
3 93 94 95 
3 96 97 98 
3 99 98 97 
3 100 101 102 
3 103 98 99 
3 57 104 67 
3 104 105 67 
3 106 67 105 
3 107 108 109 
3 110 111 112 
3 110 104 111 
3 61 65 113 
3 113 65 114 
3 115 116 117 
3 118 86 92 
3 55 67 89 
3 106 89 67 
3 104 110 105 
3 119 120 121 
3 122 123 86 
3 105 124 106 
3 106 124 89 
3 113 114 125 
3 126 125 127 
3 127 125 114 
3 105 110 124 
3 128 123 122 
3 94 93 129 
3 130 129 93 
3 91 93 88 
3 88 93 95 
3 131 93 91 
3 132 126 127 
3 89 124 133 
3 134 128 135 
3 128 122 135 
3 122 136 137 
3 135 122 137 
3 131 130 93 
3 134 135 138 
3 138 135 139 
3 137 139 135 
3 139 137 140 
3 140 137 141 
3 90 142 91 
3 91 142 131 
3 133 143 89 
3 124 144 133 
3 145 133 144 
3 126 132 146 
3 138 147 134 
3 148 149 150 
3 151 150 152 
3 152 150 149 
3 130 153 129 
3 129 153 154 
3 155 156 148 
3 148 156 149 
3 157 156 155 
3 158 159 160 
3 144 161 145 
3 156 157 162 
3 163 164 165 
3 139 166 138 
3 167 168 169 
3 170 139 140 
3 149 171 152 
3 172 152 171 
3 173 152 172 
3 174 171 149 
3 149 156 174 
3 174 156 175 
3 170 166 139 
3 174 175 176 
3 176 175 177 
3 177 175 178 
3 170 140 179 
3 140 141 179 
3 179 141 180 
3 172 181 173 
3 173 181 182 
3 171 181 172 
3 183 184 171 
3 171 184 181 
3 176 183 174 
3 174 183 171 
3 178 185 186 
3 187 186 185 
3 184 188 181 
3 189 184 183 
3 189 183 176 
3 190 189 176 
3 191 176 177 
3 190 176 191 
3 192 193 188 
3 192 188 194 
3 184 194 188 
3 190 184 189 
3 194 184 190 
3 177 178 191 
3 195 191 186 
3 190 191 195 
3 178 186 191 
3 196 194 190 
3 197 196 195 
3 190 195 196 
3 186 187 195 
3 198 195 187 
3 185 199 187 
3 200 193 192 
3 201 200 192 
3 187 199 198 
3 194 202 192 
3 194 196 202 
3 197 202 196 
3 201 202 197 
3 179 180 203 
3 192 202 201 
3 204 205 197 
3 201 197 205 
3 204 197 206 
3 195 198 207 
3 197 195 207 
3 207 206 197 
3 207 198 208 
3 209 208 199 
3 208 198 199 
3 205 210 201 
3 204 206 211 
3 206 207 212 
3 212 207 213 
3 208 213 207 
3 213 208 214 
3 209 214 208 
3 215 209 216 
3 217 218 219 
3 201 210 200 
3 206 212 220 
3 220 212 221 
3 206 220 211 
3 212 213 221 
3 221 213 222 
3 222 213 223 
3 213 214 223 
3 223 214 224 
3 224 214 225 
3 214 209 225 
3 209 215 225 
3 226 227 228 
3 229 228 227 
3 210 205 230 
3 205 204 230 
3 231 232 233 
3 204 211 234 
3 235 234 211 
3 220 236 211 
3 235 211 236 
3 236 221 222 
3 236 222 237 
3 224 238 223 
3 222 223 237 
3 237 223 238 
3 235 236 239 
3 220 221 236 
3 238 240 239 
3 236 237 239 
3 239 237 238 
3 229 227 241 
3 210 230 242 
3 231 243 232 
3 244 232 245 
3 245 232 243 
3 243 231 246 
3 247 246 231 
3 248 249 250 
3 251 252 253 
3 254 241 255 
3 227 255 241 
3 256 257 258 
3 243 259 245 
3 260 245 259 
3 261 262 263 
3 243 246 259 
3 260 259 264 
3 265 255 227 
3 266 267 264 
3 260 264 267 
3 268 269 270 
3 271 270 269 
3 257 272 258 
3 273 274 275 
3 276 275 274 
3 277 278 279 
3 280 281 282 
3 255 283 254 
3 265 284 255 
3 285 255 284 
3 286 287 288 
3 289 290 291 
3 255 285 283 
3 287 292 293 
3 286 292 287 
3 294 295 296 
3 296 297 298 
3 295 299 296 
3 296 299 297 
3 299 285 297 
3 284 300 285 
3 285 300 297 
3 286 301 292 
3 302 303 304 
3 266 305 267 
3 306 307 308 
3 308 309 306 
3 307 306 310 
3 311 301 286 
3 312 301 311 
3 313 314 315 
3 267 305 315 
3 316 313 305 
3 313 315 305 
3 297 317 298 
3 300 317 297 
3 313 318 314 
3 319 314 318 
3 316 318 313 
3 320 310 306 
3 306 309 320 
3 298 321 296 
3 310 320 322 
3 323 321 317 
3 298 317 321 
3 324 323 317 
3 317 325 324 
3 317 300 325 
3 325 300 326 
3 300 327 326 
3 328 327 300 
3 329 330 331 
3 332 333 334 
3 310 335 307 
3 310 322 335 
3 332 336 333 
3 324 337 323 
3 338 323 337 
3 331 339 340 
3 330 339 331 
3 341 319 342 
3 343 344 345 
3 319 318 342 
3 346 347 348 
3 349 350 351 
3 340 352 353 
3 354 355 356 
3 340 339 352 
3 357 358 359 
3 324 360 337 
3 359 361 357 
3 362 357 361 
3 363 364 365 
3 326 366 325 
3 356 342 354 
3 341 342 356 
3 367 368 369 
3 342 370 354 
3 370 371 354 
3 372 373 374 
3 375 376 377 
3 378 379 380 
3 381 382 383 
3 383 382 384 
3 385 383 384 
3 381 386 382 
3 387 388 389 
3 381 390 386 
3 386 390 391 
3 391 390 392 
3 393 377 376 
3 387 377 394 
3 394 377 395 
3 396 397 398 
3 399 400 401 
3 402 403 404 
3 402 404 405 
3 406 407 389 
3 389 388 406 
3 394 388 387 
3 408 409 410 
3 411 412 413 
3 408 410 414 
3 415 414 410 
3 410 416 415 
3 417 418 402 
3 419 420 421 
3 417 402 405 
3 410 422 423 
3 424 418 417 
3 405 425 417 
3 414 415 405 
3 405 415 425 
3 423 416 410 
3 415 416 425 
3 425 416 417 
3 423 426 416 
3 427 426 423 
3 416 426 424 
3 424 426 428 
3 427 428 426 
3 429 430 431 
3 432 431 430 
3 432 430 418 
3 416 424 417 
3 432 418 424 
3 432 424 433 
3 433 424 434 
3 432 433 431 
3 433 434 435 
3 436 435 434 
3 428 437 424 
3 438 439 428 
3 428 439 437 
3 440 441 442 
3 435 442 441 
3 431 433 441 
3 435 441 433 
3 436 442 435 
3 436 434 443 
3 424 437 434 
3 444 443 437 
3 437 443 434 
3 444 437 445 
3 437 439 445 
3 445 439 438 
3 446 436 447 
3 446 442 436 
3 447 436 448 
3 443 449 436 
3 448 436 449 
3 443 444 450 
3 450 451 443 
3 450 452 451 
3 451 449 443 
3 450 32 452 
3 444 32 450 
3 445 30 444 
3 444 30 32 
3 453 12 14 
3 10 454 11 
3 395 455 456 
3 457 458 459 
3 460 428 461 
3 461 428 427 
3 462 457 459 
3 463 464 378 
3 377 393 395 
3 395 393 455 
3 456 455 465 
3 464 463 466 
3 467 468 469 
3 470 471 472 
3 473 472 471 
3 474 475 476 
3 477 478 479 
3 457 480 11 
3 380 463 378 
3 481 482 483 
3 34 11 480 
3 484 485 486 
3 487 485 484 
3 488 489 490 
3 491 492 462 
3 34 480 492 
3 457 462 480 
3 492 480 462 
3 493 494 361 
3 361 494 362 
3 495 496 497 
3 497 496 498 
3 362 494 499 
3 500 494 493 
3 501 502 503 
3 504 505 506 
3 486 507 484 
3 508 509 510 
3 511 512 513 
3 514 491 515 
3 34 492 514 
3 514 492 491 
3 505 504 516 
3 517 505 516 
3 516 518 517 
3 517 518 519 
3 520 514 515 
3 521 34 514 
3 9 34 45 
3 45 34 521 
3 522 503 523 
3 524 503 522 
3 501 503 525 
3 524 525 503 
3 526 527 528 
3 520 527 526 
3 45 521 73 
3 71 73 521 
3 529 530 531 
3 526 532 520 
3 533 531 530 
3 532 92 521 
3 521 92 71 
3 526 528 534 
3 535 526 534 
3 536 537 538 
3 532 539 92 
3 92 539 118 
3 535 118 539 
3 366 326 523 
3 523 326 522 
3 327 522 326 
3 540 522 327 
3 540 524 522 
3 541 538 537 
3 284 328 300 
3 284 542 328 
3 327 328 540 
3 540 328 542 
3 535 534 543 
3 544 535 545 
3 546 547 548 
3 136 118 544 
3 535 544 118 
3 86 136 122 
3 118 136 86 
3 540 542 524 
3 534 549 543 
3 550 551 524 
3 552 543 549 
3 136 544 553 
3 553 544 545 
3 542 550 524 
3 554 550 542 
3 554 542 265 
3 284 265 542 
3 555 556 557 
3 558 551 550 
3 559 552 560 
3 546 561 547 
3 562 563 564 
3 565 566 567 
3 552 559 543 
3 137 136 553 
3 568 569 570 
3 203 180 559 
3 554 265 226 
3 227 226 265 
3 570 571 568 
3 137 553 141 
3 572 141 553 
3 226 558 554 
3 209 199 216 
3 560 203 559 
3 573 574 575 
3 399 401 576 
3 575 574 577 
3 574 573 578 
3 579 385 574 
3 579 383 385 
3 580 581 582 
3 583 584 585 
3 586 578 573 
3 583 585 587 
3 441 588 431 
3 440 588 441 
3 585 589 587 
3 590 589 585 
3 591 590 592 
3 446 440 442 
3 593 590 591 
3 593 589 590 
3 578 594 574 
3 574 594 579 
3 578 595 594 
3 596 597 598 
3 599 600 601 
3 602 603 604 
3 599 601 583 
3 592 605 591 
3 13 591 14 
3 14 591 605 
3 598 597 348 
3 348 597 346 
3 340 353 606 
3 607 608 609 
3 610 611 612 
3 587 589 613 
3 614 613 589 
3 593 614 589 
3 593 591 615 
3 48 615 13 
3 13 615 591 
3 13 15 48 
3 35 48 15 
3 606 616 617 
3 618 617 616 
3 599 616 606 
3 583 619 599 
3 583 620 619 
3 621 622 623 
3 624 620 613 
3 620 587 613 
3 593 615 614 
3 331 340 618 
3 618 340 617 
3 624 625 619 
3 625 624 626 
3 614 626 613 
3 613 626 624 
3 627 626 614 
3 618 616 628 
3 616 625 628 
3 599 619 616 
3 616 619 625 
3 629 630 631 
3 77 615 48 
3 614 615 627 
3 77 627 615 
3 77 48 52 
3 331 632 329 
3 329 632 312 
3 618 632 331 
3 633 312 632 
3 634 635 636 
3 637 636 635 
3 628 625 633 
3 633 625 638 
3 633 638 639 
3 627 639 626 
3 626 639 638 
3 640 639 641 
3 641 639 627 
3 77 78 627 
3 641 627 78 
3 329 312 311 
3 633 639 640 
3 78 87 641 
3 96 642 97 
3 643 644 633 
3 645 646 647 
3 648 647 646 
3 643 633 640 
3 649 640 641 
3 643 640 649 
3 644 293 301 
3 292 301 293 
3 650 293 644 
3 643 651 644 
3 650 644 651 
3 649 651 643 
3 641 94 649 
3 652 649 94 
3 293 653 287 
3 654 655 656 
3 657 651 658 
3 658 651 659 
3 650 651 657 
3 654 660 655 
3 651 649 659 
3 659 649 652 
3 129 652 94 
3 154 661 129 
3 129 661 652 
3 662 663 664 
3 664 663 665 
3 666 665 663 
3 653 667 287 
3 658 668 657 
3 659 669 658 
3 658 669 668 
3 670 669 659 
3 668 671 657 
3 669 671 668 
3 672 670 659 
3 672 659 652 
3 652 661 672 
3 671 219 673 
3 669 219 671 
3 242 674 210 
3 217 219 669 
3 670 675 669 
3 217 669 675 
3 675 670 672 
3 672 661 676 
