ply
format ascii 1.0
comment VCGLIB generated
element vertex 717
property float x
property float y
property float z
property float nx
property float ny
property float nz
element face 652
property list uchar int vertex_indices
end_header
-1.77172 0.711605 3.47675 0.011963 0.181951 0.983215 
-2.05727 0.269713 3.40214 -0.179388 -0.28135 0.942656 
-0.772106 0.271026 3.09327 0.287332 -0.000641126 0.957823 
-1.45827 0.0249136 3.34659 0.149022 -0.573595 0.805444 
0.287998 0.0956896 2.7919 0.354564 -0.658284 0.664022 
3.05864 0.706379 2.77906 0.530198 0.343913 0.774957 
2.1433 0.271026 3.14467 0.075137 -0.0372941 0.99646 
3.221 0.0236017 2.62989 0.497452 -0.677084 0.542283 
-2.05727 0.269713 3.40214 -0.179388 -0.28135 0.942656 
-2.89464 0.503413 3.01382 -0.745079 0.15363 0.648976 
-2.80635 0.0236006 3.01276 -0.492721 -0.693045 0.52617 
-2.67735 0.668244 3.14987 -0.586016 0.361919 0.724937 
-1.77172 0.711605 3.47675 0.011963 0.181951 0.983215 
0.369034 0.690036 2.80614 0.524766 0.122562 0.842341 
0.68702 0.256441 2.62343 -0.063478 -0.371471 0.926237 
0.666629 0.597899 2.52045 0.222602 0.348155 0.910581 
0.68702 0.256441 2.62343 -0.063478 -0.371471 0.926237 
1.73762 0.108974 3.16872 -0.217414 -0.378613 0.899625 
0.666629 0.597899 2.52045 0.222602 0.348155 0.910581 
0.97119 0.721991 2.50009 -0.225501 0.460402 0.858577 
2.1433 0.271026 3.14467 0.075137 -0.0372941 0.99646 
2.2873 0.706647 3.09438 0.027711 0.281259 0.959197 
2.44492 0.0249146 2.9431 0.19303 -0.799036 0.569414 
1.73762 0.108974 3.16872 -0.217414 -0.378613 0.899625 
2.2873 0.706647 3.09438 0.027711 0.281259 0.959197 
3.38679 0.690686 2.48169 0.772301 0.287454 0.566454 
-1.85802 1.075 3.22774 -0.214209 0.109073 0.970672 
-0.40136 1.10997 2.91909 0.30079 -0.0630511 0.951598 
0.270715 1.08805 2.7116 0.462142 0.393811 0.794519 
0.596239 1.19775 2.23621 0.316904 -0.137181 0.938475 
0.999491 1.11026 2.33947 -0.292032 0.00820887 0.956359 
0.596239 1.19775 2.23621 0.316904 -0.137181 0.938475 
-1.85802 1.075 3.22774 -0.214209 0.109073 0.970672 
2.33256 1.10628 2.86683 0.067476 0.0362249 0.99704 
2.33256 1.10628 2.86683 0.067476 0.0362249 0.99704 
-1.6025 1.48834 3.49291 0.063814 0.209571 0.975677 
-2.32841 1.09517 2.98065 -0.553331 0.0364089 0.832148 
-1.6025 1.48834 3.49291 0.063814 0.209571 0.975677 
-1.6025 1.48834 3.49291 0.063814 0.209571 0.975677 
-2.10452 1.40889 3.35677 -0.310312 -0.171239 0.935057 
-2.32841 1.09517 2.98065 -0.553331 0.0364089 0.832148 
-2.62143 1.54511 3.07573 -0.489364 0.221839 0.843349 
-2.10452 1.40889 3.35677 -0.310312 -0.171239 0.935057 
-0.607836 1.47562 3.12401 0.218268 -0.151708 0.964019 
0.272376 1.52464 2.97915 0.521897 -0.30311 0.797296 
0.614331 1.38255 2.37879 0.315744 -0.433821 0.843837 
0.272376 1.52464 2.97915 0.521897 -0.30311 0.797296 
-0.40136 1.10997 2.91909 0.30079 -0.0630511 0.951598 
0.614331 1.38255 2.37879 0.315744 -0.433821 0.843837 
0.614331 1.38255 2.37879 0.315744 -0.433821 0.843837 
0.96059 1.49205 2.50904 -0.264718 -0.141911 0.953795 
1.41204 1.72172 2.59829 -0.369488 0.220313 0.902707 
2.31872 1.47548 3.06709 0.00296 -0.128025 0.99176 
0.491078 1.73966 2.72663 0.729392 -0.0858791 0.678671 
2.29382 2.24876 2.86638 0.010804 0.232185 0.972594 
3.04935 1.50963 2.78533 0.458602 -0.307871 0.833552 
2.29382 2.24876 2.86638 0.010804 0.232185 0.972594 
2.31872 1.47548 3.06709 0.00296 -0.128025 0.99176 
-1.842 1.70434 3.14903 -0.218879 0.579485 0.785028 
-2.81109 2.011 2.41361 -0.851436 0.34376 0.396039 
-2.62143 1.54511 3.07573 -0.489364 0.221839 0.843349 
-2.91196 1.48298 2.8654 -0.879574 -0.0683001 0.470779 
-2.81109 2.011 2.41361 -0.851436 0.34376 0.396039 
-1.6025 1.48834 3.49291 0.063814 0.209571 0.975677 
-1.58703 2.01266 3.18291 -0.080294 -0.237739 0.967986 
-2.81109 2.011 2.41361 -0.851436 0.34376 0.396039 
-1.842 1.70434 3.14903 -0.218879 0.579485 0.785028 
-0.607836 1.47562 3.12401 0.218268 -0.151708 0.964019 
-0.96187 1.90753 3.10538 -0.50087 -0.50441 0.703299 
-0.607836 1.47562 3.12401 0.218268 -0.151708 0.964019 
3.04935 1.50963 2.78533 0.458602 -0.307871 0.833552 
3.11818 2.13995 2.76868 0.457106 0.116062 0.881771 
2.29382 2.24876 2.86638 0.010804 0.232185 0.972594 
-2.38253 2.23509 2.80037 -0.364635 -0.762474 0.53444 
-0.96187 1.90753 3.10538 -0.50087 -0.50441 0.703299 
-0.607836 1.47562 3.12401 0.218268 -0.151708 0.964019 
-1.59051 2.5984 3.54751 -0.027406 -0.21015 0.977264 
-0.126054 2.64818 2.98382 0.377941 0.0349439 0.925138 
-1.50752 3.38803 3.55114 0.091861 0.384228 0.918638 
-1.59051 2.5984 3.54751 -0.027406 -0.21015 0.977264 
3.36021 1.54928 2.5332 0.753746 -0.371258 0.542192 
3.11818 2.13995 2.76868 0.457106 0.116062 0.881771 
-2.63398 2.51773 3.16825 -0.486343 -0.204108 0.849574 
-2.87068 2.33114 2.9334 -0.731773 -0.53856 0.417615 
-2.09836 2.32013 3.30484 -0.304086 -0.596088 0.743095 
-2.87068 2.33114 2.9334 -0.731773 -0.53856 0.417615 
-2.38253 2.23509 2.80037 -0.364635 -0.762474 0.53444 
-2.09836 2.32013 3.30484 -0.304086 -0.596088 0.743095 
-1.58703 2.01266 3.18291 -0.080294 -0.237739 0.967986 
-1.59051 2.5984 3.54751 -0.027406 -0.21015 0.977264 
0.768273 2.07263 2.50689 0.503983 0.10654 0.857082 
0.763605 2.78079 2.36389 0.673208 0.141697 0.7257 
0.478844 2.37568 2.82019 0.568499 0.0358289 0.821863 
0.768273 2.07263 2.50689 0.503983 0.10654 0.857082 
0.894905 2.7313 2.26995 0.071322 -0.0736411 0.99472 
1.09992 2.36545 2.34641 -0.308969 0.0836509 0.947356 
0.894905 2.7313 2.26995 0.071322 -0.0736411 0.99472 
0.96059 1.49205 2.50904 -0.264718 -0.141911 0.953795 
1.86364 2.5418 2.80905 -0.280313 0.0638749 0.957762 
3.40718 2.17961 2.47421 0.81872 0.161657 0.55092 
2.29382 2.24876 2.86638 0.010804 0.232185 0.972594 
3.11818 2.13995 2.76868 0.457106 0.116062 0.881771 
1.86364 2.5418 2.80905 -0.280313 0.0638749 0.957762 
2.65615 2.79006 2.81888 0.181494 -0.0682091 0.981017 
3.11818 2.13995 2.76868 0.457106 0.116062 0.881771 
0.602478 3.20943 2.42186 0.281716 -0.0955841 0.954711 
0.602478 3.20943 2.42186 0.281716 -0.0955841 0.954711 
2.02618 2.91781 2.78952 -0.157659 -0.164708 0.973632 
-2.86824 3.38809 2.9909 -0.855586 0.153264 0.494369 
-2.57243 3.64704 3.14936 -0.591479 0.531968 0.605884 
-1.50752 3.38803 3.55114 0.091861 0.384228 0.918638 
-2.13578 3.60257 3.37632 -0.230689 0.398297 0.887753 
1.62522 3.294 2.91808 -0.217444 -0.268105 0.938505 
0.242204 3.63394 2.93708 0.47441 0.370891 0.798303 
2.56841 3.17178 2.89219 0.157689 0.0287789 0.98706 
2.65615 2.79006 2.81888 0.181494 -0.0682091 0.981017 
3.23673 2.51249 2.50113 0.732719 0.145146 0.664846 
3.30005 3.29439 2.624 0.661946 0.149571 0.734458 
2.56841 3.17178 2.89219 0.157689 0.0287789 0.98706 
1.54129 3.68731 2.91517 -0.15128 0.484603 0.861538 
1.54129 3.68731 2.91517 -0.15128 0.484603 0.861538 
2.99026 3.49106 2.68268 0.320841 0.602527 0.730735 
3.35397 3.48014 2.41355 0.622883 0.60979 0.490005 
3.67869 3.59399 1.7377 0.821986 0.520249 0.231605 
-0.700971 3.52235 3.12928 0.272683 0.451064 0.849788 
-1.50752 3.38803 3.55114 0.091861 0.384228 0.918638 
-0.700971 3.52235 3.12928 0.272683 0.451064 0.849788 
-2.13578 3.60257 3.37632 -0.230689 0.398297 0.887753 
0.555356 3.66108 2.42626 0.396558 0.196509 0.896695 
0.442277 3.82764 2.52686 0.477096 0.67925 0.557604 
0.555356 3.66108 2.42626 0.396558 0.196509 0.896695 
-0.700971 3.52235 3.12928 0.272683 0.451064 0.849788 
-1.95045 3.78562 3.2277 0.022248 0.806085 0.591357 
-2.13578 3.60257 3.37632 -0.230689 0.398297 0.887753 
-2.40465 3.81354 3.02507 -0.257668 0.869716 0.420911 
-1.95045 3.78562 3.2277 0.022248 0.806085 0.591357 
-2.57243 3.64704 3.14936 -0.591479 0.531968 0.605884 
-2.40465 3.81354 3.02507 -0.257668 0.869716 0.420911 
-2.86824 3.38809 2.9909 -0.855586 0.153264 0.494369 
-2.86824 3.38809 2.9909 -0.855586 0.153264 0.494369 
-2.40465 3.81354 3.02507 -0.257668 0.869716 0.420911 
-2.83196 3.73701 2.83637 -0.741813 0.596667 0.306009 
0.242204 3.63394 2.93708 0.47441 0.370891 0.798303 
-0.243802 3.90503 2.60812 0.052431 0.917783 0.393536 
-0.700971 3.52235 3.12928 0.272683 0.451064 0.849788 
-1.95045 3.78562 3.2277 0.022248 0.806085 0.591357 
0.442277 3.82764 2.52686 0.477096 0.67925 0.557604 
0.756929 3.8639 2.2874 -0.039674 -0.219428 0.974792 
0.756929 3.8639 2.2874 -0.039674 -0.219428 0.974792 
0.756929 3.8639 2.2874 -0.039674 -0.219428 0.974792 
-0.243802 3.90503 2.60812 0.052431 0.917783 0.393536 
0.756929 3.8639 2.2874 -0.039674 -0.219428 0.974792 
1.78715 3.93275 2.43786 0.076846 0.943236 0.323099 
2.99026 3.49106 2.68268 0.320841 0.602527 0.730735 
1.78715 3.93275 2.43786 0.076846 0.943236 0.323099 
1.54129 3.68731 2.91517 -0.15128 0.484603 0.861538 
2.81953 3.89504 1.92493 0.172918 0.955351 0.239479 
3.35397 3.48014 2.41355 0.622883 0.60979 0.490005 
-1.57323 3.98407 2.41824 0.006073 0.990661 0.136174 
-2.40465 3.81354 3.02507 -0.257668 0.869716 0.420911 
-2.36216 3.92292 2.59023 -0.218177 0.972411 0.0823391 
-2.83196 3.73701 2.83637 -0.741813 0.596667 0.306009 
-0.507482 3.98091 2.1604 0.004791 0.995819 0.0909151 
0.18035 3.9841 1.95058 0.005737 0.999542 0.0289621 
1.59104 3.984 1.82336 0.031098 0.998779 0.0383011 
3.22294 3.87996 1.6829 0.341868 0.927915 0.148473 
3.67869 3.59399 1.7377 0.821986 0.520249 0.231605 
3.2931 3.72969 0.554858 0.789483 0.613666 0.00851508 
-2.08913 3.97457 1.84981 -0.16071 0.976348 -0.144536 
-2.7816 3.7286 1.82188 -0.758995 0.651051 -0.000365915 
-0.603612 3.98428 1.84989 0.001862 0.999969 0.00439513 
-0.645739 3.98517 1.34866 -0.010437 0.999939 0.00152613 
2.13131 3.98323 0.970007 0.032746 0.999054 0.0282601 
2.60453 3.96049 0.762994 0.085726 0.996246 0.00982713 
-2.78643 3.73558 1.5231 -0.789544 0.613117 0.0262761 
-0.120658 3.98281 1.49083 0.001923 0.999969 -0.000762869 
0.513213 3.98133 0.791678 0 0.999969 -0.000976869 
1.73572 3.98446 1.11775 0.017243 0.999756 0.0127871 
-2.3281 3.95166 1.09821 -0.131718 0.969939 0.204535 
-2.8719 3.75617 1.17629 -0.578692 0.792505 0.192389 
-1.35551 3.98698 1.10763 -0.043062 0.990204 0.132633 
2.01242 3.98164 -0.104812 0.010956 0.999908 0.00378413 
-1.23583 3.98295 0.441228 0.004059 0.999969 -0.00274687 
-1.8077 3.98402 -1.07006 -0.020661 0.999695 -0.0134279 
2.27808 3.98534 -1.02869 0.089816 0.993652 -0.0672629 
3.2663 3.87033 -0.723559 0.478225 0.877224 -0.0419629 
-3.51351 3.81591 -1.33834 -0.712943 0.699973 -0.0411999 
-3.18374 3.9377 -1.31839 -0.233711 0.97177 -0.0316169 
-1.87312 3.9867 0.0635025 -0.021882 0.999725 0.00457813 
3.22294 3.87996 1.6829 0.341868 0.927915 0.148473 
3.2931 3.72969 0.554858 0.789483 0.613666 0.00851508 
3.2663 3.87033 -0.723559 0.478225 0.877224 -0.0419629 
-2.34505 3.90548 -2.31252 0.113254 0.863826 -0.490829 
-2.72649 3.93183 -2.16831 -0.148991 0.958068 -0.244636 
-1.51506 3.98929 -1.29955 -0.016572 0.999481 -0.0270999 
-0.124173 3.98391 -0.850655 -0.000793 0.999969 0.00106813 
1.67758 3.9798 -1.67661 0.037568 0.999237 0.00759913 
2.80663 3.93307 -2.03676 0.249794 0.9682 -0.0137029 
-3.21997 3.70139 -2.33565 -0.682669 0.506882 -0.526292 
-0.847419 3.98387 -1.48172 -0.004242 0.97766 -0.210089 
0.029187 3.98051 -1.21832 -0.011322 0.999878 -0.00836187 
1.06998 4.00578 -1.62578 0.0159 0.999451 0.0289621 
2.02521 3.97222 -2.18731 0.029115 0.997772 -0.0597249 
3.39893 3.74446 -2.66008 0.817316 0.57384 -0.0517589 
2.80663 3.93307 -2.03676 0.249794 0.9682 -0.0137029 
3.18589 3.67032 -2.23081 0.878872 0.422529 0.221381 
-3.54471 3.64556 -1.82659 -0.94644 0.029389 -0.321451 
-0.178743 3.98368 -1.40243 0.002991 0.999817 -0.0177919 
0.357936 3.98145 -1.51058 -0.029817 0.999084 -0.0299389 
0.981225 3.99799 -1.80313 -0.036012 0.991516 -0.124638 
1.5391 3.98206 -2.12661 -0.054415 0.977874 -0.201941 
2.49716 3.86315 -2.98316 -0.019471 0.911344 -0.411115 
2.94399 3.87847 -2.78963 0.246132 0.918485 -0.309488 
3.39893 3.74446 -2.66008 0.817316 0.57384 -0.0517589 
2.57668 3.47845 -3.53553 -0.004364 0.295694 -0.95526 
-2.86716 3.63798 -2.67832 -0.205115 0.220283 -0.953612 
-1.33287 3.72794 -2.10957 0.260903 0.627766 -0.733329 
-2.86716 3.63798 -2.67832 -0.205115 0.220283 -0.953612 
-2.34505 3.90548 -2.31252 0.113254 0.863826 -0.490829 
-1.33287 3.72794 -2.10957 0.260903 0.627766 -0.733329 
-0.753242 3.69295 -1.94649 -0.127323 0.75808 -0.639576 
-0.177126 3.95676 -1.92908 -0.128361 0.965514 -0.226386 
0.864232 3.78656 -2.55514 -0.040681 0.892544 -0.44908 
1.22965 3.50408 -3.00891 -0.188788 0.572314 -0.797998 
-0.338453 3.79183 -2.34872 -0.508225 0.508866 -0.694754 
0.491396 3.49871 -2.89402 -0.517441 0.109684 -0.848628 
-3.21997 3.70139 -2.33565 -0.682669 0.506882 -0.526292 
-2.86716 3.63798 -2.67832 -0.205115 0.220283 -0.953612 
-3.10153 3.54662 -2.48203 -0.663991 -0.442671 -0.602588 
-1.29432 3.59678 -2.15182 0.29075 0.00500513 -0.956755 
-3.10153 3.54662 -2.48203 -0.663991 -0.442671 -0.602588 
-2.78021 3.41501 -2.57172 -0.185308 -0.505112 -0.842891 
-0.701017 3.60433 -2.0093 -0.237953 -0.425001 -0.873348 
-0.753242 3.69295 -1.94649 -0.127323 0.75808 -0.639576 
-0.701017 3.60433 -2.0093 -0.237953 -0.425001 -0.873348 
-0.338453 3.79183 -2.34872 -0.508225 0.508866 -0.694754 
0.491396 3.49871 -2.89402 -0.517441 0.109684 -0.848628 
-0.753242 3.69295 -1.94649 -0.127323 0.75808 -0.639576 
0.491396 3.49871 -2.89402 -0.517441 0.109684 -0.848628 
1.22965 3.50408 -3.00891 -0.188788 0.572314 -0.797998 
1.47883 3.01159 -3.14329 -0.280007 -0.219855 -0.934446 
2.57668 3.47845 -3.53553 -0.004364 0.295694 -0.95526 
0.491396 3.49871 -2.89402 -0.517441 0.109684 -0.848628 
0.403604 3.4501 -2.6315 -0.540452 -0.366985 -0.757103 
-0.701017 3.60433 -2.0093 -0.237953 -0.425001 -0.873348 
-0.556528 3.52743 -1.88554 -0.437544 -0.356914 -0.825312 
-2.62414 3.27256 -2.53131 -0.159978 -0.00390587 -0.987091 
-2.91993 3.20289 -2.26687 -0.732566 0.143162 -0.665456 
-2.78021 3.41501 -2.57172 -0.185308 -0.505112 -0.842891 
-2.62414 3.27256 -2.53131 -0.159978 -0.00390587 -0.987091 
-1.29432 3.59678 -2.15182 0.29075 0.00500513 -0.956755 
-0.556528 3.52743 -1.88554 -0.437544 -0.356914 -0.825312 
-2.62414 3.27256 -2.53131 -0.159978 -0.00390587 -0.987091 
-0.556528 3.52743 -1.88554 -0.437544 -0.356914 -0.825312 
-0.77483 3.34497 -1.78391 -0.074923 0.0354321 -0.996551 
2.84674 3.3562 -3.50352 0.400708 0.0993071 -0.910794 
-0.566201 2.6835 -2.29063 -0.420148 -0.315043 -0.850978 
-2.22655 2.71247 -2.86931 0.095462 -0.0921659 -0.99115 
-0.77483 3.34497 -1.78391 -0.074923 0.0354321 -0.996551 
-2.62414 3.27256 -2.53131 -0.159978 -0.00390587 -0.987091 
-0.556528 3.52743 -1.88554 -0.437544 -0.356914 -0.825312 
-0.573359 3.02242 -2.35199 -0.727805 0.18067 -0.661519 
-0.77483 3.34497 -1.78391 -0.074923 0.0354321 -0.996551 
-0.566201 2.6835 -2.29063 -0.420148 -0.315043 -0.850978 
0.051749 3.34173 -2.55084 -0.389325 0.489914 -0.779962 
0.403604 3.4501 -2.6315 -0.540452 -0.366985 -0.757103 
0.051749 3.34173 -2.55084 -0.389325 0.489914 -0.779962 
-0.556528 3.52743 -1.88554 -0.437544 -0.356914 -0.825312 
0.491396 3.49871 -2.89402 -0.517441 0.109684 -0.848628 
0.834213 3.12955 -2.94938 -0.439924 -0.38081 -0.813257 
0.403604 3.4501 -2.6315 -0.540452 -0.366985 -0.757103 
0.834213 3.12955 -2.94938 -0.439924 -0.38081 -0.813257 
0.051749 3.34173 -2.55084 -0.389325 0.489914 -0.779962 
0.403604 3.4501 -2.6315 -0.540452 -0.366985 -0.757103 
0.834213 3.12955 -2.94938 -0.439924 -0.38081 -0.813257 
2.64269 2.8893 -3.36551 0.098056 -0.0607319 -0.993316 
1.32767 2.75509 -2.9682 -0.307077 -0.135563 -0.941954 
-2.22655 2.71247 -2.86931 0.095462 -0.0921659 -0.99115 
-2.91993 3.20289 -2.26687 -0.732566 0.143162 -0.665456 
-2.62414 3.27256 -2.53131 -0.159978 -0.00390587 -0.987091 
0.051749 3.34173 -2.55084 -0.389325 0.489914 -0.779962 
0.834213 3.12955 -2.94938 -0.439924 -0.38081 -0.813257 
1.32767 2.75509 -2.9682 -0.307077 -0.135563 -0.941954 
-2.91993 3.20289 -2.26687 -0.732566 0.143162 -0.665456 
-3.14101 2.67703 -2.64303 -0.571123 0.105075 -0.814081 
-3.58927 2.78732 -1.72822 -0.892941 0.168157 -0.417554 
-2.22655 2.71247 -2.86931 0.095462 -0.0921659 -0.99115 
-3.14101 2.67703 -2.64303 -0.571123 0.105075 -0.814081 
-2.91993 3.20289 -2.26687 -0.732566 0.143162 -0.665456 
0.289071 2.37602 -2.84824 -0.450484 0.0558491 -0.891018 
0.289071 2.37602 -2.84824 -0.450484 0.0558491 -0.891018 
1.75714 2.34121 -3.13244 -0.292611 0.116428 -0.949095 
1.23128 2.18495 -3.12946 -0.176794 0.245125 -0.953215 
-0.573359 3.02242 -2.35199 -0.727805 0.18067 -0.661519 
0.051749 3.34173 -2.55084 -0.389325 0.489914 -0.779962 
2.64104 2.09073 -3.49998 -0.020936 0.0824921 -0.996368 
-3.16467 2.40125 -2.48311 -0.530137 -0.603198 -0.595874 
-0.863251 2.15654 -1.48946 -0.085818 -0.0387889 -0.995544 
-2.01782 2.33156 -2.30468 0.199194 -0.703452 -0.682241 
-0.566201 2.6835 -2.29063 -0.420148 -0.315043 -0.850978 
-2.22655 2.71247 -2.86931 0.095462 -0.0921659 -0.99115 
-0.21778 2.2212 -2.23189 -0.717643 -0.194678 -0.668599 
-0.863251 2.15654 -1.48946 -0.085818 -0.0387889 -0.995544 
-0.006281 1.68257 -2.61356 -0.686239 0.226356 -0.691214 
-2.69065 2.1836 -2.22469 -0.160161 -0.665181 -0.72927 
-3.16467 2.40125 -2.48311 -0.530137 -0.603198 -0.595874 
-3.16802 2.12012 -1.78198 -0.760002 -0.341319 -0.553026 
-2.06702 2.0443 -2.14335 0.158818 0.0233771 -0.986999 
-2.66436 1.97469 -2.15355 -0.328257 0.274056 -0.903928 
-2.69065 2.1836 -2.22469 -0.160161 -0.665181 -0.72927 
-0.863251 2.15654 -1.48946 -0.085818 -0.0387889 -0.995544 
-2.01782 2.33156 -2.30468 0.199194 -0.703452 -0.682241 
1.56954 1.78309 -3.20798 -0.213385 0.0387591 -0.976196 
-1.30316 1.61773 -2.36777 0.111667 0.49028 -0.864376 
-2.26506 1.48145 -2.723 0.121769 0.43553 -0.891873 
-2.66436 1.97469 -2.15355 -0.328257 0.274056 -0.903928 
-1.30316 1.61773 -2.36777 0.111667 0.49028 -0.864376 
-0.863251 2.15654 -1.48946 -0.085818 -0.0387889 -0.995544 
-1.30316 1.61773 -2.36777 0.111667 0.49028 -0.864376 
-2.06702 2.0443 -2.14335 0.158818 0.0233771 -0.986999 
0.384993 1.92521 -2.91481 -0.455214 0.0662251 -0.887906 
0.384993 1.92521 -2.91481 -0.455214 0.0662251 -0.887906 
0.077716 1.22845 -2.83975 -0.342448 0.0925321 -0.934935 
0.077716 1.22845 -2.83975 -0.342448 0.0925321 -0.934935 
1.30305 1.0076 -3.13329 -0.223548 -0.302286 -0.926603 
2.33858 1.05764 -3.33024 -0.240944 -0.103488 -0.964995 
2.81266 1.22934 -3.55114 0.235145 -0.184759 -0.954222 
3.09785 1.94402 -3.34468 0.662099 0.0252081 -0.748955 
2.94648 2.32867 -3.38931 0.49086 0.168004 -0.854854 
-3.10367 1.42649 -2.59081 -0.456679 0.478683 -0.74984 
-0.485901 1.74421 -2.11999 -0.314341 0.683126 -0.659139 
-0.485901 1.74421 -2.11999 -0.314341 0.683126 -0.659139 
0.077716 1.22845 -2.83975 -0.342448 0.0925321 -0.934935 
-0.734985 0.938789 -2.59885 -0.484481 -0.535112 -0.692007 
-1.30316 1.61773 -2.36777 0.111667 0.49028 -0.864376 
-3.10367 1.42649 -2.59081 -0.456679 0.478683 -0.74984 
-2.48402 1.11057 -2.80709 -0.008148 -0.114628 -0.993347 
-3.14101 1.10628 -2.64303 -0.575732 -0.25132 -0.778039 
-2.26506 1.48145 -2.723 0.121769 0.43553 -0.891873 
-0.885358 0.921777 -2.20112 -0.195654 -0.414136 -0.888913 
-0.734985 0.938789 -2.59885 -0.484481 -0.535112 -0.692007 
-0.885358 0.921777 -2.20112 -0.195654 -0.414136 -0.888913 
-1.30316 1.61773 -2.36777 0.111667 0.49028 -0.864376 
-2.84874 0.798642 -2.55044 -0.347636 -0.737449 -0.579028 
-2.36944 0.801614 -2.65657 -0.016327 -0.524918 -0.850978 
-2.39394 0.565034 -2.29818 -0.679617 0.0280161 -0.732994 
-2.39394 0.565034 -2.29818 -0.679617 0.0280161 -0.732994 
-2.36944 0.801614 -2.65657 -0.016327 -0.524918 -0.850978 
-2.18947 0.493095 -2.5182 -0.132115 0.493515 -0.859615 
-2.36944 0.801614 -2.65657 -0.016327 -0.524918 -0.850978 
-2.84874 0.798642 -2.55044 -0.347636 -0.737449 -0.579028 
-0.780907 0.589858 -2.16797 -0.04181 0.374218 -0.926389 
-2.18947 0.493095 -2.5182 -0.132115 0.493515 -0.859615 
1.38711 0.565114 -2.84657 -0.281838 0.148381 -0.947905 
0.089687 0.594912 -2.46336 -0.2978 -0.27253 -0.914884 
1.30305 1.0076 -3.13329 -0.223548 -0.302286 -0.926603 
0.089687 0.594912 -2.46336 -0.2978 -0.27253 -0.914884 
-0.734985 0.938789 -2.59885 -0.484481 -0.535112 -0.692007 
2.77927 0.875583 -3.39693 0.265206 -0.697317 -0.665883 
2.44059 0.71515 -2.88558 0.478286 -0.226997 -0.848323 
1.38711 0.565114 -2.84657 -0.281838 0.148381 -0.947905 
2.77927 0.875583 -3.39693 0.265206 -0.697317 -0.665883 
-0.885358 0.921777 -2.20112 -0.195654 -0.414136 -0.888913 
0.477283 0.466476 -2.62011 -0.217902 0.658711 -0.720115 
0.477283 0.466476 -2.62011 -0.217902 0.658711 -0.720115 
1.38711 0.565114 -2.84657 -0.281838 0.148381 -0.947905 
2.2542 0.41971 -3.36744 -0.038575 0.507279 -0.860897 
2.99041 0.443186 -3.32985 0.406293 0.446333 -0.797296 
2.44059 0.71515 -2.88558 0.478286 -0.226997 -0.848323 
-0.780907 0.589858 -2.16797 -0.04181 0.374218 -0.926389 
-2.06378 0.3253 -2.84997 0.363903 0.177435 -0.914335 
-2.18947 0.493095 -2.5182 -0.132115 0.493515 -0.859615 
-2.27596 0.329306 -2.88332 -0.081393 0.471786 -0.877926 
-3.1295 0.291375 -2.55149 -0.546617 0.556291 -0.625874 
-0.618999 0.27893 -2.6534 -0.062471 0.358409 -0.931455 
0.756766 0.314205 -3.03453 -0.24189 0.447188 -0.86108 
0.691107 0.0875314 -2.98229 -0.16242 -0.729698 -0.664174 
-0.618999 0.27893 -2.6534 -0.062471 0.358409 -0.931455 
0.756766 0.314205 -3.03453 -0.24189 0.447188 -0.86108 
2.2542 0.41971 -3.36744 -0.038575 0.507279 -0.860897 
2.15651 0.143103 -3.33275 -0.065737 -0.633503 -0.770928 
3.04541 0.106114 -3.23229 0.427839 -0.667531 -0.609333 
-3.37791 0.0236013 -2.09327 -0.602588 -0.745811 -0.283944 
-3.18439 0.0727173 -2.53261 -0.571093 -0.543779 -0.614887 
-2.32082 0.0840974 -2.85302 0.057222 -0.666311 -0.743431 
-3.1295 0.291375 -2.55149 -0.546617 0.556291 -0.625874 
-2.27596 0.329306 -2.88332 -0.081393 0.471786 -0.877926 
-3.18439 0.0727173 -2.53261 -0.571093 -0.543779 -0.614887 
-2.32082 0.0840974 -2.85302 0.057222 -0.666311 -0.743431 
-2.06378 0.3253 -2.84997 0.363903 0.177435 -0.914335 
-0.586692 0.0653283 -2.58406 -0.102725 -0.816126 -0.568621 
-2.06378 0.3253 -2.84997 0.363903 0.177435 -0.914335 
0.691107 0.0875314 -2.98229 -0.16242 -0.729698 -0.664174 
2.15651 0.143103 -3.33275 -0.065737 -0.633503 -0.770928 
2.74523 0.0801014 -3.04089 0.019227 -0.997131 -0.0728481 
3.04541 0.106114 -3.23229 0.427839 -0.667531 -0.609333 
-0.586692 0.0653283 -2.58406 -0.102725 -0.816126 -0.568621 
-0.625811 0.0152613 -2.22902 -0.080782 -0.996124 -0.0346391 
-0.065973 0.00724024 -1.80016 0.011353 -0.999878 -0.00857613 
-1.59404 0.0134082 -1.73185 0.027375 -0.993805 -0.107578 
-2.52145 0.0096803 -2.29254 -0.000244 -0.99646 -0.0838951 
-2.06378 0.3253 -2.84997 0.363903 0.177435 -0.914335 
3.34889 0.115511 -2.46515 0.688375 -0.71569 0.117801 
-0.663014 0.002444 -0.032022 -0.000671 -0.999969 0.00649987 
-1.45317 0.111679 -2.13625 -0.07123 -0.97644 -0.203528 
1.94179 0.0993952 -1.61679 0.013215 -0.999329 -0.0341201 
3.30676 0.217561 -2.211 0.863704 -0.447707 -0.231391 
3.3762 0.0318722 -1.42494 0.268532 -0.960295 -0.0752591 
-3.85158 0.0851291 -0.663245 -0.992248 -0.106998 0.062807 
-3.64531 0.0361689 0.521644 -0.87051 -0.292459 0.395795 
-3.46111 0.00392098 0.118276 -0.094607 -0.995392 0.0146489 
-1.33659 0.0377939 0.819526 -0.026307 -0.992645 0.117954 
0.143884 0.0105798 1.14929 -0.032228 -0.999451 0.00726287 
-1.02538 0.173976 1.5808 -0.077334 -0.996979 0.00451687 
-0.513203 0.0091887 2.30543 -0.045991 -0.99762 -0.0509661 
2.0451 0.00530393 0.551101 0.005921 -0.999969 -0.00302113 
3.82557 0.0974828 1.22298 0.84872 -0.519944 0.0963159 
3.71677 0.0236009 1.08723 0.347056 -0.937742 -0.0127571 
-2.90057 0.364716 1.64981 -0.826777 -0.558123 -0.0701321 
-1.99875 0.176746 1.36729 -0.070193 -0.989837 0.123417 
-2.29865 0.179865 1.93348 -0.08948 -0.970397 -0.224189 
0.214756 -2.5155e-07 1.91827 0.017518 -0.998352 0.0542619 
1.50654 0.0111227 2.37338 -0.05533 -0.994201 0.0921659 
3.221 0.0236017 2.62989 0.497452 -0.677084 0.542283 
-3.04751 0.118364 2.20633 -0.639088 -0.693136 -0.333354 
-3.05873 0.0392877 2.50531 -0.666646 -0.742637 0.0634779 
-2.80635 0.0236006 3.01276 -0.492721 -0.693045 0.52617 
-1.45827 0.0249136 3.34659 0.149022 -0.573595 0.805444 
0.625947 0.146375 2.39824 0.039277 -0.954253 0.296396 
0.287998 0.0956896 2.7919 0.354564 -0.658284 0.664022 
0.68702 0.256441 2.62343 -0.063478 -0.371471 0.926237 
1.73762 0.108974 3.16872 -0.217414 -0.378613 0.899625 
2.44492 0.0249146 2.9431 0.19303 -0.799036 0.569414 
-1.45827 0.0249136 3.34659 0.149022 -0.573595 0.805444 
3.41459 0.354299 -2.75625 0.938932 0.28898 -0.18659 
3.82557 0.0974828 1.22298 0.84872 -0.519944 0.0963159 
3.3762 0.0318722 -1.42494 0.268532 -0.960295 -0.0752591 
3.49795 0.141476 -0.934748 0.961394 0.271432 -0.044801 
3.49795 0.141476 -0.934748 0.961394 0.271432 -0.044801 
3.66874 0.211178 -2.01763 0.904447 -0.090121 -0.416883 
3.85159 0.346274 1.21427 0.999878 0.013611 0.000641002 
2.62699 0.762691 -2.19076 0.990905 -0.031831 -0.130589 
3.41459 0.354299 -2.75625 0.938932 0.28898 -0.18659 
2.99041 0.443186 -3.32985 0.406293 0.446333 -0.797296 
3.41459 0.354299 -2.75625 0.938932 0.28898 -0.18659 
3.34889 0.115511 -2.46515 0.688375 -0.71569 0.117801 
3.41459 0.354299 -2.75625 0.938932 0.28898 -0.18659 
3.30676 0.217561 -2.211 0.863704 -0.447707 -0.231391 
3.30676 0.217561 -2.211 0.863704 -0.447707 -0.231391 
3.66874 0.211178 -2.01763 0.904447 -0.090121 -0.416883 
3.30676 0.217561 -2.211 0.863704 -0.447707 -0.231391 
2.62699 0.762691 -2.19076 0.990905 -0.031831 -0.130589 
2.83476 0.500386 -0.272248 0.978637 -0.041688 -0.201178 
3.66874 0.211178 -2.01763 0.904447 -0.090121 -0.416883 
2.8976 0.562937 -1.63975 0.8905 0.420545 -0.173528 
2.62699 0.762691 -2.19076 0.990905 -0.031831 -0.130589 
3.85159 0.346274 1.21427 0.999878 0.013611 0.000641002 
3.49795 0.141476 -0.934748 0.961394 0.271432 -0.044801 
3.56082 0.386564 2.18421 0.900113 -0.132145 0.415082 
3.85159 0.346274 1.21427 0.999878 0.013611 0.000641002 
2.83476 0.500386 -0.272248 0.978637 -0.041688 -0.201178 
3.80792 0.744631 0.8744 0.926847 0.264412 -0.266457 
2.9386 0.724135 -1.68882 0.707755 -0.616962 -0.344066 
2.8976 0.562937 -1.63975 0.8905 0.420545 -0.173528 
2.62699 0.762691 -2.19076 0.990905 -0.031831 -0.130589 
3.80792 0.744631 0.8744 0.926847 0.264412 -0.266457 
3.80792 0.744631 0.8744 0.926847 0.264412 -0.266457 
2.83476 0.500386 -0.272248 0.978637 -0.041688 -0.201178 
2.8976 0.562937 -1.63975 0.8905 0.420545 -0.173528 
3.80792 0.744631 0.8744 0.926847 0.264412 -0.266457 
3.72737 0.680716 1.73642 0.905423 0.34315 0.249763 
3.39594 1.0625 -2.77853 0.866024 -0.494339 -0.0747701 
3.11767 0.914616 -2.49508 0.591479 -0.741691 0.316202 
2.62699 0.762691 -2.19076 0.990905 -0.031831 -0.130589 
3.11767 0.914616 -2.49508 0.591479 -0.741691 0.316202 
2.93972 1.05366 -2.21328 0.629566 -0.775658 -0.0444651 
3.18488 1.38056 -2.31718 0.968688 -0.233497 0.083956 
2.62699 0.762691 -2.19076 0.990905 -0.031831 -0.130589 
3.39594 1.0625 -2.77853 0.866024 -0.494339 -0.0747701 
3.35401 1.0083 -2.06274 0.730613 -0.507065 -0.457198 
2.93972 1.05366 -2.21328 0.629566 -0.775658 -0.0444651 
3.18488 1.38056 -2.31718 0.968688 -0.233497 0.083956 
3.35401 1.0083 -2.06274 0.730613 -0.507065 -0.457198 
2.9386 0.724135 -1.68882 0.707755 -0.616962 -0.344066 
2.93972 1.05366 -2.21328 0.629566 -0.775658 -0.0444651 
2.62699 0.762691 -2.19076 0.990905 -0.031831 -0.130589 
3.11423 0.9317 -0.255156 0.981017 -0.119755 -0.152348 
3.80792 0.744631 0.8744 0.926847 0.264412 -0.266457 
2.9386 0.724135 -1.68882 0.707755 -0.616962 -0.344066 
3.41842 1.04978 0.800925 0.992645 0.120792 -0.00714098 
3.24985 1.10628 2.00513 0.899564 0.170354 0.402112 
3.24985 1.10628 2.00513 0.899564 0.170354 0.402112 
3.72737 0.680716 1.73642 0.905423 0.34315 0.249763 
3.41453 0.992638 -1.0721 0.940336 -0.34019 -0.00372304 
3.11423 0.9317 -0.255156 0.981017 -0.119755 -0.152348 
3.52476 1.12708 0.444135 0.941557 -0.318613 -0.109012 
3.41842 1.04978 0.800925 0.992645 0.120792 -0.00714098 
3.52476 1.12708 0.444135 0.941557 -0.318613 -0.109012 
3.24985 1.10628 2.00513 0.899564 0.170354 0.402112 
3.41842 1.04978 0.800925 0.992645 0.120792 -0.00714098 
2.919 1.22934 2.59841 0.584826 -0.254372 0.770196 
3.05864 0.706379 2.77906 0.530198 0.343913 0.774957 
3.38679 0.690686 2.48169 0.772301 0.287454 0.566454 
2.33256 1.10628 2.86683 0.067476 0.0362249 0.99704 
3.51267 1.81871 -2.68059 0.989532 -0.135685 -0.048708 
3.37132 2.74868 -1.93883 0.976867 0.193884 -0.089969 
3.5583 2.41399 -1.01631 0.995727 0.047151 -0.079257 
3.5583 2.41399 -1.01631 0.995727 0.047151 -0.079257 
3.2129 1.46956 -0.364725 0.995544 0.045076 -0.082736 
3.41453 0.992638 -1.0721 0.940336 -0.34019 -0.00372304 
3.35401 1.0083 -2.06274 0.730613 -0.507065 -0.457198 
3.52476 1.12708 0.444135 0.941557 -0.318613 -0.109012 
3.52476 1.12708 0.444135 0.941557 -0.318613 -0.109012 
3.63998 1.35239 1.53585 0.809229 -0.578143 0.10416 
3.24985 1.10628 2.00513 0.899564 0.170354 0.402112 
3.63998 1.35239 1.53585 0.809229 -0.578143 0.10416 
3.63998 1.35239 1.53585 0.809229 -0.578143 0.10416 
3.63998 1.35239 1.53585 0.809229 -0.578143 0.10416 
3.36021 1.54928 2.5332 0.753746 -0.371258 0.542192 
2.919 1.22934 2.59841 0.584826 -0.254372 0.770196 
3.83599 2.33901 1.3227 0.995972 0.061159 0.065432 
3.83599 2.33901 1.3227 0.995972 0.061159 0.065432 
3.83499 1.72156 1.5111 0.975677 -0.206732 0.072817 
3.2129 1.46956 -0.364725 0.995544 0.045076 -0.082736 
3.83499 1.72156 1.5111 0.975677 -0.206732 0.072817 
3.83599 2.33901 1.3227 0.995972 0.061159 0.065432 
3.39594 1.0625 -2.77853 0.866024 -0.494339 -0.0747701 
3.51267 1.81871 -2.68059 0.989532 -0.135685 -0.048708 
3.4874 2.3843 -2.75179 0.950133 0.159642 -0.26783 
3.4874 2.3843 -2.75179 0.950133 0.159642 -0.26783 
3.63998 1.35239 1.53585 0.809229 -0.578143 0.10416 
3.2129 1.46956 -0.364725 0.995544 0.045076 -0.082736 
3.83499 1.72156 1.5111 0.975677 -0.206732 0.072817 
3.23391 2.92371 -2.9576 0.873562 -0.0158999 -0.486404 
3.32058 3.15741 -0.305129 0.987915 -0.019288 -0.1536 
3.61399 2.70422 1.66727 0.940092 0.113254 0.321482 
3.75978 3.2299 0.911943 0.988372 -0.038667 -0.147008 
3.32058 3.15741 -0.305129 0.987915 -0.019288 -0.1536 
3.75978 3.2299 0.911943 0.988372 -0.038667 -0.147008 
3.83599 2.33901 1.3227 0.995972 0.061159 0.065432 
3.23391 2.92371 -2.9576 0.873562 -0.0158999 -0.486404 
3.1596 3.15627 -2.04046 0.98761 0.130863 -0.086398 
3.39918 3.28293 -1.27294 0.996673 0.00143401 -0.081118 
3.37132 2.74868 -1.93883 0.976867 0.193884 -0.089969 
3.39918 3.28293 -1.27294 0.996673 0.00143401 -0.081118 
3.51695 3.00988 2.09508 0.926664 -0.120182 0.35612 
3.1596 3.15627 -2.04046 0.98761 0.130863 -0.086398 
3.46489 3.34517 -2.80024 0.981323 -0.070009 -0.179052 
3.46489 3.34517 -2.80024 0.981323 -0.070009 -0.179052 
3.18589 3.67032 -2.23081 0.878872 0.422529 0.221381 
3.44512 3.68332 -0.620428 0.945067 0.323008 -0.049959 
3.44512 3.68332 -0.620428 0.945067 0.323008 -0.049959 
3.51695 3.00988 2.09508 0.926664 -0.120182 0.35612 
3.75978 3.2299 0.911943 0.988372 -0.038667 -0.147008 
3.82376 3.33927 1.33433 0.999268 0.03412 0.017121 
3.82376 3.33927 1.33433 0.999268 0.03412 0.017121 
3.75978 3.2299 0.911943 0.988372 -0.038667 -0.147008 
3.44512 3.68332 -0.620428 0.945067 0.323008 -0.049959 
3.82376 3.33927 1.33433 0.999268 0.03412 0.017121 
3.44512 3.68332 -0.620428 0.945067 0.323008 -0.049959 
3.39893 3.74446 -2.66008 0.817316 0.57384 -0.0517589 
2.84674 3.3562 -3.50352 0.400708 0.0993071 -0.910794 
3.82376 3.33927 1.33433 0.999268 0.03412 0.017121 
3.18589 3.67032 -2.23081 0.878872 0.422529 0.221381 
-3.85158 0.0851291 -0.663245 -0.992248 -0.106998 0.062807 
-3.63866 0.258394 -1.59245 -0.87463 0.431135 -0.221656 
-3.37791 0.0236013 -2.09327 -0.602588 -0.745811 -0.283944 
-3.1295 0.291375 -2.55149 -0.546617 0.556291 -0.625874 
-3.18439 0.0727173 -2.53261 -0.571093 -0.543779 -0.614887 
-3.63866 0.258394 -1.59245 -0.87463 0.431135 -0.221656 
-3.85158 0.0851291 -0.663245 -0.992248 -0.106998 0.062807 
-2.98089 0.385853 -0.360537 -0.554521 0.814081 -0.172399 
-2.39394 0.565034 -2.29818 -0.679617 0.0280161 -0.732994 
-3.64531 0.0361689 0.521644 -0.87051 -0.292459 0.395795 
-3.16284 0.289938 1.04587 -0.843715 -0.276742 0.459883 
-2.996 0.829406 -0.162604 -0.988525 -0.015442 -0.150212 
-2.98089 0.385853 -0.360537 -0.554521 0.814081 -0.172399 
-3.16284 0.289938 1.04587 -0.843715 -0.276742 0.459883 
-3.00879 0.741807 1.21649 -0.831233 0.501083 0.240699 
-3.16284 0.289938 1.04587 -0.843715 -0.276742 0.459883 
-3.16284 0.289938 1.04587 -0.843715 -0.276742 0.459883 
-2.87983 0.622619 1.5113 -0.889584 0.361003 0.279794 
-3.00879 0.741807 1.21649 -0.831233 0.501083 0.240699 
-2.90057 0.364716 1.64981 -0.826777 -0.558123 -0.0701321 
-3.17271 0.528782 2.44027 -0.972655 0.225196 0.05652 
-2.90057 0.364716 1.64981 -0.826777 -0.558123 -0.0701321 
-3.04751 0.118364 2.20633 -0.639088 -0.693136 -0.333354 
-2.81795 0.765784 1.829 -0.829157 0.530351 -0.176519 
-2.87983 0.622619 1.5113 -0.889584 0.361003 0.279794 
-2.86838 0.552529 -1.31029 -0.98999 0.085177 0.112491 
-2.56385 0.55253 -0.435541 -0.952116 0.174596 -0.250954 
-2.98155 0.925771 -0.515818 -0.689108 -0.69277 0.212439 
-3.58862 0.850786 -1.44369 -0.648976 -0.760369 -0.0247201 
-2.86838 0.552529 -1.31029 -0.98999 0.085177 0.112491 
-2.56385 0.55253 -0.435541 -0.952116 0.174596 -0.250954 
-2.56385 0.55253 -0.435541 -0.952116 0.174596 -0.250954 
-2.98089 0.385853 -0.360537 -0.554521 0.814081 -0.172399 
-2.996 0.829406 -0.162604 -0.988525 -0.015442 -0.150212 
-2.996 0.829406 -0.162604 -0.988525 -0.015442 -0.150212 
-3.05873 0.0392877 2.50531 -0.666646 -0.742637 0.0634779 
-3.17271 0.528782 2.44027 -0.972655 0.225196 0.05652 
-3.05873 0.0392877 2.50531 -0.666646 -0.742637 0.0634779 
-3.14101 1.10628 -2.64303 -0.575732 -0.25132 -0.778039 
-3.41527 1.10628 -2.21196 -0.831507 -0.336039 -0.442305 
-2.996 0.829406 -0.162604 -0.988525 -0.015442 -0.150212 
-3.00879 0.741807 1.21649 -0.831233 0.501083 0.240699 
-2.71351 0.929585 0.850211 -0.62981 0.776513 0.0179751 
-2.57419 1.14438 1.33934 -0.980804 0.178228 0.078921 
-2.49054 1.14574 1.77891 -0.996612 0.00277701 -0.081942 
-2.57419 1.14438 1.33934 -0.980804 0.178228 0.078921 
-2.69191 1.11083 2.63614 -0.958617 0.012574 0.28431 
-2.69191 1.11083 2.63614 -0.958617 0.012574 0.28431 
-2.89464 0.503413 3.01382 -0.745079 0.15363 0.648976 
-2.67735 0.668244 3.14987 -0.586016 0.361919 0.724937 
-2.32841 1.09517 2.98065 -0.553331 0.0364089 0.832148 
-3.58862 0.850786 -1.44369 -0.648976 -0.760369 -0.0247201 
-3.79126 1.10628 -1.27334 -0.945555 -0.309122 0.101566 
-3.41527 1.10628 -2.21196 -0.831507 -0.336039 -0.442305 
-3.33846 1.45836 -2.31623 -0.708457 0.513993 -0.483566 
-3.79126 1.10628 -1.27334 -0.945555 -0.309122 0.101566 
-2.996 0.829406 -0.162604 -0.988525 -0.015442 -0.150212 
-2.98654 1.16781 -0.132508 -0.842067 -0.381878 0.38084 
-2.98155 0.925771 -0.515818 -0.689108 -0.69277 0.212439 
-2.71351 0.929585 0.850211 -0.62981 0.776513 0.0179751 
-2.54729 1.0832 0.580612 -0.929838 0.186224 0.317301 
-2.98654 1.16781 -0.132508 -0.842067 -0.381878 0.38084 
-2.71351 0.929585 0.850211 -0.62981 0.776513 0.0179751 
-2.54729 1.0832 0.580612 -0.929838 0.186224 0.317301 
-2.71351 0.929585 0.850211 -0.62981 0.776513 0.0179751 
-2.57419 1.14438 1.33934 -0.980804 0.178228 0.078921 
-3.10367 1.42649 -2.59081 -0.456679 0.478683 -0.74984 
-3.14101 1.10628 -2.64303 -0.575732 -0.25132 -0.778039 
-2.54729 1.0832 0.580612 -0.929838 0.186224 0.317301 
-2.97614 1.43183 0.248268 -0.702445 -0.66213 0.260994 
-2.98654 1.16781 -0.132508 -0.842067 -0.381878 0.38084 
-2.97614 1.43183 0.248268 -0.702445 -0.66213 0.260994 
-2.54729 1.0832 0.580612 -0.929838 0.186224 0.317301 
-2.65027 1.40756 1.63718 -0.872707 -0.468398 -0.137608 
-2.65027 1.40756 1.63718 -0.872707 -0.468398 -0.137608 
-2.79842 1.49227 1.78349 -0.892697 -0.365123 -0.264046 
-3.75314 1.45836 -1.22276 -0.966643 0.254372 -0.029237 
-3.79126 1.10628 -1.27334 -0.945555 -0.309122 0.101566 
-2.97614 1.43183 0.248268 -0.702445 -0.66213 0.260994 
-3.75314 1.45836 -1.22276 -0.966643 0.254372 -0.029237 
-2.98654 1.16781 -0.132508 -0.842067 -0.381878 0.38084 
-2.97614 1.43183 0.248268 -0.702445 -0.66213 0.260994 
-2.88687 1.46753 1.2235 -0.831294 -0.375134 0.410108 
-2.91196 1.48298 2.8654 -0.879574 -0.0683001 0.470779 
-3.37638 1.69159 -1.73045 -0.74218 0.549516 -0.383557 
-2.66436 1.97469 -2.15355 -0.328257 0.274056 -0.903928 
-3.37638 1.69159 -1.73045 -0.74218 0.549516 -0.383557 
-3.16802 2.12012 -1.78198 -0.760002 -0.341319 -0.553026 
-3.33846 1.45836 -2.31623 -0.708457 0.513993 -0.483566 
-3.68395 1.95798 -0.349251 -0.966277 -0.042787 0.253822 
-3.68395 1.95798 -0.349251 -0.966277 -0.042787 0.253822 
-3.68395 1.95798 -0.349251 -0.966277 -0.042787 0.253822 
-3.68395 1.95798 -0.349251 -0.966277 -0.042787 0.253822 
-2.88687 1.46753 1.2235 -0.831294 -0.375134 0.410108 
-2.63864 1.92119 1.19988 -0.931608 0.265481 0.248146 
-2.63864 1.92119 1.19988 -0.931608 0.265481 0.248146 
-2.65027 1.40756 1.63718 -0.872707 -0.468398 -0.137608 
-2.54111 2.16752 1.30222 -0.996643 -0.024781 0.0777 
-2.93431 2.10812 2.0713 -0.994415 -0.105075 -0.00848401 
-2.81109 2.011 2.41361 -0.851436 0.34376 0.396039 
-2.69065 2.1836 -2.22469 -0.160161 -0.665181 -0.72927 
-2.54111 2.16752 1.30222 -0.996643 -0.024781 0.0777 
-2.93431 2.10812 2.0713 -0.994415 -0.105075 -0.00848401 
-2.93431 2.10812 2.0713 -0.994415 -0.105075 -0.00848401 
-2.9353 2.48092 1.07208 -0.839564 -0.295938 0.455489 
-3.69898 2.45464 -1.32468 -0.937346 -0.314219 -0.150334 
-3.16467 2.40125 -2.48311 -0.530137 -0.603198 -0.595874 
-2.9353 2.48092 1.07208 -0.839564 -0.295938 0.455489 
-2.83798 2.99654 1.63544 -0.999695 -0.02179 -0.011139 
-2.83798 2.99654 1.63544 -0.999695 -0.02179 -0.011139 
-3.74623 2.94731 -1.1761 -0.965575 0.259621 -0.014527 
-2.95276 3.03388 1.21262 -0.933226 0.180822 0.310373 
-2.87068 2.33114 2.9334 -0.731773 -0.53856 0.417615 
-2.87222 3.26557 1.75762 -0.991729 0.046937 -0.119175 
-3.22973 3.29906 -1.82677 -0.846126 -0.0370489 -0.531663 
-3.57573 3.19159 -0.857243 -0.988098 0.138585 0.066561 
-3.07704 3.4372 0.494706 -0.867733 0.329875 0.371685 
-3.07704 3.4372 0.494706 -0.867733 0.329875 0.371685 
-2.95276 3.03388 1.21262 -0.933226 0.180822 0.310373 
-2.6933 3.51935 1.17053 -0.961333 -0.167058 0.218909 
-3.74623 2.94731 -1.1761 -0.965575 0.259621 -0.014527 
-3.57573 3.19159 -0.857243 -0.988098 0.138585 0.066561 
-3.22973 3.29906 -1.82677 -0.846126 -0.0370489 -0.531663 
-2.6933 3.51935 1.17053 -0.961333 -0.167058 0.218909 
-2.86824 3.38809 2.9909 -0.855586 0.153264 0.494369 
-2.83196 3.73701 2.83637 -0.741813 0.596667 0.306009 
-2.7816 3.7286 1.82188 -0.758995 0.651051 -0.000365915 
-3.42491 3.50766 -1.72309 -0.758934 -0.602283 -0.247444 
-2.78021 3.41501 -2.57172 -0.185308 -0.505112 -0.842891 
-3.10153 3.54662 -2.48203 -0.663991 -0.442671 -0.602588 
-2.78021 3.41501 -2.57172 -0.185308 -0.505112 -0.842891 
-3.42491 3.50766 -1.72309 -0.758934 -0.602283 -0.247444 
-3.07704 3.4372 0.494706 -0.867733 0.329875 0.371685 
-3.62461 3.41045 -0.574005 -0.958953 -0.108249 0.262001 
-3.57573 3.19159 -0.857243 -0.988098 0.138585 0.066561 
-3.56753 3.64764 -0.688951 -0.861599 0.493698 0.117618 
-3.62461 3.41045 -0.574005 -0.958953 -0.108249 0.262001 
-2.89824 3.68777 1.24389 -0.914396 -0.191137 0.356761 
-3.56753 3.64764 -0.688951 -0.861599 0.493698 0.117618 
-2.6933 3.51935 1.17053 -0.961333 -0.167058 0.218909 
-3.62461 3.41045 -0.574005 -0.958953 -0.108249 0.262001 
-3.56753 3.64764 -0.688951 -0.861599 0.493698 0.117618 
-2.78643 3.73558 1.5231 -0.789544 0.613117 0.0262761 
-2.78643 3.73558 1.5231 -0.789544 0.613117 0.0262761 
-3.54471 3.64556 -1.82659 -0.94644 0.029389 -0.321451 
-3.54471 3.64556 -1.82659 -0.94644 0.029389 -0.321451 
-3.54471 3.64556 -1.82659 -0.94644 0.029389 -0.321451 
-3.51351 3.81591 -1.33834 -0.712943 0.699973 -0.0411999 
-2.89824 3.68777 1.24389 -0.914396 -0.191137 0.356761 
-2.8719 3.75617 1.17629 -0.578692 0.792505 0.192389 
-3.56753 3.64764 -0.688951 -0.861599 0.493698 0.117618 
-3.56753 3.64764 -0.688951 -0.861599 0.493698 0.117618 
-2.78643 3.73558 1.5231 -0.789544 0.613117 0.0262761 
3 0 1 2 
3 1 3 2 
3 3 4 2 
3 5 6 7 
3 8 9 10 
3 11 9 8 
3 12 11 8 
3 0 2 13 
3 4 13 2 
3 14 15 4 
3 4 15 13 
3 16 17 18 
3 18 17 19 
3 17 20 19 
3 21 19 20 
3 22 6 23 
3 5 24 6 
3 25 5 7 
3 12 26 11 
3 0 13 27 
3 28 27 13 
3 13 15 28 
3 28 15 29 
3 19 30 18 
3 18 30 31 
3 0 27 32 
3 19 21 30 
3 33 30 21 
3 34 24 5 
3 27 35 32 
3 36 26 37 
3 38 39 40 
3 41 36 42 
3 43 35 27 
3 44 43 27 
3 45 27 28 
3 46 47 48 
3 29 45 28 
3 30 49 31 
3 33 50 30 
3 30 50 49 
3 51 50 52 
3 52 50 33 
3 44 45 53 
3 37 41 42 
3 52 54 51 
3 55 56 57 
3 58 59 60 
3 61 41 62 
3 63 58 60 
3 64 65 66 
3 67 58 63 
3 64 66 68 
3 68 66 69 
3 70 71 72 
3 65 64 73 
3 74 75 76 
3 44 77 43 
3 77 78 43 
3 78 79 43 
3 80 81 55 
3 82 83 84 
3 85 86 87 
3 88 87 86 
3 89 84 68 
3 68 84 64 
3 45 90 53 
3 90 91 53 
3 92 53 91 
3 49 50 93 
3 94 50 95 
3 96 90 97 
3 50 51 95 
3 95 51 98 
3 54 98 51 
3 99 81 80 
3 44 53 77 
3 92 77 53 
3 90 96 91 
3 100 101 102 
3 103 98 104 
3 91 105 92 
3 92 105 77 
3 95 98 94 
3 106 94 107 
3 107 94 98 
3 91 96 105 
3 107 98 103 
3 83 82 108 
3 109 108 82 
3 110 82 89 
3 89 82 84 
3 111 82 110 
3 112 106 107 
3 77 105 113 
3 112 107 114 
3 107 103 114 
3 115 116 117 
3 118 115 117 
3 111 109 82 
3 112 114 119 
3 120 118 121 
3 117 121 118 
3 121 117 122 
3 122 117 123 
3 77 124 78 
3 125 126 127 
3 113 124 77 
3 105 128 113 
3 129 113 128 
3 106 112 130 
3 119 130 112 
3 131 132 133 
3 109 111 134 
3 134 111 135 
3 136 137 138 
3 139 140 141 
3 142 143 144 
3 144 143 145 
3 146 143 142 
3 119 147 130 
3 128 148 129 
3 143 146 149 
3 150 151 152 
3 153 154 155 
3 154 149 155 
3 156 153 157 
3 145 158 159 
3 160 159 158 
3 161 159 160 
3 162 158 145 
3 145 143 162 
3 162 143 154 
3 156 154 153 
3 162 154 163 
3 163 154 164 
3 164 154 156 
3 156 157 165 
3 157 166 165 
3 165 166 167 
3 160 168 161 
3 161 168 169 
3 158 168 160 
3 170 171 158 
3 158 171 168 
3 163 170 162 
3 162 170 158 
3 156 165 172 
3 173 172 165 
3 171 174 168 
3 175 171 170 
3 175 170 163 
3 176 175 163 
3 177 163 164 
3 176 163 177 
3 178 179 174 
3 178 174 180 
3 171 180 174 
3 176 171 175 
3 180 171 176 
3 164 156 177 
3 181 177 172 
3 176 177 181 
3 156 172 177 
3 182 180 176 
3 183 182 181 
3 176 181 182 
3 172 173 181 
3 184 181 173 
3 165 185 173 
3 186 179 178 
3 187 186 178 
3 173 185 184 
3 180 188 178 
3 180 182 188 
3 183 188 182 
3 187 188 183 
3 189 190 191 
3 178 188 187 
3 192 193 183 
3 187 183 193 
3 192 183 194 
3 181 184 195 
3 183 181 195 
3 195 194 183 
3 195 184 196 
3 197 196 185 
3 196 184 185 
3 193 198 187 
3 192 194 199 
3 194 195 200 
3 200 195 201 
3 196 201 195 
3 201 196 202 
3 197 202 196 
3 203 204 205 
3 186 198 206 
3 187 198 186 
3 194 200 207 
3 207 200 208 
3 194 207 199 
3 200 201 208 
3 208 201 209 
3 209 201 210 
3 201 202 210 
3 210 202 211 
3 211 202 212 
3 202 197 212 
3 197 213 212 
3 213 214 212 
3 211 212 214 
3 198 193 215 
3 193 192 215 
3 216 217 218 
3 192 199 219 
3 220 219 199 
3 207 221 199 
3 220 199 221 
3 221 208 209 
3 221 209 222 
3 211 223 210 
3 209 210 222 
3 222 210 223 
3 220 221 224 
3 207 208 221 
3 223 225 224 
3 221 222 224 
3 224 222 223 
3 211 214 223 
3 226 227 228 
3 216 229 217 
3 230 217 231 
3 231 217 229 
3 229 216 232 
3 233 232 216 
3 234 235 236 
3 237 235 234 
3 238 239 240 
3 241 240 239 
3 242 243 244 
3 229 245 231 
3 246 231 245 
3 247 248 249 
3 250 244 251 
3 252 253 254 
3 255 240 241 
3 256 257 258 
3 259 258 257 
3 260 261 262 
3 263 262 261 
3 243 251 244 
3 261 260 264 
3 265 266 267 
3 268 269 270 
3 271 272 273 
3 240 274 238 
3 255 275 240 
3 276 240 275 
3 277 278 279 
3 280 281 282 
3 240 276 274 
3 283 284 285 
3 286 287 288 
3 263 261 289 
3 290 291 292 
3 293 294 290 
3 290 294 291 
3 294 276 291 
3 275 295 276 
3 276 295 291 
3 286 296 287 
3 297 298 299 
3 299 298 300 
3 301 302 263 
3 263 289 301 
3 302 301 303 
3 304 305 300 
3 306 305 304 
3 307 308 309 
3 300 298 304 
3 310 307 311 
3 307 309 311 
3 291 312 292 
3 295 312 291 
3 307 313 308 
3 314 315 316 
3 317 318 319 
3 320 303 301 
3 301 289 320 
3 292 321 290 
3 303 320 322 
3 323 321 312 
3 292 312 321 
3 324 323 312 
3 312 325 324 
3 312 295 325 
3 325 295 326 
3 295 327 326 
3 328 327 295 
3 315 314 329 
3 330 318 317 
3 303 331 302 
3 303 322 331 
3 330 332 318 
3 324 333 323 
3 334 323 333 
3 335 336 337 
3 338 336 335 
3 336 338 339 
3 340 341 342 
3 338 334 339 
3 343 344 345 
3 346 347 348 
3 337 349 350 
3 351 352 349 
3 337 336 349 
3 353 354 324 
3 355 356 357 
3 324 358 353 
3 359 360 361 
3 324 325 358 
3 326 358 325 
3 349 339 351 
3 336 339 349 
3 357 356 362 
3 339 354 351 
3 354 363 351 
3 353 363 354 
3 364 365 366 
3 367 365 368 
3 369 370 371 
3 371 370 372 
3 373 371 372 
3 369 374 370 
3 375 376 377 
3 369 364 374 
3 374 364 378 
3 378 364 366 
3 367 366 365 
3 375 379 380 
3 380 379 381 
3 382 383 384 
3 385 386 387 
3 388 387 386 
3 388 386 389 
3 390 391 377 
3 377 376 390 
3 380 376 375 
3 392 393 394 
3 394 393 395 
3 392 394 396 
3 397 396 394 
3 394 398 397 
3 399 400 384 
3 382 384 400 
3 399 384 401 
3 394 395 402 
3 403 400 399 
3 401 404 399 
3 396 397 401 
3 401 397 404 
3 402 398 394 
3 397 398 404 
3 404 398 399 
3 402 405 398 
3 406 405 402 
3 398 405 403 
3 403 405 407 
3 406 407 405 
3 408 382 409 
3 410 409 382 
3 410 382 400 
3 398 403 399 
3 410 400 403 
3 410 403 411 
3 411 403 412 
3 410 411 409 
3 411 412 413 
3 414 413 412 
3 407 415 403 
3 416 417 407 
3 407 417 415 
3 418 419 420 
3 413 420 419 
3 409 411 419 
3 413 419 411 
3 414 420 413 
3 414 412 421 
3 403 415 412 
3 422 421 415 
3 415 421 412 
3 422 415 423 
3 415 417 423 
3 423 417 416 
3 424 414 425 
3 424 420 414 
3 425 414 426 
3 421 427 414 
3 426 414 427 
3 421 422 428 
3 428 429 421 
3 428 430 429 
3 429 427 421 
3 428 431 430 
3 422 431 428 
3 423 432 422 
3 422 432 431 
3 433 8 10 
3 6 22 7 
3 395 434 402 
3 435 436 437 
3 438 407 439 
3 439 407 406 
3 440 435 437 
3 441 442 367 
3 379 443 381 
3 381 443 444 
3 445 446 447 
3 442 441 448 
3 449 450 451 
3 452 453 454 
3 455 454 453 
3 456 457 452 
3 452 457 453 
3 435 458 7 
3 368 441 367 
3 459 460 461 
3 25 7 458 
3 462 463 464 
3 465 463 462 
3 466 467 468 
3 469 470 440 
3 25 458 470 
3 435 440 458 
3 470 458 440 
3 471 472 361 
3 361 472 359 
3 473 474 475 
3 475 474 476 
3 359 472 477 
3 476 474 478 
3 479 480 481 
3 482 483 484 
3 485 484 483 
3 486 487 488 
3 486 489 487 
3 490 487 489 
3 25 470 491 
3 490 492 487 
3 483 482 493 
3 494 483 493 
3 493 495 494 
3 494 495 496 
3 497 498 499 
3 500 25 491 
3 501 502 503 
3 34 25 500 
3 504 476 478 
3 505 476 504 
3 479 481 506 
3 505 507 476 
3 508 509 510 
3 511 509 508 
3 34 500 57 
3 55 57 500 
3 512 513 514 
3 508 515 511 
3 500 491 516 
3 517 518 519 
3 500 80 55 
3 508 510 507 
3 520 508 507 
3 521 522 523 
3 516 524 80 
3 80 524 99 
3 525 99 524 
3 358 326 526 
3 526 326 527 
3 327 527 326 
3 528 527 327 
3 529 505 504 
3 530 531 532 
3 275 328 295 
3 275 533 328 
3 327 328 528 
3 528 328 533 
3 520 507 534 
3 535 525 536 
3 537 538 539 
3 116 99 535 
3 525 535 99 
3 81 116 115 
3 99 116 81 
3 529 540 505 
3 507 505 534 
3 541 542 543 
3 544 534 505 
3 116 535 545 
3 545 535 536 
3 540 546 505 
3 547 546 540 
3 548 533 255 
3 275 255 533 
3 547 205 546 
3 549 542 541 
3 550 544 205 
3 537 551 538 
3 552 553 554 
3 555 556 557 
3 544 550 534 
3 117 116 545 
3 558 559 167 
3 185 167 559 
3 548 255 560 
3 214 213 561 
3 167 166 558 
3 117 545 123 
3 562 123 545 
3 203 205 547 
3 197 185 563 
3 563 185 559 
3 564 565 566 
3 567 568 565 
3 566 565 568 
3 569 570 571 
3 572 373 569 
3 572 371 373 
3 573 574 570 
3 575 576 577 
3 574 571 570 
3 575 577 578 
3 419 579 409 
3 418 579 419 
3 580 581 582 
3 583 581 580 
3 584 585 586 
3 424 418 420 
3 587 585 584 
3 587 588 585 
3 571 589 569 
3 569 589 572 
3 571 590 589 
3 591 592 593 
3 591 593 594 
3 595 596 597 
3 591 594 598 
3 586 599 584 
3 9 600 10 
3 10 600 601 
3 593 592 345 
3 345 592 343 
3 602 343 592 
3 602 592 603 
3 604 605 606 
3 582 581 607 
3 608 609 588 
3 587 608 588 
3 587 584 610 
3 36 611 9 
3 9 611 600 
3 612 613 614 
3 26 36 11 
3 615 616 617 
3 618 617 616 
3 591 619 592 
3 620 621 622 
3 620 623 621 
3 624 625 626 
3 627 628 609 
3 606 605 629 
3 587 610 608 
3 630 631 618 
3 618 631 617 
3 632 633 634 
3 635 636 637 
3 608 638 609 
3 609 638 627 
3 639 638 608 
3 618 616 640 
3 641 642 643 
3 591 644 619 
3 619 644 645 
3 635 637 646 
3 61 611 36 
3 608 610 639 
3 647 639 610 
3 61 36 41 
3 329 648 315 
3 649 650 651 
3 652 648 329 
3 653 651 650 
3 618 640 650 
3 653 650 640 
3 643 642 654 
3 655 635 646 
3 656 657 658 
3 639 659 638 
3 660 658 657 
3 661 659 662 
3 662 659 639 
3 647 663 639 
3 662 639 663 
3 649 651 664 
3 656 658 665 
3 65 73 666 
3 85 667 86 
3 668 669 653 
3 653 669 651 
3 670 651 669 
3 671 656 665 
3 672 661 662 
3 671 665 673 
3 669 285 670 
3 284 670 285 
3 674 285 669 
3 668 675 669 
3 674 669 675 
3 672 675 668 
3 662 676 672 
3 677 672 676 
3 285 678 283 
3 674 678 285 
3 679 675 680 
3 681 682 683 
3 674 675 679 
3 684 685 686 
3 675 672 687 
3 687 672 677 
3 688 677 676 
3 689 690 688 
3 688 690 677 
3 679 691 678 
3 678 691 692 
3 693 694 695 
3 678 692 283 
3 696 697 698 
3 683 699 681 
3 681 699 700 
3 701 702 703 
3 704 691 679 
3 705 691 704 
3 706 701 703 
3 707 687 677 
3 677 690 707 
3 695 708 693 
3 705 709 691 
3 228 710 226 
3 711 709 705 
3 712 713 714 
3 186 715 179 
3 713 712 716 
3 174 169 168 
