ply
format ascii 1.0
comment VCGLIB generated
element vertex 493
property float x
property float y
property float z
property float nx
property float ny
property float nz
element face 482
property list uchar int vertex_indices
end_header
-1.79936 1.4063 2.1032 -0.186651 0.690603 0.698691 
-2.40053 0.869926 1.89603 -0.742485 -0.0952181 0.663015 
-1.81792 0.529952 2.03443 -0.236183 -0.550371 0.800775 
-2.43545 0.620778 1.66116 -0.831599 -0.439344 0.339671 
0.155487 0.57418 2.1458 -0.081454 -0.201819 0.976012 
-0.372437 0.405682 2.06517 -0.049013 -0.591632 0.804682 
0.696503 0.3992 2.08273 0.026704 -0.676962 0.735527 
1.98578 1.13745 2.02385 0.499863 0.181219 0.846919 
1.56375 0.773406 2.1454 0.205573 -0.165258 0.964568 
1.72014 0.428254 2.00053 0.307169 -0.6798 0.665944 
0.521805 1.17479 2.22048 -0.007385 -0.0253001 0.999634 
-0.106018 1.73314 2.18932 -0.139958 0.0877409 0.986236 
1.98749 2.15305 1.59556 0.710959 0.355052 0.606983 
1.60733 1.45462 1.96801 0.326853 0.382244 0.864284 
2.13632 1.69939 1.63503 0.90408 0.233192 0.358104 
2.15013 0.86491 1.90218 0.820948 -0.142308 0.552934 
2.13632 1.69939 1.63503 0.90408 0.233192 0.358104 
1.98578 1.13745 2.02385 0.499863 0.181219 0.846919 
-0.669296 1.29805 1.91311 -0.273782 0.131138 0.952788 
-0.836319 0.569539 2.09771 0.06708 -0.0793181 0.994568 
-1.34767 0.86027 2.1569 -0.019044 -0.0832541 0.996338 
-0.500061 2.23295 1.97602 -0.586566 0.205237 0.783441 
-0.387527 1.56422 2.12591 -0.420331 -0.0173041 0.907163 
-0.814224 1.37044 1.88466 0.215125 0.309519 0.926206 
0.69783 1.60001 2.17553 0.111698 0.152532 0.981933 
1.32901 1.28728 2.18375 0.192267 0.261605 0.945799 
0.528564 2.83386 2.0119 0.073336 0.459792 0.884976 
-1.41663 1.59152 2.12142 0.070833 0.266762 0.96115 
-1.38541 2.183 1.89591 0.152226 0.417371 0.895871 
-0.974731 2.66428 1.38598 0.06766 0.415326 0.907132 
-1.29982 2.86031 1.44833 0.115207 0.715903 0.688589 
-0.057816 2.87753 1.96177 -0.181066 0.732536 0.656178 
-0.524277 2.63018 1.7596 -0.656758 0.349162 0.668355 
-0.799942 2.37079 1.48976 -0.40495 0.298563 0.864193 
-0.500061 2.23295 1.97602 -0.586566 0.205237 0.783441 
-0.669296 1.29805 1.91311 -0.273782 0.131138 0.952788 
-1.79936 1.4063 2.1032 -0.133183 0.964507 0.227973 
-1.79936 1.4063 2.1032 -0.186651 0.690603 0.698691 
-2.27364 1.52921 1.79314 -0.754265 0.276223 0.595599 
-2.27364 1.52921 1.79314 -0.754265 0.276223 0.595599 
0.869797 2.9238 1.89996 0.120457 0.80224 0.584704 
1.59111 2.62217 1.74962 0.704733 0.526627 0.475387 
1.37958 2.86058 1.56663 0.45378 0.887417 0.0808131 
1.19786 2.92157 1.80402 0.283242 0.864528 0.415082 
1.59111 2.62217 1.74962 0.704733 0.526627 0.475387 
1.39391 2.5562 1.90412 0.325571 0.226234 0.918027 
1.19786 2.92157 1.80402 0.283242 0.864528 0.415082 
-2.18054 2.81317 1.33012 -0.670339 0.674032 0.310282 
-2.0656 2.67305 1.51977 -0.39021 0.50734 0.768303 
-1.29982 2.86031 1.44833 0.115207 0.715903 0.688589 
-2.0656 2.67305 1.51977 -0.39021 0.50734 0.768303 
0.641205 2.91384 1.01407 0.214148 0.713584 0.666982 
0.503632 2.87317 1.41421 0.108554 0.980956 0.160985 
1.14589 2.92367 1.09122 0.154485 0.987945 -0.00567587 
1.49409 2.81577 0.994325 0.396771 0.639729 0.658223 
2.02614 2.24825 1.4168 0.904111 0.415632 -0.099002 
1.37958 2.86058 1.56663 0.45378 0.887417 0.0808131 
1.98749 2.15305 1.59556 0.710959 0.355052 0.606983 
1.49409 2.81577 0.994325 0.396771 0.639729 0.658223 
1.65721 2.59859 1.02866 0.779199 0.438581 0.447707 
0.869797 2.9238 1.89996 0.120457 0.80224 0.584704 
1.59111 2.62217 1.74962 0.704733 0.526627 0.475387 
-1.06085 3.1325 1.06649 -0.462905 0.36964 0.805628 
-0.673447 2.93928 1.43697 -0.374401 0.397229 0.837855 
-0.799942 2.37079 1.48976 -0.40495 0.298563 0.864193 
-0.057816 2.87753 1.96177 -0.181066 0.732536 0.656178 
0.528564 2.83386 2.0119 0.073336 0.459792 0.884976 
-0.524277 2.63018 1.7596 -0.656758 0.349162 0.668355 
-0.673447 2.93928 1.43697 -0.374401 0.397229 0.837855 
0.004333 3.52583 1.05884 0.453444 0.207099 0.866848 
-0.164139 3.84327 1.29112 0.503525 0.0304569 0.86343 
-0.626373 3.38416 1.42342 -0.193426 0.0741599 0.978301 
-0.673447 2.93928 1.43697 -0.374401 0.397229 0.837855 
-0.117218 3.07031 1.24621 0.097598 0.526627 0.844447 
0.503632 2.87317 1.41421 0.108554 0.980956 0.160985 
-0.274017 4.39239 1.20609 0.131962 0.639241 0.757561 
-0.557587 4.44627 1.13403 -0.128086 0.868252 0.479293 
-0.484604 4.33338 1.24478 -0.153539 0.393109 0.906552 
0.027405 4.36846 1.0896 0.650075 0.336161 0.681448 
-0.164139 3.84327 1.29112 0.503525 0.0304569 0.86343 
0.004333 3.52583 1.05884 0.453444 0.207099 0.866848 
0.224289 4.08939 0.729151 0.648335 0.443739 0.618641 
0.641205 2.91384 1.01407 0.214148 0.713584 0.666982 
0.308823 3.62867 0.924311 0.089877 0.336344 0.937437 
0.262009 3.09724 1.24722 0.251442 0.561357 0.788446 
0.224289 4.08939 0.729151 0.648335 0.443739 0.618641 
0.027405 4.36846 1.0896 0.650075 0.336161 0.681448 
0.88237 2.97319 0.999893 -0.009461 0.389416 0.920988 
0.262009 3.09724 1.24722 0.251442 0.561357 0.788446 
0.88237 2.97319 0.999893 -0.009461 0.389416 0.920988 
1.14589 2.92367 1.09122 0.154485 0.987945 -0.00567587 
1.10796 3.90062 1.03581 0.143468 0.560015 0.815943 
-1.59541 3.11678 0.895948 -0.419446 0.785638 0.454726 
-1.61552 2.92802 1.09712 -0.26896 0.888028 0.372814 
-1.06085 3.1325 1.06649 -0.462905 0.36964 0.805628 
-1.61552 2.92802 1.09712 -0.26896 0.888028 0.372814 
-1.06085 3.1325 1.06649 -0.462905 0.36964 0.805628 
-1.90178 2.92004 0.660496 -0.566576 0.79223 0.226478 
-1.59541 3.11678 0.895948 -0.419446 0.785638 0.454726 
-1.90178 2.92004 0.660496 -0.566576 0.79223 0.226478 
-1.61552 2.92802 1.09712 -0.26896 0.888028 0.372814 
-1.59541 3.11678 0.895948 -0.419446 0.785638 0.454726 
-1.06085 3.1325 1.06649 -0.462905 0.36964 0.805628 
-1.72795 3.20924 0.553689 -0.812128 0.147649 0.56444 
-1.65266 4.35351 0.611891 -0.624439 0.576281 0.527146 
-1.72795 3.20924 0.553689 -0.812128 0.147649 0.56444 
0.114166 4.64791 0.730665 0.549883 0.597125 0.583972 
1.84157 3.16068 0.816819 0.609241 0.197668 0.767907 
1.49409 2.81577 0.994325 0.396771 0.639729 0.658223 
1.65721 2.59859 1.02866 0.779199 0.438581 0.447707 
1.85677 3.91978 0.438017 0.695486 0.689657 0.201483 
1.84157 3.16068 0.816819 0.609241 0.197668 0.767907 
2.11652 2.35907 0.698174 0.8858 0.131932 0.444868 
1.68436 3.9208 0.679613 0.414563 0.785058 0.460158 
1.68436 3.9208 0.679613 0.414563 0.785058 0.460158 
-1.38974 5.1245 -0.21969 -0.53209 0.746025 0.400311 
-1.58383 5.04242 -0.497312 -0.824274 0.557329 0.0995821 
-1.19154 4.51095 0.317026 -0.325999 0.78692 0.52385 
-0.918427 5.08501 0.171816 -0.317454 0.728843 0.606586 
-0.139999 5.1488 0.288664 0.272927 0.910306 0.311167 
-1.38974 5.1245 -0.21969 -0.53209 0.746025 0.400311 
-1.38974 5.1245 -0.21969 -0.53209 0.746025 0.400311 
-1.19154 4.51095 0.317026 -0.325999 0.78692 0.52385 
-0.918427 5.08501 0.171816 -0.317454 0.728843 0.606586 
-1.7991 4.09766 0.478685 -0.901852 0.293985 0.316568 
-1.19154 4.51095 0.317026 -0.325999 0.78692 0.52385 
-1.72612 4.45914 0.0748686 -0.761742 0.577746 0.29313 
-0.557587 4.44627 1.13403 -0.128086 0.868252 0.479293 
-1.65266 4.35351 0.611891 -0.624439 0.576281 0.527146 
-0.245041 5.08508 0.450796 -0.040254 0.716239 0.696677 
-0.715256 4.4969 0.483656 -0.209387 0.794549 0.569933 
-0.245041 5.08508 0.450796 -0.040254 0.716239 0.696677 
-0.715256 4.4969 0.483656 -0.209387 0.794549 0.569933 
0.114166 4.64791 0.730665 0.549883 0.597125 0.583972 
-0.274017 4.39239 1.20609 0.131962 0.639241 0.757561 
0.114166 4.64791 0.730665 0.549883 0.597125 0.583972 
0.114166 4.64791 0.730665 0.549883 0.597125 0.583972 
0.114166 4.64791 0.730665 0.549883 0.597125 0.583972 
0.44339 4.46131 -0.0419104 0.831019 0.42024 0.36433 
0.714676 4.11478 -0.0848375 0.563097 0.821833 0.0864281 
0.224289 4.08939 0.729151 0.648335 0.443739 0.618641 
1.85677 3.91978 0.438017 0.695486 0.689657 0.201483 
1.108 4.05687 -0.165827 -0.048341 0.890927 -0.451491 
1.10796 3.90062 1.03581 0.143468 0.560015 0.815943 
1.68436 3.9208 0.679613 0.414563 0.785058 0.460158 
-1.47708 5.14804 -0.742243 -0.510605 0.817805 -0.265389 
-0.312866 5.17712 -0.373007 0.105991 0.983703 -0.145116 
-1.23939 5.09664 -0.943136 -0.05652 0.732353 -0.678518 
0.856644 3.98029 -0.386751 0.814081 0.539262 -0.215522 
1.27756 3.56207 -0.430064 -0.227058 0.647633 -0.727287 
0.714676 4.11478 -0.0848375 0.563097 0.821833 0.0864281 
1.108 4.05687 -0.165827 -0.048341 0.890927 -0.451491 
1.27756 3.56207 -0.430064 -0.227058 0.647633 -0.727287 
0.714676 4.11478 -0.0848375 0.563097 0.821833 0.0864281 
0.191467 5.16317 -0.19277 -0.090884 0.902615 -0.420728 
0.191467 5.11036 -0.19277 0.29667 0.711814 -0.636616 
0.191467 5.11036 -0.19277 0.29667 0.711814 -0.636616 
0.114166 4.64791 0.730665 0.549883 0.597125 0.583972 
0.191467 5.11036 -0.19277 0.29667 0.711814 -0.636616 
-0.139999 5.1488 0.288664 0.272927 0.910306 0.311167 
0.44339 4.46131 -0.0419104 0.831019 0.42024 0.36433 
0.191467 5.11036 -0.19277 0.29667 0.711814 -0.636616 
0.191467 5.16317 -0.19277 -0.090884 0.902615 -0.420728 
0.114166 4.64791 0.730665 0.549883 0.597125 0.583972 
0.191467 5.16317 -0.19277 -0.090884 0.902615 -0.420728 
0.191467 5.11036 -0.19277 0.29667 0.711814 -0.636616 
-0.421829 5.08373 -0.699854 0.259529 0.762535 -0.592578 
-0.421829 5.08373 -0.699854 0.259529 0.762535 -0.592578 
0.191467 5.11036 -0.19277 0.29667 0.711814 -0.636616 
0.65918 4.31877 -0.687021 0.743278 0.426984 -0.514969 
0.65918 4.31877 -0.687021 0.743278 0.426984 -0.514969 
1.66246 3.97279 -0.342989 0.487808 0.849483 -0.200934 
1.55473 3.93691 -0.52931 -0.051057 0.801355 -0.595996 
1.55473 3.93691 -0.52931 -0.051057 0.801355 -0.595996 
1.27756 3.56207 -0.430064 -0.227058 0.647633 -0.727287 
1.55473 3.93691 -0.52931 -0.051057 0.801355 -0.595996 
1.36659 3.46884 -0.627607 -0.484878 0.812952 -0.322428 
1.27756 3.56207 -0.430064 -0.227058 0.647633 -0.727287 
1.36659 3.46884 -0.627607 -0.484878 0.812952 -0.322428 
0.965302 3.52362 -0.588087 0.528367 0.739677 -0.41673 
0.965302 3.52362 -0.588087 0.528367 0.739677 -0.41673 
0.856644 3.98029 -0.386751 0.814081 0.539262 -0.215522 
1.27756 3.56207 -0.430064 -0.227058 0.647633 -0.727287 
0.965302 3.52362 -0.588087 0.528367 0.739677 -0.41673 
0.672272 3.87109 -0.748602 0.644826 0.466567 -0.605365 
1.52772 3.61587 -0.93223 -0.258492 0.804102 -0.535295 
1.04106 3.45841 -0.756441 0.35435 0.816126 -0.456404 
1.16803 3.3806 -0.913539 -0.381176 0.798975 -0.465072 
1.04106 3.45841 -0.756441 0.35435 0.816126 -0.456404 
1.23372 3.00939 -1.45777 -0.21717 0.586688 -0.780114 
1.52772 3.61587 -0.93223 -0.258492 0.804102 -0.535295 
1.8053 3.27254 -1.2485 0.447462 0.533464 -0.717734 
1.52772 3.61587 -0.93223 -0.258492 0.804102 -0.535295 
1.23372 3.00939 -1.45777 -0.21717 0.586688 -0.780114 
1.8053 3.27254 -1.2485 0.447462 0.533464 -0.717734 
1.52772 3.61587 -0.93223 -0.258492 0.804102 -0.535295 
0.567444 4.21066 -0.770399 0.383221 0.132908 -0.914029 
-1.43668 4.07053 -1.13428 -0.159917 0.699271 -0.696707 
-1.2003 4.66402 -1.12024 0.040529 0.211371 -0.976531 
-1.52521 4.29307 -1.1436 -0.458388 -0.0332039 -0.888089 
0.672272 3.87109 -0.748602 0.644826 0.466567 -0.605365 
-0.04982 4.47177 -0.947752 0.242409 0.0525221 -0.968749 
-1.23939 5.09664 -0.943136 -0.05652 0.732353 -0.678518 
1.33832 2.55225 -1.65108 -0.019257 0.68923 -0.724235 
1.83649 2.68552 -1.45759 0.408795 0.62508 -0.664907 
-1.73862 4.0144 -1.57044 -0.18952 0.683004 -0.705374 
-0.103378 3.99228 -1.15485 0.188269 0.965606 -0.179296 
-0.067093 3.88221 -1.34928 0.299631 0.654408 -0.694205 
-1.43668 4.07053 -1.13428 -0.159917 0.699271 -0.696707 
0.595398 3.23204 -1.33565 0.558123 0.225135 -0.798608 
1.04106 3.45841 -0.756441 0.35435 0.816126 -0.456404 
0.731277 2.76414 -1.28613 -0.024751 0.359539 -0.932768 
0.731277 2.76414 -1.28613 -0.024751 0.359539 -0.932768 
0.69902 3.62939 -1.07279 0.583941 0.5215 -0.622089 
0.672272 3.87109 -0.748602 0.644826 0.466567 -0.605365 
0.69902 3.62939 -1.07279 0.583941 0.5215 -0.622089 
-1.73862 4.0144 -1.57044 -0.18952 0.683004 -0.705374 
-2.09674 2.84605 -1.5797 -0.745872 -0.00387591 -0.666036 
-1.94003 4.00934 -1.45268 -0.675954 0.688559 -0.26252 
-1.19197 3.87841 -1.61971 0.091098 0.45735 -0.884579 
-1.77643 2.64151 -1.72774 -0.160039 -0.216407 -0.963073 
0.099182 3.11251 -1.58954 0.252846 0.145146 -0.956542 
0.184402 2.86827 -1.57075 0.289285 -0.290231 -0.912168 
0.69902 3.62939 -1.07279 0.583941 0.5215 -0.622089 
-0.067093 3.88221 -1.34928 0.299631 0.654408 -0.694205 
-1.19197 3.87841 -1.61971 0.091098 0.45735 -0.884579 
0.99649 2.27009 -1.93764 -0.352031 0.437361 -0.827479 
0.435287 1.72699 -1.73396 -0.027467 0.367687 -0.929502 
0.888733 2.49992 -1.71902 -0.608814 0.653432 -0.449812 
0.888733 2.49992 -1.71902 -0.608814 0.653432 -0.449812 
1.55222 2.42713 -2.02656 0.043153 0.597156 -0.800928 
0.99649 2.27009 -1.93764 -0.352031 0.437361 -0.827479 
1.33832 2.55225 -1.65108 -0.019257 0.68923 -0.724235 
1.83649 2.68552 -1.45759 0.408795 0.62508 -0.664907 
2.07121 2.17636 -1.91378 0.439406 0.388012 -0.810144 
0.99649 2.27009 -1.93764 -0.352031 0.437361 -0.827479 
1.23372 3.00939 -1.45777 -0.21717 0.586688 -0.780114 
1.23372 3.00939 -1.45777 -0.21717 0.586688 -0.780114 
0.435287 1.72699 -1.73396 -0.027467 0.367687 -0.929502 
0.731277 2.76414 -1.28613 -0.024751 0.359539 -0.932768 
-0.37825 2.51052 -1.426 0.071047 0.0156871 -0.997345 
0.184402 2.86827 -1.57075 0.289285 -0.290231 -0.912168 
0.731277 2.76414 -1.28613 -0.024751 0.359539 -0.932768 
-1.114 2.35757 -1.39848 -0.070254 -0.117435 -0.99057 
-0.37825 2.51052 -1.426 0.071047 0.0156871 -0.997345 
-0.37825 2.51052 -1.426 0.071047 0.0156871 -0.997345 
0.435287 1.72699 -1.73396 -0.027467 0.367687 -0.929502 
-0.038559 2.08035 -1.94161 0.315928 0.664327 -0.677358 
-0.37825 2.51052 -1.426 0.071047 0.0156871 -0.997345 
-1.92004 2.08994 -1.45604 -0.527482 -0.0233769 -0.849208 
0.99649 2.27009 -1.93764 -0.352031 0.437361 -0.827479 
0.904114 1.03451 -2.15564 -0.312723 0.0401011 -0.948973 
0.435287 1.72699 -1.73396 -0.027467 0.367687 -0.929502 
0.424454 1.13472 -1.87184 0.036775 0.0729701 -0.996643 
-1.00548 1.99448 -1.69147 -0.254952 0.715476 -0.65041 
-0.514862 2.05304 -1.72711 -0.225135 0.761864 -0.607318 
-0.038559 2.08035 -1.94161 0.315928 0.664327 -0.677358 
-1.63536 1.80832 -1.35997 0.00882 0.644581 -0.764458 
-1.31863 1.84537 -1.81996 -0.17307 0.910398 -0.375713 
-1.78841 1.79661 -1.91803 -0.15006 0.88113 -0.448378 
-1.63536 1.80832 -1.35997 0.00882 0.644581 -0.764458 
-0.514862 2.05304 -1.72711 -0.225135 0.761864 -0.607318 
-1.00548 1.99448 -1.69147 -0.254952 0.715476 -0.65041 
1.99576 1.64744 -2.02844 0.326273 0.109622 -0.938871 
1.55222 2.42713 -2.02656 0.043153 0.597156 -0.800928 
-0.042145 1.14319 -2.1894 0.3202 0.0771811 -0.944182 
-0.131607 1.79049 -2.1025 0.257332 0.33433 -0.906613 
-0.038559 2.08035 -1.94161 0.315928 0.664327 -0.677358 
-1.31863 1.84537 -1.81996 -0.17307 0.910398 -0.375713 
-0.038559 2.08035 -1.94161 0.315928 0.664327 -0.677358 
-0.131607 1.79049 -2.1025 0.257332 0.33433 -0.906613 
-1.74887 1.57701 -2.16334 -0.143437 0.451552 -0.880612 
-1.74887 1.57701 -2.16334 -0.143437 0.451552 -0.880612 
-2.34662 1.48533 -1.91467 -0.771416 0.465865 -0.433363 
-1.51897 0.639758 -2.22048 -0.054903 -0.130131 -0.989959 
-2.08707 0.934641 -2.1837 -0.282113 -0.0701319 -0.956786 
-0.141403 0.46881 -2.20942 0.345225 -0.131748 -0.929197 
1.25937 1.00899 -2.20317 -0.025758 0.0988801 -0.994751 
0.482285 0.431902 -1.8363 -0.249397 -0.661763 -0.706992 
1.11298 0.503858 -2.14404 -0.123173 -0.409558 -0.903897 
-0.14415 0.17642 -2.14996 0.374828 -0.669485 -0.641285 
-2.09105 0.384883 -2.03491 -0.333323 -0.519242 -0.78692 
0.166107 0.388372 -1.84979 0.573992 -0.697256 -0.429304 
2.41267 1.90878 -1.74048 0.80398 0.118229 -0.582751 
2.34279 0.62393 -1.99707 0.65215 -0.258766 -0.712546 
1.94752 0.965813 -2.13068 0.242103 0.0105901 -0.970183 
2.02399 0.424346 -2.00965 0.230415 -0.713858 -0.661275 
-0.14415 0.17642 -2.14996 0.374828 -0.669485 -0.641285 
-1.04793 0.120561 -1.94841 -0.074313 -0.875393 -0.477584 
-2.09105 0.384883 -2.03491 -0.333323 -0.519242 -0.78692 
1.11298 0.503858 -2.14404 -0.123173 -0.409558 -0.903897 
2.02399 0.424346 -2.00965 0.230415 -0.713858 -0.661275 
1.01944 0.274005 -1.91428 -0.100894 -0.882138 -0.459975 
0.482285 0.431902 -1.8363 -0.249397 -0.661763 -0.706992 
-0.500717 0.114595 -1.93187 0.05182 -0.983856 -0.171239 
-2.19687 0.144406 -1.67962 -0.398144 -0.860805 -0.316904 
-1.38844 0.0123652 -1.42977 -0.027772 -0.992584 -0.118229 
1.97044 0.234179 -0.847675 0.264504 -0.963469 -0.0416881 
-0.592621 0.0371551 -1.04297 0.157598 -0.986297 0.0484939 
-2.10123 7.91085e-08 -0.603264 -0.275369 -0.961303 0.00411987 
-2.04683 0.0231 -0.206997 -0.114658 -0.965514 0.233589 
-0.176102 0.115644 -1.45575 0.486007 -0.869259 0.0901209 
0.166107 0.388372 -1.84979 0.573992 -0.697256 -0.429304 
-0.596405 0.0960971 -0.592289 0.377819 -0.825983 0.418287 
-0.217529 0.392975 -0.676781 0.130863 -0.970763 0.201086 
0.166107 0.388372 -1.84979 0.573992 -0.697256 -0.429304 
-0.217529 0.392975 -0.676781 0.130863 -0.970763 0.201086 
-0.176102 0.115644 -1.45575 0.486007 -0.869259 0.0901209 
0.184845 0.233456 -0.446384 -0.265786 -0.931761 0.247322 
0.404205 0.180835 -0.947186 -0.225166 -0.963958 -0.141636 
2.1189 0.294472 -0.13253 0.532548 -0.82049 0.207739 
2.38705 0.502541 -1.78545 0.743675 -0.627338 -0.230995 
0.687256 0.151441 -0.571438 -0.039735 -0.993622 0.105289 
-2.25903 0.181728 0.184746 -0.57094 -0.789483 0.225135 
-1.62588 0.38039 0.267635 0.072146 -0.995575 -0.0599691 
-2.26952 0.262098 0.556549 -0.638905 -0.768548 -0.0328381 
1.68808 0.248213 -0.030148 0.037111 -0.960112 0.277047 
-0.412323 0.483664 -0.418247 0.16773 -0.922452 0.347697 
0.608994 0.45128 0.137592 0.050722 -0.994629 -0.0901821 
1.91626 0.429353 0.336868 0.295297 -0.838954 0.457076 
1.21413 0.504482 0.373859 0.156011 -0.987152 -0.0336921 
1.22214 0.278111 0.67432 0.363811 -0.856319 -0.366497 
0.218826 0.199427 0.342571 0.085726 -0.864467 -0.495254 
-0.680222 0.408684 0.0378761 -0.013642 -0.944304 -0.328745 
-0.217529 0.392975 -0.676781 0.130863 -0.970763 0.201086 
-0.412323 0.483664 -0.418247 0.16773 -0.922452 0.347697 
-0.596405 0.0960971 -0.592289 0.377819 -0.825983 0.418287 
-1.62588 0.38039 0.267635 0.072146 -0.995575 -0.0599691 
-0.596405 0.0960971 -0.592289 0.377819 -0.825983 0.418287 
-0.412323 0.483664 -0.418247 0.16773 -0.922452 0.347697 
-1.33391 0.205267 0.470451 -0.067385 -0.941832 -0.329203 
-2.12321 0.179802 1.03283 -0.280984 -0.958281 0.0520649 
0.23851 0.145575 0.519928 0.053743 -0.98822 -0.143162 
0.881378 0.174391 0.894547 0.121738 -0.992035 -0.0318611 
0.696503 0.3992 2.08273 0.026704 -0.676962 0.735527 
-2.00775 0.266459 1.47483 -0.172185 -0.920255 0.351299 
0.704529 0.251532 1.68284 0.030763 -0.973449 0.226753 
1.56555 0.56802 0.708946 0.548845 -0.830378 -0.0959201 
1.88173 0.40206 1.16527 0.648183 -0.630512 -0.426923 
1.83791 0.364946 1.63968 0.25309 -0.960143 0.118351 
2.0867 0.454144 1.61891 0.72869 -0.672109 0.13126 
-2.43545 0.620778 1.66116 -0.831599 -0.439344 0.339671 
-2.29457 0.325123 1.38851 -0.64864 -0.726005 0.228278 
-1.81792 0.529952 2.03443 -0.236183 -0.550371 0.800775 
-0.372437 0.405682 2.06517 -0.049013 -0.591632 0.804682 
1.72014 0.428254 2.00053 0.307169 -0.6798 0.665944 
2.45888 0.729171 -1.62703 0.985168 -0.129887 -0.111881 
2.47382 1.08573 -0.126179 0.975158 -0.00918603 0.221198 
2.43164 0.79355 -0.0815959 0.914121 -0.31135 0.25959 
1.97768 0.701072 0.666943 0.574236 -0.529862 0.624073 
2.22844 1.28934 0.4137 0.930143 -0.0176701 0.366741 
2.38705 0.502541 -1.78545 0.743675 -0.627338 -0.230995 
2.1189 0.294472 -0.13253 0.532548 -0.82049 0.207739 
1.97768 0.701072 0.666943 0.574236 -0.529862 0.624073 
2.18425 2.55669 -0.481266 0.651082 0.73516 0.188543 
2.05955 2.72298 -0.196953 0.972015 0.231208 -0.041231 
2.17955 2.27489 0.0940253 0.959899 0.204932 0.191229 
2.01286 2.74301 -1.15011 0.772668 0.572588 -0.274087 
2.18425 2.55669 -0.481266 0.651082 0.73516 0.188543 
2.45444 2.4966 -0.682823 0.810724 0.563311 0.159215 
2.05208 3.04428 -0.0066296 0.986023 0.166143 -0.010773 
2.45856 2.38261 -1.50012 0.792352 0.486526 -0.368023 
2.45444 2.4966 -0.682823 0.810724 0.563311 0.159215 
2.45856 2.38261 -1.50012 0.792352 0.486526 -0.368023 
2.17955 2.27489 0.0940253 0.959899 0.204932 0.191229 
2.05011 1.04718 0.846931 0.857234 -0.265938 0.44087 
1.83903 0.915591 1.15797 0.890164 -0.211035 -0.40376 
1.56555 0.56802 0.708946 0.548845 -0.830378 -0.0959201 
2.05011 1.04718 0.846931 0.857234 -0.265938 0.44087 
1.83903 0.915591 1.15797 0.890164 -0.211035 -0.40376 
2.17577 0.714058 1.44659 0.930815 -0.155736 -0.330546 
1.88173 0.40206 1.16527 0.648183 -0.630512 -0.426923 
1.83903 0.915591 1.15797 0.890164 -0.211035 -0.40376 
1.88173 0.40206 1.16527 0.648183 -0.630512 -0.426923 
1.56555 0.56802 0.708946 0.548845 -0.830378 -0.0959201 
2.05011 1.04718 0.846931 0.857234 -0.265938 0.44087 
1.56555 0.56802 0.708946 0.548845 -0.830378 -0.0959201 
1.97768 0.701072 0.666943 0.574236 -0.529862 0.624073 
1.88173 0.40206 1.16527 0.648183 -0.630512 -0.426923 
2.17577 0.714058 1.44659 0.930815 -0.155736 -0.330546 
2.0867 0.454144 1.61891 0.72869 -0.672109 0.13126 
2.34279 0.62393 -1.99707 0.65215 -0.258766 -0.712546 
1.83903 0.915591 1.15797 0.890164 -0.211035 -0.40376 
1.85815 1.42996 1.0983 0.99826 0.058199 -0.00555399 
2.01286 2.74301 -1.15011 0.772668 0.572588 -0.274087 
1.96376 3.28517 -1.00652 0.865139 0.392865 -0.311655 
1.85815 1.42996 1.0983 0.99826 0.058199 -0.00555399 
2.15013 0.86491 1.90218 0.820948 -0.142308 0.552934 
1.72014 0.428254 2.00053 0.307169 -0.6798 0.665944 
1.85815 1.42996 1.0983 0.99826 0.058199 -0.00555399 
1.83649 2.68552 -1.45759 0.408795 0.62508 -0.664907 
1.83649 2.68552 -1.45759 0.408795 0.62508 -0.664907 
1.66246 3.97279 -0.342989 0.487808 0.849483 -0.200934 
1.96376 3.28517 -1.00652 0.865139 0.392865 -0.311655 
2.34279 0.62393 -1.99707 0.65215 -0.258766 -0.712546 
2.07121 2.17636 -1.91378 0.439406 0.388012 -0.810144 
2.45856 2.38261 -1.50012 0.792352 0.486526 -0.368023 
2.41267 1.90878 -1.74048 0.80398 0.118229 -0.582751 
1.8053 3.27254 -1.2485 0.447462 0.533464 -0.717734 
1.83649 2.68552 -1.45759 0.408795 0.62508 -0.664907 
2.11652 2.35907 0.698174 0.8858 0.131932 0.444868 
1.85815 1.42996 1.0983 0.99826 0.058199 -0.00555399 
1.85815 1.42996 1.0983 0.99826 0.058199 -0.00555399 
1.65721 2.59859 1.02866 0.779199 0.438581 0.447707 
2.02614 2.24825 1.4168 0.904111 0.415632 -0.099002 
-2.25664 0.160818 -0.144157 -0.920652 -0.37962 -0.090915 
-2.22624 0.0815511 -0.492058 -0.826258 -0.544298 0.144932 
-2.25903 0.181728 0.184746 -0.57094 -0.789483 0.225135 
-2.34869 0.579704 0.115074 -0.983764 -0.078036 -0.161473 
-2.25664 0.160818 -0.144157 -0.920652 -0.37962 -0.090915 
-1.89484 2.04979 -0.2729 -0.9953 0.096622 0.00161701 
-2.3016 1.36311 0.00528318 -0.888485 0.103092 -0.447127 
-2.01887 0.955743 -0.465321 -0.894192 0.145817 0.4232 
-2.22624 0.0815511 -0.492058 -0.826258 -0.544298 0.144932 
-2.26952 0.262098 0.556549 -0.638905 -0.768548 -0.0328381 
-2.29457 0.325123 1.38851 -0.64864 -0.726005 0.228278 
-2.43545 0.620778 1.66116 -0.831599 -0.439344 0.339671 
-2.41417 0.261942 -0.996685 -0.897916 -0.432508 0.0814539 
-2.44128 0.376819 -1.74596 -0.860195 -0.397412 -0.319468 
-2.34662 1.48533 -1.91467 -0.771416 0.465865 -0.433363 
-2.42552 0.842681 -1.95807 -0.87344 -0.0781879 -0.480544 
-2.35254 1.70951 -1.16894 -0.950255 0.311228 0.011902 
-2.32057 1.24544 -2.07728 -0.637471 0.192175 -0.746086 
-2.41417 0.261942 -0.996685 -0.897916 -0.432508 0.0814539 
-2.44128 0.376819 -1.74596 -0.860195 -0.397412 -0.319468 
-2.32057 1.24544 -2.07728 -0.637471 0.192175 -0.746086 
-2.42552 0.842681 -1.95807 -0.87344 -0.0781879 -0.480544 
-2.10422 2.17205 -0.579971 -0.953551 0.018433 0.300607 
-2.28297 1.37158 -0.771126 -0.926328 0.075228 0.36906 
-2.10422 2.17205 -0.579971 -0.953551 0.018433 0.300607 
-2.1882 2.07949 -0.722721 -0.847774 0.52324 0.0862761 
-2.22624 0.0815511 -0.492058 -0.826258 -0.544298 0.144932 
-2.10422 2.17205 -0.579971 -0.953551 0.018433 0.300607 
-2.22624 0.0815511 -0.492058 -0.826258 -0.544298 0.144932 
-2.01887 0.955743 -0.465321 -0.894192 0.145817 0.4232 
-2.15744 2.66476 0.493668 -0.886776 0.366619 -0.28132 
-2.12688 1.97318 -0.0444757 -0.805353 0.255287 -0.534989 
-1.84326 3.08881 0.349225 -0.966826 0.227149 0.116703 
-2.22794 2.63006 0.82637 -0.929472 0.357189 -0.0918 
-2.47383 0.934968 1.49196 -0.99707 0.049471 0.05829 
-1.8394 2.93253 0.104183 -0.985626 0.00946098 0.168615 
-2.15597 2.8832 -0.439205 -0.956053 0.025483 0.292062 
-1.90828 3.40825 -0.160987 -0.995727 0.070345 0.059328 
-2.09105 0.384883 -2.03491 -0.333323 -0.519242 -0.78692 
-1.92004 2.08994 -1.45604 -0.527482 -0.0233769 -0.849208 
-1.93602 2.12618 -1.06839 -0.9476 0.178045 -0.265175 
-2.12624 2.59186 -1.40981 -0.925993 -0.244484 -0.287606 
-2.1882 2.07949 -0.722721 -0.847774 0.52324 0.0862761 
-1.93602 2.12618 -1.06839 -0.9476 0.178045 -0.265175 
-2.05287 1.85304 -1.58638 -0.342631 0.843013 -0.414594 
-2.05287 1.85304 -1.58638 -0.342631 0.843013 -0.414594 
-2.18011 2.94451 -1.28158 -0.990112 0.056246 -0.128361 
-2.10422 2.17205 -0.579971 -0.953551 0.018433 0.300607 
-2.09674 2.84605 -1.5797 -0.745872 -0.00387591 -0.666036 
-1.94003 4.00934 -1.45268 -0.675954 0.688559 -0.26252 
-1.98465 3.68983 0.0408225 -0.996734 0.025636 0.076388 
-1.59541 3.11678 0.895948 -0.419446 0.785638 0.454726 
-1.72795 3.20924 0.553689 -0.812128 0.147649 0.56444 
-1.7991 4.09766 0.478685 -0.901852 0.293985 0.316568 
-2.11714 3.28513 -0.717841 -0.92233 0.357616 0.146214 
-1.57701 4.0129 -1.01766 -0.865322 0.49144 -0.0982089 
-2.34662 1.48533 -1.91467 -0.771416 0.465865 -0.433363 
-1.57701 4.0129 -1.01766 -0.865322 0.49144 -0.0982089 
-1.87595 4.12418 -0.532488 -0.961364 0.053133 -0.269997 
-1.52521 4.29307 -1.1436 -0.458388 -0.0332039 -0.888089 
-1.57701 4.0129 -1.01766 -0.865322 0.49144 -0.0982089 
-1.94003 4.00934 -1.45268 -0.675954 0.688559 -0.26252 
-2.11714 3.28513 -0.717841 -0.92233 0.357616 0.146214 
-1.72612 4.45914 0.0748686 -0.761742 0.577746 0.29313 
-1.65266 4.35351 0.611891 -0.624439 0.576281 0.527146 
-1.63347 4.67436 -1.02521 -0.709983 0.306803 -0.633839 
-2.40053 0.869926 1.89603 -0.742485 -0.0952181 0.663015 
-2.27364 1.52921 1.79314 -0.754265 0.276223 0.595599 
-2.40053 0.869926 1.89603 -0.742485 -0.0952181 0.663015 
-1.79936 1.4063 2.1032 -0.133183 0.964507 0.227973 
-2.27364 1.52921 1.79314 -0.754265 0.276223 0.595599 
-2.40053 0.869926 1.89603 -0.742485 -0.0952181 0.663015 
-2.05287 1.85304 -1.58638 -0.342631 0.843013 -0.414594 
-2.0656 2.67305 1.51977 -0.39021 0.50734 0.768303 
-2.18054 2.81317 1.33012 -0.670339 0.674032 0.310282 
-1.63347 4.67436 -1.02521 -0.709983 0.306803 -0.633839 
-1.47708 5.14804 -0.742243 -0.510605 0.817805 -0.265389 
-1.47708 5.14804 -0.742243 -0.510605 0.817805 -0.265389 
-1.58383 5.04242 -0.497312 -0.824274 0.557329 0.0995821 
-1.19154 4.51095 0.317026 -0.325999 0.78692 0.52385 
-1.58383 5.04242 -0.497312 -0.824274 0.557329 0.0995821 
-1.72612 4.45914 0.0748686 -0.761742 0.577746 0.29313 
-1.59541 3.11678 0.895948 -0.419446 0.785638 0.454726 
-1.84326 3.08881 0.349225 -0.966826 0.227149 0.116703 
-1.90178 2.92004 0.660496 -0.566576 0.79223 0.226478 
-1.90178 2.92004 0.660496 -0.566576 0.79223 0.226478 
-2.22794 2.63006 0.82637 -0.929472 0.357189 -0.0918 
-1.58383 5.04242 -0.497312 -0.824274 0.557329 0.0995821 
3 0 1 2 
3 1 3 2 
3 4 5 6 
3 7 8 9 
3 8 6 9 
3 4 6 8 
3 8 10 4 
3 11 4 10 
3 12 13 14 
3 13 7 14 
3 15 16 17 
3 5 4 18 
3 5 19 2 
3 19 20 2 
3 21 22 11 
3 4 11 22 
3 0 2 20 
3 5 18 19 
3 19 18 23 
3 24 25 13 
3 13 25 7 
3 7 25 8 
3 10 25 24 
3 8 25 10 
3 24 11 10 
3 26 11 24 
3 18 4 22 
3 20 19 27 
3 23 27 19 
3 20 27 0 
3 28 29 30 
3 11 31 21 
3 18 22 21 
3 32 33 34 
3 33 35 34 
3 36 37 38 
3 0 27 39 
3 29 28 23 
3 27 23 28 
3 13 40 24 
3 24 40 26 
3 41 42 43 
3 13 44 45 
3 44 46 45 
3 12 44 13 
3 47 48 49 
3 30 50 28 
3 50 27 28 
3 50 39 27 
3 51 52 53 
3 42 54 53 
3 55 56 57 
3 58 56 59 
3 55 59 56 
3 13 45 40 
3 45 46 40 
3 60 43 52 
3 42 52 43 
3 52 42 53 
3 61 57 56 
3 62 29 63 
3 63 29 64 
3 52 65 60 
3 66 60 65 
3 26 31 11 
3 31 67 21 
3 18 64 23 
3 23 64 29 
3 68 65 52 
3 67 31 63 
3 69 70 63 
3 71 63 70 
3 32 72 33 
3 73 69 63 
3 63 74 73 
3 75 76 77 
3 71 75 77 
3 70 78 75 
3 75 71 70 
3 79 80 81 
3 82 83 84 
3 85 69 83 
3 84 83 69 
3 79 81 86 
3 87 83 82 
3 51 88 52 
3 74 84 73 
3 69 73 84 
3 54 89 53 
3 82 90 87 
3 87 91 83 
3 85 83 91 
3 92 93 94 
3 95 49 96 
3 29 62 30 
3 97 47 95 
3 98 99 100 
3 47 49 95 
3 63 71 62 
3 101 102 103 
3 104 105 71 
3 62 71 105 
3 104 71 77 
3 81 106 86 
3 91 87 107 
3 107 87 108 
3 107 108 109 
3 110 111 112 
3 110 113 111 
3 91 107 114 
3 115 116 117 
3 118 119 120 
3 121 122 123 
3 124 105 104 
3 104 77 76 
3 125 126 127 
3 128 127 126 
3 129 123 130 
3 119 118 131 
3 127 132 125 
3 130 123 122 
3 119 131 133 
3 132 127 134 
3 135 132 134 
3 129 130 136 
3 78 137 75 
3 106 81 138 
3 138 81 139 
3 140 141 142 
3 140 143 141 
3 144 141 143 
3 145 146 147 
3 138 139 148 
3 149 148 139 
3 150 151 152 
3 140 142 153 
3 138 154 106 
3 145 119 146 
3 119 155 146 
3 156 138 148 
3 157 158 159 
3 160 161 162 
3 163 164 165 
3 146 166 147 
3 167 168 169 
3 146 155 166 
3 170 156 148 
3 142 171 172 
3 151 173 152 
3 174 175 176 
3 177 178 179 
3 180 181 182 
3 148 183 184 
3 175 185 176 
3 186 184 183 
3 187 188 178 
3 179 178 188 
3 189 190 191 
3 192 193 187 
3 192 187 178 
3 194 195 172 
3 196 197 198 
3 198 197 199 
3 200 197 196 
3 201 169 196 
3 201 202 167 
3 201 167 169 
3 201 198 202 
3 189 191 203 
3 204 203 191 
3 196 198 201 
3 205 206 207 
3 206 205 208 
3 184 170 148 
3 200 196 169 
3 209 210 211 
3 187 212 188 
3 193 212 187 
3 186 213 184 
3 206 208 214 
3 215 206 214 
3 216 217 218 
3 216 219 220 
3 219 221 220 
3 221 209 222 
3 222 209 211 
3 223 210 209 
3 219 224 221 
3 221 224 209 
3 205 207 225 
3 209 224 223 
3 215 207 206 
3 226 227 228 
3 189 203 229 
3 230 231 232 
3 232 233 230 
3 233 234 230 
3 235 229 203 
3 236 228 227 
3 237 238 239 
3 220 221 222 
3 240 241 242 
3 243 220 244 
3 222 244 220 
3 245 246 247 
3 239 238 248 
3 217 216 220 
3 220 243 249 
3 250 251 252 
3 251 253 252 
3 254 244 255 
3 254 243 244 
3 256 255 244 
3 257 258 259 
3 254 260 243 
3 261 258 262 
3 257 262 258 
3 263 251 264 
3 250 264 251 
3 265 266 267 
3 266 268 267 
3 261 269 258 
3 252 253 267 
3 258 270 271 
3 265 272 266 
3 259 258 271 
3 273 259 271 
3 274 275 276 
3 265 276 272 
3 275 272 276 
3 263 277 251 
3 278 253 251 
3 279 251 277 
3 267 253 265 
3 280 281 274 
3 280 274 276 
3 253 276 265 
3 282 276 253 
3 278 251 279 
3 278 282 253 
3 283 284 285 
3 284 286 285 
3 279 277 285 
3 279 285 286 
3 287 288 289 
3 290 291 292 
3 293 290 292 
3 276 282 280 
3 287 294 288 
3 295 288 296 
3 295 289 288 
3 291 297 292 
3 298 296 294 
3 296 288 294 
3 296 299 295 
3 300 299 296 
3 300 296 298 
3 294 287 301 
3 301 298 294 
3 302 301 287 
3 303 301 304 
3 305 306 307 
3 308 304 309 
3 309 304 293 
3 292 309 293 
3 302 293 304 
3 310 297 311 
3 311 297 291 
3 292 312 309 
3 300 298 303 
3 300 303 313 
3 298 301 303 
3 313 314 315 
3 316 308 312 
3 308 309 312 
3 317 308 318 
3 312 297 316 
3 312 292 297 
3 319 320 316 
3 316 320 308 
3 308 320 318 
3 318 321 322 
3 317 304 308 
3 323 314 317 
3 314 313 303 
3 324 325 326 
3 327 328 329 
3 318 323 317 
3 316 297 310 
3 310 319 316 
3 314 323 315 
3 323 330 315 
3 318 322 323 
3 323 322 330 
3 331 332 333 
3 330 332 331 
3 332 330 322 
3 334 335 336 
3 331 336 335 
3 322 321 332 
3 333 332 321 
3 321 320 337 
3 318 320 321 
3 338 321 337 
3 331 333 336 
3 321 338 339 
3 339 338 340 
3 333 321 339 
3 341 342 343 
3 334 344 335 
3 343 335 344 
3 343 342 335 
3 339 345 336 
3 340 345 339 
3 333 339 336 
3 345 334 336 
3 346 347 348 
3 349 348 350 
3 350 348 347 
3 346 348 351 
3 352 351 348 
3 353 319 310 
3 349 352 348 
3 354 355 356 
3 357 358 359 
3 360 112 356 
3 356 355 360 
3 357 359 361 
3 350 347 356 
3 356 347 362 
3 347 363 362 
3 364 359 358 
3 346 363 347 
3 350 112 365 
3 350 356 112 
3 320 319 337 
3 366 367 368 
3 369 370 371 
3 372 373 374 
3 319 353 337 
3 375 376 377 
3 378 379 380 
3 381 311 291 
3 382 365 383 
3 384 355 354 
3 355 385 360 
3 110 360 385 
3 379 386 55 
3 350 365 349 
3 112 383 365 
3 7 9 387 
3 15 388 380 
3 379 15 380 
3 379 16 15 
3 55 16 379 
3 369 389 370 
3 57 16 55 
3 355 384 385 
3 385 384 390 
3 357 361 391 
3 110 385 392 
3 393 172 171 
3 393 194 172 
3 283 285 263 
3 277 263 285 
3 346 351 394 
3 395 396 283 
3 394 397 346 
3 346 397 363 
3 385 390 398 
3 396 395 399 
3 263 395 283 
3 263 264 395 
3 400 107 109 
3 401 400 109 
3 402 403 404 
3 112 360 110 
3 142 141 171 
3 405 406 299 
3 407 408 409 
3 299 313 405 
3 313 299 300 
3 410 409 411 
3 408 411 409 
3 412 413 409 
3 335 342 331 
3 408 414 415 
3 315 331 342 
3 330 331 315 
3 408 407 414 
3 415 416 408 
3 406 295 299 
3 417 418 406 
3 406 418 295 
3 295 418 289 
3 419 420 421 
3 420 419 422 
3 423 421 420 
3 423 420 424 
3 425 275 426 
3 426 275 281 
3 275 274 281 
3 412 409 410 
3 427 412 410 
3 423 428 421 
3 428 429 430 
3 428 431 429 
3 432 433 434 
3 423 431 428 
3 411 435 436 
3 436 435 437 
3 437 435 438 
3 438 435 439 
3 435 411 439 
3 440 441 410 
3 410 441 427 
3 441 440 442 
3 410 436 437 
3 437 440 410 
3 410 411 436 
3 424 420 443 
3 425 272 275 
3 444 445 446 
3 447 448 449 
3 445 444 450 
3 451 446 427 
3 445 427 446 
3 448 447 452 
3 421 428 430 
3 447 449 273 
3 259 273 449 
3 430 419 421 
3 446 451 453 
3 451 454 453 
3 441 451 427 
3 442 437 455 
3 456 457 437 
3 458 437 457 
3 458 455 437 
3 459 442 460 
3 442 440 437 
3 441 459 451 
3 441 442 459 
3 454 451 459 
3 425 461 272 
3 197 462 199 
3 442 463 464 
3 442 464 460 
3 442 455 463 
3 465 466 467 
3 463 455 468 
3 469 468 455 
3 470 464 463 
3 439 408 416 
3 439 411 408 
3 438 439 471 
3 472 473 474 
3 438 471 475 
3 465 208 466 
3 37 36 476 
3 439 416 471 
3 259 449 257 
3 249 260 477 
3 453 444 446 
3 217 220 249 
3 260 249 243 
3 475 478 479 
3 438 475 479 
3 466 208 205 
3 202 198 480 
3 199 480 198 
3 480 481 202 
3 470 463 482 
3 483 482 463 
3 484 485 486 
3 468 483 463 
3 487 488 489 
3 479 490 438 
3 488 491 489 
3 455 458 469 
3 145 120 119 
3 492 120 145 
