ply
format ascii 1.0
comment VCGLIB generated
element vertex 479
property float x
property float y
property float z
property float nx
property float ny
property float nz
element face 448
property list uchar int vertex_indices
end_header
0.391525 -0.146002 -0.421371 0.4737476 0.2712856 -0.837835 
0.226608 -0.174899 -0.530655 0.7686383 0.2839371 -0.5732146 
0.129929 0.512434 -0.354065 0.6674778 0.2539471 -0.6999887 
0.306854 0.582678 -0.218323 0.5564233 0.1829103 -0.8105165 
-0.196182 -0.451164 -1.38223 0.051705 -0.5115669 -0.8576864 
-0.331558 -0.463049 -1.3676 -0.03742279 -0.551222 -0.833519 
-0.341843 -0.315642 -1.46478 -0.01209873 -0.5394464 -0.841933 
-0.239822 -0.329078 -1.45493 0.06431968 -0.5077896 -0.8590767 
-0.434143 -0.459492 -1.36263 -0.0458831 -0.558667 -0.828122 
-0.447296 -0.349544 -1.43776 -0.04588328 -0.5586665 -0.8281223 
-0.379791 -0.152539 -0.498276 -0.8252508 0.1628607 -0.5407749 
-0.478897 -0.217896 -0.239777 -0.8507737 0.08899157 -0.5179428 
-0.480667 0.512434 -0.218323 -0.8116465 0.2505981 -0.5276652 
-0.314255 0.512434 -0.384735 -0.6773486 0.2799892 -0.6802977 
-1.62668 -0.522631 -0.00141907 -0.398297 -0.891848 -0.2143984 
-1.63032 -0.549804 0.0780789 -0.03265573 -0.9939196 -0.1051545 
-1.74158 -0.392402 0.082336 -0.785422 -0.6165974 -0.0540371 
-1.70651 -0.441888 0.0325009 -0.7834165 -0.6078284 -0.1296281 
-1.6125 -0.540843 0.159744 0.3458168 -0.9374552 -0.03985519 
-1.69536 -0.456168 0.158844 -0.7757415 -0.6233812 0.09808768 
-0.664291 -0.170594 0.370071 -0.8037635 0.2865115 0.5214167 
-0.575302 -0.170595 0.582642 -0.8307611 0.3137311 0.4597921 
-0.366196 0.587521 0.391388 -0.6271417 0.3255224 0.7076218 
-0.480667 0.587521 0.236343 -0.7806243 0.3029793 0.5466528 
-0.023865 -0.604167 1.57977 -0.5868189 -0.3456042 0.7322577 
0.063568 -0.663938 1.60097 -0.5513331 -0.3802601 0.7425861 
0.064926 -0.545265 1.67586 -0.6301404 -0.1509526 0.7616669 
0.001297 -0.547459 1.61438 -0.6648105 -0.01442204 0.7468728 
0.063568 -0.663938 1.60097 0.7188354 -0.3349437 0.6091703 
0.114258 -0.609094 1.58255 0.937483 -0.09318638 0.3353237 
0.10437 -0.55034 1.61528 0.9324813 0.0291972 0.3600365 
0.064926 -0.545265 1.67586 0.8308509 0.2196425 0.511316 
0.220306 -0.208443 0.534073 0.6182699 0.04928234 0.7844194 
0.412979 -0.175455 0.394241 0.6003122 0.2051011 0.7730193 
0.306854 0.660373 0.236343 0.7991174 0.2425237 0.5500852 
0.140427 0.59013 0.402771 0.572597 0.2351369 0.7853938 
1.20425 -0.416734 -0.090759 0.8658233 -0.3343054 0.3722768 
1.22374 -0.435334 -0.160034 0.8748844 -0.3463002 0.3386051 
1.26553 -0.335639 -0.166153 0.9216089 -0.1243562 0.3676583 
1.25047 -0.321202 -0.112381 0.9230136 -0.0002760904 0.3847673 
1.22374 -0.435334 -0.160034 0.9077815 -0.3900942 -0.1541403 
1.21379 -0.429464 -0.233429 0.6796838 -0.2311934 -0.6961175 
1.25783 -0.331083 -0.223114 0.7656939 -0.09060382 -0.6367918 
1.26553 -0.335639 -0.166153 0.952791 0.1386871 -0.2701021 
0.226608 -0.174899 -0.530655 0.03280898 -0.833702 -0.5512391 
0.391525 -0.146002 -0.421371 0.2733609 -0.9433881 -0.1878637 
-0.086914 -0.243539 0.00901797 -0.01541556 -0.9982063 -0.05784979 
-0.125626 -0.197508 -0.449249 0.001373993 -0.8223142 -0.569032 
-0.379791 -0.152539 -0.498276 -0.009156339 -0.8951952 -0.4455802 
-0.478897 -0.217896 -0.239777 -0.3509882 -0.8733142 -0.3378308 
-0.525116 -0.217896 -0.067261 -0.4079729 -0.9099388 -0.07463007 
-0.664291 -0.170594 0.370071 -0.3591579 -0.9316707 0.05472938 
-0.575302 -0.170595 0.582642 -0.3945059 -0.7370266 0.5487776 
-0.249008 -0.309306 0.550064 -0.3231742 -0.8361145 0.4432504 
0.220306 -0.208443 0.534073 0.1879421 -0.9811768 -0.0443846 
0.412979 -0.175455 0.394241 0.5669304 -0.8078438 0.1611782 
0.345139 -0.258627 -0.045212 0.3900023 -0.9182851 -0.06819574 
0.231369 7.28498 -0.176557 0.2136168 0.7500051 -0.6259874 
0.087601 7.21796 -0.284086 0.265748 0.7341794 -0.6247868 
-0.086914 7.529 0.00718899 0.1588258 0.8508115 -0.5008934 
-0.078049 7.21796 -0.38693 0.2293817 0.7665551 -0.5998144 
-0.270645 7.30405 -0.311064 0.06665708 0.7962435 -0.601293 
-0.37204 7.42132 -0.150221 -0.1225262 0.908496 -0.3995278 
-0.454376 7.41923 0.00718897 -0.2835883 0.9492966 -0.1356968 
-0.454376 7.41923 0.00718897 -0.2509823 0.8401521 0.480783 
-0.445145 7.34208 0.146822 -0.6764859 0.1303206 0.7248334 
-0.086914 7.529 0.00718899 -0.1410047 0.7761788 0.6145438 
-0.270645 7.23074 0.325457 -0.5615689 0.05573644 0.8255507 
-0.086914 7.23074 0.374697 -0.2334125 0.05518014 0.9708109 
0.021881 7.25833 0.338183 -0.07604749 0.7594872 0.646062 
0.231369 7.41892 0.19095 -0.1168351 0.7496562 0.6514331 
0.231369 7.41892 0.19095 0.3170964 0.9482073 0.01878124 
0.280609 7.40609 0.00718897 0.2997532 0.8963457 -0.3266688 
0.107208 0.912651 -0.315308 0.57287 0.07199316 -0.8164784 
0.267136 0.912651 -0.195709 0.6518719 0.07117031 -0.7549821 
-0.076859 0.62585 -0.475922 0.5632985 0.3849913 -0.7310791 
-0.071701 0.807433 -0.444992 0.5446667 0.08740088 -0.8340859 
-0.076859 0.62585 -0.475922 -0.439638 0.2598689 -0.8597596 
-0.285919 0.807433 -0.360596 -0.6280183 0.09613292 -0.7722381 
-0.071701 0.807433 -0.444992 -0.3820532 0.07083682 -0.9214215 
-0.404083 0.912651 -0.166428 -0.8396635 0.1120503 -0.5314226 
-0.54158 0.671013 0.00901809 -0.6285272 0.5469996 -0.5529422 
-0.495682 0.912651 0.00869812 -0.9671002 0.1009866 -0.2334927 
-0.54158 0.671013 0.00901809 -0.9025542 0.2609235 0.3425125 
-0.467239 1.05972 0.165009 -0.8555232 0.07647219 0.512086 
-0.495682 0.912651 0.00869812 -0.9724621 0.101861 0.209623 
-0.273132 1.05972 0.363739 -0.5169559 0.09086107 0.8511762 
-0.086914 0.793685 0.463684 -0.5261228 0.5776567 0.6241055 
-0.086914 0.912651 0.41748 -0.1262659 0.08328103 0.9884944 
-0.086914 0.793685 0.463684 0.3438574 0.2289318 0.9106878 
0.087372 0.912651 0.402954 0.5534308 0.08837362 0.8281935 
-0.086914 0.912651 0.41748 0.2461551 0.1297061 0.9605124 
0.244995 1.04015 0.219696 0.8645196 0.07972714 0.4962353 
0.367752 0.73553 0.0090181 0.853716 0.3956433 0.3385786 
0.299759 1.04015 0.0152891 0.9545628 0.1226048 0.2716209 
0.367752 0.73553 0.0090181 0.64325 0.127474 -0.7549701 
0.299759 1.04015 0.0152891 0.7006904 0.05310994 -0.711486 
-0.219055 -0.0565771 0.924454 -0.19782 -0.9669285 -0.1609862 
-0.56102 0.0779559 0.760391 -0.1827418 -0.8940061 -0.4090948 
-0.472809 0.32685 0.742477 -0.5702416 0.6690309 0.4766783 
-0.288986 0.441217 0.779999 -0.5489268 0.6166945 0.5642405 
-0.366196 0.587521 0.391388 -0.9551352 0.2485466 -0.161063 
-0.575302 -0.170595 0.582642 -0.9551354 0.2485461 -0.1610631 
-0.56102 0.0779559 0.760391 -0.933057 0.2513396 -0.257358 
-0.472809 0.32685 0.742477 -0.9015098 0.2516679 -0.352056 
-0.249008 -0.309306 0.550064 0.4281801 -0.5680101 0.7028701 
-0.046371 0.0779559 0.739578 0.825503 -0.1445621 0.54557 
-0.219055 -0.0565771 0.924454 0.4281799 -0.5680108 0.7028698 
-0.089264 0.32685 0.721664 0.7092717 0.41809 0.5675689 
-0.288986 0.441217 0.779999 0.5535388 0.5118532 0.6569635 
-0.178726 -0.18712 1.04718 -0.1479602 -0.8339655 -0.53161 
-0.436951 -0.0519391 0.95079 -0.2842462 -0.8629192 -0.4178212 
-0.366882 0.126813 0.989166 -0.6227625 0.3054082 0.7203421 
-0.203979 0.215455 1.05653 -0.5736198 0.4198125 0.7033618 
-0.794815 -0.562899 1.08087 -0.2975003 -0.930886 -0.2120022 
-0.750168 -0.575602 1.06071 -0.2975 -0.9308861 -0.212002 
-0.718216 -0.590854 1.09613 -0.2975003 -0.930886 -0.2120022 
-0.749023 -0.588857 1.11731 -0.2975 -0.9308861 -0.212002 
-0.046371 0.0779559 0.739578 0.06740409 -0.7699659 -0.6345149 
-0.039658 -0.0584641 0.945801 0.06740405 -0.7699655 -0.6345155 
-0.070602 0.122999 0.981674 0.8283805 0.5176164 0.2141471 
-0.039658 -0.0584641 0.945801 0.9838114 0.1659731 0.06758802 
-0.203979 0.215455 1.05653 0.6219 0.6942953 0.3622079 
-0.274963 -0.144648 1.07715 -0.4227793 -0.8094529 -0.4074845 
-0.076492 -0.280291 1.12524 -0.4381964 -0.8437947 -0.3098298 
0.063568 -0.663938 1.60097 -0.4029712 -0.7667563 -0.4996989 
-0.023865 -0.604167 1.57977 -0.402971 -0.766757 -0.499698 
-0.07132 0.0320868 1.27623 -0.6408957 0.32469 0.6955782 
-0.217804 -0.0159582 1.1557 -0.6558983 0.06483021 0.7520602 
-0.274963 -0.144648 1.07715 -0.6677167 -0.1045487 0.7370374 
-0.076492 -0.280291 1.12524 0.6883438 -0.3953645 -0.6081693 
0.038559 -0.15583 1.08344 0.8948809 0.007146291 -0.4462479 
0.114258 -0.609094 1.58255 0.4470647 -0.6274002 -0.6375752 
0.063568 -0.663938 1.60097 0.4470643 -0.6273984 -0.6375774 
0.038559 -0.15583 1.08344 0.9862162 0.1654607 0.0006992058 
0.016144 -0.0224962 1.15771 0.8398007 0.4731083 0.2662767 
-0.07132 0.0320868 1.27623 0.7152761 0.6384159 0.2842625 
0.544754 -0.167498 -0.041321 0.1123658 -0.9924594 0.04897278 
0.478271 -0.103876 0.195618 0.1897533 -0.9630229 0.1912602 
0.636261 0.222902 0.121674 0.7027511 0.3422735 0.6236905 
0.687836 0.266143 -0.062241 0.7122999 0.5950143 0.3722727 
1.06685 -0.354155 0.89975 0.3806029 -0.863591 0.3306844 
1.02136 -0.401737 0.863037 0.0009142885 -0.9986357 -0.05221069 
1.08894 -0.39698 0.762482 0.0009142887 -0.9986357 -0.05221048 
1.11162 -0.374872 0.829315 0.3806022 -0.8635913 0.3306841 
0.510742 -0.147419 -0.292419 0.1188762 -0.9825157 -0.1432882 
0.661423 0.189105 -0.257126 0.2912528 0.2309882 -0.9283406 
0.510742 -0.147419 -0.292419 0.0920907 0.1932324 -0.9768217 
0.306854 0.582678 -0.218323 0.6717359 0.5833858 -0.4565436 
0.367752 0.73553 0.0090181 0.671737 0.583385 -0.456543 
0.687836 0.266143 -0.062241 0.6046438 0.6584764 -0.4481236 
0.661423 0.189105 -0.257126 0.5305828 0.7275175 -0.4349714 
0.786224 -0.251666 -0.134125 -0.1624315 -0.9863963 0.02526862 
0.733902 -0.201578 0.052399 -0.1106664 -0.9934602 0.02810316 
0.858276 0.055686 -0.00581399 0.4265691 0.3283621 0.8427438 
0.898865 0.109432 -0.150604 0.368755 0.3803239 0.8481588 
0.478271 -0.103876 0.195618 0.4788782 -0.03301471 0.8772604 
0.733902 -0.201578 0.052399 0.376687 0.02739907 0.9259353 
0.75943 -0.235858 -0.331802 -0.2395221 -0.9698429 -0.04510122 
0.878082 0.029078 -0.304016 0.007935937 0.1007862 -0.9948765 
0.75943 -0.235858 -0.331802 0.1201194 0.0501962 -0.9914896 
0.898865 0.109432 -0.150604 0.419989 0.7855948 -0.4543677 
0.878082 0.029078 -0.304016 0.3870634 0.7809229 -0.4902462 
0.090759 0.206145 -0.658051 0.7119849 0.4396481 -0.5475281 
-0.088318 0.293928 -0.706512 0.555416 0.507635 -0.65865 
0.208557 -0.0489289 -0.610641 0.9345097 0.2477154 -0.2555949 
-0.088318 0.293928 -0.706512 -0.5503355 0.5955586 -0.5851845 
-0.217712 0.201789 -0.674042 -0.6266481 0.6287176 -0.4604633 
-0.697693 -0.179542 -0.093597 -0.1926039 -0.9756487 -0.1049446 
-0.684143 -0.078192 -0.229706 -0.03255875 -0.8924341 -0.4500015 
-0.981766 0.222968 -0.171661 -0.4694492 0.7288651 -0.4983703 
-0.992081 0.30262 -0.064911 -0.4785019 0.7022021 -0.527208 
-0.480667 0.512434 -0.218323 -0.09056608 0.05037004 -0.9946159 
-0.478897 -0.217896 -0.239777 -0.0905662 0.05036999 -0.9946159 
-0.684143 -0.078192 -0.229706 -0.09056608 0.05037004 -0.9946159 
-0.981766 0.222968 -0.171661 -0.0905662 0.05036999 -0.9946159 
-0.734467 -0.100032 0.147003 -0.2911061 -0.9466528 0.1382231 
-0.940292 0.169706 0.044724 -0.5059882 0.4640258 0.7270874 
-0.734467 -0.100032 0.147003 -0.3418861 0.295176 0.8921799 
-0.992081 0.30262 -0.064911 -0.5169034 0.5805141 0.6291377 
-0.093979 -0.0694779 -0.654404 -0.04872718 -0.9984453 -0.02706692 
0.208557 -0.0489289 -0.610641 -0.07208144 -0.9887352 0.1311753 
-0.332977 -0.0664759 -0.687485 -0.05492125 -0.9984232 0.01161393 
-0.332977 -0.0664759 -0.687485 -0.6967494 0.5410894 -0.4709167 
-0.914185 -0.182182 -0.077271 0.07161368 -0.997061 -0.02721974 
-0.9776 -0.142281 -0.179337 -0.193956 -0.9793106 0.05772172 
-1.22188 0.104869 -0.121338 -0.4997116 0.5888492 -0.6352518 
-1.15581 0.189449 -0.048599 -0.5869103 0.6932535 -0.4182535 
-1.57364 -0.503114 -0.627472 -0.6796181 -0.695798 -0.2323458 
-1.50053 -0.577051 -0.605576 -0.6796178 -0.6957978 -0.2323469 
-1.5629 -0.540795 -0.546051 -0.6796181 -0.695798 -0.2323458 
-1.61 -0.484789 -0.561676 -0.6796178 -0.6957978 -0.2323469 
-0.928726 -0.123924 0.129898 0.07029864 -0.9608878 0.267867 
-1.11328 0.104432 0.060974 -0.2233305 0.5785439 0.784481 
-0.928726 -0.123924 0.129898 -0.2156083 0.5866538 0.780609 
-1.15581 0.189449 -0.048599 -0.2821085 0.6657032 0.6908358 
-0.074753 -0.262227 -1.06278 0.06754141 -0.8723519 0.4841903 
-0.279572 -0.295806 -1.06786 -0.02006388 -0.8644943 0.502242 
-0.331558 -0.463049 -1.3676 0.07535251 -0.8745589 0.479029 
-0.196182 -0.451164 -1.38223 0.130012 -0.8747669 0.466776 
-0.287201 -0.0671408 -1.23355 0.4002956 0.6438434 -0.652096 
-0.167847 -0.104042 -1.1716 0.4349231 0.6478626 -0.6253927 
-0.239822 -0.329078 -1.45493 0.3649654 0.638594 -0.6774939 
-0.341843 -0.315642 -1.46478 0.3649659 0.6385948 -0.6774928 
-0.167847 -0.104042 -1.1716 0.3811142 -0.2962444 -0.8757804 
-0.074753 -0.262227 -1.06278 0.6493473 -0.02801589 -0.7599758 
-0.456924 -0.282313 -1.0627 -0.05860715 -0.8572176 0.5116086 
-0.434143 -0.459492 -1.36263 -0.03467751 -0.8658965 0.4990199 
-0.456924 -0.282313 -1.0627 -0.9130706 0.384964 -0.1345542 
-0.388916 -0.122056 -1.20151 -0.6431219 0.6750594 -0.3615095 
-0.447296 -0.349544 -1.43776 -0.8955154 0.366035 -0.2531216 
-0.434143 -0.459492 -1.36263 -0.9860247 0.1577451 -0.05358814 
-0.287201 -0.0671408 -1.23355 -0.517697 0.7566042 -0.3994245 
-0.341843 -0.315642 -1.46478 -0.4551144 0.6765949 -0.5788699 
-1.29623 -0.128407 -0.087234 0.5540116 -0.828646 -0.08010641 
-1.30243 -0.174855 0.04863 0.4446042 -0.8954298 0.02308076 
-1.41415 0.004994 0.021591 -0.6725953 0.5200483 -0.5264649 
-1.37712 -0.029482 -0.072464 -0.5204274 0.3265153 -0.789014 
-1.70651 -0.441888 0.0325009 -0.5797659 0.3056008 -0.7553011 
-1.74158 -0.392402 0.082336 -0.6806878 0.4308529 -0.5924779 
-1.29623 -0.128407 -0.087234 -0.276267 -0.03393084 -0.9604818 
-1.62668 -0.522631 -0.00141907 -0.2841298 0.005659495 -0.9587692 
-1.272 -0.159538 0.188217 0.3282743 -0.9387272 0.1050109 
-1.272 -0.159538 0.188217 -0.1993995 0.3268446 0.9238033 
-1.35811 -0.053891 0.143539 -0.371995 0.5779522 0.7263547 
-1.69536 -0.456168 0.158844 -0.3032386 0.2647592 0.9153955 
-1.6125 -0.540843 0.159744 -0.143839 0.10788 0.9837033 
-1.41415 0.004994 0.021591 -0.3996047 0.6705296 0.625065 
-1.74158 -0.392402 0.082336 -0.5707595 0.5337446 0.6239794 
1.006 -0.224043 0.013016 -0.5068836 -0.8617793 -0.02013458 
1.04451 -0.260861 -0.1241 -0.3905505 -0.9204437 -0.01592861 
1.22374 -0.435334 -0.160034 -0.6965418 -0.7174523 0.009576333 
1.20425 -0.416734 -0.090759 -0.6979643 -0.7161222 -0.003852892 
1.1273 0.029111 -0.136215 0.7160971 0.3207592 0.6199343 
1.09744 -0.034935 -0.02977 0.6070289 0.0491308 0.7931596 
1.006 -0.224043 0.013016 0.4486102 -0.0009127231 0.8937271 
1.02481 -0.249241 -0.269409 -0.2691805 -0.962452 -0.03504396 
1.21379 -0.429464 -0.233429 -0.6933091 -0.7197191 0.03642945 
1.02481 -0.249241 -0.269409 0.2092485 0.008861479 -0.9778224 
1.11203 -0.054494 -0.248978 0.5536226 0.1818799 -0.8126634 
1.1273 0.029111 -0.136215 0.8718809 0.3880239 -0.298766 
-0.039658 -0.0584641 0.945801 0.9226747 0.2324826 -0.3076091 
-0.070602 0.122999 0.981674 0.9229992 0.2567461 -0.2866251 
0.016144 -0.0224962 1.15771 0.923512 0.2423726 -0.2972898 
-0.178726 -0.18712 1.04718 0.9204337 0.2125612 -0.328054 
-0.436951 -0.0519391 0.95079 -0.6834283 0.005181732 0.7299993 
-0.688156 -0.00651313 0.973785 -0.88634 0.2411723 -0.3952688 
-0.682526 0.135729 1.02959 -0.9087406 0.2320924 -0.3468772 
-0.557114 -0.0742781 1.09027 -0.09977443 -0.7993644 -0.5925046 
-0.688156 -0.00651313 0.973785 -0.09977446 -0.7993657 -0.5925028 
-0.436951 -0.0519391 0.95079 0.6903815 -0.3292082 0.6442015 
-0.366882 0.126813 0.989166 0.3708423 0.5452337 0.7517954 
-0.575821 0.0506458 1.15204 0.6851983 0.04313364 0.7270783 
-0.557114 -0.0742781 1.09027 0.7865639 -0.1186255 0.6060076 
-0.472809 0.32685 0.742477 0.09637471 0.8138191 0.5730711 
-0.682526 0.135729 1.02959 0.09637449 0.8138199 0.57307 
-0.804932 -0.273707 1.10553 -0.9338262 0.1489923 -0.325223 
-0.846771 -0.232831 1.2995 -0.9334368 0.07423636 -0.3509767 
-0.688156 -0.00651313 0.973785 0.4281796 -0.5847887 -0.6889735 
-0.557114 -0.0742781 1.09027 0.4281808 -0.5847887 -0.6889727 
-0.654816 -0.316514 1.25763 0.5797408 -0.3465401 -0.7374351 
-0.804932 -0.273707 1.10553 0.6909413 -0.05316681 -0.7209532 
-0.756943 -0.283768 1.37102 0.7536948 -0.1901936 0.6291029 
-0.654816 -0.316514 1.25763 0.6546621 -0.3690381 0.6597185 
-0.575821 0.0506458 1.15204 -0.2724363 0.6359808 0.7220159 
-0.682526 0.135729 1.02959 -0.2724361 0.6359804 0.7220163 
-0.846771 -0.232831 1.2995 -0.5016187 0.3242934 0.8020053 
-0.756943 -0.283768 1.37102 -0.6731995 -0.121849 0.7293527 
-0.750168 -0.575602 1.06071 -0.9272693 -0.0005164247 -0.3743947 
-0.794815 -0.562899 1.08087 -0.9272692 -0.0005164271 -0.3743951 
-0.718216 -0.590854 1.09613 0.7330448 0.2195139 -0.6437848 
-0.750168 -0.575602 1.06071 0.7330434 0.2195141 -0.6437864 
-0.749023 -0.588857 1.11731 0.5333089 -0.525869 0.6626036 
-0.718216 -0.590854 1.09613 0.5333079 -0.5258709 0.6626028 
-0.794815 -0.562899 1.08087 -0.6973547 -0.4688658 0.5420898 
-0.749023 -0.588857 1.11731 -0.6973529 -0.4688659 0.542092 
0.306854 0.660373 0.236343 -0.492485 0.1043577 0.8640417 
0.412979 -0.175455 0.394241 -0.4924841 0.104358 0.8640422 
0.536316 -0.0233241 0.449707 -0.6422879 0.1860937 0.7435291 
0.603378 0.232507 0.453491 -0.7690551 0.2629481 0.5825914 
0.573837 -0.06723 0.264023 0.2050041 -0.9776827 0.04593324 
0.536316 -0.0233241 0.449707 -0.4009683 -0.9068957 -0.1294783 
0.478271 -0.103876 0.195618 0.7401166 -0.4177854 -0.5269561 
0.636261 0.222902 0.121674 0.740117 -0.417785 -0.526956 
0.715302 0.14936 0.327759 0.745844 -0.4039209 -0.5296836 
0.573837 -0.06723 0.264023 0.7513989 -0.3899611 -0.5322877 
0.636261 0.222902 0.121674 0.7746655 0.6296555 0.05854304 
0.306854 0.660373 0.236343 0.7746651 0.6296561 0.0585428 
0.603378 0.232507 0.453491 0.7746655 0.6296555 0.05854304 
0.715302 0.14936 0.327759 0.7746651 0.6296561 0.0585428 
0.531937 -0.139971 0.601883 -0.7343109 0.2063282 0.6466964 
0.655228 0.0460989 0.646393 -0.525091 0.05475863 0.8492826 
0.634491 -0.125962 0.406937 -0.5496278 -0.8038 -0.2276291 
0.531937 -0.139971 0.601883 -0.2883517 -0.9342742 -0.2097263 
0.763245 -0.0161021 0.496124 0.7567773 -0.3759161 -0.5347666 
0.634491 -0.125962 0.406937 0.7567773 -0.3759151 -0.5347672 
0.715302 0.14936 0.327759 0.7696794 0.5504095 0.3234857 
0.603378 0.232507 0.453491 0.7696781 0.550411 0.323486 
0.655228 0.0460989 0.646393 0.7696794 0.5504095 0.3234857 
0.763245 -0.0161021 0.496124 0.7696781 0.550411 0.323486 
0.884857 -0.0301351 0.717972 -0.4666312 0.05317996 0.8828518 
0.72551 -0.171609 0.647461 -0.3786401 -0.01795108 0.9253699 
1.02136 -0.401737 0.863037 -0.546694 0.1225333 0.8283184 
1.06685 -0.354155 0.89975 -0.546693 0.122534 0.8283189 
0.72551 -0.171609 0.647461 -0.2673246 -0.8991379 -0.3465383 
0.86969 -0.120578 0.446564 -0.1464731 -0.9533288 -0.2640261 
0.86969 -0.120578 0.446564 0.7868046 -0.1518739 -0.5982247 
0.990311 -0.0789461 0.552017 0.7868051 -0.151874 -0.5982241 
1.11162 -0.374872 0.829315 0.7868046 -0.1518739 -0.5982247 
1.08894 -0.39698 0.762482 0.7868051 -0.151874 -0.5982241 
0.990311 -0.0789461 0.552017 0.7486595 0.5900646 0.3022133 
0.884857 -0.0301351 0.717972 0.7486607 0.5900627 0.3022139 
1.06685 -0.354155 0.89975 0.7486595 0.5900646 0.3022133 
1.11162 -0.374872 0.829315 0.7486607 0.5900627 0.3022139 
1.1273 0.029111 -0.136215 0.3532943 0.7743958 -0.5248755 
1.11203 -0.054494 -0.248978 0.3532942 0.7743974 -0.5248733 
0.763245 -0.0161021 0.496124 0.3203398 0.9373055 -0.1372619 
0.655228 0.0460989 0.646393 0.318663 0.9408451 -0.115171 
0.884857 -0.0301351 0.717972 0.3212845 0.9379854 -0.130229 
0.990311 -0.0789461 0.552017 0.3202141 0.9355081 -0.1492906 
0.634491 -0.125962 0.406937 0.3184041 0.9358019 -0.1513068 
0.86969 -0.120578 0.446564 0.318404 0.935802 -0.151306 
0.10907 1.63012 -0.298187 0.5742612 0.01276851 -0.8185725 
0.259567 1.63012 -0.185638 0.7623744 0.01055638 -0.6470501 
-0.077637 1.76195 -0.404755 0.5334316 0.02123204 -0.8455766 
-0.277313 1.86287 -0.315369 -0.6494796 0.02028191 -0.7601085 
-0.077637 1.76195 -0.404755 -0.3845011 0.01467303 -0.923008 
-0.376831 1.86287 -0.147003 -0.866498 0.01673722 -0.4988999 
-0.464966 1.76195 0.00781323 -0.9758565 0.01666251 -0.2177758 
-0.467239 1.05972 0.165009 -0.9956665 0.02337211 0.09001094 
-0.464096 1.66471 0.162811 -0.9972701 0.01647327 0.07197896 
-0.281433 1.66471 0.349823 -0.4960292 0.008554193 0.8682638 
-0.464096 1.66471 0.162811 -0.7149076 0.00501914 0.6992009 
-0.086914 1.76195 0.392502 -0.1600992 0.02106294 0.9868762 
0.087372 0.912651 0.402954 0.08809116 0.03033039 0.9956505 
0.085068 1.86573 0.37323 0.08809105 0.03033042 0.9956506 
0.254227 1.86573 0.19458 0.8715596 0.008869004 0.4902095 
0.085068 1.86573 0.37323 0.5751953 0.0101472 0.8179532 
0.297791 1.76195 0.00781323 0.97001 0.001572983 0.2430597 
0.297791 1.76195 0.00781323 0.8690474 0.008026361 -0.4946638 
0.087601 7.21796 -0.284086 0.6702088 0.004398623 -0.7421597 
0.231369 7.28498 -0.176557 0.9018853 0.004387626 -0.4319534 
-0.078049 7.21796 -0.38693 0.5118645 0.003497506 -0.8590591 
-0.270645 7.30405 -0.311064 -0.5670596 0.001786548 -0.8236748 
-0.078049 7.21796 -0.38693 -0.387377 0.00209458 -0.921919 
-0.37204 7.42132 -0.150221 -0.8618054 0.0009738886 -0.507238 
-0.454376 7.41923 0.00718897 -0.9482979 0.001630367 -0.3173775 
-0.445145 7.34208 0.146822 -0.9993543 0.002657093 0.03583403 
-0.086914 1.76195 0.392502 0.1922179 0.005893498 0.9813346 
0.021881 7.25833 0.338183 0.3553287 0.006724407 0.9347172 
-0.086914 7.23074 0.374697 0.1922181 0.005893514 0.9813346 
0.231369 7.41892 0.19095 0.7902463 0.006665125 0.6127532 
0.280609 7.40609 0.00718897 0.970294 0.003561536 0.2419028 
0.280609 7.40609 0.00718897 0.9216658 0.004010409 -0.3879639 
-0.17067 0.135468 -0.913025 -0.5570838 0.7687924 -0.3140317 
-0.288376 0.0681501 -0.891693 -0.5787802 0.7602583 -0.2949927 
-0.359802 -0.144871 -0.832855 -0.5934931 0.7552522 -0.2781369 
-0.359802 -0.144871 -0.832855 -0.08418563 -0.8587978 0.5053505 
-0.170563 -0.162875 -0.825027 -0.0769887 -0.8598207 0.5047585 
0.025818 -0.182445 -0.924973 -0.08092126 -0.8588144 0.5058554 
0.69548 -0.305119 -1.3125 0.6227095 -0.5577745 -0.5487445 
0.716095 -0.401332 -1.25617 0.6227092 -0.5577762 -0.5487432 
0.52684 -0.45301 -1.35355 0.6227095 -0.5577745 -0.5487445 
0.625198 -0.372119 -1.38901 0.6227092 -0.5577762 -0.5487432 
-0.088318 0.293928 -0.706512 0.4565638 0.6184754 -0.6395605 
0.090759 0.206145 -0.658051 0.3564712 0.6988234 -0.6201404 
-0.030975 0.0794171 -0.873016 0.3795298 0.6899748 -0.6163538 
-0.17067 0.135468 -0.913025 0.464772 0.6401194 -0.6117468 
-0.9776 -0.142281 -0.179337 -0.2721661 -0.05370552 -0.9607505 
-0.981766 0.222968 -0.171661 0.5221794 0.5553994 -0.6471942 
-0.684143 -0.078192 -0.229706 0.5221801 0.5554001 -0.6471931 
-1.01736 -0.186798 -0.552032 0.5221794 0.5553994 -0.6471942 
-1.15163 -0.0253979 -0.561584 0.5221801 0.5554001 -0.6471931 
-1.18289 -0.175737 -0.470139 -0.08814832 -0.9938463 0.0670787 
-1.01736 -0.186798 -0.552032 0.1976097 -0.9253986 0.3234003 
-1.22188 0.104869 -0.121338 -0.6284881 -0.6388521 0.4437011 
-1.27017 -0.0562239 -0.469849 -0.6284901 -0.6388502 0.4437011 
-1.15163 -0.0253979 -0.561584 -0.4683733 0.8240938 -0.3185845 
-1.27017 -0.0562239 -0.469849 -0.4683741 0.8240931 -0.318585 
-1.15163 -0.0253979 -0.561584 0.3053796 0.1144285 -0.9453303 
-1.01736 -0.186798 -0.552032 0.30538 0.114429 -0.9453301 
-1.29915 -0.364223 -0.650253 0.2229221 -0.005213457 -0.9748223 
-1.44374 -0.217971 -0.693542 0.1335194 -0.1274576 -0.9828159 
-1.42253 -0.292505 -0.532501 0.2240428 -0.7419909 0.6318658 
-1.29915 -0.364223 -0.650253 0.224043 -0.7419899 0.6318669 
-1.18289 -0.175737 -0.470139 -0.2675983 -0.08200844 0.9600343 
-1.27017 -0.0562239 -0.469849 -0.267599 -0.08200831 0.9600341 
-1.51564 -0.181721 -0.5634 -0.2558662 -0.0290405 0.9662759 
-1.42253 -0.292505 -0.532501 -0.2433319 0.02417291 0.9696419 
-1.27017 -0.0562239 -0.469849 -0.3698592 0.8651856 -0.3386122 
-1.15163 -0.0253979 -0.561584 -0.3698589 0.8651858 -0.3386119 
-1.44374 -0.217971 -0.693542 -0.3698592 0.8651856 -0.3386122 
-1.51564 -0.181721 -0.5634 -0.3698589 0.8651858 -0.3386119 
-1.50053 -0.577051 -0.605576 0.0431362 -0.2441494 -0.9687778 
-1.57364 -0.503114 -0.627472 0.04313628 -0.2441499 -0.9687777 
-1.29915 -0.364223 -0.650253 0.53543 -0.344781 0.7709999 
-1.42253 -0.292505 -0.532501 0.5354292 -0.3447812 0.7710003 
-1.5629 -0.540795 -0.546051 0.53543 -0.344781 0.7709999 
-1.50053 -0.577051 -0.605576 0.5354292 -0.3447812 0.7710003 
-1.61 -0.484789 -0.561676 -0.2301093 0.07715511 0.9701014 
-1.5629 -0.540795 -0.546051 -0.2301089 0.07715517 0.9701015 
-1.51564 -0.181721 -0.5634 -0.8159483 0.2510645 -0.5207639 
-1.44374 -0.217971 -0.693542 -0.8159485 0.2510651 -0.5207633 
-1.57364 -0.503114 -0.627472 -0.8159483 0.2510645 -0.5207639 
-1.61 -0.484789 -0.561676 -0.8159485 0.2510651 -0.5207633 
-0.030975 0.0794171 -0.873016 0.8002865 0.2095069 -0.561826 
0.025818 -0.182445 -0.924973 0.8002863 0.2095071 -0.5618262 
0.090759 0.206145 -0.658051 0.5251116 0.3741971 0.7643523 
0.208557 -0.0489289 -0.610641 0.5251122 0.3741961 0.7643523 
0.333862 -0.108604 -0.670975 0.5251116 0.3741971 0.7643523 
0.360306 0.0399241 -0.758392 0.5251122 0.3741961 0.7643523 
0.232178 -0.336303 -0.975632 -0.01727095 -0.8630471 0.5048283 
0.333862 -0.108604 -0.670975 0.05881058 -0.872901 0.4843401 
0.025818 -0.182445 -0.924973 -0.2163245 0.1027218 -0.9709027 
-0.030975 0.0794171 -0.873016 -0.2163249 0.1027219 -0.9709025 
0.264145 -0.0889739 -0.968185 -0.3853915 0.1254835 -0.9141812 
0.232178 -0.336303 -0.975632 -0.5471046 0.1447526 -0.8244534 
0.360306 0.0399241 -0.758392 0.2190719 0.8399982 -0.4963975 
0.264145 -0.0889739 -0.968185 0.02374881 0.8380838 -0.5450245 
1.09598 -0.509735 -0.955521 0.7491514 -0.1903949 -0.6344462 
1.02577 -0.562469 -0.992462 0.7491514 -0.1903941 -0.6344464 
0.988449 -0.531044 -1.0761 0.5854493 0.02921489 -0.8101825 
1.05177 -0.449382 -0.995697 0.3261864 0.2731098 -0.9049937 
0.308182 -0.346025 -1.06805 0.1900931 -0.9271826 0.322796 
0.574875 -0.266053 -0.961655 0.192397 -0.9559379 0.2217345 
0.381607 -0.148564 -1.07788 -0.6804789 0.2038056 -0.7038549 
0.308182 -0.346025 -1.06805 -0.6739947 0.2486459 -0.6956338 
0.479721 -0.0361409 -0.917725 0.08001225 0.9108727 -0.4048569 
0.381607 -0.148564 -1.07788 -0.2452887 0.8570126 -0.4531699 
0.626205 -0.0624289 -1.09032 0.9325823 0.1941532 0.304294 
0.648788 -0.246453 -1.06848 0.8644567 0.1936884 0.463896 
0.716095 -0.401332 -1.25617 0.9718689 0.1890093 0.1405218 
0.69548 -0.305119 -1.3125 0.9718688 0.1890099 0.140522 
0.648788 -0.246453 -1.06848 0.04053181 -0.9075942 0.4178875 
0.409897 -0.303949 -1.17169 0.1705768 -0.9680754 0.1836672 
0.52684 -0.45301 -1.35355 -0.08344094 -0.7896445 0.6078646 
0.716095 -0.401332 -1.25617 -0.08344077 -0.7896427 0.6078668 
0.409897 -0.303949 -1.17169 -0.6225098 0.3443432 -0.7027869 
0.526062 -0.157875 -1.1993 -0.6447057 0.3187822 -0.6947896 
0.625198 -0.372119 -1.38901 -0.5995896 0.3694583 -0.7099246 
0.52684 -0.45301 -1.35355 -0.5995889 0.3694589 -0.7099248 
0.526062 -0.157875 -1.1993 -0.02693903 0.7690611 -0.6386073 
0.626205 -0.0624289 -1.09032 -0.1794307 0.8244119 -0.5367957 
0.69548 -0.305119 -1.3125 0.1211859 0.6888895 -0.7146645 
0.625198 -0.372119 -1.38901 0.121186 0.688889 -0.7146649 
0.479721 -0.0361409 -0.917725 0.773381 0.1876547 0.6055308 
0.574875 -0.266053 -0.961655 0.7733813 0.1876551 0.6055303 
0.360306 0.0399241 -0.758392 -0.2416168 0.5237985 0.8168577 
0.333862 -0.108604 -0.670975 -0.2416179 0.5237979 0.8168578 
0.620316 -0.189391 -0.534439 -0.2416168 0.5237985 0.8168577 
0.646774 -0.0408629 -0.621857 -0.2416179 0.5237979 0.8168578 
0.705917 -0.326828 -0.861786 0.003232673 -0.9087446 0.4173403 
0.620316 -0.189391 -0.534439 -0.05715979 -0.9285568 0.3667629 
0.574875 -0.266053 -0.961655 0.6656763 0.3963128 -0.6323063 
0.479721 -0.0361409 -0.917725 0.6656761 0.396312 -0.6323071 
0.646927 -0.113681 -0.790298 0.6656763 0.3963128 -0.6323063 
0.705917 -0.326828 -0.861786 0.6656761 0.396312 -0.6323071 
0.646774 -0.0408629 -0.621857 0.365061 0.8833538 -0.2939668 
0.646927 -0.113681 -0.790298 0.2870906 0.8909763 -0.3517673 
0.646774 -0.0408629 -0.621857 0.6297519 0.02670228 0.7763373 
0.620316 -0.189391 -0.534439 0.629752 0.0267022 0.7763371 
0.909607 -0.339739 -0.824783 0.5280972 -0.1142322 0.8414657 
0.973206 -0.203251 -0.820221 0.4035447 -0.2561373 0.8783766 
0.842438 -0.359962 -0.96347 -0.3221444 -0.8906596 0.3208558 
0.909607 -0.339739 -0.824783 -0.521875 -0.7937382 0.3124518 
0.705917 -0.326828 -0.861786 -0.4360064 0.2597402 -0.8616458 
0.646927 -0.113681 -0.790298 -0.436006 0.25974 -0.8616461 
0.896042 -0.240172 -0.93187 -0.4360064 0.2597402 -0.8616458 
0.842438 -0.359962 -0.96347 -0.436006 0.25974 -0.8616461 
0.973206 -0.203251 -0.820221 0.3834812 0.8100116 -0.443648 
0.896042 -0.240172 -0.93187 0.5512167 0.692941 -0.4647505 
1.02577 -0.562469 -0.992462 0.2692111 -0.3840806 0.8831803 
1.09598 -0.509735 -0.955521 0.2692109 -0.3840799 0.8831807 
0.988449 -0.531044 -1.0761 -0.6884295 -0.6647745 0.2900683 
1.02577 -0.562469 -0.992462 -0.6884279 -0.664776 0.290069 
0.842438 -0.359962 -0.96347 0.05935453 0.4585187 -0.8867005 
0.896042 -0.240172 -0.93187 0.05935449 0.4585179 -0.8867009 
1.09598 -0.509735 -0.955521 0.6903508 0.5529657 -0.4665241 
1.05177 -0.449382 -0.995697 0.6903499 0.552967 -0.4665239 
3 0 1 2 
3 0 2 3 
3 4 5 6 
3 4 6 7 
3 5 8 9 
3 5 9 6 
3 10 11 12 
3 10 12 13 
3 14 15 16 
3 14 16 17 
3 15 18 19 
3 15 19 16 
3 20 21 22 
3 20 22 23 
3 24 25 26 
3 24 26 27 
3 28 29 30 
3 28 30 31 
3 32 33 34 
3 32 34 35 
3 36 37 38 
3 36 38 39 
3 40 41 42 
3 40 42 43 
3 44 45 46 
3 47 44 46 
3 48 47 46 
3 49 48 46 
3 50 49 46 
3 51 50 46 
3 52 51 46 
3 53 52 46 
3 54 53 46 
3 55 54 46 
3 56 55 46 
3 45 56 46 
3 57 58 59 
3 58 60 59 
3 60 61 59 
3 61 62 59 
3 62 63 59 
3 64 65 66 
3 65 67 66 
3 67 68 66 
3 68 69 66 
3 69 70 66 
3 71 72 59 
3 72 57 59 
3 3 2 73 
3 3 73 74 
3 2 75 76 
3 2 76 73 
3 77 13 78 
3 77 78 79 
3 13 12 80 
3 13 80 78 
3 12 81 82 
3 12 82 80 
3 83 23 84 
3 83 84 85 
3 23 22 86 
3 23 86 84 
3 22 87 88 
3 22 88 86 
3 89 35 90 
3 89 90 91 
3 35 34 92 
3 35 92 90 
3 34 93 94 
3 34 94 92 
3 95 3 74 
3 95 74 96 
3 52 53 97 
3 52 97 98 
3 87 22 99 
3 87 99 100 
3 101 102 103 
3 101 103 104 
3 105 32 106 
3 105 106 107 
3 32 35 108 
3 32 108 106 
3 35 89 109 
3 35 109 108 
3 98 97 110 
3 98 110 111 
3 100 99 112 
3 100 112 113 
3 114 115 116 
3 114 116 117 
3 97 118 119 
3 97 119 110 
3 106 108 120 
3 106 120 121 
3 108 109 122 
3 108 122 120 
3 123 124 125 
3 123 125 126 
3 127 128 27 
3 127 27 26 
3 128 129 24 
3 128 24 27 
3 130 131 132 
3 130 132 133 
3 134 135 30 
3 134 30 29 
3 135 136 31 
3 135 31 30 
3 55 56 137 
3 55 137 138 
3 93 34 139 
3 93 139 140 
3 141 142 143 
3 141 143 144 
3 56 45 145 
3 56 145 137 
3 0 3 146 
3 0 146 147 
3 148 149 150 
3 148 150 151 
3 138 137 152 
3 138 152 153 
3 140 139 154 
3 140 154 155 
3 139 156 157 
3 139 157 154 
3 137 145 158 
3 137 158 152 
3 147 146 159 
3 147 159 160 
3 151 150 161 
3 151 161 162 
3 75 2 163 
3 75 163 164 
3 2 1 165 
3 2 165 163 
3 13 77 166 
3 13 166 167 
3 49 50 168 
3 49 168 169 
3 81 12 170 
3 81 170 171 
3 172 173 174 
3 172 174 175 
3 50 51 176 
3 50 176 168 
3 20 23 177 
3 20 177 178 
3 23 83 179 
3 23 179 177 
3 47 180 181 
3 47 181 44 
3 48 182 180 
3 48 180 47 
3 13 167 183 
3 13 183 10 
3 169 168 184 
3 169 184 185 
3 171 170 186 
3 171 186 187 
3 188 189 190 
3 188 190 191 
3 168 176 192 
3 168 192 184 
3 178 177 193 
3 178 193 194 
3 177 179 195 
3 177 195 193 
3 196 197 198 
3 196 198 199 
3 200 201 202 
3 200 202 203 
3 204 205 4 
3 204 4 7 
3 197 206 207 
3 197 207 198 
3 208 209 210 
3 208 210 211 
3 209 212 213 
3 209 213 210 
3 214 215 15 
3 214 15 14 
3 216 217 218 
3 216 218 219 
3 217 220 221 
3 217 221 218 
3 215 222 18 
3 215 18 15 
3 223 224 225 
3 223 225 226 
3 224 227 228 
3 224 228 225 
3 229 230 231 
3 229 231 232 
3 233 234 39 
3 233 39 38 
3 234 235 36 
3 234 36 39 
3 230 236 237 
3 230 237 231 
3 238 239 42 
3 238 42 41 
3 239 240 43 
3 239 43 42 
3 113 112 128 
3 113 128 127 
3 120 122 136 
3 120 136 135 
3 241 242 243 
3 241 243 131 
3 244 241 131 
3 244 131 130 
3 111 110 124 
3 111 124 123 
3 112 245 129 
3 112 129 128 
3 104 103 246 
3 104 246 247 
3 98 111 248 
3 98 248 249 
3 250 251 252 
3 250 252 253 
3 251 254 255 
3 251 255 252 
3 247 246 256 
3 247 256 257 
3 258 259 260 
3 258 260 261 
3 253 252 262 
3 253 262 263 
3 264 265 266 
3 264 266 267 
3 257 256 268 
3 257 268 269 
3 261 260 270 
3 261 270 271 
3 263 262 272 
3 263 272 273 
3 267 266 274 
3 267 274 275 
3 276 277 278 
3 276 278 279 
3 55 138 280 
3 55 280 281 
3 282 283 284 
3 282 284 285 
3 286 287 288 
3 286 288 289 
3 279 278 290 
3 279 290 291 
3 281 280 292 
3 281 292 293 
3 285 284 294 
3 285 294 295 
3 296 297 298 
3 296 298 299 
3 300 301 302 
3 300 302 303 
3 304 305 143 
3 304 143 142 
3 306 307 308 
3 306 308 309 
3 310 311 312 
3 310 312 313 
3 162 161 314 
3 162 314 315 
3 160 159 239 
3 160 239 238 
3 152 158 236 
3 152 236 230 
3 153 152 230 
3 153 230 229 
3 154 157 235 
3 154 235 234 
3 155 154 234 
3 155 234 233 
3 316 317 318 
3 316 318 319 
3 320 316 319 
3 320 319 321 
3 293 292 305 
3 293 305 304 
3 291 290 301 
3 291 301 300 
3 74 73 322 
3 74 322 323 
3 73 76 324 
3 73 324 322 
3 79 78 325 
3 79 325 326 
3 78 80 327 
3 78 327 325 
3 80 82 328 
3 80 328 327 
3 82 329 330 
3 82 330 328 
3 84 86 331 
3 84 331 332 
3 86 88 333 
3 86 333 331 
3 88 334 335 
3 88 335 333 
3 90 92 336 
3 90 336 337 
3 92 94 338 
3 92 338 336 
3 96 74 323 
3 96 323 339 
3 323 322 340 
3 323 340 341 
3 322 324 342 
3 322 342 340 
3 326 325 343 
3 326 343 344 
3 325 327 345 
3 325 345 343 
3 327 328 346 
3 327 346 345 
3 328 330 347 
3 328 347 346 
3 332 331 67 
3 332 67 65 
3 331 333 68 
3 331 68 67 
3 348 337 349 
3 348 349 350 
3 337 336 351 
3 337 351 349 
3 336 338 352 
3 336 352 351 
3 339 323 341 
3 339 341 353 
3 167 166 354 
3 167 354 355 
3 183 167 355 
3 183 355 356 
3 180 182 357 
3 180 357 358 
3 181 180 358 
3 181 358 359 
3 360 361 362 
3 360 362 363 
3 364 365 366 
3 364 366 367 
3 187 186 217 
3 187 217 216 
3 193 195 227 
3 193 227 224 
3 194 193 224 
3 194 224 223 
3 184 192 222 
3 184 222 215 
3 185 184 215 
3 185 215 214 
3 186 368 220 
3 186 220 217 
3 369 370 371 
3 369 371 372 
3 169 185 373 
3 169 373 374 
3 185 375 376 
3 185 376 373 
3 186 170 377 
3 186 377 378 
3 379 380 381 
3 379 381 382 
3 374 373 383 
3 374 383 384 
3 385 386 387 
3 385 387 388 
3 389 390 391 
3 389 391 392 
3 382 381 393 
3 382 393 394 
3 395 396 397 
3 395 397 398 
3 388 387 399 
3 388 399 400 
3 401 402 403 
3 401 403 404 
3 367 366 201 
3 367 201 200 
3 355 354 212 
3 355 212 209 
3 356 355 209 
3 356 209 208 
3 358 357 206 
3 358 206 197 
3 359 358 197 
3 359 197 196 
3 405 406 205 
3 405 205 204 
3 407 408 409 
3 407 409 410 
3 181 359 411 
3 181 411 412 
3 413 414 415 
3 413 415 416 
3 366 365 417 
3 366 417 418 
3 419 420 421 
3 419 421 422 
3 412 411 423 
3 412 423 424 
3 416 415 425 
3 416 425 426 
3 418 417 427 
3 418 427 428 
3 429 430 431 
3 429 431 432 
3 433 434 435 
3 433 435 436 
3 437 438 439 
3 437 439 440 
3 441 442 443 
3 441 443 444 
3 428 427 442 
3 428 442 441 
3 426 425 438 
3 426 438 437 
3 424 423 434 
3 424 434 433 
3 445 446 430 
3 445 430 429 
3 447 448 449 
3 447 449 450 
3 412 424 451 
3 412 451 452 
3 453 454 455 
3 453 455 456 
3 427 417 457 
3 427 457 458 
3 459 460 461 
3 459 461 462 
3 452 451 463 
3 452 463 464 
3 465 466 467 
3 465 467 468 
3 458 457 469 
3 458 469 470 
3 462 461 471 
3 462 471 472 
3 464 463 473 
3 464 473 474 
3 475 476 422 
3 475 422 421 
3 470 469 477 
3 470 477 478 
