ply
format ascii 1.0
comment VCGLIB generated
element vertex 589
property float x
property float y
property float z
property float nx
property float ny
property float nz
element face 652
property list uchar int vertex_indices
end_header
-1.19842 0.913441 2.87617 -0.428388 0.172063 0.88702 
-1.38564 0.331289 2.43054 -0.711051 0.109653 0.694479 
-0.559963 0.403602 2.79739 0.141179 0.117435 0.982971 
-1.38564 0.331289 2.43054 -0.711051 0.109653 0.694479 
-1.0008 0.159843 2.96014 -0.326243 -0.214301 0.920652 
-0.559963 0.403602 2.79739 0.141179 0.117435 0.982971 
-1.0008 0.159843 2.96014 -0.326243 -0.214301 0.920652 
0.12112 0.151299 2.60378 0.371075 -0.583728 0.72216 
-0.559963 0.403602 2.79739 0.141179 0.117435 0.982971 
1.85089 0.846913 1.75312 0.782586 -0.115818 0.611652 
1.31309 0.352216 2.83042 0.397839 -0.146855 0.905606 
1.97381 0.0236018 1.66113 0.554888 -0.717826 0.420423 
-1.89024 0.712545 1.91632 -0.797876 0.209632 0.565172 
-1.8669 0.152776 1.95313 -0.671255 -0.664846 0.327616 
-1.73426 0.885604 1.97883 -0.745903 0.391858 0.53856 
-1.19842 0.913441 2.87617 -0.428388 0.172063 0.88702 
0.171829 0.850075 2.5655 0.517808 0.165777 0.839259 
0.37748 0.318017 2.49553 -0.072634 -0.171606 0.982482 
0.360725 0.719537 2.39291 0.245094 0.284127 0.926908 
0.37748 0.318017 2.49553 -0.072634 -0.171606 0.982482 
1.05246 0.159829 2.84587 -0.049776 -0.46382 0.884518 
0.360725 0.719537 2.39291 0.245094 0.284127 0.926908 
0.550032 0.872322 2.35825 -0.250954 0.34608 0.903989 
1.31309 0.352216 2.83042 0.397839 -0.146855 0.905606 
1.39491 0.874765 2.77285 0.365368 0.194739 0.910245 
1.50687 0.0881457 2.24326 0.345164 -0.862087 0.370983 
1.31309 0.352216 2.83042 0.397839 -0.146855 0.905606 
1.05246 0.159829 2.84587 -0.049776 -0.46382 0.884518 
1.39491 0.874765 2.77285 0.365368 0.194739 0.910245 
2.04848 0.834169 1.55163 0.791314 0.168462 0.587725 
-1.20179 1.36887 2.29369 -0.577044 0.56975 0.585131 
-0.301663 1.47744 2.53923 0.088107 0.253212 0.963378 
0.108899 1.42459 2.39422 0.561571 0.312754 0.766015 
0.300603 1.6226 2.0401 0.325205 0.0747699 0.942656 
0.546466 1.47886 2.14264 -0.326762 0.194983 0.924741 
0.300603 1.6226 2.0401 0.325205 0.0747699 0.942656 
-1.19842 0.913441 2.87617 -0.428388 0.172063 0.88702 
-0.301663 1.47744 2.53923 0.088107 0.253212 0.963378 
-1.20179 1.36887 2.29369 -0.577044 0.56975 0.585131 
1.37928 1.43368 2.52998 0.405621 0.258309 0.876766 
1.37928 1.43368 2.52998 0.405621 0.258309 0.876766 
-0.301663 1.47744 2.53923 0.088107 0.253212 0.963378 
-0.975375 2.06435 2.02452 -0.517655 0.371532 0.770684 
-1.43362 1.49274 1.76815 -0.740745 0.305826 0.598102 
-1.27046 1.95564 1.9587 -0.421613 0.0346079 0.906095 
-1.4963 2.23481 1.67828 -0.545427 0.374889 0.749596 
-0.409762 2.07073 2.56067 -0.292642 0.146916 0.944853 
0.108897 2.14346 2.41326 0.603656 0.0420549 0.796106 
-0.409762 2.07073 2.56067 -0.292642 0.146916 0.944853 
0.305806 1.93445 2.06411 0.313822 0.00442488 0.949461 
0.305806 1.93445 2.06411 0.313822 0.00442488 0.949461 
0.500728 2.12755 2.11276 -0.37199 0.160649 0.914212 
0.732902 2.52108 2.07109 -0.272347 0.377483 0.885037 
1.32527 2.01493 2.54819 0.335429 0.222571 0.915372 
0.227837 2.54539 2.14058 0.778405 0.161504 0.606586 
1.0813 3.54504 1.50372 0.526231 -0.104984 0.843806 
1.66125 2.17356 1.55578 0.845363 0.17304 0.505356 
1.0813 3.54504 1.50372 0.526231 -0.104984 0.843806 
1.32527 2.01493 2.54819 0.335429 0.222571 0.915372 
-1.04878 2.44747 1.69193 -0.421064 0.51204 0.74865 
-1.37228 3.13198 1.09177 -0.737815 0.409375 0.536637 
-1.65604 2.16458 1.56022 -0.770928 0.183142 0.609973 
-0.847087 3.00144 1.58478 -0.587817 0.0585959 0.806818 
-0.540815 2.83587 1.75046 -0.811335 0.138066 0.568011 
1.49797 3.34752 1.29412 0.698813 0.282723 0.657033 
-1.14636 3.45956 1.25128 -0.751549 -0.426038 0.503616 
-0.739822 3.99059 1.5302 -0.317118 0.369396 0.87347 
-0.073385 4.11087 1.80215 0.014863 0.440992 0.897366 
-0.073385 4.11087 1.80215 0.014863 0.440992 0.897366 
-0.479531 5.18724 1.01458 -0.610126 0.153996 0.777184 
1.79948 2.27436 1.35728 0.665914 0.199927 0.718711 
-1.23153 3.88014 1.38203 -0.658986 0.31193 0.684378 
-1.35988 3.61463 1.2956 -0.909665 -0.201331 0.363201 
-1.06022 3.50742 1.56715 -0.57503 -0.100436 0.811914 
-1.35988 3.61463 1.2956 -0.909665 -0.201331 0.363201 
-1.14636 3.45956 1.25128 -0.751549 -0.426038 0.503616 
-1.06022 3.50742 1.56715 -0.57503 -0.100436 0.811914 
0.358041 3.18044 1.84563 0.505295 0.347819 0.789727 
0.294256 4.41965 1.29245 0.630787 0.399152 0.665395 
0.204712 3.67876 1.8795 0.639302 0.227393 0.734519 
0.358041 3.18044 1.84563 0.505295 0.347819 0.789727 
0.351203 4.34725 1.29099 -0.023469 0.386212 0.922086 
0.487659 3.7295 1.58122 -0.558855 0.237648 0.794458 
0.351203 4.34725 1.29099 -0.023469 0.386212 0.922086 
0.500728 2.12755 2.11276 -0.37199 0.160649 0.914212 
0.841718 3.94716 1.7979 0.157384 0.314585 0.936064 
0.841718 3.94716 1.7979 0.157384 0.314585 0.936064 
0.732902 2.52108 2.07109 -0.272347 0.377483 0.885037 
1.58562 3.4643 1.09955 0.656423 0.400586 0.639241 
1.0543 4.43933 1.0928 0.79693 0.38844 0.4626 
0.203514 5.03196 0.995275 0.186224 0.195471 0.962859 
0.203514 5.03196 0.995275 0.186224 0.195471 0.962859 
0.801926 4.55537 1.49729 0.272774 0.458113 0.845973 
0.801926 4.55537 1.49729 0.272774 0.458113 0.845973 
-0.958843 5.17878 0.872316 -0.885281 0.3567 0.298349 
-0.78924 5.4685 0.835053 -0.584338 0.583941 0.563463 
-0.631696 5.43889 0.871619 -0.331828 0.482986 0.810297 
0.558716 5.0663 1.26816 0.045442 0.364452 0.930082 
0.090634 5.49232 1.05226 0.444411 0.434217 0.783532 
0.558716 5.0663 1.26816 0.045442 0.364452 0.930082 
0.877467 4.9546 0.921024 0.744865 0.441847 0.499924 
1.34031 4.04951 0.946879 0.781793 0.424268 0.456893 
0.988558 5.14954 0.61136 0.788598 0.407208 0.460707 
0.475599 5.53649 1.07156 0.140782 0.561968 0.815058 
0.852444 5.37739 0.576264 0.75454 0.444624 0.48262 
0.919404 5.38116 0.467586 0.668661 0.468673 0.577227 
1.0305 5.52289 0.246879 0.786615 0.311777 0.532884 
-0.239839 5.27429 1.39922 -0.218116 0.417432 0.882107 
-0.239839 5.27429 1.39922 -0.218116 0.417432 0.882107 
0.235589 5.34015 1.00849 -0.108615 0.151555 0.982452 
0.19758 5.52669 0.98505 0.446577 0.422285 0.788812 
0.235589 5.34015 1.00849 -0.108615 0.151555 0.982452 
0.475599 5.53649 1.07156 0.140782 0.561968 0.815058 
-0.509252 5.67517 0.713667 -0.240333 0.739525 0.628742 
-0.658515 5.6878 0.691643 -0.24543 0.723197 0.645527 
-0.833876 5.58387 0.697473 -0.751946 0.534562 0.385693 
-0.036947 5.81357 0.8328 -0.067598 0.745232 0.66332 
-0.036947 5.81357 0.8328 -0.067598 0.745232 0.66332 
0.284868 5.57246 0.901776 -0.055239 0.554064 0.830622 
0.284868 5.57246 0.901776 -0.055239 0.554064 0.830622 
0.484058 5.85225 0.756328 0.362224 0.745994 0.558763 
0.484058 5.85225 0.756328 0.362224 0.745994 0.558763 
0.484058 5.85225 0.756328 0.362224 0.745994 0.558763 
0.805191 5.83523 0.274145 0.376415 0.780236 0.499496 
-0.509252 5.67517 0.713667 -0.240333 0.739525 0.628742 
-0.344093 5.92426 0.392227 -0.152623 0.97055 0.186285 
-0.658515 5.6878 0.691643 -0.24543 0.723197 0.645527 
-0.590212 5.83336 0.501579 -0.454726 0.85168 0.260445 
-0.833876 5.58387 0.697473 -0.751946 0.534562 0.385693 
-0.100355 5.90143 0.685243 -0.181249 0.902127 0.391522 
-0.100355 5.90143 0.685243 -0.181249 0.902127 0.391522 
-0.036947 5.81357 0.8328 -0.067598 0.745232 0.66332 
0.484058 5.85225 0.756328 0.362224 0.745994 0.558763 
0.075675 5.92429 0.575573 0.008057 0.990448 0.137455 
0.413357 5.92419 0.545119 0.142186 0.977142 0.157872 
0.805191 5.83523 0.274145 0.376415 0.780236 0.499496 
1.01379 5.82015 0.216204 0.636708 0.621998 0.455702 
1.12409 5.6368 -0.0285723 0.89584 0.437666 0.0765401 
-0.476869 5.91476 0.256159 -0.312357 0.846797 -0.430525 
-0.729698 5.66033 0.272116 -0.814905 0.490219 0.309091 
-0.119272 5.92447 0.47153 -0.018586 0.998413 0.0529801 
-0.122073 5.92536 0.231712 -0.038057 0.999237 -0.00820887 
1.01379 5.82015 0.216204 0.636708 0.621998 0.455702 
0.542689 5.92342 0.180645 0.113895 0.991089 0.0689111 
0.86576 5.90068 -0.00399923 0.276315 0.959136 0.0606401 
-0.122073 5.92536 0.231712 -0.038057 0.999237 -0.00820887 
-0.814641 5.67577 0.177954 -0.529618 0.359783 0.76812 
-0.476869 5.91476 0.256159 -0.312357 0.846797 -0.430525 
0.003621 5.92301 0.46552 0.005066 0.999939 -0.00775187 
0.129947 5.92153 0.0774368 0.002777 0.999969 -0.00271587 
0.447994 5.92465 0.376213 0.121006 0.992065 0.0339061 
-0.766826 5.89185 0.0762428 -0.355815 0.787225 0.503616 
-0.929128 5.6879 0.10805 -0.733482 0.417585 0.536241 
-0.814641 5.67577 0.177954 -0.529618 0.359783 0.76812 
-0.766826 5.89185 0.0762428 -0.355815 0.787225 0.503616 
-0.814641 5.67577 0.177954 -0.529618 0.359783 0.76812 
-0.291973 5.92717 0.0784968 -0.123356 0.971526 0.202246 
-0.291973 5.92717 0.0784968 -0.123356 0.971526 0.202246 
-0.814641 5.67577 0.177954 -0.529618 0.359783 0.76812 
0.514229 5.92183 -0.21173 0.0141 0.999817 0.0116581 
-0.289687 5.92314 -0.208187 0.00708 0.999939 -0.00460787 
-0.400216 5.92421 -0.692833 -0.079806 0.995849 -0.0432449 
0.787617 5.92553 -0.432886 0.305246 0.92935 -0.207617 
1.02417 5.81052 -0.359843 0.747337 0.658742 -0.0866419 
-1.00975 5.74252 -0.504067 -0.778436 0.580035 -0.239906 
-0.844661 5.87789 -0.499769 -0.466659 0.868526 -0.166906 
-1.00975 5.74252 -0.504067 -0.778436 0.580035 -0.239906 
-0.766826 5.89185 0.0762428 -0.355815 0.787225 0.503616 
-0.657921 5.9269 -0.171438 -0.132359 0.991058 0.0161441 
1.01379 5.82015 0.216204 0.636708 0.621998 0.455702 
1.12409 5.6368 -0.0285723 0.89584 0.437666 0.0765401 
1.02417 5.81052 -0.359843 0.747337 0.658742 -0.0866419 
-0.515416 5.84568 -1.061 -0.241798 0.707541 -0.663991 
-0.620153 5.87202 -0.93119 -0.443373 0.816157 -0.370464 
-0.330166 5.92948 -0.890792 -0.130772 0.979217 -0.154881 
0.248569 5.9241 -0.544571 -0.00647 0.999725 0.0213021 
0.643875 5.91999 -0.587981 0.112156 0.992859 -0.0402539 
0.914143 5.87326 -0.67419 0.522233 0.832423 -0.185186 
0.643875 5.91999 -0.587981 0.112156 0.992859 -0.0402539 
0.787617 5.92553 -0.432886 0.305246 0.92935 -0.207617 
1.02417 5.81052 -0.359843 0.747337 0.658742 -0.0866419 
-0.620153 5.87202 -0.93119 -0.443373 0.816157 -0.370464 
-0.794234 5.62089 -0.89713 -0.719352 0.52736 -0.452071 
-0.844661 5.87789 -0.499769 -0.466659 0.868526 -0.166906 
-0.185756 5.90967 -0.971514 -0.030122 0.825465 -0.563616 
0.039487 5.9207 -0.786383 -0.00473 0.999908 -0.0107429 
0.338338 5.94597 -0.8897 0.027161 0.999146 -0.0301219 
0.614919 5.91241 -0.769915 0.235389 0.936155 -0.261116 
1.00008 5.66189 -0.860665 0.724204 0.433302 -0.536393 
0.914143 5.87326 -0.67419 0.522233 0.832423 -0.185186 
1.05529 5.59177 -0.743356 0.929868 0.299875 -0.21305 
-1.00975 5.74252 -0.504067 -0.778436 0.580035 -0.239906 
-0.993979 5.55726 -0.650736 -0.878842 0.159764 -0.449507 
-0.010286 5.92387 -0.915419 0.002136 0.995514 -0.0942719 
0.118186 5.92164 -0.941306 -0.082064 0.994232 -0.0686359 
0.290487 5.93819 -1.01134 0.09949 0.875698 -0.472457 
0.474477 5.92225 -0.938102 0.36906 0.813562 -0.449263 
0.474477 5.92225 -0.938102 0.36906 0.813562 -0.449263 
0.614919 5.91241 -0.769915 0.235389 0.936155 -0.261116 
0.630261 5.80334 -0.900735 0.347575 0.605365 -0.716025 
0.630261 5.80334 -0.900735 0.347575 0.605365 -0.716025 
0.816762 5.80241 -0.886038 0.305918 0.652974 -0.692801 
0.816762 5.80241 -0.886038 0.305918 0.652974 -0.692801 
0.708656 5.38185 -1.10988 0.418561 0.408704 -0.810999 
0.630261 5.80334 -0.900735 0.347575 0.605365 -0.716025 
0.816762 5.80241 -0.886038 0.305918 0.652974 -0.692801 
0.708656 5.38185 -1.10988 0.418561 0.408704 -0.810999 
-0.690754 5.55542 -1.12502 -0.449355 0.482925 -0.751549 
-0.515416 5.84568 -1.061 -0.241798 0.707541 -0.663991 
-0.328484 5.63963 -1.17125 0.132878 0.365001 -0.921445 
-0.185756 5.90967 -0.971514 -0.030122 0.825465 -0.563616 
-0.165008 5.61142 -1.09906 -0.119877 0.357646 -0.926115 
-0.328484 5.63963 -1.17125 0.132878 0.365001 -0.921445 
-0.185756 5.90967 -0.971514 -0.030122 0.825465 -0.563616 
-0.009893 5.89695 -1.04148 -0.172582 0.79516 -0.581286 
-0.165008 5.61142 -1.09906 -0.119877 0.357646 -0.926115 
-0.009893 5.89695 -1.04148 -0.172582 0.79516 -0.581286 
0.290487 5.93819 -1.01134 0.09949 0.875698 -0.472457 
0.239377 5.72675 -1.19135 0.116703 0.581805 -0.804895 
0.346682 5.41577 -1.38293 0.192877 0.331462 -0.923521 
0.290487 5.93819 -1.01134 0.09949 0.875698 -0.472457 
0.239377 5.72675 -1.19135 0.116703 0.581805 -0.804895 
-0.054033 5.71963 -1.17523 -0.478164 0.449171 -0.754692 
0.346682 5.41577 -1.38293 0.192877 0.331462 -0.923521 
0.15433 5.41615 -1.33954 -0.48796 0.0584731 -0.870876 
0.708656 5.38185 -1.10988 0.418561 0.408704 -0.810999 
-0.802797 5.44445 -1.12449 -0.778252 0.221198 -0.587664 
-0.332703 5.49645 -1.21353 0.190985 -0.0382699 -0.980834 
-0.719045 5.303 -1.23735 -0.447554 0.166417 -0.878597 
-0.332703 5.49645 -1.21353 0.190985 -0.0382699 -0.980834 
-0.155023 5.5163 -1.12665 -0.057009 -0.0343639 -0.997772 
-0.155023 5.5163 -1.12665 -0.057009 -0.0343639 -0.997772 
0.473078 4.83787 -1.46846 0.471511 0.432234 -0.768639 
0.473078 4.83787 -1.46846 0.471511 0.432234 -0.768639 
0.131986 5.36753 -1.27538 -0.663747 -0.0047299 -0.747917 
-0.118051 5.43744 -1.09687 -0.267708 -0.0976899 -0.958525 
-0.705961 5.14328 -1.2617 -0.364483 0.325449 -0.872463 
-0.834691 5.05967 -1.10846 -0.820551 0.387707 -0.419935 
-0.118051 5.43744 -1.09687 -0.267708 -0.0976899 -0.958525 
-0.199875 5.22054 -1.14177 -0.280892 0.370647 -0.88525 
0.818594 5.23445 -1.14558 0.432325 0.347484 -0.832057 
0.473078 4.83787 -1.46846 0.471511 0.432234 -0.768639 
0.708656 5.38185 -1.10988 0.418561 0.408704 -0.810999 
-0.221917 4.32639 -1.6338 -0.243416 0.24366 -0.93878 
-0.834532 4.35185 -1.72827 -0.284677 0.311502 -0.906583 
-0.181883 4.80654 -1.47381 -0.674673 0.336406 -0.656972 
-0.221917 4.32639 -1.6338 -0.243416 0.24366 -0.93878 
-0.199875 5.22054 -1.14177 -0.280892 0.370647 -0.88525 
-0.181883 4.80654 -1.47381 -0.674673 0.336406 -0.656972 
0.037562 5.23128 -1.33442 -0.294992 0.488784 -0.820978 
0.260811 4.99409 -1.48217 0.086703 0.434797 -0.896329 
0.818594 5.23445 -1.14558 0.432325 0.347484 -0.832057 
0.895452 4.64195 -1.26627 0.487503 0.361034 -0.794946 
0.473078 4.83787 -1.46846 0.471511 0.432234 -0.768639 
0.47726 4.46351 -1.76883 0.541368 0.554064 -0.632374 
0.47726 4.46351 -1.76883 0.541368 0.554064 -0.632374 
0.260811 4.99409 -1.48217 0.086703 0.434797 -0.896329 
-1.22171 4.33188 -1.15822 -0.730857 0.405011 -0.549303 
-1.47353 4.4741 -0.763756 -0.644978 0.454329 -0.61446 
0.110765 3.84611 -1.98525 -0.487197 0.281045 -0.826807 
0.783849 3.73575 -2.25943 0.39143 0.486343 -0.781152 
0.551994 3.4863 -2.29504 -0.283364 0.329814 -0.900479 
0.037562 5.23128 -1.33442 -0.294992 0.488784 -0.820978 
0.783849 3.73575 -2.25943 0.39143 0.486343 -0.781152 
1.24462 3.29134 -1.7472 0.559801 0.297067 -0.773522 
-1.40436 3.88 -1.23462 -0.786645 0.288919 -0.54561 
-0.42094 3.48189 -1.52391 -0.206305 0.17069 -0.963469 
-0.864599 3.7749 -1.66872 0.268654 -0.0796839 -0.959899 
-0.114314 3.59295 -1.81175 -0.705771 0.158544 -0.69042 
-0.037032 2.57575 -2.24439 -0.689718 0.245216 -0.681265 
-1.2912 3.45503 -1.78151 -0.495437 0.144414 -0.856533 
-1.54336 3.42796 -1.06945 -0.83694 0.139134 -0.529283 
-0.978711 3.25961 -1.72152 0.141362 0.263924 -0.9541 
-1.31725 3.09109 -1.78395 -0.548784 0.31254 -0.775292 
0.788609 2.77974 -2.5896 0.331614 0.232154 -0.914365 
0.788609 2.77974 -2.5896 0.331614 0.232154 -0.914365 
-0.738865 2.41604 -2.19004 -0.02472 0.406873 -0.913144 
-1.27015 2.1446 -2.28355 -0.33018 0.343516 -0.879147 
0.161459 3.02265 -2.29965 -0.520859 0.257241 -0.813929 
-0.002335 1.74958 -2.57516 -0.26014 0.311869 -0.913785 
0.724149 1.49249 -2.85344 0.301126 -0.0883819 -0.949461 
1.32555 1.52835 -1.97005 0.337168 0.302347 -0.891537 
0.724149 1.49249 -2.85344 0.301126 -0.0883819 -0.949461 
1.32555 1.52835 -1.97005 0.337168 0.302347 -0.891537 
1.24462 3.29134 -1.7472 0.559801 0.297067 -0.773522 
1.58334 1.75301 -2.07491 0.166601 0.13834 -0.976257 
1.53485 2.98122 -1.74262 0.563097 0.282846 -0.776452 
1.30313 3.6929 -1.59992 0.384136 0.380963 -0.840999 
-1.7836 2.1438 -1.55774 -0.770318 0.34434 -0.536668 
-0.280964 2.6913 -1.9724 -0.295206 0.439467 -0.848354 
-0.320468 1.35595 -2.63938 -0.460158 -0.0679949 -0.88522 
-1.49808 1.51317 -2.47536 -0.429426 0.160497 -0.888699 
-1.91574 1.59711 -1.71763 -0.791223 0.277596 -0.544847 
-0.589956 1.22869 -2.32469 -0.262734 -0.0162659 -0.964721 
-1.81193 1.07552 -2.00243 -0.808252 -0.112247 -0.57799 
-1.4826 1.03355 -2.45785 -0.449934 -0.0762049 -0.889767 
-1.85604 0.77759 -1.72792 -0.795404 0.208106 -0.569201 
-1.40926 0.595133 -2.42563 -0.444929 0.406659 -0.797876 
-0.547734 0.740055 -2.37238 -0.10065 0.365947 -0.925138 
0.757307 0.81294 -2.27643 0.383465 0.0610981 -0.921506 
-0.0028 0.748545 -2.53613 -0.174993 0.0884731 -0.98056 
0.724149 1.49249 -2.85344 0.301126 -0.0883819 -0.949461 
-0.0028 0.748545 -2.53613 -0.174993 0.0884731 -0.98056 
1.63459 1.18734 -2.06852 0.550737 -0.360118 -0.752983 
1.44248 0.987433 -1.86671 0.738701 -0.124607 -0.662404 
1.63459 1.18734 -2.06852 0.550737 -0.360118 -0.752983 
1.63459 1.18734 -2.06852 0.550737 -0.360118 -0.752983 
0.238967 0.606949 -2.66143 -0.012207 0.826594 -0.562609 
0.757307 0.81294 -2.27643 0.383465 0.0610981 -0.921506 
0.238967 0.606949 -2.66143 -0.012207 0.826594 -0.562609 
-0.0028 0.748545 -2.53613 -0.174993 0.0884731 -0.98056 
0.238967 0.606949 -2.66143 -0.012207 0.826594 -0.562609 
0.757307 0.81294 -2.27643 0.383465 0.0610981 -0.921506 
1.37278 0.556279 -2.2778 -0.036836 -0.0585039 -0.997589 
1.64792 0.635562 -2.3064 0.326334 0.614521 -0.718192 
0.757307 0.81294 -2.27643 0.383465 0.0610981 -0.921506 
1.44248 0.987433 -1.86671 0.738701 -0.124607 -0.662404 
-0.547734 0.740055 -2.37238 -0.10065 0.365947 -0.925138 
-1.3458 0.407683 -2.6614 -0.341288 0.0192571 -0.939756 
-1.40926 0.595133 -2.42563 -0.444929 0.406659 -0.797876 
-1.3458 0.407683 -2.6614 -0.341288 0.0192571 -0.939756 
-1.48053 0.409695 -2.54148 -0.678762 0.0988191 -0.727653 
-2.24554 0.5659 -1.6179 -0.595508 0.621113 -0.509445 
-0.458256 0.37187 -2.72742 -0.162297 0.308512 -0.937254 
0.418955 0.490884 -2.96015 0.208411 0.465621 -0.860073 
0.379702 0.225587 -2.94978 0.193243 -0.617267 -0.762627 
-0.458256 0.37187 -2.72742 -0.162297 0.308512 -0.937254 
0.238967 0.606949 -2.66143 -0.012207 0.826594 -0.562609 
0.418955 0.490884 -2.96015 0.208411 0.465621 -0.860073 
1.37278 0.556279 -2.2778 -0.036836 -0.0585039 -0.997589 
1.64792 0.635562 -2.3064 0.326334 0.614521 -0.718192 
1.37278 0.556279 -2.2778 -0.036836 -0.0585039 -0.997589 
0.757307 0.81294 -2.27643 0.383465 0.0610981 -0.921506 
0.418955 0.490884 -2.96015 0.208411 0.465621 -0.860073 
1.37278 0.556279 -2.2778 -0.036836 -0.0585039 -0.997589 
1.21468 0.298231 -2.1752 0.168676 -0.879025 -0.445875 
1.21468 0.298231 -2.1752 0.168676 -0.879025 -0.445875 
1.83171 0.273077 -2.47591 0.362102 -0.341746 -0.867214 
-2.65343 0.470058 -1.38864 -0.813929 0.0659201 -0.577166 
-2.39909 0.386323 -1.60959 -0.82226 -0.543474 -0.168737 
-1.51891 0.122094 -2.32658 -0.347758 -0.79693 -0.493912 
-2.39909 0.386323 -1.60959 -0.82226 -0.543474 -0.168737 
-1.51891 0.122094 -2.32658 -0.347758 -0.79693 -0.493912 
-0.440517 0.129236 -2.69616 -0.118839 -0.710715 -0.69335 
1.21468 0.298231 -2.1752 0.168676 -0.879025 -0.445875 
0.379702 0.225587 -2.94978 0.193243 -0.617267 -0.762627 
0.418955 0.490884 -2.96015 0.208411 0.465621 -0.860073 
1.21469 0.298231 -2.1752 0.075686 -0.960601 -0.267342 
1.21469 0.298231 -2.1752 0.075686 -0.960601 -0.267342 
1.21468 0.298231 -2.1752 0.168676 -0.879025 -0.445875 
1.83171 0.273077 -2.47591 0.362102 -0.341746 -0.867214 
0.379702 0.225587 -2.94978 0.193243 -0.617267 -0.762627 
-0.440517 0.129236 -2.69616 -0.118839 -0.710715 -0.69335 
-0.465971 0.0507453 -2.46952 -0.064486 -0.973571 -0.21894 
-0.106024 0.00959329 -2.19136 0.09122 -0.976531 -0.195013 
-1.08803 0.0134083 -2.1501 -0.10773 -0.967742 -0.227638 
-2.33348 0.289496 -1.67762 -0.614704 -0.54265 -0.572405 
-1.51891 0.122094 -2.32658 -0.347758 -0.79693 -0.493912 
-2.65343 0.470058 -1.38864 -0.813929 0.0659201 -0.577166 
-1.51891 0.122094 -2.32658 -0.347758 -0.79693 -0.493912 
-2.33348 0.289496 -1.67762 -0.614704 -0.54265 -0.572405 
-1.3458 0.407683 -2.6614 -0.341288 0.0192571 -0.939756 
2.26653 0.115511 -1.56625 0.631458 -0.748924 -0.200751 
-1.13841 0.003933 -0.003313 -0.067446 -0.99765 -0.0111091 
-0.996563 0.127813 -2.40806 -0.184149 -0.853236 -0.487899 
1.18143 0.102797 -1.01977 0.01117 -0.997742 -0.0658591 
2.37727 0.220963 -1.40077 0.511307 -0.507218 -0.693716 
2.66828 0.0318721 -0.897949 0.40791 -0.905026 -0.120334 
-2.95775 0.523262 -0.469891 -0.987976 0.10593 -0.112369 
-2.65343 0.470058 -1.38864 -0.813929 0.0659201 -0.577166 
-2.82522 0.298361 0.291362 -0.772576 -0.59386 0.224494 
-2.44072 0.180297 -0.00871298 -0.259224 -0.965209 -0.0339371 
-1.56436 0.0458219 0.540006 -0.151067 -0.975555 0.15952 
0.028535 0.0105798 1.54846 -0.036988 -0.999207 -0.0141911 
-0.903406 0.182684 1.19698 -0.232002 -0.956847 0.17481 
-0.990567 0.00918873 2.05884 -0.101321 -0.994842 -0.00265513 
1.81308 0.00530395 0.371591 0.06415 -0.997864 0.0103149 
2.95698 0.338029 0.803253 0.856319 -0.399945 0.32667 
2.60829 0.145373 0.68395 0.333323 -0.938688 0.0879239 
-2.05874 0.507028 1.0472 -0.773003 -0.354076 0.526353 
-1.97515 0.247618 0.882987 -0.349925 -0.815638 0.460707 
-1.65068 0.283928 1.24572 -0.203955 -0.978301 -0.0356761 
-1.65068 0.283928 1.24572 -0.203955 -0.978301 -0.0356761 
-1.97515 0.247618 0.882987 -0.349925 -0.815638 0.460707 
0.074066 -2.67841e-07 2.04249 0.021729 -0.990448 0.136113 
0.903998 0.0111227 2.33489 -0.036866 -0.97528 0.21778 
1.97381 0.0236018 1.66113 0.554888 -0.717826 0.420423 
-2.01182 0.289683 1.42675 -0.700491 -0.676931 -0.225898 
-2.02718 0.245551 1.6254 -0.795831 -0.603442 0.0499279 
-1.8669 0.152776 1.95313 -0.671255 -0.664846 0.327616 
-1.0008 0.159843 2.96014 -0.326243 -0.214301 0.920652 
0.338238 0.178351 2.35086 0.046846 -0.852657 0.52031 
0.12112 0.151299 2.60378 0.371075 -0.583728 0.72216 
0.37748 0.318017 2.49553 -0.072634 -0.171606 0.982482 
0.338238 0.178351 2.35086 0.046846 -0.852657 0.52031 
-1.0008 0.159843 2.96014 -0.326243 -0.214301 0.920652 
1.83171 0.273077 -2.47591 0.362102 -0.341746 -0.867214 
2.13562 0.386924 -1.7739 0.824824 0.445936 -0.347514 
2.26653 0.115511 -1.56625 0.631458 -0.748924 -0.200751 
2.95698 0.338029 0.803253 0.856319 -0.399945 0.32667 
2.66828 0.0318721 -0.897949 0.40791 -0.905026 -0.120334 
2.74279 0.164072 -0.582632 0.98883 0.143986 -0.037843 
2.74279 0.164072 -0.582632 0.98883 0.143986 -0.037843 
2.85453 0.248504 -1.27815 0.842586 -0.0646079 -0.534654 
2.95775 0.611673 0.791547 0.921415 0.250343 0.297159 
1.69276 0.985382 -1.33855 0.845607 -0.119724 -0.520157 
1.64792 0.635562 -2.3064 0.326334 0.614521 -0.718192 
2.37727 0.220963 -1.40077 0.511307 -0.507218 -0.693716 
2.85453 0.248504 -1.27815 0.842586 -0.0646079 -0.534654 
2.37727 0.220963 -1.40077 0.511307 -0.507218 -0.693716 
1.69276 0.985382 -1.33855 0.845607 -0.119724 -0.520157 
2.26806 0.66925 -0.160912 0.98059 -0.019257 -0.194983 
2.85453 0.248504 -1.27815 0.842586 -0.0646079 -0.534654 
2.30575 0.654787 -1.01831 0.783532 0.538804 -0.309336 
1.69276 0.985382 -1.33855 0.845607 -0.119724 -0.520157 
2.26806 0.66925 -0.160912 0.98059 -0.019257 -0.194983 
2.26806 0.66925 -0.160912 0.98059 -0.019257 -0.194983 
2.74279 0.164072 -0.582632 0.98883 0.143986 -0.037843 
2.85453 0.248504 -1.27815 0.842586 -0.0646079 -0.534654 
2.95698 0.338029 0.803253 0.856319 -0.399945 0.32667 
2.20079 0.449911 1.40217 0.691824 0.119144 0.712119 
1.44248 0.987433 -1.86671 0.738701 -0.124607 -0.662404 
2.85218 1.07534 0.550265 0.936613 0.348552 0.035188 
2.299 0.866857 -1.03834 0.743797 -0.230934 -0.627216 
2.30575 0.654787 -1.01831 0.783532 0.538804 -0.309336 
1.69276 0.985382 -1.33855 0.845607 -0.119724 -0.520157 
2.85218 1.07534 0.550265 0.936613 0.348552 0.035188 
2.85218 1.07534 0.550265 0.936613 0.348552 0.035188 
2.26806 0.66925 -0.160912 0.98059 -0.019257 -0.194983 
2.30575 0.654787 -1.01831 0.783532 0.538804 -0.309336 
2.85218 1.07534 0.550265 0.936613 0.348552 0.035188 
2.36098 0.906643 1.081 0.651082 0.350597 0.673147 
2.95775 0.611673 0.791547 0.921415 0.250343 0.297159 
2.11591 1.34793 -1.67008 0.850124 -0.188726 -0.491531 
2.05693 1.13016 -1.51519 0.724509 -0.680654 0.108432 
2.05693 1.13016 -1.51519 0.724509 -0.680654 0.108432 
1.69276 0.985382 -1.33855 0.845607 -0.119724 -0.520157 
2.05693 1.13016 -1.51519 0.724509 -0.680654 0.108432 
1.97632 1.36439 -1.31927 0.751946 -0.607379 -0.256172 
2.27165 1.85711 -1.34152 0.822626 0.192297 -0.535051 
1.69276 0.985382 -1.33855 0.845607 -0.119724 -0.520157 
2.27165 1.85711 -1.34152 0.822626 0.192297 -0.535051 
2.50607 1.24236 -1.25003 0.751946 -0.242836 -0.612812 
1.97632 1.36439 -1.31927 0.751946 -0.607379 -0.256172 
2.27165 1.85711 -1.34152 0.822626 0.192297 -0.535051 
2.299 0.866857 -1.03834 0.743797 -0.230934 -0.627216 
1.69276 0.985382 -1.33855 0.845607 -0.119724 -0.520157 
2.3366 1.30649 -0.157345 0.989868 -0.111606 -0.087527 
2.49602 1.47028 0.467827 0.813898 0.533555 0.229896 
1.93412 1.54246 1.15814 0.808893 -0.00274708 0.587909 
2.49602 1.47028 0.467827 0.813898 0.533555 0.229896 
2.299 0.866857 -1.03834 0.743797 -0.230934 -0.627216 
2.50607 1.24236 -1.25003 0.751946 -0.242836 -0.612812 
2.50983 1.31502 -0.645708 0.984283 -0.157506 0.079806 
2.3366 1.30649 -0.157345 0.989868 -0.111606 -0.087527 
2.299 0.866857 -1.03834 0.743797 -0.230934 -0.627216 
2.50983 1.31502 -0.645708 0.984283 -0.157506 0.079806 
2.50983 1.31502 -0.645708 0.984283 -0.157506 0.079806 
2.5474 1.59442 0.253461 0.997192 -0.074435 0.00698899 
2.3366 1.30649 -0.157345 0.989868 -0.111606 -0.087527 
2.5474 1.59442 0.253461 0.997192 -0.074435 0.00698899 
2.5474 1.59442 0.253461 0.997192 -0.074435 0.00698899 
1.65513 1.68789 1.60357 0.869961 0.148564 0.470168 
1.8741 2.68931 -1.44088 0.755425 0.271615 -0.59624 
1.62422 4.37325 -0.85617 0.815271 0.464309 -0.346019 
1.88249 3.86095 -0.525721 0.927824 0.335826 -0.162236 
2.18914 2.2237 -0.230576 0.963836 0.24369 -0.107852 
2.5474 1.59442 0.253461 0.997192 -0.074435 0.00698899 
2.52441 2.00155 0.854647 0.918119 -0.106845 0.381603 
2.52441 2.00155 0.854647 0.918119 -0.106845 0.381603 
2.13081 3.70103 0.526745 0.857234 0.429487 0.284005 
2.48534 2.62468 0.772858 0.932463 0.229011 0.279305 
2.48534 2.62468 0.772858 0.932463 0.229011 0.279305 
2.13081 3.70103 0.526745 0.857234 0.429487 0.284005 
1.58334 1.75301 -2.07491 0.166601 0.13834 -0.976257 
1.53485 2.98122 -1.74262 0.563097 0.282846 -0.776452 
1.53823 3.76378 -1.30912 0.711478 0.355968 -0.605823 
0.895452 4.64195 -1.26627 0.487503 0.361034 -0.794946 
1.11759 4.66338 -1.14914 0.598376 0.427045 -0.677877 
1.30313 3.6929 -1.59992 0.384136 0.380963 -0.840999 
1.24833 5.01794 -0.24894 0.927702 0.323222 -0.186743 
1.41486 4.39977 0.477717 0.571825 0.454756 0.68276 
1.4535 5.06438 0.132046 0.933714 0.344798 0.096286 
1.4535 5.06438 0.132046 0.933714 0.344798 0.096286 
1.07058 5.01214 -0.759864 0.86288 0.305795 -0.402356 
1.2331 5.15806 -0.524983 0.916715 0.33018 -0.22486 
1.2331 5.15806 -0.524983 0.916715 0.33018 -0.22486 
1.24833 5.01794 -0.24894 0.927702 0.323222 -0.186743 
1.62422 4.37325 -0.85617 0.815271 0.464309 -0.346019 
1.12414 4.82976 0.51289 0.803125 0.353954 0.479232 
1.06188 5.20645 -0.979945 0.875393 0.197607 -0.441145 
1.08638 5.61694 -0.335695 0.940733 0.314188 -0.127567 
1.36582 5.20765 0.218682 0.768212 0.417676 0.485153 
1.36582 5.20765 0.218682 0.768212 0.417676 0.485153 
1.00008 5.66189 -0.860665 0.724204 0.433302 -0.536393 
-2.95775 0.523262 -0.469891 -0.987976 0.10593 -0.112369 
-2.54799 0.71193 -1.00389 -0.546678 0.799219 -0.249672 
-2.65343 0.470058 -1.38864 -0.813929 0.0659201 -0.577166 
-2.54799 0.71193 -1.00389 -0.546678 0.799219 -0.249672 
-2.39909 0.386323 -1.60959 -0.82226 -0.543474 -0.168737 
-2.59982 0.683058 -0.215098 -0.645222 0.752159 -0.133824 
-1.85604 0.77759 -1.72792 -0.795404 0.208106 -0.569201 
-2.24554 0.5659 -1.6179 -0.595508 0.621113 -0.509445 
-2.82522 0.298361 0.291362 -0.772576 -0.59386 0.224494 
-2.7171 0.534614 0.679453 -0.820856 -0.137669 0.554247 
-2.95775 0.523262 -0.469891 -0.987976 0.10593 -0.112369 
-2.50206 1.23103 -0.0979788 -0.98236 0.158025 -0.099857 
-2.59982 0.683058 -0.215098 -0.645222 0.752159 -0.133824 
-2.7171 0.534614 0.679453 -0.820856 -0.137669 0.554247 
-2.7171 0.534614 0.679453 -0.820856 -0.137669 0.554247 
-2.50987 1.07293 0.743779 -0.749962 0.431532 0.501297 
-2.7171 0.534614 0.679453 -0.820856 -0.137669 0.554247 
-2.25156 0.868282 0.932021 -0.478072 0.128788 0.868801 
-2.04317 0.814035 1.53428 -0.94882 0.270943 0.162084 
-2.01182 0.289683 1.42675 -0.700491 -0.676931 -0.225898 
-2.05874 0.507028 1.0472 -0.773003 -0.354076 0.526353 
-1.8656 1.05142 1.09687 -0.828639 0.303354 0.470412 
-2.25862 0.934276 -0.813843 -0.975402 0.150609 -0.160863 
-2.29853 0.833549 -0.263448 -0.810511 0.411206 -0.417066 
-2.48398 1.39718 -0.313549 -0.975249 -0.168279 0.143254 
-2.68055 1.47086 -0.887701 -0.937559 -0.214148 -0.273995 
-2.25862 0.934276 -0.813843 -0.975402 0.150609 -0.160863 
-2.29853 0.833549 -0.263448 -0.810511 0.411206 -0.417066 
-2.29853 0.833549 -0.263448 -0.810511 0.411206 -0.417066 
-2.59982 0.683058 -0.215098 -0.645222 0.752159 -0.133824 
-2.50206 1.23103 -0.0979788 -0.98236 0.158025 -0.099857 
-2.48398 1.39718 -0.313549 -0.975249 -0.168279 0.143254 
-2.02718 0.245551 1.6254 -0.795831 -0.603442 0.0499279 
-2.25862 0.934276 -0.813843 -0.975402 0.150609 -0.160863 
-2.68055 1.47086 -0.887701 -0.937559 -0.214148 -0.273995 
-1.85604 0.77759 -1.72792 -0.795404 0.208106 -0.569201 
-2.68055 1.47086 -0.887701 -0.937559 -0.214148 -0.273995 
-1.91574 1.59711 -1.71763 -0.791223 0.277596 -0.544847 
-2.68055 1.47086 -0.887701 -0.937559 -0.214148 -0.273995 
-2.08589 1.69267 -1.32322 -0.705039 0.432447 -0.561998 
-2.50206 1.23103 -0.0979788 -0.98236 0.158025 -0.099857 
-2.50987 1.07293 0.743779 -0.749962 0.431532 0.501297 
-2.2494 1.30967 0.492749 -0.763298 0.643269 0.0596331 
-2.08044 1.65153 0.739533 -0.90582 0.248421 0.34315 
-1.85139 1.65504 0.985669 -0.829859 0.0154419 0.557695 
-1.61833 1.55092 1.52348 -0.866421 0.149205 0.476455 
-2.73534 1.80704 -0.742821 -0.982635 0.121433 -0.140202 
-2.08589 1.69267 -1.32322 -0.705039 0.432447 -0.561998 
-1.91937 2.24258 -1.32816 -0.665212 0.413434 -0.621723 
-2.73534 1.80704 -0.742821 -0.982635 0.121433 -0.140202 
-2.37704 1.73109 -0.0901348 -0.871212 0.123875 0.47499 
-2.2494 1.30967 0.492749 -0.763298 0.643269 0.0596331 
-2.08957 1.54863 0.315977 -0.84518 0.388348 0.367168 
-2.08044 1.65153 0.739533 -0.90582 0.248421 0.34315 
-2.23437 2.15369 0.107166 -0.936796 0.00784296 0.349742 
-2.02816 2.10619 0.85608 -0.896481 0.00262494 0.443007 
-2.00017 2.25471 0.918765 -0.937407 0.206977 0.279977 
-2.56451 2.31252 -0.690966 -0.890469 0.398846 -0.219001 
-2.56451 2.31252 -0.690966 -0.890469 0.398846 -0.219001 
-2.13797 2.20975 0.623662 -0.922575 -0.0128481 0.38554 
-1.90152 2.69163 -0.956913 -0.722404 0.429334 -0.542009 
-2.28506 3.03827 -0.202303 -0.937773 0.3408 0.066134 
-2.28506 3.03827 -0.202303 -0.937773 0.3408 0.066134 
-1.76732 3.04895 0.506958 -0.757073 0.403027 0.514176 
-1.56424 3.51312 0.481161 -0.721732 0.327525 0.60976 
-1.35065 3.35915 0.860644 -0.874874 0.306925 0.374615 
-1.35065 3.35915 0.860644 -0.874874 0.306925 0.374615 
-1.55621 4.03184 0.312885 -0.677328 0.36552 0.638417 
-1.97283 3.91525 -0.654893 -0.901822 0.312998 -0.2978 
-1.97283 3.91525 -0.654893 -0.901822 0.312998 -0.2978 
-0.958175 4.84893 0.315131 -0.725761 0.398999 0.560381 
-1.57771 4.66949 -0.532123 -0.825465 0.536088 -0.176611 
-1.15888 4.87752 0.202829 -0.665487 0.349773 0.659352 
-1.57771 4.66949 -0.532123 -0.825465 0.536088 -0.176611 
-0.80645 5.1711 0.294209 -0.916379 0.273293 0.292398 
-1.47353 4.4741 -0.763756 -0.644978 0.454329 -0.61446 
-0.927062 5.17243 -0.689752 -0.809076 0.240089 -0.536363 
-0.834691 5.05967 -1.10846 -0.820551 0.387707 -0.419935 
-0.927062 5.17243 -0.689752 -0.809076 0.240089 -0.536363 
-1.31893 5.01016 -0.403976 -0.874355 0.461287 -0.150578 
-1.17878 5.30558 -0.0143863 -0.767602 0.414624 0.488662 
-0.890417 5.44825 0.108936 -0.740226 0.165716 0.65157 
-1.31893 5.01016 -0.403976 -0.874355 0.461287 -0.150578 
-0.729698 5.66033 0.272116 -0.814905 0.490219 0.309091 
-0.989638 5.41106 -0.629546 -0.862667 0.00442507 -0.505722 
-0.927062 5.17243 -0.689752 -0.809076 0.240089 -0.536363 
-0.719045 5.303 -1.23735 -0.447554 0.166417 -0.878597 
-0.834691 5.05967 -1.10846 -0.820551 0.387707 -0.419935 
-1.27808 5.25325 -0.314369 -0.952666 0.291086 -0.087649 
-1.13368 5.53827 -0.345306 -0.897153 0.437361 -0.0614029 
-0.9339 5.6195 0.124024 -0.710501 -0.0293891 0.703055 
-1.27808 5.25325 -0.314369 -0.952666 0.291086 -0.087649 
-1.13368 5.53827 -0.345306 -0.897153 0.437361 -0.0614029 
-0.476869 5.91476 0.256159 -0.312357 0.846797 -0.430525 
3 0 1 2 
3 3 4 5 
3 6 7 8 
3 9 10 11 
3 1 12 13 
3 14 12 1 
3 0 14 1 
3 15 8 16 
3 7 16 8 
3 17 18 7 
3 7 18 16 
3 19 20 21 
3 21 20 22 
3 20 23 22 
3 24 22 23 
3 25 26 27 
3 9 28 10 
3 29 9 11 
3 0 30 14 
3 15 16 31 
3 32 31 16 
3 16 18 32 
3 32 18 33 
3 22 34 21 
3 21 34 35 
3 36 37 38 
3 22 24 34 
3 39 34 24 
3 40 28 9 
3 41 42 30 
3 43 30 42 
3 42 44 43 
3 45 43 44 
3 46 42 41 
3 47 48 31 
3 49 31 32 
3 47 31 49 
3 33 49 32 
3 34 50 35 
3 39 51 34 
3 34 51 50 
3 52 51 53 
3 53 51 39 
3 47 49 54 
3 42 45 44 
3 53 55 52 
3 56 57 58 
3 59 60 45 
3 61 45 60 
3 42 59 45 
3 62 60 59 
3 46 59 42 
3 62 59 63 
3 63 59 46 
3 56 64 57 
3 60 62 65 
3 63 46 66 
3 47 67 48 
3 68 69 46 
3 69 66 46 
3 70 64 56 
3 71 72 73 
3 74 75 76 
3 62 73 65 
3 66 73 63 
3 63 73 62 
3 49 77 54 
3 77 78 54 
3 79 54 78 
3 50 51 80 
3 81 51 82 
3 83 77 84 
3 51 52 82 
3 82 52 85 
3 57 86 87 
3 88 64 70 
3 47 54 67 
3 79 67 54 
3 77 83 78 
3 57 64 86 
3 89 86 64 
3 78 90 79 
3 79 90 67 
3 82 85 81 
3 91 81 92 
3 92 81 85 
3 78 83 90 
3 93 86 89 
3 72 71 94 
3 95 94 71 
3 69 71 66 
3 66 71 73 
3 96 71 69 
3 97 91 92 
3 67 90 98 
3 99 93 100 
3 93 89 100 
3 89 101 102 
3 100 89 102 
3 96 95 71 
3 99 100 103 
3 103 100 104 
3 102 104 100 
3 104 102 105 
3 105 102 106 
3 68 107 69 
3 69 107 96 
3 98 108 67 
3 90 109 98 
3 110 98 109 
3 91 97 111 
3 112 111 97 
3 107 113 96 
3 95 96 114 
3 114 96 113 
3 95 114 94 
3 94 114 115 
3 98 116 108 
3 107 117 113 
3 110 116 98 
3 112 118 111 
3 109 119 110 
3 116 110 119 
3 116 119 120 
3 104 121 103 
3 122 118 112 
3 123 104 105 
3 124 125 126 
3 127 126 125 
3 128 126 127 
3 129 125 124 
3 113 117 130 
3 129 131 132 
3 123 121 104 
3 129 132 133 
3 133 132 134 
3 134 132 135 
3 123 105 136 
3 105 106 136 
3 136 106 137 
3 127 138 128 
3 128 138 139 
3 125 138 127 
3 140 141 125 
3 125 141 138 
3 133 140 129 
3 129 140 125 
3 135 142 143 
3 144 143 142 
3 145 146 147 
3 148 141 140 
3 148 140 133 
3 149 148 133 
3 150 133 134 
3 149 133 150 
3 151 152 153 
3 154 155 156 
3 141 157 158 
3 149 141 148 
3 157 141 149 
3 134 135 150 
3 159 150 143 
3 149 150 159 
3 135 143 150 
3 160 157 149 
3 161 160 159 
3 149 159 160 
3 143 144 159 
3 162 159 144 
3 142 163 144 
3 164 152 151 
3 165 166 167 
3 144 163 162 
3 157 168 167 
3 157 160 168 
3 161 168 160 
3 165 168 161 
3 169 170 171 
3 167 168 165 
3 172 173 161 
3 165 161 173 
3 172 161 174 
3 159 162 175 
3 161 159 175 
3 175 174 161 
3 175 162 176 
3 177 176 163 
3 178 179 180 
3 181 182 183 
3 172 174 184 
3 174 175 185 
3 185 175 186 
3 176 186 175 
3 186 176 187 
3 177 187 176 
3 188 189 190 
3 191 182 192 
3 183 182 191 
3 174 185 193 
3 193 185 194 
3 174 193 184 
3 185 186 194 
3 194 186 195 
3 195 186 196 
3 186 187 196 
3 197 198 199 
3 200 187 201 
3 187 177 201 
3 189 188 202 
3 188 203 202 
3 204 205 206 
3 182 181 207 
3 181 208 207 
3 209 207 208 
3 208 210 209 
3 211 212 213 
3 193 214 184 
3 215 210 216 
3 214 194 195 
3 216 217 218 
3 199 219 197 
3 220 197 221 
3 221 197 219 
3 215 216 222 
3 193 194 214 
3 223 224 222 
3 216 218 222 
3 222 218 223 
3 199 225 219 
3 182 207 226 
3 209 227 207 
3 226 207 228 
3 228 207 227 
3 229 212 230 
3 211 230 212 
3 231 222 224 
3 215 222 231 
3 224 223 232 
3 225 233 219 
3 224 234 231 
3 227 235 228 
3 236 228 235 
3 237 228 236 
3 229 230 238 
3 236 235 239 
3 240 241 242 
3 243 244 239 
3 236 239 244 
3 235 245 239 
3 246 247 248 
3 234 235 231 
3 245 235 249 
3 234 249 235 
3 224 250 234 
3 250 249 234 
3 232 250 224 
3 251 252 253 
3 254 253 252 
3 244 237 236 
3 249 250 255 
3 253 254 256 
3 237 257 258 
3 244 257 237 
3 243 245 259 
3 259 260 261 
3 245 249 259 
3 259 249 260 
3 262 254 263 
3 252 264 254 
3 254 264 263 
3 244 265 257 
3 266 267 243 
3 243 267 244 
3 268 266 243 
3 243 259 268 
3 266 268 269 
3 270 265 244 
3 271 265 270 
3 272 273 270 
3 244 267 270 
3 266 272 267 
3 272 270 267 
3 260 274 261 
3 264 275 263 
3 272 276 273 
3 277 273 276 
3 266 276 272 
3 278 269 268 
3 268 259 278 
3 261 278 259 
3 269 278 279 
3 279 278 274 
3 261 274 278 
3 280 279 274 
3 275 281 282 
3 275 264 281 
3 283 284 285 
3 284 286 285 
3 287 286 284 
3 273 277 288 
3 289 276 266 
3 269 289 266 
3 269 279 289 
3 289 279 276 
3 280 290 279 
3 276 279 290 
3 288 291 292 
3 277 291 288 
3 291 277 293 
3 290 293 276 
3 277 276 293 
3 294 295 296 
3 296 295 297 
3 292 295 294 
3 298 297 295 
3 292 291 295 
3 299 300 301 
3 280 302 290 
3 301 303 299 
3 304 299 303 
3 282 281 305 
3 285 306 283 
3 295 293 298 
3 291 293 295 
3 290 302 293 
3 293 302 298 
3 302 307 298 
3 308 309 310 
3 311 312 313 
3 314 315 316 
3 317 318 319 
3 297 320 321 
3 322 297 321 
3 298 323 320 
3 324 325 323 
3 298 307 323 
3 326 327 328 
3 328 327 329 
3 330 331 332 
3 333 334 335 
3 336 331 337 
3 338 339 340 
3 322 321 341 
3 342 341 321 
3 342 321 320 
3 343 320 323 
3 323 325 343 
3 344 345 346 
3 345 344 347 
3 348 349 350 
3 351 348 352 
3 353 352 348 
3 348 354 353 
3 355 356 357 
3 358 359 360 
3 355 357 361 
3 348 350 362 
3 363 356 355 
3 361 364 355 
3 352 353 361 
3 361 353 364 
3 362 354 348 
3 353 354 364 
3 364 354 355 
3 362 365 354 
3 366 365 362 
3 354 365 363 
3 363 365 367 
3 366 367 365 
3 368 369 370 
3 371 370 369 
3 371 369 356 
3 354 363 355 
3 371 356 363 
3 371 363 372 
3 372 363 373 
3 371 372 370 
3 372 373 374 
3 375 374 373 
3 367 376 363 
3 377 378 367 
3 367 378 376 
3 379 380 381 
3 374 382 383 
3 370 372 383 
3 374 383 372 
3 375 382 374 
3 375 373 384 
3 363 376 373 
3 385 384 376 
3 376 384 373 
3 385 376 386 
3 376 378 386 
3 386 378 377 
3 387 375 388 
3 387 382 375 
3 388 375 389 
3 384 390 375 
3 389 375 390 
3 384 385 391 
3 391 392 384 
3 391 393 392 
3 392 390 384 
3 394 20 19 
3 385 27 391 
3 386 25 385 
3 385 25 27 
3 395 1 13 
3 26 25 386 
3 396 397 398 
3 399 400 401 
3 402 367 403 
3 403 367 366 
3 404 399 401 
3 405 397 406 
3 331 330 337 
3 396 406 397 
3 398 397 407 
3 397 405 407 
3 408 409 410 
3 411 412 413 
3 414 413 412 
3 404 401 415 
3 416 417 418 
3 419 420 11 
3 421 405 406 
3 404 415 422 
3 29 11 420 
3 423 424 425 
3 426 424 423 
3 427 428 429 
3 430 431 432 
3 29 420 431 
3 419 432 420 
3 431 420 432 
3 433 434 305 
3 303 435 304 
3 436 437 438 
3 438 437 439 
3 304 435 440 
3 441 434 433 
3 442 443 444 
3 442 445 443 
3 446 443 445 
3 447 426 423 
3 447 448 426 
3 449 430 450 
3 29 431 449 
3 449 431 430 
3 451 452 453 
3 454 455 456 
3 457 458 459 
3 447 460 448 
3 461 449 450 
3 462 29 449 
3 9 29 40 
3 40 29 462 
3 463 441 433 
3 464 441 463 
3 452 441 465 
3 464 465 441 
3 466 453 452 
3 467 453 466 
3 40 462 58 
3 56 58 462 
3 461 468 449 
3 466 469 467 
3 462 449 468 
3 468 70 462 
3 462 70 56 
3 466 452 465 
3 470 466 465 
3 470 471 466 
3 468 472 70 
3 70 472 88 
3 473 88 472 
3 305 474 433 
3 433 474 463 
3 475 463 474 
3 476 463 475 
3 476 464 463 
3 469 466 471 
3 477 287 284 
3 252 478 479 
3 475 479 476 
3 476 479 478 
3 470 465 480 
3 481 473 482 
3 480 483 470 
3 101 88 481 
3 473 481 88 
3 64 101 89 
3 88 101 64 
3 476 478 464 
3 465 464 480 
3 484 485 464 
3 486 487 488 
3 101 481 489 
3 489 481 482 
3 478 484 464 
3 490 484 478 
3 490 478 251 
3 252 251 478 
3 490 190 484 
3 190 485 484 
3 491 485 190 
3 480 491 483 
3 489 482 492 
3 493 483 491 
3 485 491 480 
3 102 101 489 
3 493 491 170 
3 171 170 491 
3 490 251 188 
3 242 494 240 
3 137 106 492 
3 102 489 106 
3 492 106 489 
3 188 190 490 
3 189 171 190 
3 190 171 491 
3 495 496 497 
3 322 341 498 
3 497 496 499 
3 496 495 500 
3 501 502 496 
3 296 297 322 
3 503 504 505 
3 506 507 508 
3 509 500 495 
3 506 508 510 
3 383 511 370 
3 379 508 380 
3 508 512 510 
3 379 512 508 
3 513 379 514 
3 387 515 382 
3 516 379 513 
3 516 512 379 
3 500 517 496 
3 496 517 501 
3 500 518 517 
3 519 520 521 
3 519 521 522 
3 523 524 525 
3 526 523 525 
3 514 527 513 
3 12 513 13 
3 13 513 527 
3 528 529 530 
3 296 531 294 
3 292 294 531 
3 532 533 534 
3 535 536 537 
3 510 512 538 
3 539 538 512 
3 516 539 512 
3 516 513 540 
3 43 540 12 
3 12 540 513 
3 12 14 43 
3 30 43 14 
3 531 541 542 
3 543 542 541 
3 519 544 520 
3 506 545 519 
3 506 546 545 
3 547 545 546 
3 547 546 538 
3 537 536 548 
3 516 540 539 
3 288 292 543 
3 543 292 542 
3 547 549 545 
3 549 547 550 
3 539 550 538 
3 538 550 547 
3 551 550 539 
3 543 541 552 
3 544 549 553 
3 519 545 544 
3 544 545 549 
3 549 550 554 
3 61 540 43 
3 539 540 551 
3 61 551 540 
3 61 43 45 
3 288 555 273 
3 273 555 271 
3 543 555 288 
3 556 271 555 
3 543 552 555 
3 556 555 552 
3 553 549 557 
3 557 549 554 
3 557 554 558 
3 551 558 550 
3 550 558 554 
3 559 558 560 
3 560 558 551 
3 61 60 551 
3 560 551 60 
3 273 271 270 
3 557 558 559 
3 60 65 560 
3 74 561 75 
3 562 563 557 
3 556 564 271 
3 265 271 564 
3 562 557 559 
3 565 559 560 
3 562 559 565 
3 564 258 265 
3 257 265 258 
3 566 258 564 
3 562 567 563 
3 568 563 567 
3 565 567 562 
3 560 72 565 
3 569 565 72 
3 570 571 572 
3 566 573 258 
3 574 567 575 
3 575 567 576 
3 568 567 574 
3 566 577 573 
3 567 565 576 
3 576 565 569 
3 94 569 72 
3 115 578 94 
3 94 578 569 
3 577 579 573 
3 573 579 228 
3 226 228 579 
3 580 581 582 
3 575 583 574 
3 576 584 575 
3 575 584 583 
3 585 584 576 
3 586 579 577 
3 587 579 586 
3 153 585 576 
3 153 576 569 
3 569 578 153 
3 579 192 226 
3 587 192 579 
3 226 192 182 
3 191 192 587 
3 585 152 584 
3 164 584 152 
3 152 585 153 
3 153 578 588 
