ply
format ascii 1.0
comment VCGLIB generated
element vertex 231
property float x
property float y
property float z
property float nx
property float ny
property float nz
element face 234
property list uchar int vertex_indices
end_header
0.41357 -0.639204 0.073406 -0.153874 -0.517594 -0.841639 
0.045525 -0.604807 0.075034 -0.181951 -0.678793 -0.711417 
0.187511 -0.433966 0.049485 -0.029328 -0.044862 -0.998535 
0.41357 -0.639204 0.073406 -0.153874 -0.517594 -0.841639 
0.562389 -0.727196 0.200937 -0.26783 -0.963042 0.027924 
0.045525 -0.604807 0.075034 -0.181951 -0.678793 -0.711417 
-0.781998 -0.598913 0.21348 -0.064058 -0.844356 -0.531907 
-0.332258 -0.505281 0.16581 -0.159215 -0.303018 -0.939573 
-0.315508 -0.568157 0.207392 -0.112247 -0.895505 -0.430616 
0.680527 -0.771551 0.067099 -0.186071 -0.88464 -0.427473 
0.898926 -0.755512 0.189786 0.056764 -0.997833 0.032899 
0.675972 -0.626724 0.00618 -0.157811 -0.15952 -0.974487 
1.046276 -0.741549 0.00078 0.230995 -0.731376 -0.641621 
0.680527 -0.771551 0.067099 -0.186071 -0.88464 -0.427473 
1.046276 -0.741549 0.00078 0.230995 -0.731376 -0.641621 
1.207859 -0.666525 0.126558 0.849147 -0.526414 0.042421 
0.399286 -0.654099 0.23199 -0.262062 -0.950407 0.167302 
-0.315508 -0.568157 0.207392 -0.112247 -0.895505 -0.430616 
1.114326 -0.741873 0.279806 0.393536 -0.910672 -0.125462 
0.411385 -0.64917 0.541582 -0.082278 -0.891293 0.445875 
-0.643812 -0.600941 0.560699 -0.036287 -0.87936 0.474715 
-0.781998 -0.598913 0.21348 -0.064058 -0.844356 -0.531907 
0.038189 -0.644743 0.438242 -0.1601 -0.978149 0.132542 
0.676384 -0.718447 0.533162 -0.164068 -0.878231 0.449171 
-1.233641 -0.421795 0.525272 -0.864803 -0.282571 0.415021 
-1.187918 -0.452848 0.309557 -0.993683 -0.066439 0.090304 
-1.148293 -0.532677 0.527421 -0.480789 -0.743919 0.464095 
-1.204401 -0.513226 0.233517 -0.725272 -0.516953 -0.454604 
1.207939 -0.666626 0.278259 0.806909 -0.459609 -0.370983 
1.122498 -0.733917 0.535203 0.361278 -0.856349 0.368938 
1.215981 -0.655178 0.523164 0.851588 -0.387188 0.353343 
-1.204401 -0.513226 0.233517 -0.725272 -0.516953 -0.454604 
-1.148293 -0.532677 0.527421 -0.480789 -0.743919 0.464095 
-0.113281 -0.567181 0.545708 -0.1713 -0.850459 0.49733 
0.148731 -0.560663 0.675995 -0.106449 -0.830805 0.546251 
-0.643812 -0.600941 0.560699 -0.036287 -0.87936 0.474715 
-0.569147 -0.44141 0.668846 -0.074129 -0.691916 0.718131 
-1.148293 -0.532677 0.527421 -0.480789 -0.743919 0.464095 
-0.9547 -0.313255 0.673489 -0.527451 -0.581896 0.618976 
-0.130896 -0.403315 0.661406 -0.17066 -0.780725 0.601062 
-0.113281 -0.567181 0.545708 -0.1713 -0.850459 0.49733 
0.148731 -0.560663 0.675995 -0.106449 -0.830805 0.546251 
-1.233641 -0.421795 0.525272 -0.864803 -0.282571 0.415021 
0.676384 -0.718447 0.533162 -0.164068 -0.878231 0.449171 
0.992178 -0.644392 0.68549 0.197302 -0.791742 0.578082 
0.583097 -0.461861 0.686787 -0.22364 -0.854213 0.469314 
0.992178 -0.644392 0.68549 0.197302 -0.791742 0.578082 
-0.130896 -0.403315 0.661406 -0.17066 -0.780725 0.601062 
-0.490831 -0.378635 0.785141 -0.015168 -0.973327 0.228889 
-0.569147 -0.44141 0.668846 -0.074129 -0.691916 0.718131 
0.411385 -0.64917 0.541582 -0.082278 -0.891293 0.445875 
0.583097 -0.461861 0.686787 -0.22364 -0.854213 0.469314 
-0.120081 -0.343161 0.80661 -0.195135 -0.958037 0.209815 
0.676243 -0.543879 0.842574 -0.409772 -0.911252 0.0412 
-0.9547 -0.313255 0.673489 -0.527451 -0.581896 0.618976 
0.074339 -0.422714 0.870225 -0.25544 -0.941954 0.217841 
1.12252 -0.508778 0.837658 0.456557 -0.869655 0.187597 
1.215981 -0.429968 0.851836 0.908048 -0.401379 -0.119541 
-0.966476 -0.305069 0.777332 -0.505051 -0.862972 -0.0112 
-0.461069 -0.391054 0.9854 0.035096 -0.93878 0.342692 
0.035929 -0.399979 1.153048 -0.135655 -0.711631 0.689291 
0.467979 -0.313761 1.089083 -0.13065 -0.893399 0.429792 
0.595831 -0.392481 1.203532 -0.521195 -0.494186 0.695761 
0.771019 -0.552694 1.062494 -0.168035 -0.968596 0.183142 
1.046276 -0.51634 1.250865 0.213843 -0.702994 0.678243 
-0.99333 -0.298298 1.049794 -0.5038 -0.619861 0.601581 
-0.27705 -0.337658 1.006077 -0.05298 -0.915647 0.398419 
0.161945 -0.432064 1.050097 0.030183 -0.948485 0.315287 
0.085274 -0.295334 1.190296 -0.115818 -0.295785 0.94818 
-0.27705 -0.337658 1.006077 -0.05298 -0.915647 0.398419 
0.035929 -0.399979 1.153048 -0.135655 -0.711631 0.689291 
-0.496466 -0.314253 1.06512 -0.272164 -0.566729 0.777612 
-0.496466 -0.314253 1.06512 -0.272164 -0.566729 0.777612 
-0.27705 -0.337658 1.006077 -0.05298 -0.915647 0.398419 
-0.451237 -0.206589 1.089647 -0.099948 -0.220283 0.970275 
0.161945 -0.432064 1.050097 0.030183 -0.948485 0.315287 
0.255655 -0.310467 1.213355 0.029664 -0.495315 0.868191 
0.085274 -0.295334 1.190296 -0.115818 -0.295785 0.94818 
0.358425 0.408916 1.207906 0.093722 0.369335 0.924528 
0.255655 -0.310467 1.213355 0.029664 -0.495315 0.868191 
0.468588 -0.116037 1.194309 -0.055239 0.073946 0.995727 
-0.461069 -0.391054 0.9854 0.035096 -0.93878 0.342692 
-0.612915 -0.191288 1.068283 -0.089816 -0.188421 0.977966 
-0.99333 -0.298298 1.049794 -0.5038 -0.619861 0.601581 
-0.612915 -0.191288 1.068283 -0.089816 -0.188421 0.977966 
-0.94169 0.296368 1.057446 -0.18131 0.749931 0.636158 
0.619913 -0.233076 1.233963 -0.182318 -0.099887 0.978118 
0.619913 -0.233076 1.233963 -0.182318 -0.099887 0.978118 
0.595831 -0.392481 1.203532 -0.521195 -0.494186 0.695761 
0.467979 -0.313761 1.089083 -0.13065 -0.893399 0.429792 
1.046276 -0.51634 1.250865 0.213843 -0.702994 0.678243 
1.191563 -0.379271 1.251646 0.65978 -0.296518 0.690451 
1.093554 0.458519 1.250865 0.094302 0.725425 0.681783 
0.085274 -0.295334 1.190296 -0.115818 -0.295785 0.94818 
-0.451237 -0.206589 1.089647 -0.099948 -0.220283 0.970275 
-0.27705 -0.337658 1.006077 -0.05298 -0.915647 0.398419 
0.085274 -0.295334 1.190296 -0.115818 -0.295785 0.94818 
-0.982212 -0.110327 1.061623 -0.203436 -0.027406 0.978698 
-1.047932 -0.121733 1.032471 -0.835871 -0.083468 0.542497 
-1.025944 0.222801 1.056142 -0.69509 0.336558 0.635243 
0.591415 0.324995 1.191321 -0.080935 0.296457 0.951598 
-0.427387 0.206991 1.1263 -0.154515 0.009339 0.987915 
-0.683376 0.138515 1.087825 -0.186254 0.090304 0.978332 
1.191563 -0.379271 1.251646 0.65978 -0.296518 0.690451 
1.200138 -0.067802 1.194304 0.880306 0.038545 0.472793 
1.093554 0.458519 1.250865 0.094302 0.725425 0.681783 
1.191788 0.40835 1.246343 0.643239 0.378399 0.665578 
1.093554 0.458519 1.250865 0.094302 0.725425 0.681783 
1.200138 -0.067802 1.194304 0.880306 0.038545 0.472793 
-0.482491 0.347971 1.104154 -0.327311 0.548326 0.769524 
-0.177145 0.420132 1.158285 -0.120273 0.587298 0.800378 
0.83663 0.36997 1.245466 -0.164251 0.543779 0.822962 
0.358425 0.408916 1.207906 0.093722 0.369335 0.924528 
0.591415 0.324995 1.191321 -0.080935 0.296457 0.951598 
0.558565 0.45816 1.086466 0.130863 0.955016 0.26603 
0.558565 0.45816 1.086466 0.130863 0.955016 0.26603 
0.287163 0.472403 1.167684 0.004517 0.867977 0.496536 
-1.025944 0.222801 1.056142 -0.69509 0.336558 0.635243 
-0.94169 0.296368 1.057446 -0.18131 0.749931 0.636158 
-0.971298 0.300301 0.80876 -0.679006 0.706442 0.199591 
0.287163 0.472403 1.167684 0.004517 0.867977 0.496536 
0.670473 0.419224 0.823017 0.027253 0.965178 0.260109 
0.83663 0.36997 1.245466 -0.164251 0.543779 0.822962 
-0.482491 0.347971 1.104154 -0.327311 0.548326 0.769524 
-0.177145 0.420132 1.158285 -0.120273 0.587298 0.800378 
-0.323853 0.548388 0.806335 -0.109836 0.842555 0.527238 
0.304811 0.480366 0.826699 0.091494 0.955596 0.280099 
-0.754879 0.268307 0.993216 -0.106479 0.804224 0.584643 
-0.736151 0.501995 0.658152 -0.277902 0.84286 0.460768 
-0.683376 0.138515 1.087825 -0.186254 0.090304 0.978332 
-0.754879 0.268307 0.993216 -0.106479 0.804224 0.584643 
1.093554 0.458519 1.250865 0.094302 0.725425 0.681783 
1.146717 0.467911 0.837658 0.412763 0.906857 -0.084872 
0.378557 0.55056 0.677166 0.114109 0.727836 0.676168 
-1.006336 0.271318 0.663255 -0.806696 0.268593 0.526353 
-0.971298 0.300301 0.80876 -0.679006 0.706442 0.199591 
-0.938259 0.376301 0.676213 -0.546373 0.59505 0.589373 
-0.938259 0.376301 0.676213 -0.546373 0.59505 0.589373 
-0.323853 0.548388 0.806335 -0.109836 0.842555 0.527238 
-0.399353 0.651005 0.683105 -0.189337 0.851436 0.489029 
-0.736151 0.501995 0.658152 -0.277902 0.84286 0.460768 
0.609413 0.496599 0.681602 0.08356 0.758019 0.646809 
1.090227 0.45179 0.685166 0.693716 0.645039 0.320353 
-0.399353 0.651005 0.683105 -0.189337 0.851436 0.489029 
-0.938259 0.376301 0.676213 -0.546373 0.59505 0.589373 
-0.986025 0.591196 0.532029 -0.231056 0.869289 0.436933 
-1.148293 0.415113 0.527421 -0.734275 0.409009 0.541734 
-0.399353 0.651005 0.683105 -0.189337 0.851436 0.489029 
0.378557 0.55056 0.677166 0.114109 0.727836 0.676168 
0.305305 0.767017 0.540163 0.049104 0.893826 0.445662 
0.670513 0.705297 0.541582 0.026551 0.865322 0.500473 
0.609413 0.496599 0.681602 0.08356 0.758019 0.646809 
1.107552 0.758362 0.533512 0.450972 0.779046 0.435499 
1.090227 0.45179 0.685166 0.693716 0.645039 0.320353 
-0.736151 0.501995 0.658152 -0.277902 0.84286 0.460768 
-0.399353 0.651005 0.683105 -0.189337 0.851436 0.489029 
-0.497597 0.668995 0.512156 -0.31489 0.936277 0.155553 
-0.736151 0.501995 0.658152 -0.277902 0.84286 0.460768 
-0.77702 0.551582 0.199177 -0.137486 0.679037 -0.721091 
0.305305 0.767017 0.540163 0.049104 0.893826 0.445662 
0.670513 0.705297 0.541582 0.026551 0.865322 0.500473 
0.400885 0.771549 0.099496 0.057009 0.840846 -0.538224 
-1.148293 0.415113 0.527421 -0.734275 0.409009 0.541734 
-0.986025 0.591196 0.532029 -0.231056 0.869289 0.436933 
-1.114952 0.59576 0.22399 -0.449355 0.73983 -0.500656 
-0.320955 0.71393 0.324415 -0.151097 0.988433 -0.011628 
1.107552 0.758362 0.533512 0.450972 0.779046 0.435499 
0.681635 0.709539 0.121284 0.111118 0.829859 -0.54677 
1.117153 0.729052 0.203332 0.460372 0.813593 -0.355052 
-0.506428 0.665232 0.178121 -0.302622 0.73278 -0.609424 
-0.986025 0.591196 0.532029 -0.231056 0.869289 0.436933 
-1.114952 0.59576 0.22399 -0.449355 0.73983 -0.500656 
-1.114952 0.59576 0.22399 -0.449355 0.73983 -0.500656 
-0.77702 0.551582 0.199177 -0.137486 0.679037 -0.721091 
-0.605551 0.318386 0.165794 -0.134739 0.021516 -0.990631 
-0.506428 0.665232 0.178121 -0.302622 0.73278 -0.609424 
-0.377207 0.506357 0.112866 -0.182653 0.127018 -0.974914 
0.400885 0.771549 0.099496 0.057009 0.840846 -0.538224 
1.093554 0.514006 0.00078 0.206183 0.386059 -0.899106 
0.681635 0.709539 0.121284 0.111118 0.829859 -0.54677 
1.117153 0.729052 0.203332 0.460372 0.813593 -0.355052 
0.360664 0.651514 0.043739 -0.018708 0.238594 -0.970916 
0.66264 0.63303 0.073406 0.172338 0.315683 -0.933073 
0.824902 0.351543 0.00618 -0.155858 0.084841 -0.9841 
-1.233824 0.133272 0.197587 -0.822779 0.011444 -0.568194 
-1.213442 0.419075 0.27978 -0.934263 0.316263 -0.164556 
1.19978 0.399286 0.000865 0.694052 0.127354 -0.708548 
-1.233824 0.133272 0.197587 -0.822779 0.011444 -0.568194 
1.191563 -0.604479 -0 0.630116 -0.234382 -0.740257 
-0.973526 -0.522608 0.189222 -0.130253 -0.343455 -0.930052 
-1.204401 -0.513226 0.233517 -0.725272 -0.516953 -0.454604 
1.191563 -0.604479 -0 0.630116 -0.234382 -0.740257 
1.207859 -0.666525 0.126558 0.849147 -0.526414 0.042421 
1.046276 -0.741549 0.00078 0.230995 -0.731376 -0.641621 
1.19978 0.399286 0.000865 0.694052 0.127354 -0.708548 
1.240772 -0.121826 0.061157 0.993469 0.075381 0.08533 
1.186481 -0.536493 0.190609 0.996002 -0.057131 0.0683 
1.114326 -0.741873 0.279806 0.393536 -0.910672 -0.125462 
1.117153 0.729052 0.203332 0.460372 0.813593 -0.355052 
1.209911 0.593163 0.286576 0.953093 0.298868 -0.047487 
1.207939 -0.666626 0.278259 0.806909 -0.459609 -0.370983 
1.186481 -0.536493 0.190609 0.996002 -0.057131 0.0683 
1.207939 -0.666626 0.278259 0.806909 -0.459609 -0.370983 
1.114326 -0.741873 0.279806 0.393536 -0.910672 -0.125462 
1.107552 0.758362 0.533512 0.450972 0.779046 0.435499 
1.235104 0.262665 0.542719 0.941435 0.044404 0.334208 
1.215981 -0.655178 0.523164 0.851588 -0.387188 0.353343 
1.090227 0.45179 0.685166 0.693716 0.645039 0.320353 
1.12248 -0.451195 0.64613 0.936827 -0.237465 0.256783 
1.215981 -0.655178 0.523164 0.851588 -0.387188 0.353343 
0.992178 -0.644392 0.68549 0.197302 -0.791742 0.578082 
1.122498 -0.733917 0.535203 0.361278 -0.856349 0.368938 
1.12248 -0.451195 0.64613 0.936827 -0.237465 0.256783 
1.219843 0.387587 0.831211 0.905789 0.327067 -0.269356 
1.146717 0.467911 0.837658 0.412763 0.906857 -0.084872 
0.992178 -0.644392 0.68549 0.197302 -0.791742 0.578082 
1.215981 -0.429968 0.851836 0.908048 -0.401379 -0.119541 
1.191788 0.40835 1.246343 0.643239 0.378399 0.665578 
1.240864 -0.121719 1.065044 0.995636 -0.016938 0.091464 
1.046276 -0.51634 1.250865 0.213843 -0.702994 0.678243 
1.191788 0.40835 1.246343 0.643239 0.378399 0.665578 
-1.240862 0.139164 0.524728 -0.893124 0.066927 0.444716 
-1.240862 0.139164 0.524728 -0.893124 0.066927 0.444716 
-1.006336 0.271318 0.663255 -0.806696 0.268593 0.526353 
-0.9547 -0.313255 0.673489 -0.527451 -0.581896 0.618976 
-1.05879 0.095263 0.798884 -0.980377 0.093936 -0.173254 
-1.056684 -0.196583 0.812855 -0.941404 -0.262398 -0.211737 
-1.056684 -0.196583 0.812855 -0.941404 -0.262398 -0.211737 
-1.047932 -0.121733 1.032471 -0.835871 -0.083468 0.542497 
-1.025944 0.222801 1.056142 -0.69509 0.336558 0.635243 
-0.99333 -0.298298 1.049794 -0.5038 -0.619861 0.601581 
3 0 1 2 
3 3 4 5 
3 6 7 8 
3 1 8 7 
3 3 9 4 
3 4 9 10 
3 11 12 13 
3 9 14 10 
3 14 15 10 
3 5 4 16 
3 5 16 17 
3 10 15 18 
3 16 4 19 
3 17 20 21 
3 22 17 16 
3 4 23 19 
3 23 4 10 
3 24 25 26 
3 26 25 27 
3 18 28 29 
3 30 29 28 
3 31 21 32 
3 20 32 21 
3 20 17 33 
3 17 22 33 
3 22 16 19 
3 22 34 33 
3 23 10 29 
3 10 18 29 
3 35 36 37 
3 37 36 38 
3 39 40 41 
3 34 22 19 
3 42 37 38 
3 39 36 35 
3 40 39 35 
3 43 44 45 
3 29 46 23 
3 47 48 49 
3 43 45 50 
3 19 51 34 
3 47 34 52 
3 51 46 53 
3 54 49 48 
3 34 55 52 
3 34 51 55 
3 46 56 53 
3 46 57 56 
3 54 48 58 
3 48 59 58 
3 47 52 48 
3 52 55 60 
3 51 53 61 
3 62 61 53 
3 53 63 62 
3 63 53 64 
3 64 62 63 
3 56 64 53 
3 58 59 65 
3 60 66 52 
3 55 67 60 
3 68 69 70 
3 48 52 66 
3 48 66 59 
3 71 59 66 
3 72 73 74 
3 70 75 68 
3 76 77 67 
3 51 67 55 
3 67 51 61 
3 67 61 76 
3 78 79 80 
3 81 82 83 
3 74 82 72 
3 71 84 59 
3 85 82 74 
3 61 86 76 
3 79 87 80 
3 88 87 89 
3 87 90 91 
3 87 91 92 
3 93 94 95 
3 96 79 78 
3 87 88 90 
3 83 97 98 
3 99 98 97 
3 85 97 82 
3 82 97 83 
3 100 80 87 
3 100 78 80 
3 74 101 102 
3 96 101 74 
3 96 78 101 
3 103 104 105 
3 106 107 108 
3 102 101 109 
3 101 110 109 
3 102 85 74 
3 87 111 100 
3 92 111 87 
3 85 99 97 
3 101 78 110 
3 112 113 114 
3 115 100 111 
3 116 110 78 
3 117 118 119 
3 112 114 120 
3 121 120 114 
3 121 114 122 
3 123 124 125 
3 126 124 120 
3 127 119 118 
3 119 127 128 
3 129 127 118 
3 102 109 130 
3 127 123 125 
3 125 124 126 
3 126 120 121 
3 121 122 131 
3 131 132 121 
3 127 125 128 
3 121 133 126 
3 134 135 136 
3 119 128 137 
3 138 139 140 
3 126 133 125 
3 121 132 141 
3 142 141 132 
3 143 125 133 
3 133 121 141 
3 144 145 146 
3 147 148 149 
3 148 150 149 
3 148 151 150 
3 150 151 152 
3 151 153 152 
3 145 144 154 
3 155 156 157 
3 157 156 158 
3 159 160 161 
3 162 163 164 
3 156 155 165 
3 166 167 160 
3 166 168 167 
3 165 155 159 
3 160 167 161 
3 156 169 158 
3 170 157 158 
3 165 159 161 
3 156 165 169 
3 165 161 169 
3 170 158 171 
3 172 173 174 
3 174 173 175 
3 175 176 174 
3 175 177 176 
3 178 179 180 
3 177 179 181 
3 182 181 179 
3 183 179 178 
3 176 177 181 
3 179 183 182 
3 164 184 185 
3 178 186 183 
3 11 182 183 
3 174 187 172 
3 176 181 2 
3 2 181 182 
3 186 188 183 
3 187 189 190 
3 174 189 187 
3 176 2 1 
3 1 174 176 
3 0 2 182 
3 182 11 0 
3 7 174 1 
3 183 12 11 
3 12 183 188 
3 190 189 6 
3 174 7 189 
3 13 0 11 
3 6 189 7 
3 191 192 193 
3 178 180 186 
3 194 195 191 
3 191 195 192 
3 194 196 195 
3 192 195 196 
3 192 196 197 
3 194 198 199 
3 199 196 194 
3 200 196 199 
3 201 202 203 
3 204 205 199 
3 200 199 206 
3 206 199 205 
3 204 199 198 
3 204 207 205 
3 208 206 205 
3 209 210 211 
3 212 210 209 
3 205 207 208 
3 213 207 214 
3 215 208 216 
3 217 213 214 
3 207 213 208 
3 208 213 216 
3 213 218 216 
3 216 218 103 
3 103 219 216 
3 213 217 218 
3 103 218 104 
3 104 218 217 
3 132 131 220 
3 57 64 56 
3 27 185 184 
3 27 25 185 
3 185 25 24 
3 185 162 164 
3 185 221 162 
3 185 24 221 
3 146 222 223 
3 144 146 223 
3 222 42 223 
3 38 223 42 
3 134 224 225 
3 225 135 134 
3 224 226 225 
3 227 54 58 
3 226 228 225 
3 225 228 229 
3 135 225 229 
3 226 230 228 
3 58 65 227 
