ply
format ascii 1.0
comment VCGLIB generated
element vertex 260
property float x
property float y
property float z
property float nx
property float ny
property float nz
element face 230
property list uchar int vertex_indices
end_header
0.356308 9.10197 4.69234 -0.00531 0.936857 0.34962 
0.732376 8.91311 6.60924 -0.223792 0.565539 0.793756 
1.68529 8.91571 6.33167 0.48497 0.6545 0.580004 
2.15913 3.28942 6.91341 0.675253 0.0490429 0.735923 
2.80916 1.21467 4.71221 0.592303 -0.358592 0.721488 
3.86511 3.30588 5.02508 0.671194 0.314158 0.671377 
-1.11894 4.41303 6.12112 -0.251564 0.528611 0.810694 
-0.013687 8.12647 5.7873 -0.578021 0.550798 0.602039 
-1.28 7.30786 6.1956 -0.024842 0.27662 0.960631 
4.6391 4.18792 2.57576 0.714347 0.626026 0.312662 
5.81364 3.95439 1.59211 0.84756 0.501968 0.172094 
3.95839 4.98413 1.46961 0.8511 0.523606 -0.0378729 
-8.01286 2.63599 -0.661392 -0.761498 0.594836 0.257393 
-8.11459 0.176485 -0.289944 -0.728446 -0.596362 0.337138 
-6.18579 2.76371 0.885372 -0.735618 0.339183 0.586322 
-5.03911 4.42634 1.08976 -0.396039 0.897122 0.195685 
-5.03911 4.42634 1.08976 -0.181646 0.977508 0.107059 
-5.03911 4.42634 1.08976 -0.205817 0.977844 0.0380571 
-2.40906 7.32002 -6.50215 -0.499069 0.734886 -0.459181 
-1.25125 7.30552 -8.05608 -0.119541 0.925047 -0.360515 
-3.81657 6.03466 -6.3774 -0.33607 0.81225 -0.47673 
-2.42032 7.28588 5.92954 -0.556841 0.406568 0.724265 
-2.8517 7.08083 4.81557 -0.936125 0.202765 0.28724 
-3.4046 4.10231 5.68236 -0.748436 0.214301 0.627583 
-5.27724 4.97906 0.112112 -0.783807 0.430921 0.447096 
3.81238 8.28213 -2.9874 0.864376 0.500107 0.0517901 
4.58574 5.379 -4.2725 0.949187 0.302133 0.088015 
4.47607 6.52821 -5.72246 0.938719 0.329691 -0.100284 
-1.42465 9.68475 2.55599 -0.453749 0.821039 0.346324 
-0.646744 10.8102 0.842925 -0.205451 0.963256 0.172857 
-1.49397 9.77898 1.16517 -0.465804 0.831446 0.302774 
3.68243 0.184415 -10.0737 0.456648 -0.581439 -0.673299 
5.67752 2.73732 -8.11683 0.764916 0.43553 -0.474532 
6.78192 0.340758 -8.39702 0.81698 -0.366253 -0.445387 
5.62297 3.58218 -1.40217 0.847194 0.530747 -0.0228889 
-5.26919 4.0866 1.57399 -0.748863 0.537614 0.387463 
-4.72681 4.13693 2.19698 -0.816828 0.377758 0.435957 
-5.03911 4.42634 1.08976 -0.396039 0.897122 0.195685 
-6.16308 5.15883 -1.04005 -0.778008 0.609699 0.151463 
-6.73097 2.89817 -0.194977 -0.590655 0.768426 0.246223 
-5.27724 4.97906 0.112112 -0.783807 0.430921 0.447096 
-2.72118 4.52201 -10.4176 -0.458113 0.368023 -0.809107 
-1.03084 6.19626 -10.2063 -0.173559 0.729209 -0.661855 
-0.238571 5.66102 -10.7132 0.015534 0.539903 -0.841548 
0.094772 0.0876815 -11.459 -0.02942 -0.681631 -0.731071 
-1.20747 0.0187619 0.522682 0.00296 -0.999939 0.00723287 
-7.60954 0.115201 -8.73022 -0.710776 -0.501694 -0.492996 
-3.4046 4.10231 5.68236 -0.748436 0.214301 0.627583 
-2.26251 0.801293 6.61007 -0.47087 -0.0762961 0.878872 
-1.02045 4.00288 7.2462 -0.203131 0.53737 0.818476 
-1.11894 4.41303 6.12112 -0.251564 0.528611 0.810694 
-3.4046 4.10231 5.68236 -0.748436 0.214301 0.627583 
-1.02045 4.00288 7.2462 -0.203131 0.53737 0.818476 
1.46834 7.11932 -5.32282 -0.16007 0.930784 -0.328593 
0.175674 6.53952 -9.17893 0.193762 0.884487 -0.42439 
0.311432 8.09061 -2.87992 0.08243 0.844172 -0.529649 
0.315186 10.5038 2.77732 0.344951 0.846065 0.406384 
-1.42465 9.68475 2.55599 -0.453749 0.821039 0.346324 
-2.42032 7.28588 5.92954 -0.556841 0.406568 0.724265 
0.356308 9.10197 4.69234 -0.00531 0.936857 0.34962 
0.315186 10.5038 2.77732 0.344951 0.846065 0.406384 
-5.26919 4.0866 1.57399 -0.748863 0.537614 0.387463 
-1.14409 2.55853 -11.2593 -0.155828 0.140538 -0.977722 
2.35735 3.81319 5.59629 0.788324 0.333781 0.5168 
2.44699 7.295 5.25853 0.840907 0.132847 0.524552 
2.15913 3.28942 6.91341 0.675253 0.0490429 0.735923 
3.81238 8.28213 -2.9874 0.864376 0.500107 0.0517901 
3.16966 8.89328 -3.27254 0.419843 0.894864 -0.151311 
3.12581 8.4865 0.807257 0.762535 0.632221 0.13712 
0.910782 10.6667 -0.0737616 0.454848 0.880123 -0.135777 
1.9758 8.84971 1.02067 0.475295 0.789727 0.387768 
3.12581 8.4865 0.807257 0.762535 0.632221 0.13712 
0.315186 10.5038 2.77732 0.344951 0.846065 0.406384 
0.910782 10.6667 -0.0737616 0.454848 0.880123 -0.135777 
-0.646744 10.8102 0.842925 -0.205451 0.963256 0.172857 
3.12581 8.4865 0.807257 0.762535 0.632221 0.13712 
1.36635 9.66535 -1.20939 0.35023 0.847163 -0.399518 
0.910782 10.6667 -0.0737616 0.454848 0.880123 -0.135777 
1.46834 7.11932 -5.32282 -0.16007 0.930784 -0.328593 
1.36635 9.66535 -1.20939 0.35023 0.847163 -0.399518 
2.74478 7.29879 -6.55903 -0.320139 0.873501 -0.366741 
-4.0327 9.60354 -0.289063 -0.697043 0.701712 0.14716 
-3.90492 5.95154 1.88086 -0.880612 0.288614 0.375744 
4.92372 4.18368 -7.29006 0.800897 0.497482 -0.333232 
-3.30032 4.97969 4.35724 -0.911435 0.337291 0.235572 
-5.03911 4.42634 1.08976 -0.205817 0.977844 0.0380571 
-8.17485 0.312349 -2.52073 -0.823847 -0.558092 -0.0986361 
-7.54411 1.27259 -4.05143 -0.961211 0.249916 -0.116642 
-7.60954 0.115201 -8.73022 -0.710776 -0.501694 -0.492996 
1.94447 0.763067 7.62745 0.56798 -0.265511 0.779015 
2.33112 0.278911 4.29385 0.220344 -0.946837 0.23426 
2.80916 1.21467 4.71221 0.592303 -0.358592 0.721488 
6.97269 0.684132 -7.40234 0.988403 -0.136082 -0.066988 
5.85333 0.0702768 1.66446 0.630757 -0.705527 0.323038 
6.30043 0.111581 -8.37376 0.298685 -0.933653 -0.197638 
-3.09917 0.149844 -11.1058 -0.262825 -0.589038 -0.764153 
-6.64215 0.2517 -9.45255 -0.504715 -0.300027 -0.809442 
5.84036 2.06161 1.65166 0.901852 0.103824 0.419324 
5.21504 1.8715 2.43576 0.924131 -0.042329 0.379681 
5.85333 0.0702768 1.66446 0.630757 -0.705527 0.323038 
1.68529 8.91571 6.33167 0.48497 0.6545 0.580004 
0.732376 8.91311 6.60924 -0.223792 0.565539 0.793756 
-1.11894 4.41303 6.12112 -0.251564 0.528611 0.810694 
0.732376 8.91311 6.60924 -0.223792 0.565539 0.793756 
-0.013687 8.12647 5.7873 -0.578021 0.550798 0.602039 
-1.11894 4.41303 6.12112 -0.251564 0.528611 0.810694 
1.85097 1.80886 6.96183 0.802484 0.16187 0.574267 
6.78192 0.340758 -8.39702 0.81698 -0.366253 -0.445387 
-7.17247 2.7146 -5.81097 -0.878475 0.477706 0.00582906 
-6.25365 3.90963 -6.81836 -0.722343 0.683309 -0.106021 
2.35735 3.81319 5.59629 0.788324 0.333781 0.5168 
2.15913 3.28942 6.91341 0.675253 0.0490429 0.735923 
3.86511 3.30588 5.02508 0.671194 0.314158 0.671377 
2.56132 4.11136 -9.79534 0.741447 0.466323 -0.482406 
4.92372 4.18368 -7.29006 0.800897 0.497482 -0.333232 
4.82953 3.40252 -8.55107 0.617145 0.483474 -0.620746 
-3.54941 2.60547 -10.5098 -0.503769 0.180609 -0.844722 
-4.20785 5.4288 -8.41191 -0.59328 0.67748 -0.434706 
-2.40327 10.6828 -0.28909 -0.429487 0.902005 -0.0435189 
-0.238571 5.66102 -10.7132 0.015534 0.539903 -0.841548 
2.54884 5.99561 -8.96447 0.516129 0.644032 -0.564623 
2.33112 0.278911 4.29385 0.220344 -0.946837 0.23426 
-3.72536 0.479044 5.75692 -0.661946 -0.38432 0.643483 
-3.68405 0.0893594 5.01017 -0.289254 -0.928892 0.231239 
-0.941422 0.25687 7.1717 -0.213843 -0.63805 0.739677 
2.44699 7.295 5.25853 0.840907 0.132847 0.524552 
6.71896 0.713631 0.209641 0.966247 -0.202948 0.158635 
-6.14975 0.342573 1.56104 -0.654195 -0.511582 0.556993 
-3.72536 0.479044 5.75692 -0.661946 -0.38432 0.643483 
2.74478 7.29879 -6.55903 -0.320139 0.873501 -0.366741 
3.95839 4.98413 1.46961 0.8511 0.523606 -0.0378729 
3.80589 6.74523 3.18062 0.913205 0.377911 0.152287 
4.6391 4.18792 2.57576 0.714347 0.626026 0.312662 
3.12581 8.4865 0.807257 0.762535 0.632221 0.13712 
-7.80688 1.03239 -7.95845 -0.964568 0.107364 -0.240944 
2.02959 8.57371 4.7072 0.54326 0.839259 0.0215161 
1.9758 8.84971 1.02067 0.475295 0.789727 0.387768 
1.36635 9.66535 -1.20939 0.35023 0.847163 -0.399518 
-4.77994 5.38355 -7.28377 -0.617573 0.709372 -0.33961 
-5.52035 4.70023 -6.56617 -0.774194 0.616138 -0.14481 
-5.33974 7.86018 -1.94024 -0.931822 0.357891 0.059938 
-4.83291 3.8993 -9.25891 -0.473006 0.506729 -0.720725 
-8.01286 2.63599 -0.661392 -0.761498 0.594836 0.257393 
-6.73097 2.89817 -0.194977 -0.590655 0.768426 0.246223 
-7.17247 2.7146 -5.81097 -0.878475 0.477706 0.00582906 
5.84036 2.06161 1.65166 0.901852 0.103824 0.419324 
5.62297 3.58218 -1.40217 0.847194 0.530747 -0.0228889 
5.81364 3.95439 1.59211 0.84756 0.501968 0.172094 
-3.09917 0.149844 -11.1058 -0.262825 -0.589038 -0.764153 
1.4729 0.106844 6.82106 0.284646 -0.914212 0.288339 
1.94447 0.763067 7.62745 0.56798 -0.265511 0.779015 
3.68243 0.184415 -10.0737 0.456648 -0.581439 -0.673299 
-6.08629 4.5502 -3.49436 -0.839442 0.538408 -0.0736109 
-1.52179 9.44285 -2.48208 0.14066 0.820276 -0.554338 
-1.1543 10.4952 -1.14873 -0.000214 0.884945 -0.465621 
-5.12477 5.80443 -0.942133 -0.889035 0.428266 0.161779 
-2.42032 7.28588 5.92954 -0.556841 0.406568 0.724265 
-2.40327 10.6828 -0.28909 -0.429487 0.902005 -0.0435189 
-4.11142 8.84852 -2.8546 -0.534013 0.777154 -0.332926 
-4.0327 9.60354 -0.289063 -0.697043 0.701712 0.14716 
-2.40327 10.6828 -0.28909 -0.429487 0.902005 -0.0435189 
-1.1543 10.4952 -1.14873 -0.000214 0.884945 -0.465621 
-4.0327 9.60354 -0.289063 -0.697043 0.701712 0.14716 
-3.81657 6.03466 -6.3774 -0.33607 0.81225 -0.47673 
-4.20785 5.4288 -8.41191 -0.59328 0.67748 -0.434706 
-4.77994 5.38355 -7.28377 -0.617573 0.709372 -0.33961 
-6.16308 5.15883 -1.04005 -0.778008 0.609699 0.151463 
-5.12477 5.80443 -0.942133 -0.889035 0.428266 0.161779 
-6.08629 4.5502 -3.49436 -0.839442 0.538408 -0.0736109 
5.5309 3.63339 -5.60314 0.913388 0.40434 -0.0470599 
-6.18579 2.76371 0.885372 -0.735618 0.339183 0.586322 
6.0056 2.21337 -0.00414671 0.912137 0.401624 0.081606 
6.97269 0.684132 -7.40234 0.988403 -0.136082 -0.066988 
-6.64215 0.2517 -9.45255 -0.504715 -0.300027 -0.809442 
5.85333 0.0702768 1.66446 0.630757 -0.705527 0.323038 
5.21504 1.8715 2.43576 0.924131 -0.042329 0.379681 
4.75604 0.209855 4.34157 0.503616 -0.54265 0.672201 
1.72002 0.228975 -11.4566 0.266213 -0.558855 -0.785333 
-5.27449 0.0654598 1.27464 -0.110294 -0.991363 0.0706499 
-6.14975 0.342573 1.56104 -0.654195 -0.511582 0.556993 
4.75604 0.209855 4.34157 0.503616 -0.54265 0.672201 
1.85097 1.80886 6.96183 0.802484 0.16187 0.574267 
2.33112 0.278911 4.29385 0.220344 -0.946837 0.23426 
4.75604 0.209855 4.34157 0.503616 -0.54265 0.672201 
4.82953 3.40252 -8.55107 0.617145 0.483474 -0.620746 
1.66113 3.89371 -11.3249 0.238899 0.296274 -0.924711 
1.72002 0.228975 -11.4566 0.266213 -0.558855 -0.785333 
1.66113 3.89371 -11.3249 0.238899 0.296274 -0.924711 
1.72002 0.228975 -11.4566 0.266213 -0.558855 -0.785333 
0.094772 0.0876815 -11.459 -0.02942 -0.681631 -0.731071 
6.71896 0.713631 0.209641 0.966247 -0.202948 0.158635 
5.81364 3.95439 1.59211 0.84756 0.501968 0.172094 
1.66113 3.89371 -11.3249 0.238899 0.296274 -0.924711 
2.25255 5.21657 -10.7026 0.590106 0.431989 -0.681997 
2.54884 5.99561 -8.96447 0.516129 0.644032 -0.564623 
2.56132 4.11136 -9.79534 0.741447 0.466323 -0.482406 
2.25255 5.21657 -10.7026 0.590106 0.431989 -0.681997 
-6.75368 3.39048 -8.26754 -0.683737 0.600757 -0.414228 
-6.73097 2.89817 -0.194977 -0.590655 0.768426 0.246223 
0.970596 2.45643 7.42793 0.192389 0.150029 0.969756 
0.088104 4.10151 6.96347 -0.130161 0.391247 0.911008 
4.6391 4.18792 2.57576 0.714347 0.626026 0.312662 
3.61211 4.84191 5.26992 0.702567 -0.101566 0.704306 
2.35735 3.81319 5.59629 0.788324 0.333781 0.5168 
3.61211 4.84191 5.26992 0.702567 -0.101566 0.704306 
-3.4046 4.10231 5.68236 -0.748436 0.214301 0.627583 
3.63972 7.77727 -6.52495 0.356059 0.804529 -0.475295 
3.80589 6.74523 3.18062 0.913205 0.377911 0.152287 
2.02959 8.57371 4.7072 0.54326 0.839259 0.0215161 
1.68529 8.91571 6.33167 0.48497 0.6545 0.580004 
-2.94069 8.97687 -4.0945 -0.228736 0.864467 -0.447615 
-4.11142 8.84852 -2.8546 -0.534013 0.777154 -0.332926 
-4.11142 8.84852 -2.8546 -0.534013 0.777154 -0.332926 
3.63972 7.77727 -6.52495 0.356059 0.804529 -0.475295 
3.16966 8.89328 -3.27254 0.419843 0.894864 -0.151311 
0.356308 9.10197 4.69234 -0.00531 0.936857 0.34962 
0.910782 10.6667 -0.0737616 0.454848 0.880123 -0.135777 
0.315186 10.5038 2.77732 0.344951 0.846065 0.406384 
3.12581 8.4865 0.807257 0.762535 0.632221 0.13712 
-1.67346 8.41856 -4.50229 0.253182 0.880551 -0.400555 
-2.94069 8.97687 -4.0945 -0.228736 0.864467 -0.447615 
-1.49397 9.77898 1.16517 -0.465804 0.831446 0.302774 
-4.0327 9.60354 -0.289063 -0.697043 0.701712 0.14716 
-1.42465 9.68475 2.55599 -0.453749 0.821039 0.346324 
-1.25125 7.30552 -8.05608 -0.119541 0.925047 -0.360515 
-1.03084 6.19626 -10.2063 -0.173559 0.729209 -0.661855 
-7.80688 1.03239 -7.95845 -0.964568 0.107364 -0.240944 
-6.75368 3.39048 -8.26754 -0.683737 0.600757 -0.414228 
-4.20785 5.4288 -8.41191 -0.59328 0.67748 -0.434706 
-4.83291 3.8993 -9.25891 -0.473006 0.506729 -0.720725 
-4.77994 5.38355 -7.28377 -0.617573 0.709372 -0.33961 
-1.42465 9.68475 2.55599 -0.453749 0.821039 0.346324 
-2.40906 7.32002 -6.50215 -0.499069 0.734886 -0.459181 
3.61211 4.84191 5.26992 0.702567 -0.101566 0.704306 
2.35735 3.81319 5.59629 0.788324 0.333781 0.5168 
2.25255 5.21657 -10.7026 0.590106 0.431989 -0.681997 
-4.83291 3.8993 -9.25891 -0.473006 0.506729 -0.720725 
-6.25365 3.90963 -6.81836 -0.722343 0.683309 -0.106021 
-4.77994 5.38355 -7.28377 -0.617573 0.709372 -0.33961 
5.5309 3.63339 -5.60314 0.913388 0.40434 -0.0470599 
-3.72536 0.479044 5.75692 -0.661946 -0.38432 0.643483 
5.81364 3.95439 1.59211 0.84756 0.501968 0.172094 
4.84743 1.28031 3.99878 0.795709 0.0219119 0.605243 
1.94447 0.763067 7.62745 0.56798 -0.265511 0.779015 
-0.941422 0.25687 7.1717 -0.213843 -0.63805 0.739677 
-8.11459 0.176485 -0.289944 -0.728446 -0.596362 0.337138 
-8.17485 0.312349 -2.52073 -0.823847 -0.558092 -0.0986361 
-7.60954 0.115201 -8.73022 -0.710776 -0.501694 -0.492996 
-5.03911 4.42634 1.08976 -0.181646 0.977508 0.107059 
-4.83291 3.8993 -9.25891 -0.473006 0.506729 -0.720725 
-6.75368 3.39048 -8.26754 -0.683737 0.600757 -0.414228 
-6.25365 3.90963 -6.81836 -0.722343 0.683309 -0.106021 
0.356308 9.10197 4.69234 -0.00531 0.936857 0.34962 
-4.0327 9.60354 -0.289063 -0.697043 0.701712 0.14716 
0.088104 4.10151 6.96347 -0.130161 0.391247 0.911008 
6.71896 0.713631 0.209641 0.966247 -0.202948 0.158635 
4.84743 1.28031 3.99878 0.795709 0.0219119 0.605243 
5.81364 3.95439 1.59211 0.84756 0.501968 0.172094 
1.9758 8.84971 1.02067 0.475295 0.789727 0.387768 
0.356308 9.10197 4.69234 -0.00531 0.936857 0.34962 
3 0 1 2 
3 3 4 5 
3 6 7 8 
3 9 10 11 
3 12 13 14 
3 15 16 17 
3 18 19 20 
3 21 22 23 
3 15 24 16 
3 25 26 27 
3 28 29 30 
3 31 32 33 
3 10 34 11 
3 35 36 37 
3 38 39 40 
3 41 42 43 
3 44 45 46 
3 47 48 49 
3 50 51 52 
3 53 54 55 
3 21 56 57 
3 58 59 60 
3 61 15 17 
3 62 41 43 
3 63 64 65 
3 66 67 68 
3 69 70 71 
3 72 73 74 
3 75 76 77 
3 78 79 80 
3 81 82 22 
3 83 27 26 
3 84 36 23 
3 14 85 39 
3 86 12 87 
3 86 87 88 
3 89 90 91 
3 92 93 94 
3 95 46 96 
3 97 98 99 
3 100 101 102 
3 103 104 105 
3 106 4 3 
3 92 94 107 
3 108 39 109 
3 110 111 112 
3 113 114 115 
3 41 116 117 
3 29 118 30 
3 119 54 120 
3 45 93 121 
3 122 123 124 
3 125 100 3 
3 97 99 126 
3 36 127 128 
3 127 36 35 
3 120 54 129 
3 130 131 132 
3 130 133 131 
3 23 36 128 
3 87 108 134 
3 135 136 0 
3 55 137 53 
3 133 26 25 
3 22 82 84 
3 138 139 140 
3 116 141 117 
3 142 143 144 
3 145 146 147 
3 148 116 62 
3 124 149 150 
3 151 107 94 
3 152 109 39 
3 153 154 137 
3 40 155 38 
3 156 8 7 
3 157 74 73 
3 158 154 153 
3 159 154 158 
3 160 161 162 
3 81 155 40 
3 163 164 165 
3 166 167 168 
3 26 130 169 
3 143 142 170 
3 171 172 32 
3 148 173 141 
3 116 148 141 
3 174 175 176 
3 12 86 13 
3 46 95 44 
3 151 44 177 
3 151 94 44 
3 178 45 123 
3 179 178 123 
3 121 150 149 
3 93 180 121 
3 91 181 89 
3 4 182 183 
3 184 31 185 
3 185 31 186 
3 187 188 189 
3 88 87 134 
3 171 190 172 
3 87 12 108 
3 127 35 14 
3 98 97 191 
3 171 145 190 
3 113 115 192 
3 187 62 193 
3 187 189 62 
3 35 85 14 
3 146 145 171 
3 171 169 146 
3 171 32 169 
3 32 184 83 
3 32 83 169 
3 194 195 196 
3 197 134 108 
3 109 197 108 
3 17 16 198 
3 199 100 200 
3 201 202 203 
3 132 131 204 
3 156 205 8 
3 6 8 205 
3 27 206 25 
3 83 206 27 
3 207 100 125 
3 131 208 209 
3 210 18 20 
3 210 20 211 
3 81 140 155 
3 212 140 81 
3 213 129 137 
3 81 21 57 
3 81 22 21 
3 206 214 25 
3 213 137 67 
3 215 216 217 
3 136 135 218 
3 2 135 0 
3 219 220 153 
3 221 222 223 
3 137 154 73 
3 68 67 137 
3 206 83 194 
3 199 3 100 
3 200 100 102 
3 164 224 225 
3 139 109 152 
3 109 139 138 
3 226 227 173 
3 62 189 148 
3 32 172 33 
3 41 62 116 
3 228 229 230 
3 158 163 165 
3 225 54 119 
3 54 224 219 
3 225 224 54 
3 231 72 74 
3 55 153 137 
3 55 219 153 
3 153 220 158 
3 224 232 219 
3 55 54 219 
3 212 138 140 
3 155 139 152 
3 140 139 155 
3 233 125 234 
3 233 207 125 
3 119 120 235 
3 26 169 83 
3 39 38 152 
3 236 237 238 
3 227 141 173 
3 11 34 239 
3 49 199 200 
3 240 48 47 
3 241 242 175 
3 243 199 49 
3 243 106 199 
3 14 13 127 
3 244 243 49 
3 245 178 179 
3 178 246 46 
3 178 245 246 
3 46 45 178 
3 94 45 44 
3 173 247 226 
3 112 9 110 
3 244 49 48 
3 40 39 248 
3 37 36 84 
3 249 250 251 
3 232 220 219 
3 123 149 124 
3 45 149 123 
3 41 117 42 
3 104 103 252 
3 118 253 30 
3 129 54 53 
3 133 208 131 
3 23 22 84 
3 82 40 84 
3 40 37 84 
3 50 52 254 
3 163 224 164 
3 196 195 185 
3 175 242 176 
3 62 43 193 
3 255 93 92 
3 32 31 184 
3 81 40 82 
3 213 120 129 
3 106 3 199 
3 121 149 45 
3 256 4 183 
3 5 4 256 
3 194 83 195 
3 9 112 10 
3 5 256 257 
3 258 216 215 
3 154 157 73 
3 156 7 259 
3 240 244 48 
3 130 26 133 
3 94 93 45 
3 179 123 122 
