ply
format ascii 1.0
comment VCGLIB generated
element vertex 453
property float x
property float y
property float z
property float nx
property float ny
property float nz
element face 948
property list uchar int vertex_indices
end_header
-0.0312216 0.126304 0.00514924 0.1291006 0.9776397 -0.1659932 
-0.0446774 0.131204 0.00570479 0.6462702 0.7230862 -0.2438879 
-0.0683011 0.144828 0.0413688 0.2889703 0.5353259 0.7936766 
-0.00600095 0.130398 0.0178986 -0.1402932 0.9833615 0.1154032 
-0.0173568 0.127613 0.00526885 -0.1777976 0.9707459 -0.1613706 
0.0330513 0.107034 0.0319543 0.681752 0.4679799 0.5623247 
0.0400873 0.10521 0.0173419 0.8995167 0.427894 0.08818407 
-0.0301802 0.106322 0.0399745 -0.106632 0.4678438 0.877355 
0.0304193 0.118572 0.0188068 0.6942664 0.7079329 0.1297126 
-0.0640822 0.159391 -0.0169096 0.8151534 0.56501 0.1276272 
0.0447046 0.0927877 0.00507585 0.9691232 0.210289 -0.128759 
-0.0316754 0.170395 -0.00635023 0.413974 0.2679063 0.8699722 
-0.0848523 0.134078 0.0470177 -0.6147953 0.2907667 0.7331313 
-0.0688547 0.122052 0.0517569 0.5049938 -0.1314603 0.853053 
0.00595475 0.131024 0.0178252 0.112265 0.9854132 0.1278961 
0.0404629 0.105142 0.00640978 0.8927189 0.4443828 -0.07467829 
0.0387342 0.102161 -0.00463112 0.8075786 0.3495102 -0.4750364 
-0.0914513 0.134136 0.0171026 -0.9956682 0.07884677 -0.0492761 
-0.0818721 0.107166 0.031016 -0.7638843 -0.3439581 0.5460528 
-0.067218 0.156155 0.0178863 0.01857117 0.9985591 0.05034695 
-0.0795687 0.152875 0.0299311 -0.3228014 0.8826216 0.3417284 
0.00596007 0.122504 0.0346272 0.1280248 0.6556458 0.7441359 
-0.0516317 0.145001 0.0184804 0.8439975 0.3604199 0.3971972 
-0.0779781 0.13255 0.0513494 -0.1047167 0.3601565 0.9269961 
-0.00590708 0.127934 0.0274623 -0.1308977 0.8962044 0.4238911 
-0.0479133 0.129301 0.0269646 0.6180378 0.5425304 0.5689378 
-0.082427 0.0928134 -0.00556046 -0.8352932 -0.01156454 -0.5496831 
0.01744 0.127694 0.0185348 0.4293661 0.8924448 0.1385178 
-0.0906868 0.120305 0.0066804 -0.897143 -0.05478711 -0.4383296 
-0.0294038 0.17903 -0.00787959 -0.2329561 0.7275535 0.6452886 
-0.0797891 0.14376 0.0426994 -0.241511 0.6635202 0.7081055 
-0.018288 0.108329 0.0415098 -0.1922452 0.4519098 0.8711024 
-0.0202326 0.181846 -0.0183274 0.1894832 0.9732289 -0.1300829 
-0.0377039 0.167987 -0.0130391 -0.562291 0.2727684 -0.7806576 
0.00582164 0.12806 0.0279016 0.09905146 0.8842382 0.4564117 
-0.0435389 0.130014 0.0175333 0.6027488 0.7616619 0.2378341 
0.0188699 0.119862 0.032409 0.3669741 0.6662792 0.6491549 
-0.0440101 0.167035 0.00231898 -0.0397212 0.6694171 0.7418241 
-0.089811 0.132401 0.00705743 -0.9023432 0.1097279 -0.4168172 
-0.057352 0.144989 0.0315196 0.7564933 0.3188596 0.5710049 
0.0442622 0.0934526 0.0176417 0.9604946 0.227003 0.160996 
0.0412343 0.0921731 0.0285603 0.9008496 0.1946596 0.3880434 
-0.0563953 0.154565 0.016878 0.5570574 0.8045676 0.2058108 
-0.0206135 0.159773 -0.00717522 0.596759 -0.5439226 0.5899382 
-0.0729893 0.0656116 0.0181693 -0.5866856 -0.7904435 0.1760661 
-0.0673967 0.155256 0.00581389 0.07341304 0.9779778 -0.1953718 
-0.0904864 0.118611 0.0412148 -0.8495839 -0.385462 0.3600364 
0.0273142 0.117965 0.0286191 0.5882034 0.644326 0.4887338 
0.041907 0.0916386 -0.00556945 0.8914932 0.200709 -0.4061476 
-0.0702109 0.165303 -0.0194661 0.2207396 0.9260153 0.3062184 
-0.0061847 0.122729 0.034787 -0.09995354 0.7152135 0.6917217 
0.0300138 0.0932786 0.0421476 0.5686625 0.2497536 0.7837386 
-0.0175129 0.162126 -0.0145489 0.7936843 -0.47631 -0.37841 
-0.0763977 0.171291 -0.0411021 -0.9509552 0.2808334 0.1296798 
-0.0854227 0.105386 0.00339486 -0.8634826 0.01333042 -0.5042025 
0.0370431 0.110443 0.0207229 0.7969559 0.5901303 0.1288701 
-0.00659732 0.0427285 0.0469391 0.02383146 -0.4174792 0.908374 
0.00639794 0.0437006 0.046826 0.2085212 -0.4736235 0.8556867 
-0.0559247 0.157606 0.00656455 -0.2670466 0.9460195 0.1836663 
-0.0911449 0.118816 0.0298442 -0.9394815 -0.2965609 0.1715406 
-0.0595109 0.128352 0.0399626 0.6802706 0.161939 0.714848 
-0.0176335 0.127605 0.0179366 -0.2239098 0.9573571 0.18257 
-0.066633 0.153831 0.0308703 0.1372592 0.8617717 0.4883743 
-0.0436418 0.169438 -0.00550226 -0.6253225 0.7140794 -0.3147421 
-0.0572759 0.043243 0.042862 -0.2558179 0.5788172 0.7742919 
-0.0763773 0.157221 -0.0168889 -0.9928517 0.09905151 0.06659064 
-0.0434461 0.15605 0.00615795 0.6590063 0.01613706 0.7519643 
-0.0427118 0.0421645 0.0427004 -0.1845082 0.1581031 0.970031 
-0.0254201 0.0886622 0.0503827 -0.590458 0.1847917 0.7856281 
-0.014179 0.12627 0.0266417 -0.3380568 0.8453299 0.4136847 
-0.0882582 0.0898687 0.00696625 -0.961858 -0.165531 -0.2177814 
-0.0688695 0.157773 -0.00687593 0.4696153 0.8005232 0.3723226 
-0.0679676 0.142877 -0.00757643 0.2307964 -0.08632733 -0.969165 
0.0188538 0.106293 0.0416902 0.2510087 0.4586674 0.8524194 
-0.036487 0.171225 0.000545037 0.4766198 0.4719227 0.7417024 
-0.0664352 0.117198 -0.00987161 -0.2894596 0.2464996 -0.924906 
-0.0682606 0.170398 -0.0436995 0.8506881 0.5034649 -0.1511713 
-0.090925 0.14605 0.0190382 -0.8964963 0.4427418 -0.01655762 
0.00678622 0.115841 0.0388077 0.1390057 0.5030931 0.8529799 
0.0310139 0.0930696 -0.017798 0.5647752 0.2810586 -0.7759092 
0.0056976 0.10589 0.0435511 0.1117732 0.4963199 0.8609143 
-0.0706519 0.13063 0.0502497 0.4290925 0.4687145 0.7721311 
0.0059746 0.130858 0.00579479 0.1025451 0.9830225 -0.1521562 
0.0184217 0.0423182 0.042477 0.490677 -0.4417092 0.7510853 
0.0147876 0.0909747 0.0509658 0.339073 0.3398225 0.8772401 
-0.00598232 0.115409 0.0402027 -0.03185942 0.4911229 0.8705075 
-0.0811312 0.117972 -0.00359453 -0.6307494 0.007718003 -0.7759482 
-0.0787032 0.144274 -0.00389052 -0.7258791 0.06772294 -0.6844801 
0.00581988 0.106226 -0.0208968 0.1176399 0.5076545 -0.8534915 
-0.0192761 0.119853 0.0328061 -0.2851985 0.7284426 0.6229231 
-0.00593116 0.130215 0.005954 -0.1304752 0.9827862 -0.1307958 
-0.0893322 0.142745 0.0290326 -0.8921939 0.3823982 0.2403369 
-0.00762538 0.123273 -0.00981555 -0.09452784 0.770032 -0.6309637 
-0.0692263 0.178922 -0.0542743 0.2769063 0.7894832 -0.5477583 
-0.0298757 0.124252 0.0209674 0.04478284 0.8967026 0.4403624 
-0.0848266 0.148987 0.0327697 -0.6905456 0.6758091 0.2577381 
-0.0888516 0.0909723 0.0179034 -0.9636283 -0.1568016 0.2164112 
-0.0305879 0.122384 -0.00635771 0.09015266 0.8691437 -0.4862734 
-0.0307198 0.117989 0.0306166 -0.07569835 0.7292048 0.6800957 
-0.0780612 0.120653 0.0513999 -0.2566355 -0.2976187 0.9195441 
0.0332714 0.108498 -0.00743195 0.6540762 0.5147239 -0.5542957 
-0.0677112 0.0928918 -0.0168814 -0.382096 0.1197565 -0.9163302 
-0.075666 0.0911817 -0.0136967 -0.5899911 0.05214746 -0.8057241 
-0.082422 0.0951121 0.0310878 -0.8129356 -0.01860782 0.5820563 
-0.0856984 0.136903 0.00192122 -0.7945364 0.1606063 -0.5855916 
-0.0292804 0.0417747 0.051397 -0.5327976 0.1062329 0.8395482 
-0.017732 0.0423864 0.051684 0.3550662 0.2665429 0.8960373 
-0.0656987 0.171007 -0.056644 0.2506645 0.1755106 -0.9520312 
-0.0298523 0.170905 -0.0165609 -0.4188399 0.08112408 -0.9044291 
-0.0562502 0.135013 0.0330455 0.7601965 0.2569275 0.5967323 
-0.0666127 0.133021 0.0447044 0.5831093 0.3302677 0.7422311 
-0.0425379 0.155441 -0.00749353 -0.07527284 -0.6532366 -0.7534029 
-0.0545308 0.0714603 0.0397042 -0.1974079 -0.5058979 0.8397008 
-0.0413159 0.0906923 -0.0225881 -0.2151397 0.008032143 -0.9765503 
-0.0172876 0.0921774 0.0536212 -0.2715404 0.4460628 0.8528152 
-0.00598119 0.0940308 0.0542643 -0.04807695 0.462601 0.8852621 
0.0423724 0.0672563 0.0295801 0.659373 0.1469539 0.7373139 
0.0285741 0.116909 -0.00391772 0.6210842 0.6533004 -0.4329585 
-0.0331811 0.0450744 0.0451146 -0.5351273 0.2844422 0.7954441 
-0.0539402 0.118566 0.0353731 0.4976684 0.2550405 0.8290238 
0.0422724 0.0795546 -0.00579461 0.8939374 -0.01623611 -0.4478977 
0.0297273 0.0425502 0.0304975 0.4710359 -0.6757621 0.5669839 
-0.0315639 0.0959331 -0.0236801 -0.4043591 0.3615364 -0.8401102 
0.0381804 0.105121 0.0266947 0.8228739 0.3969669 0.4065658 
-0.0284988 0.090492 -0.0290854 -0.5076158 0.3609228 -0.7823433 
-0.0173189 0.0437942 0.0432695 0.1912547 -0.4638827 0.8650055 
0.00376754 0.0477551 0.0502037 0.175151 -0.4703922 0.8649007 
0.0432673 0.0458291 0.0278251 0.4171717 -0.6270594 0.6578482 
-0.0233322 0.181239 -0.0112893 0.5848674 0.6397189 0.4986883 
-0.0056258 0.0565038 0.0538818 -0.135139 -0.3191938 0.9380047 
0.00529431 0.0556798 0.0532881 0.2159632 -0.3082788 0.9264579 
-0.0883219 0.105757 0.0172983 -0.974528 -0.1647466 0.152164 
-0.0566374 0.0470184 0.0305809 -0.7059243 0.6724328 0.2224972 
-0.0296243 0.0543188 0.0398951 -0.3166496 0.2274895 0.9208592 
-0.00597407 0.105897 0.0440669 -0.06606449 0.5016376 0.8625516 
-0.0214122 0.0546976 0.044641 -0.5026628 0.07846271 0.8609145 
-0.0161488 0.0574363 0.050904 -0.4892521 -0.2897946 0.8225883 
-0.0568305 0.146392 -0.0026426 0.1137128 0.2657336 -0.9573166 
-0.0931466 0.119067 0.0179948 -0.9925839 -0.1192401 -0.02364181 
-0.061862 0.158417 -0.0293026 0.868386 -0.02262666 0.4953724 
-0.0855858 0.10684 0.021729 0.4459765 0.891953 -0.07432941 
0.0336642 0.0540543 0.0350841 0.5502442 -0.2866601 0.7842559 
0.042771 0.0560351 0.031559 0.3854273 -0.04738417 0.9215208 
-0.0434589 0.117191 0.0317044 0.2127559 0.5697706 0.7937862 
-0.0680962 0.156721 -0.0426174 -0.09250166 -0.6749452 -0.7320468 
0.0272384 0.103156 0.0397058 0.4934558 0.372582 0.7859288 
-0.0293932 0.178536 -0.0145563 -0.7594482 0.5252991 -0.383796 
-0.0762697 0.0912245 0.0383419 -0.6021492 0.1450329 0.7850999 
-0.0191285 0.0985952 0.0456676 -0.2573315 0.561146 0.7866994 
-0.053091 0.0567402 0.0293963 -0.820558 -0.2920555 0.4913126 
-0.0431978 0.0555777 0.0390838 -0.3535527 0.02488968 0.9350834 
-0.0833055 0.115643 0.046828 -0.4613749 -0.540005 0.7039375 
0.0144345 0.127081 0.026297 0.3673822 0.8497425 0.3781111 
-0.0388913 0.123761 0.0249778 0.2847549 0.7381693 0.6115724 
-0.0594359 0.119905 0.0399756 0.6221003 -0.06062776 0.7805866 
-0.0702332 0.154262 -0.0312401 -0.3731125 -0.7894907 -0.4873311 
-0.0574473 0.152576 0.0284508 0.6712807 0.5823815 0.458491 
-0.0480038 0.056366 0.0362663 -0.4726957 -0.6783729 0.5624669 
-0.0107262 0.179662 -0.0277472 0.5994732 0.4600259 -0.654987 
-0.0882293 0.106066 0.00846756 -0.9645554 -0.07840209 -0.2519645 
-0.078994 0.153984 0.00651862 -0.5299914 0.8298025 -0.1747481 
-0.0295675 0.126072 0.0146338 0.06123566 0.990517 0.1229895 
-0.0817356 0.15439 0.0177332 -0.4592466 0.8882517 -0.0100812 
-0.0795469 0.104194 -0.00620274 -0.6962075 0.1518829 -0.7015888 
-0.0248608 0.122913 0.0245429 -0.1635056 0.8611747 0.4812942 
-0.0664416 0.159957 -0.0533713 -0.161651 -0.9686356 -0.1887167 
-0.0784878 0.0705283 0.0174461 -0.7543097 -0.6465125 0.1141864 
-0.00967101 0.173225 -0.0264945 0.719499 -0.3081976 -0.6223628 
-0.0566284 0.0547031 0.00744563 -0.9518195 -0.306578 0.007033945 
-0.0184015 0.122219 -0.00775134 -0.145324 0.8433813 -0.5172901 
-0.0695952 0.146412 -0.018032 -0.2273763 -0.9152432 -0.3326107 
-0.0412517 0.123196 -0.00958087 0.114711 0.7459996 -0.6559924 
-0.0684972 0.148194 -0.028726 -0.04886368 -0.8614296 -0.5055209 
-0.0540036 0.055543 0.0177674 -0.9132395 -0.3748063 0.1597307 
-0.0169203 0.0682168 0.0531499 -0.5085531 -0.2516943 0.823422 
-0.00607221 0.0677102 0.0564501 -0.08597478 -0.1730318 0.9811566 
0.00708728 0.0673218 0.0553369 0.2403131 -0.1203883 0.9632011 
-0.0143174 0.116971 0.037836 -0.2705601 0.5704326 0.7755024 
0.0538923 0.0557547 0.0266244 0.6803114 -0.196743 0.706023 
0.00517855 0.0931738 0.0535873 0.1979088 0.4156761 0.8877192 
-0.0431038 0.0674388 0.0407737 -0.1748521 -0.2075269 0.9624757 
-0.0293069 0.0680733 0.041016 -0.3305749 -0.1801549 0.9264256 
-0.0379555 0.161954 -0.0128021 -0.3789685 -0.355261 -0.8545013 
-0.0561165 0.0654329 0.0341979 -0.3998657 -0.5147076 0.7584086 
-0.0761707 0.155559 -0.0059272 -0.6944142 0.7158837 0.07279771 
-0.0552181 0.122506 -0.00946488 0.007373773 0.514729 -0.8573212 
0.0177004 0.105983 -0.0186138 0.343815 0.4603321 -0.8184654 
0.0534583 0.0656375 0.0264336 0.5694147 0.4546862 0.6848558 
-0.0869152 0.0944156 0.00293118 -0.9333143 0.04676913 -0.3560017 
-0.0764257 0.161707 -0.0297517 -0.8812361 -0.3053539 -0.3608074 
-0.0440959 0.127453 -0.00327875 0.253581 0.8344865 -0.4892125 
-0.0312919 0.0798298 0.0434944 -0.3980969 -0.1554971 0.9040684 
-0.0549448 0.106348 -0.0185625 -0.1985729 0.2962275 -0.9342474 
-0.0723735 0.110057 -0.00943257 -0.4697842 0.2346303 -0.8510296 
-0.0553659 0.0919829 -0.0211783 -0.2045717 0.0508243 -0.9775313 
-0.0488091 0.0660127 0.0373959 -0.4064548 0.7603175 0.5066674 
-0.0473086 0.145156 0.00688469 0.9825275 -0.1727711 0.06920912 
-0.0803913 0.129634 -0.00469755 -0.5607511 0.03241092 -0.8273498 
-0.041802 0.105934 -0.0198692 -0.09691741 0.3132265 -0.9447202 
-0.00632139 0.0931652 -0.0328935 0.1322844 0.4989767 -0.8564596 
-0.00597054 0.106138 -0.0222282 0.0399881 0.5690041 -0.821362 
-0.0294827 0.158293 -0.00619266 0.4332556 -0.8274185 0.3573069 
-0.0177953 0.106289 -0.0217771 -0.04389478 0.5788795 -0.8142309 
-0.0885261 0.137839 0.0393964 -0.8321389 0.4154422 0.3673591 
-0.0674935 0.128392 -0.00863471 -0.07565811 0.1289715 -0.9887579 
0.0463693 0.0715128 0.0216754 0.6718809 0.419652 0.6103019 
-0.0409565 0.117168 -0.0145809 0.01630783 0.5759934 -0.8172917 
-0.0106656 0.167541 -0.0199013 0.5096431 -0.8026145 0.3099582 
-0.0532547 0.157456 -0.00281896 -0.6922774 0.20524 -0.6918299 
0.00530988 0.0933129 -0.0301852 0.2459657 0.4112179 -0.8777248 
-0.0773436 0.0727226 0.0266546 -0.6748549 -0.5977741 0.4327091 
-0.0625087 0.149934 -0.0150319 0.9381354 -0.321769 0.1279327 
-0.0688014 0.0685726 0.0306649 -0.5038545 -0.6754209 0.5384582 
-0.0545252 0.0808478 -0.0201707 -0.1451271 -0.2586639 -0.9550032 
-0.0436768 0.078916 0.0428855 -0.02559093 -0.1409329 0.9896884 
-0.0185748 0.0789703 0.0557353 -0.4230178 -0.0530297 0.9045683 
-0.00599993 0.0794548 0.0578008 -0.009806218 0.05558385 0.9984059 
0.00706485 0.0811917 0.0558187 0.2329037 0.08394671 0.9688699 
-0.0850269 0.146034 0.00585954 -0.7807343 0.4539696 -0.4293782 
0.0370111 0.110397 0.00265294 0.7938082 0.5840167 -0.1696852 
-0.0683084 0.0803316 0.0407109 -0.4138759 -0.3234911 0.8509173 
-0.055894 0.0792594 0.0435335 -0.1019644 -0.2546275 0.9616486 
0.0381456 0.0881056 -0.0138675 0.7436781 0.2209009 -0.6309879 
-0.0642837 0.0396418 0.039624 -0.7894973 0.3150488 0.526724 
-0.0698696 0.168536 -0.0313319 0.3996316 0.8887381 0.2245867 
-0.061796 0.155741 -0.0207923 0.9500042 0.170009 -0.2618951 
-0.0622848 0.16236 -0.0396288 0.9382934 0.07713806 -0.3371279 
-0.0686864 0.0923704 0.0421978 -0.3391583 0.02446957 0.9404111 
-0.049353 0.139298 0.0147955 0.9338499 0.3479848 0.0826496 
-0.0784177 0.110126 0.0417886 -0.3213022 -0.7985631 0.5089813 
0.0179416 0.0792747 0.0518862 0.4523715 0.0196544 0.891613 
0.00532732 0.123661 -0.00997105 0.08642999 0.7708685 -0.6311036 
-0.0556774 0.0935206 0.044207 -0.03068595 0.09418008 0.9950822 
-0.0431924 0.0921154 0.0432689 -0.00650197 0.08824284 0.9960778 
-0.0298626 0.0940124 0.0444805 -0.3054411 0.2667784 0.914076 
0.0205955 0.087113 0.0492325 0.4789923 0.1766855 0.8598538 
0.01721 0.127663 0.00512593 0.4215288 0.8941758 -0.1508746 
-0.0290125 0.106719 -0.0207479 -0.1090295 0.4745277 -0.8734621 
0.0185443 0.0948112 0.0477587 0.3353587 0.4051931 0.8505017 
-0.00588676 0.116622 -0.0160049 -0.02127493 0.5834584 -0.8118643 
-0.0528191 0.162649 0.00296711 -0.6323607 0.7005867 0.330603 
0.0358078 0.0958594 -0.0120328 0.7268708 0.2574043 -0.6367118 
-0.0912064 0.131415 0.0295307 -0.9916874 0.09113777 0.09082957 
-0.067874 0.106952 0.0403725 -0.07730525 -0.2145864 0.9736409 
-0.0441636 0.104918 0.0401706 0.02713932 0.3899739 0.9204259 
0.00749586 0.09835 0.0488255 1 0 0 
-0.0554961 0.103898 0.0411405 0.03849473 0.361819 0.9314533 
-0.0669044 0.115717 0.0473479 0.478932 -0.440311 0.7594408 
-0.0501524 0.140326 0.00258818 0.7309514 -0.05447916 -0.6802515 
-0.0554508 0.13242 -0.00485445 0.4099418 0.3438886 -0.8448008 
-0.014752 0.181897 -0.0262781 -0.1712854 0.8268514 -0.5357034 
-0.029558 0.161783 -0.0143368 -0.09897331 -0.6238394 -0.7752604 
-0.0561854 0.111277 0.0373713 0.1634465 0.2144837 0.9629548 
-0.040984 0.110496 0.0370883 0.08029932 0.4777196 0.8748349 
-0.0320055 0.110468 0.0370438 0.03086923 0.6260291 0.7791885 
0.0250033 0.110611 0.0368459 0.4616048 0.5466201 0.6986611 
-0.046987 0.147434 -0.00222536 0.5517827 -0.5128545 -0.6576597 
-0.0183407 0.0352362 0.0507938 0.5481106 -0.6073326 0.5750844 
-0.0178406 0.170484 -0.0181143 0.5410143 -0.8245818 -0.1654345 
-0.0569472 0.0349416 0.0423717 -0.1492839 -0.6759076 0.7217085 
0.00583339 0.0351076 0.0420914 0.1488528 -0.6466787 0.7480974 
-0.0428024 0.0351574 0.0416872 -0.01005421 -0.7595493 0.6503721 
-0.066462 0.104777 -0.0148582 -0.4215965 0.2534491 -0.8706434 
0.0257452 0.0459137 0.0381185 0.6282909 -0.4421965 0.6400882 
0.0379451 0.0817167 -0.0141547 0.759986 -0.2232201 -0.6104048 
-0.0844262 0.0797714 0.0186332 -0.8901808 -0.4167439 0.184127 
0.0532504 0.04759 0.0181903 0.7032539 -0.6794163 0.2093502 
0.0186424 0.0536035 0.046215 0.4656832 -0.2818083 0.8388822 
0.00732515 0.118243 -0.0153012 0.1186833 0.5900989 -0.7985597 
-0.0314704 0.157066 0.000976216 0.7640729 -0.01470326 0.6449623 
0.0286229 0.056876 0.0407635 0.5847663 -0.2317322 0.7773986 
0.0581591 0.0550016 0.0180254 0.9532627 -0.243668 0.1786506 
0.016864 0.089935 -0.0269104 0.4103939 0.2788711 -0.8682211 
0.0145778 0.0585769 0.0501691 0.4494489 -0.2514169 0.8571962 
0.0367248 0.0918184 0.0366248 0.7577701 0.202118 0.6204295 
-0.0198801 0.166404 -0.0112699 0.7219133 0.4055144 0.5607132 
0.0150294 0.0677357 0.0520671 0.4395674 -0.143986 0.8865938 
0.0210524 0.0681161 0.0484346 0.5513499 -0.162423 0.8183105 
0.0298776 0.0679936 0.0419172 0.5956617 -0.1331227 0.7921272 
0.0368358 0.0678495 0.036641 0.7085505 -0.1115469 0.696788 
0.0574748 0.0682218 0.0171425 0.8722504 0.4525985 0.1852944 
0.0316842 0.0785087 -0.019208 0.6476231 -0.04580533 -0.7605829 
-0.0760271 0.175704 -0.0506937 -0.8455836 -0.01336688 -0.5336758 
-0.0655396 0.0607885 0.0175707 -0.4950287 -0.8577961 0.1383198 
-0.0806026 0.081447 0.0306516 -0.787295 -0.3283727 0.5218602 
0.0189749 0.121506 -0.00694565 0.4317273 0.7089103 -0.5577254 
0.030684 0.0795461 0.0431507 0.6310084 -0.02163645 0.7754742 
0.0371888 0.0792484 0.0367937 0.7632128 -0.01245967 0.646027 
0.0419366 0.0795911 0.0295911 0.8871157 0.06581223 0.4568311 
0.046032 0.0793694 0.0177694 0.9043275 0.3373609 0.2614948 
-0.0787921 0.0707773 0.00685585 -0.7750016 -0.6213388 -0.1153714 
-0.0293987 0.115917 -0.0147065 -0.001102438 0.6759595 -0.736938 
-0.0869924 0.113518 0.00410409 -0.5770338 -0.4354631 0.6909443 
-0.0142186 0.174013 -0.0259807 -0.4890413 -0.3607263 -0.7941757 
0.0174795 0.0352131 -0.00592856 0.2678893 -0.9429405 -0.1977336 
0.0162141 0.0358475 -0.0162131 0.4903378 -0.7804673 -0.3878655 
0.0193248 0.0358322 0.0313206 0.3201175 -0.91966 0.2274873 
0.0435544 0.0411101 0.00579916 0.4523456 -0.8615827 -0.2303448 
0.0226191 0.0406052 -0.00793544 0.5279224 -0.708129 -0.4688831 
0.0191348 0.042782 -0.0192095 0.5486993 -0.5853868 -0.596868 
0.0414633 0.0456301 -0.00354513 0.3740646 -0.5766399 -0.7263347 
0.0436925 0.0411968 0.01772 0.4459675 -0.8740344 0.1928132 
0.0512872 0.0463959 0.00580531 0.6666204 -0.6946737 -0.2702695 
0.0285777 0.105181 -0.0142381 0.4688104 0.5256294 -0.7098807 
0.0306748 0.0445124 -0.00617993 0.4609938 -0.6386434 -0.6161326 
-0.0184118 0.0948059 -0.0307434 -0.1949641 0.5743982 -0.7950193 
-0.0315484 0.0343023 -0.0284081 -0.02918885 -0.7000876 -0.7134601 
0.0260381 0.0475902 -0.0165794 0.6394083 -0.4899737 -0.5925224 
0.0554197 0.0686378 0.00589653 0.7060251 0.6174402 -0.3468374 
0.0520374 0.055073 -0.0024816 0.6429161 -0.1873619 -0.7426671 
0.0567375 0.0542224 0.00512483 0.9125053 -0.2573686 -0.3179554 
0.0428049 0.0553286 -0.00604704 0.4288146 -0.1798912 -0.8853006 
-0.0620037 0.167422 -0.0527165 0.9985384 0.03102025 -0.0442596 
0.0341128 0.0541776 -0.00948346 0.5610885 -0.4183511 -0.7142563 
0.029518 0.0560564 -0.0175875 0.7346472 -0.265655 -0.6242763 
-0.0177887 0.115911 -0.0157838 -0.07735379 0.6434094 -0.7616041 
-0.0417838 0.0357602 -0.0264107 -0.6660442 -0.3666024 -0.6496059 
-0.00518939 0.043046 -0.0273333 0.1688038 -0.494395 -0.8526892 
-0.0664059 0.0343649 -0.00416668 -0.6289972 -0.5560952 -0.5432501 
0.0475414 0.0712174 0.00542617 0.7183537 0.4677264 -0.5149756 
0.0249138 0.0825163 -0.0245877 0.5070167 0.04942694 -0.8605179 
-0.0299024 0.0426031 -0.0283179 -0.2938056 0.2311347 -0.9274994 
0.0218121 0.0515865 -0.0236492 0.5950729 -0.3222122 -0.7362524 
-0.0271537 0.0351608 0.0509267 -0.33752 -0.6653423 0.6658828 
0.0161181 0.11563 -0.0145451 0.4640006 0.5015809 -0.7301508 
0.031738 0.0679983 -0.0183532 0.6822481 -0.09321138 -0.7251547 
0.0418226 0.0675201 -0.00551555 0.7381102 0.1294383 -0.6621473 
0.0514871 0.0637279 -0.00174794 0.6089481 0.3367452 -0.7181817 
-0.0893303 0.128309 0.0428023 -0.8631697 0.07079074 0.4999268 
0.0459385 0.0796307 0.00579632 0.9483338 0.2194505 -0.2291386 
-0.0705433 0.149897 -0.0387319 0.9965458 0.08304548 0 
-0.0429617 0.0430242 -0.0176288 -0.6392488 0.5744367 -0.5112566 
-0.0719677 0.177848 -0.0474604 0.2838222 0.7925202 0.5397747 
-0.0760529 0.177651 -0.0471457 -0.6187088 0.7224399 0.3086745 
0.0304173 0.118495 0.00573814 0.6844207 0.7197199 -0.116497 
-0.0771451 0.167706 -0.0298798 -0.7798738 0.5933075 0.1994568 
0.0202668 0.092861 -0.0237363 0.4330284 0.3876759 -0.813753 
-0.0254815 0.0798697 0.0510546 -0.5921866 -0.4938238 0.6367521 
-0.0650541 0.0353259 0.0162237 -0.8148885 -0.4806514 0.3239304 
-0.0647676 0.0350792 0.0294481 -0.8012306 -0.5843687 -0.1286188 
-0.0644267 0.0414591 0.0304476 -0.8622887 0.4835947 -0.1503148 
-0.06432 0.0352261 0.0387914 -0.6835114 -0.6121347 0.3976222 
-0.0676 0.0340299 0.00590491 -0.7192628 -0.6918859 0.06288717 
-0.0679534 0.0418588 0.00668394 -0.8713001 0.480965 0.09751322 
-0.0573497 0.0431548 0.0200229 -0.8420793 0.5337063 0.07784674 
-0.0634632 0.0414321 0.0142052 -0.6615455 0.5871869 0.466443 
-0.059413 0.0471382 0.00628538 -0.767529 0.6401353 -0.03355693 
-0.0233834 0.0656416 0.0450976 -0.6714184 -0.2097778 0.7107677 
-0.063538 0.071665 0.0379463 -0.2880427 -0.6559808 0.6976537 
-0.0193036 0.0810128 -0.0384318 -0.1148684 0.1763523 -0.9776017 
-0.0427206 0.0343557 -0.0191302 -0.433556 -0.8880161 -0.1531556 
-0.00690237 0.03464 -0.0202171 0.1058768 -0.9901353 -0.09177329 
-0.0656787 0.0408332 -0.00401793 -0.6722136 0.4546066 -0.5843474 
-0.0383907 0.0419218 -0.0264039 -0.3847449 0.6332791 -0.6715125 
-0.0556585 0.0432866 -0.00758834 -0.5192325 0.2827142 -0.8065174 
-0.0416785 0.0420276 -0.00999679 0.1555134 -0.5649787 -0.8103176 
-0.0322294 0.0446593 -0.0167499 -0.8768842 0.1055999 -0.4689592 
-0.0307385 0.0563307 -0.018517 -0.8798819 -0.1146891 -0.4611446 
-0.0429026 0.0561897 -0.0113043 -0.3115514 -0.1111428 -0.9437071 
-0.0550285 0.0566557 -0.00531375 -0.6741794 -0.3730201 -0.6374466 
-0.0261858 0.0568836 -0.0282694 -0.6923749 -0.1620309 -0.7031095 
-0.0552189 0.117461 -0.0133744 -0.1671471 0.5108865 -0.8432419 
-0.0190658 0.0546695 -0.0318646 -0.2780045 -0.3312844 -0.9016452 
-0.0687629 0.0686694 -0.00654941 -0.5168619 -0.6728145 -0.5293152 
-0.0730504 0.06542 0.00552859 -0.5872782 -0.7899731 -0.176201 
-0.0207234 0.0672793 -0.036553 -0.3393581 -0.3080952 -0.8887708 
-0.0290792 0.067426 -0.0290521 -0.7961291 -0.2349009 -0.5576737 
-0.0328056 0.0664637 -0.0195215 -0.6824939 -0.2303078 -0.6936573 
-0.0177608 0.0343319 -0.0259142 0.0841557 -0.8283624 -0.5538354 
-0.0773687 0.0732571 -0.00409771 -0.6968241 -0.5243216 -0.4894111 
0.0151616 0.126104 -0.00266395 0.3596365 0.8442439 -0.3973838 
-0.0845255 0.0800572 0.00530702 -0.8856058 -0.4109856 -0.2163172 
-0.0793517 0.0798559 -0.00640565 -0.7637592 -0.3428476 -0.5469255 
-0.0309728 0.0794701 -0.0312475 -0.8009949 -0.01030557 -0.5985824 
-0.0355144 0.081801 -0.0226887 -0.6046039 -0.1744485 -0.7771885 
-0.068141 0.0801227 -0.0164278 -0.4446075 -0.2919905 -0.8467973 
-0.0512932 0.034227 -0.0129013 -0.6968495 -0.4345311 -0.5705992 
0.0161924 0.080479 -0.0292174 0.4477585 0.1058433 -0.887868 
-0.0144478 0.0879274 -0.0380297 0.1564325 0.1543767 -0.9755495 
-0.0173157 0.0432674 -0.0282906 -0.0187988 -0.2541101 -0.9669926 
-0.0193328 0.0979251 -0.024792 0 0 1 
-0.0555479 0.0336816 -0.00619013 -0.2606342 -0.8209009 -0.5081256 
0.00702627 0.0978418 -0.0246055 0.8944272 -0.4472136 0 
-0.0148892 0.126068 -0.00252126 -0.2991912 0.8852605 -0.3560877 
0.0175205 0.0552114 -0.0272756 0.4124102 -0.2198421 -0.8840743 
-0.00953661 0.0794104 -0.0379859 0.1408121 0.09395216 -0.9855683 
0.00524266 0.0391336 -0.021947 0.1692879 -0.7093607 -0.6842142 
0.0175653 0.0679339 -0.0289388 0.4698753 -0.05993608 -0.8806957 
-0.0057907 0.128077 -0.00285105 -0.1004223 0.9141468 -0.392748 
0.00626556 0.128047 -0.0031705 0.1032311 0.9025333 -0.4180634 
0.00559979 0.0346604 -0.0179318 -0.3658422 -0.9113343 -0.1887571 
0.029824 0.0359142 0.00488977 0.2774029 -0.9369975 -0.2123282 
0.00625193 0.0459623 -0.0263782 0.2054635 -0.4620706 -0.8627141 
0.0143253 0.0473484 -0.0251513 0.3002016 -0.4712947 -0.8293132 
0.00604086 0.0555073 -0.0304314 0.2259711 -0.2752865 -0.9344273 
-0.00613413 0.0546372 -0.032635 0.0857578 -0.3039412 -0.9488232 
-0.0346694 0.057124 -0.0114953 -0.5037248 -0.1493377 -0.8508582 
-0.00684543 0.0679742 -0.0359406 0.1580926 -0.2091948 -0.96501 
0.0056558 0.0676237 -0.0329199 0.2675941 -0.1411188 -0.9531416 
-0.0569732 0.0651628 -0.00958219 -0.2932403 -0.5559427 -0.7777775 
-0.0422796 0.0699944 -0.0161463 -0.2759815 -0.3812366 -0.8823224 
-0.0175719 0.0705473 -0.0382261 -0.06052958 -0.2406407 -0.9687251 
-0.055586 0.0722983 -0.0161218 -0.1388975 -0.5198149 -0.8429116 
-0.0637884 0.0712697 -0.0138535 -0.3686502 -0.5728362 -0.73209 
0.00568561 0.0790547 -0.0339189 0.3179965 0.08760668 -0.9440356 
-0.00338429 0.0804511 -0.0367226 0.252295 0.1246317 -0.9595907 
-0.0248988 0.0815004 -0.0371078 -0.4692756 0.1738984 -0.8657597 
-0.0412513 0.0791378 -0.0197746 -0.1993518 -0.2818787 -0.9385112 
-0.0735819 0.0777026 -0.0122023 -0.2407717 0.842701 -0.4815434 
-0.018062 0.0352627 -0.0195401 -0.0122353 -0.9271016 0.3746105 
-0.031577 0.0358487 -0.0179669 0.09907573 -0.7656833 0.6355417 
-0.00602034 0.0381237 -0.0145184 0.005112799 -0.9507509 0.309914 
-0.0177811 0.0382546 -0.0154503 -0.06298978 -0.9384593 0.3395975 
0.00753447 0.0355596 -0.00650063 -0.3196341 -0.9429104 -0.09356302 
0.00430437 0.0384017 -0.0071754 -0.3734424 -0.9193759 -0.1236481 
-0.00593935 0.038948 -0.00592129 -0.01426862 -0.9996333 0.02301727 
-0.0176142 0.0386055 -0.00584508 0.01720508 -0.9997805 0.01195844 
-0.0430308 0.0341391 -0.00565972 0.3112295 -0.9234976 -0.2242508 
0.0189222 0.0351076 0.00499769 0.05613875 -0.9983713 -0.01015941 
-0.0299129 0.0383912 -0.00582677 -0.07731412 -0.9372808 -0.339893 
0.00512066 0.0348398 0.00558498 -0.2163339 -0.9674965 -0.1309594 
0.00103528 0.0375917 0.000952222 -0.3351586 -0.9179199 -0.2123483 
-0.00584714 0.0383419 0.00590803 -0.1490433 -0.9851534 -0.08519875 
-0.0424621 0.0343144 0.00590597 -0.002274746 -0.9990472 0.04358401 
-0.017873 0.0383166 0.00599471 0.01753163 -0.9995561 -0.02408808 
0.028662 0.0358411 0.0187496 0.2275854 -0.9627848 0.1457746 
-0.055026 0.0336204 0.00583816 -0.02887151 -0.9995131 0.0118268 
-0.0284733 0.0381489 0.00441853 0.01929586 -0.9994161 -0.02820013 
-0.000947006 0.0357374 0.0103469 -0.3602095 -0.9253202 -0.1184552 
0.0193224 0.0351814 0.0196616 0.06010076 -0.9974142 0.03940543 
-0.0342325 0.033759 0.00717517 -0.08419353 -0.9900591 0.1126697 
0.00536022 0.0345956 0.0179871 -0.2130607 -0.9585093 0.1893809 
-0.000385714 0.0351459 0.0134171 -0.3128088 -0.9491938 0.03437921 
0.0334119 0.0376179 0.0210082 0.3086158 -0.8883721 0.3399285 
-0.00589791 0.0381782 0.0177062 -0.148397 -0.9853417 0.0841428 
-0.0352445 0.0350571 0.0178257 0.1866416 -0.9811794 0.04951861 
-0.0178078 0.0381962 0.0178114 0.02801237 -0.9994876 0.01548732 
-0.0261898 0.0377592 0.0177044 0.1179061 -0.9926998 0.0254037 
-0.0563247 0.0336762 0.0175265 -0.1892617 -0.9816042 0.02516707 
0.00114114 0.037661 0.0223414 -0.2811992 -0.9127471 0.2963442 
0.0100253 0.0355029 0.029656 -0.1182357 -0.9883407 0.09593162 
0.00550127 0.0385556 0.0296609 -0.3467914 -0.9098606 0.2277928 
-0.00596581 0.0388946 0.0299252 -0.02606114 -0.9903657 0.1360026 
-0.0330745 0.0355217 0.0292236 0.2600875 -0.9654614 -0.01545162 
-0.0277717 0.0382563 0.0322865 0.1912954 -0.9733089 0.1267907 
-0.0179091 0.0385902 0.0296167 0.05039233 -0.9821172 0.1814012 
-0.0419404 0.0343698 0.0299668 0.0903371 -0.9942642 0.05725396 
0.015243 0.0356116 0.0412692 0.3642745 -0.7342898 0.5728199 
-0.0554301 0.0342555 0.0297952 -0.06233673 -0.9974647 0.03432708 
-0.0660515 0.0611144 0.00585548 -0.5049093 -0.844531 -0.1784209 
-0.00654912 0.0350372 0.0453959 0.255448 -0.2827275 0.9245602 
-0.0307826 0.0347596 0.0432959 -0.4064431 -0.7630247 0.5025906 
-0.0180834 0.0348142 0.0458772 0.2826657 -0.8537752 0.4372277 
3 164 94 98 
3 224 335 49 
3 331 350 376 
3 124 122 237 
3 61 89 69 
3 61 161 94 
3 24 89 50 
3 109 25 35 
3 27 34 152 
3 444 443 435 
3 94 35 153 
3 3 61 69 
3 24 69 89 
3 38 218 104 
3 22 42 39 
3 14 24 34 
3 290 166 371 
3 226 76 224 
3 204 197 72 
3 82 3 14 
3 13 81 23 
3 99 13 23 
3 23 110 30 
3 110 2 30 
3 166 265 371 
3 90 61 3 
3 34 24 50 
3 293 167 207 
3 80 78 85 
3 61 94 164 
3 84 238 80 
3 4 161 61 
3 132 149 64 
3 196 22 228 
3 59 46 242 
3 179 84 80 
3 265 96 371 
3 52 258 207 
3 121 127 141 
3 343 168 346 
3 232 227 220 
3 232 243 227 
3 232 246 243 
3 57 126 56 
3 57 130 126 
3 221 232 220 
3 4 61 90 
3 134 80 85 
3 176 217 175 
3 4 0 161 
3 78 21 50 
3 126 130 129 
3 56 126 129 
3 111 182 201 
3 96 70 371 
3 89 164 98 
3 123 6 55 
3 197 87 72 
3 416 419 412 
3 245 80 179 
3 21 78 36 
3 61 164 89 
3 67 132 64 
3 150 149 132 
3 384 387 325 
3 214 221 112 
3 214 233 232 
3 221 214 232 
3 244 246 232 
3 233 244 232 
3 244 252 246 
3 244 143 119 
3 252 244 119 
3 127 142 141 
3 67 150 132 
3 82 90 3 
3 112 180 214 
3 244 253 143 
3 111 201 269 
3 37 74 63 
3 133 150 67 
3 118 133 67 
3 133 180 150 
3 191 214 180 
3 181 191 180 
3 191 234 233 
3 214 191 233 
3 234 244 233 
3 234 7 244 
3 244 98 253 
3 253 98 143 
3 216 217 115 
3 181 180 133 
3 15 16 219 
3 254 98 244 
3 7 254 244 
3 74 11 63 
3 14 3 24 
3 3 69 24 
3 217 216 175 
3 85 78 50 
3 73 78 80 
3 7 98 254 
3 105 133 118 
3 1 248 196 
3 48 241 100 
3 42 156 39 
3 149 173 344 
3 135 133 105 
3 106 135 105 
3 31 7 234 
3 148 31 234 
3 89 98 7 
3 31 89 7 
3 235 84 230 
3 14 27 236 
3 106 125 135 
3 19 20 62 
3 131 54 159 
3 34 50 21 
3 82 14 236 
3 201 52 43 
3 310 308 280 
3 131 159 54 
3 271 310 280 
3 27 14 34 
3 177 89 31 
3 238 73 80 
3 130 176 175 
3 354 331 381 
3 129 130 175 
3 125 136 135 
3 251 52 201 
3 106 56 125 
3 56 129 136 
3 125 56 136 
3 129 175 174 
3 136 129 174 
3 175 216 215 
3 174 175 215 
3 115 114 215 
3 216 115 215 
3 134 85 31 
3 85 177 31 
3 50 89 177 
3 85 50 177 
3 179 80 245 
3 400 407 367 
3 263 83 121 
3 217 179 115 
3 149 132 64 
3 178 187 116 
3 142 178 116 
3 326 120 319 
3 57 83 267 
3 304 391 294 
3 355 354 359 
3 128 29 11 
3 267 273 130 
3 48 16 10 
3 301 302 266 
3 196 66 22 
3 230 84 217 
3 247 13 243 
3 110 81 13 
3 271 178 266 
3 110 13 247 
3 278 277 267 
3 48 10 329 
3 258 11 275 
3 1 196 228 
3 154 247 243 
3 154 110 247 
3 263 141 270 
3 154 60 110 
3 60 154 110 
3 154 60 110 
3 11 74 37 
3 274 5 51 
3 252 154 243 
3 119 252 243 
3 109 110 60 
3 39 2 110 
3 109 39 110 
3 32 128 29 
3 32 128 11 
3 309 300 311 
3 252 119 154 
3 73 145 255 
3 67 64 259 
3 32 29 128 
3 258 275 43 
3 154 119 60 
3 119 109 60 
3 137 256 248 
3 270 267 83 
3 235 238 84 
3 267 130 57 
3 258 32 11 
3 302 310 271 
3 51 238 235 
3 266 302 271 
3 5 36 255 
3 51 235 230 
3 51 145 73 
3 286 51 230 
3 287 274 286 
3 119 25 109 
3 10 40 289 
3 120 48 329 
3 274 51 286 
3 276 230 217 
3 10 16 15 
3 51 5 145 
3 43 11 201 
3 176 276 217 
3 143 25 119 
3 158 207 167 
3 360 321 357 
3 130 273 276 
3 122 198 237 
3 270 278 267 
3 77 218 38 
3 15 6 40 
3 280 187 178 
3 271 280 178 
3 258 207 32 
3 66 58 22 
3 279 287 278 
3 155 139 172 
3 121 141 263 
3 288 41 274 
3 287 288 274 
3 276 176 130 
3 289 288 205 
3 274 41 5 
3 288 287 279 
3 329 10 289 
3 16 100 219 
3 127 178 142 
3 273 267 276 
3 252 119 243 
3 116 279 141 
3 41 123 5 
3 116 288 279 
3 142 116 141 
3 207 158 32 
3 276 277 230 
3 101 102 163 
3 299 298 294 
3 287 286 278 
3 5 255 145 
3 131 159 70 
3 275 11 43 
3 32 158 250 
3 205 288 116 
3 73 36 78 
3 120 329 319 
3 297 391 300 
3 84 179 217 
3 17 77 38 
3 255 36 73 
3 263 270 83 
3 249 248 1 
3 286 230 277 
3 11 37 66 
3 43 52 258 
3 267 277 276 
3 279 278 270 
3 141 279 270 
3 51 73 238 
3 47 36 5 
3 201 66 269 
3 201 11 66 
3 309 310 302 
3 300 309 302 
3 182 33 251 
3 278 286 277 
3 243 246 252 
3 416 427 419 
3 96 131 70 
3 66 256 111 
3 65 335 189 
3 113 374 407 
3 144 139 155 
3 226 224 139 
3 358 400 396 
3 30 91 203 
3 226 139 144 
3 46 328 242 
3 307 304 298 
3 70 159 54 
3 103 265 284 
3 443 261 446 
3 17 38 28 
3 88 200 239 
3 72 170 211 
3 138 17 28 
3 35 1 228 
3 295 299 294 
3 18 131 140 
3 18 59 131 
3 207 258 52 
3 188 70 54 
3 104 87 197 
3 222 48 120 
3 325 326 311 
3 326 281 120 
3 54 159 292 
3 386 299 295 
3 138 59 17 
3 48 100 16 
3 59 242 17 
3 296 121 83 
3 10 15 40 
3 242 91 17 
3 225 9 211 
3 314 322 384 
3 326 325 281 
3 170 225 211 
3 17 91 77 
3 144 76 226 
3 155 9 225 
3 159 131 28 
3 172 139 170 
3 131 138 28 
3 281 264 120 
3 264 222 120 
3 139 155 225 
3 139 225 170 
3 314 325 313 
3 386 295 390 
3 292 159 28 
3 132 149 344 
3 424 427 416 
3 49 335 65 
3 314 313 304 
3 111 269 66 
3 9 71 72 
3 211 9 72 
3 306 316 353 
3 307 314 304 
3 325 311 313 
3 40 41 288 
3 289 40 288 
3 40 6 41 
3 6 123 41 
3 22 39 109 
3 165 312 76 
3 299 307 298 
3 144 165 76 
3 312 107 76 
3 376 381 331 
3 165 107 312 
3 155 172 330 
3 35 228 22 
3 45 184 160 
3 42 62 156 
3 2 39 62 
3 58 42 22 
3 49 71 9 
3 280 116 187 
3 280 205 116 
3 155 330 144 
3 280 289 205 
3 319 280 308 
3 162 77 20 
3 20 77 91 
3 329 289 280 
3 319 329 280 
3 156 62 39 
3 372 408 375 
3 190 1 0 
3 1 35 0 
3 42 19 62 
3 35 161 0 
3 190 0 97 
3 35 22 109 
3 76 53 224 
3 161 35 94 
3 49 9 155 
3 224 49 155 
3 29 63 11 
3 160 162 19 
3 76 333 53 
3 153 25 143 
3 71 49 65 
3 2 20 30 
3 62 20 2 
3 55 8 5 
3 169 0 4 
3 6 8 55 
3 35 25 153 
3 160 218 162 
3 218 77 162 
3 15 334 6 
3 334 8 6 
3 332 76 93 
3 8 47 5 
3 98 153 143 
3 94 153 98 
3 219 334 15 
3 332 333 76 
3 93 76 107 
3 100 334 219 
3 160 19 45 
3 19 162 20 
3 340 132 344 
3 45 19 42 
3 27 47 8 
3 27 36 47 
3 80 115 179 
3 45 42 58 
3 71 184 45 
3 236 27 8 
3 334 236 8 
3 332 93 333 
3 27 152 36 
3 223 64 340 
3 236 334 117 
3 152 21 36 
3 134 148 115 
3 115 148 114 
3 152 34 21 
3 5 123 55 
3 337 68 191 
3 333 93 282 
3 256 66 196 
3 135 174 347 
3 183 180 195 
3 117 285 236 
3 182 111 63 
3 354 318 352 
3 114 234 68 
3 71 65 184 
3 135 136 174 
3 191 215 337 
3 337 215 114 
3 63 33 182 
3 133 135 181 
3 135 347 181 
3 110 23 81 
3 157 180 183 
3 149 157 183 
3 227 147 220 
3 12 23 30 
3 151 99 46 
3 174 215 191 
3 99 328 46 
3 114 148 234 
3 149 150 157 
3 220 147 284 
3 79 186 336 
3 68 234 191 
3 396 357 356 
3 99 23 12 
3 328 99 12 
3 337 114 68 
3 356 358 396 
3 338 343 342 
3 223 340 339 
3 265 103 96 
3 341 223 339 
3 347 174 191 
3 182 251 201 
3 134 115 80 
3 12 30 203 
3 345 343 338 
3 147 227 103 
3 33 108 251 
3 95 20 91 
3 181 347 191 
3 345 346 343 
3 157 150 180 
3 103 227 18 
3 66 240 58 
3 345 344 346 
3 146 32 108 
3 445 125 444 
3 30 95 91 
3 124 373 374 
3 137 249 72 
3 344 345 338 
3 344 168 346 
3 12 203 328 
3 284 147 103 
3 240 66 37 
3 344 173 168 
3 314 384 322 
3 107 282 93 
3 76 53 107 
3 107 53 282 
3 282 53 333 
3 165 76 107 
3 315 202 291 
3 165 144 76 
3 407 374 367 
3 144 53 76 
3 388 389 92 
3 155 144 330 
3 144 224 53 
3 432 431 434 
3 155 189 144 
3 144 189 224 
3 189 335 53 
3 224 189 53 
3 146 29 32 
3 382 88 209 
3 331 316 350 
3 331 353 316 
3 357 367 366 
3 360 357 366 
3 367 374 373 
3 366 367 373 
3 373 407 374 
3 388 92 169 
3 170 65 155 
3 155 65 189 
3 328 203 91 
3 413 421 414 
3 356 331 358 
3 242 328 91 
3 168 343 346 
3 113 198 122 
3 124 113 122 
3 239 200 315 
3 331 356 357 
3 372 26 102 
3 375 372 102 
3 26 163 102 
3 408 372 375 
3 72 87 65 
3 170 72 65 
3 87 184 65 
3 63 108 11 
3 63 29 108 
3 370 285 231 
3 389 370 231 
3 131 18 140 
3 33 63 108 
3 368 306 321 
3 374 113 124 
3 285 324 268 
3 231 285 268 
3 336 272 186 
3 224 155 139 
3 363 369 372 
3 86 193 163 
3 208 63 111 
3 380 305 202 
3 356 357 321 
3 346 354 352 
3 346 168 354 
3 168 359 354 
3 364 290 369 
3 363 364 369 
3 290 371 372 
3 369 290 372 
3 371 70 26 
3 372 371 26 
3 70 188 26 
3 188 54 26 
3 54 163 26 
3 54 86 163 
3 54 28 86 
3 28 38 86 
3 38 197 86 
3 38 104 197 
3 104 218 87 
3 218 160 87 
3 160 184 87 
3 58 240 208 
3 240 37 63 
3 208 240 63 
3 340 64 132 
3 343 168 346 
3 400 367 357 
3 396 400 357 
3 54 292 28 
3 96 103 18 
3 346 168 343 
3 249 137 248 
3 200 209 199 
3 79 222 281 
3 327 308 309 
3 343 346 352 
3 383 388 169 
3 200 88 209 
3 285 186 324 
3 241 48 79 
3 16 100 79 
3 303 100 79 
3 323 105 451 
3 100 303 186 
3 100 16 79 
3 321 353 331 
3 236 285 370 
3 389 231 92 
3 100 285 117 
3 108 63 11 
3 186 303 79 
3 88 382 209 
3 82 236 389 
3 100 241 79 
3 45 72 71 
3 0 169 97 
3 45 137 72 
3 285 100 186 
3 137 45 58 
3 199 378 305 
3 208 137 58 
3 356 331 357 
3 305 380 202 
3 378 349 305 
3 169 92 315 
3 192 262 75 
3 361 192 75 
3 291 202 237 
3 258 293 207 
3 272 79 377 
3 324 186 268 
3 268 186 88 
3 90 389 388 
3 169 315 291 
3 97 169 291 
3 79 320 377 
3 4 383 169 
3 379 317 368 
3 200 202 315 
3 92 239 315 
3 306 353 321 
3 370 389 236 
3 48 222 79 
3 206 361 185 
3 361 206 185 
3 92 231 239 
3 356 321 331 
3 190 171 185 
3 249 190 185 
3 206 198 361 
3 198 192 361 
3 90 388 383 
3 305 124 237 
3 327 311 326 
3 4 90 383 
3 190 249 1 
3 206 361 185 
3 171 206 185 
3 202 305 237 
3 108 29 146 
3 308 310 309 
3 334 100 117 
3 90 82 389 
3 79 336 186 
3 224 53 335 
3 354 381 318 
3 231 268 239 
3 186 272 209 
3 88 186 209 
3 200 199 202 
3 327 326 319 
3 308 327 319 
3 309 311 327 
3 435 443 446 
3 199 305 202 
3 97 171 190 
3 171 97 206 
3 97 291 206 
3 237 198 206 
3 291 237 206 
3 406 124 305 
3 399 402 400 
3 373 374 407 
3 300 304 311 
3 304 313 311 
3 407 213 113 
3 208 111 256 
3 403 402 399 
3 363 403 399 
3 29 128 32 
3 403 375 402 
3 363 399 359 
3 194 192 198 
3 193 86 75 
3 400 213 407 
3 272 336 79 
3 79 281 320 
3 300 302 297 
3 294 298 304 
3 299 322 314 
3 307 299 314 
3 322 384 314 
3 377 281 325 
3 387 377 325 
3 281 377 320 
3 355 358 331 
3 101 102 262 
3 363 375 403 
3 197 204 75 
3 102 101 262 
3 299 384 322 
3 262 163 193 
3 318 343 352 
3 299 322 384 
3 299 393 322 
3 322 393 384 
3 137 208 256 
3 86 197 75 
3 186 79 336 
3 222 264 281 
3 185 361 75 
3 365 360 366 
3 386 392 393 
3 299 386 393 
3 393 392 384 
3 392 394 384 
3 394 398 387 
3 384 394 387 
3 404 377 387 
3 398 404 387 
3 404 209 377 
3 209 272 377 
3 399 400 358 
3 359 399 358 
3 101 163 262 
3 262 193 75 
3 102 101 375 
3 204 72 249 
3 31 148 134 
3 424 437 427 
3 359 358 355 
3 400 402 213 
3 204 249 185 
3 351 317 386 
3 390 351 386 
3 317 392 386 
3 392 317 394 
3 317 395 394 
3 395 397 398 
3 394 395 398 
3 397 405 404 
3 398 397 404 
3 199 209 404 
3 405 199 404 
3 268 88 239 
3 75 204 185 
3 318 352 354 
3 243 18 227 
3 397 385 405 
3 385 199 405 
3 262 192 194 
3 101 262 194 
3 18 131 96 
3 349 378 199 
3 385 349 199 
3 250 158 167 
3 293 250 167 
3 379 362 395 
3 317 379 395 
3 395 362 397 
3 362 365 397 
3 365 401 397 
3 401 349 385 
3 397 401 385 
3 375 194 213 
3 213 194 113 
3 375 101 194 
3 354 352 318 
3 342 343 318 
3 375 213 402 
3 451 261 443 
3 32 250 293 
3 258 32 293 
3 113 194 198 
3 351 409 368 
3 355 331 354 
3 339 340 344 
3 372 375 363 
3 339 344 338 
3 368 321 379 
3 360 362 379 
3 360 365 362 
3 366 365 362 
3 365 366 362 
3 406 349 401 
3 365 406 401 
3 108 258 52 
3 258 108 32 
3 305 349 406 
3 297 302 301 
3 52 251 108 
3 321 360 379 
3 384 325 314 
3 373 406 365 
3 366 373 365 
3 373 349 406 
3 349 373 406 
3 373 124 406 
3 106 105 323 
3 439 434 431 
3 18 243 229 
3 83 57 260 
3 447 83 260 
3 418 425 429 
3 439 441 434 
3 441 442 434 
3 257 106 323 
3 391 425 418 
3 435 437 444 
3 257 323 452 
3 391 418 294 
3 296 440 441 
3 440 296 441 
3 131 59 138 
3 294 413 295 
3 95 30 20 
3 428 432 434 
3 422 424 415 
3 294 420 413 
3 425 296 429 
3 414 422 415 
3 425 121 296 
3 296 440 431 
3 452 323 451 
3 296 83 447 
3 431 441 439 
3 445 444 436 
3 429 296 431 
3 450 56 106 
3 301 121 433 
3 106 257 452 
3 414 415 411 
3 390 413 386 
3 18 229 59 
3 59 229 46 
3 386 414 411 
3 301 433 425 
3 248 256 196 
3 411 416 412 
3 300 391 304 
3 422 436 424 
3 46 229 151 
3 127 121 301 
3 412 419 356 
3 295 413 390 
3 351 390 411 
3 442 56 125 
3 409 351 412 
3 247 243 13 
3 330 172 155 
3 451 118 67 
3 364 44 290 
3 290 44 166 
3 166 210 265 
3 265 210 284 
3 442 436 434 
3 229 99 151 
3 364 449 44 
3 449 283 44 
3 418 420 294 
3 363 449 364 
3 212 284 210 
3 44 210 166 
3 420 428 422 
3 44 212 210 
3 247 229 243 
3 229 247 99 
3 127 266 178 
3 56 450 260 
3 413 420 421 
3 359 168 363 
3 363 168 449 
3 415 424 416 
3 296 447 260 
3 212 220 284 
3 436 437 424 
3 351 411 412 
3 440 441 431 
3 283 212 44 
3 451 67 261 
3 168 173 449 
3 449 173 283 
3 426 342 318 
3 381 426 318 
3 212 348 220 
3 266 127 301 
3 426 338 342 
3 149 283 173 
3 149 212 283 
3 438 338 426 
3 433 121 425 
3 149 183 212 
3 414 421 422 
3 172 170 155 
3 368 317 351 
3 350 381 376 
3 67 259 261 
3 183 112 212 
3 212 112 348 
3 348 112 220 
3 432 431 434 
3 448 339 338 
3 438 448 338 
3 420 431 432 
3 112 221 220 
3 428 420 432 
3 431 432 434 
3 417 381 350 
3 422 428 434 
3 423 426 381 
3 417 423 381 
3 56 260 57 
3 451 105 118 
3 296 260 440 
3 386 413 414 
3 306 350 316 
3 448 341 339 
3 415 416 411 
3 436 444 437 
3 259 341 448 
3 297 425 391 
3 442 125 445 
3 450 106 452 
3 410 350 306 
3 341 259 223 
3 355 417 350 
3 410 355 350 
3 259 64 223 
3 410 356 350 
3 356 410 350 
3 356 355 410 
3 355 419 417 
3 247 13 99 
3 195 112 183 
3 180 112 195 
3 419 355 356 
3 301 425 297 
3 390 386 411 
3 446 259 448 
3 446 261 259 
3 434 436 422 
3 421 420 422 
3 409 410 306 
3 368 409 306 
3 412 356 410 
3 409 412 410 
3 442 445 436 
3 435 423 430 
